<svg width="318" height="326" viewBox="0 0 318 326" fill="none" xmlns="http://www.w3.org/2000/svg">
<g clip-path="url(#clip0_41_16001)">
<g clip-path="url(#clip1_41_16001)">
<path d="M158.781 280.919C224.039 280.919 276.941 228.017 276.941 162.759C276.941 97.5014 224.039 44.5993 158.781 44.5993C93.5231 44.5993 40.6211 97.5014 40.6211 162.759C40.6211 228.017 93.5231 280.919 158.781 280.919Z" stroke="#D7CDBA" stroke-width="1.31" stroke-miterlimit="10"/>
<path fill-rule="evenodd" clip-rule="evenodd" d="M315.652 162.669C315.652 249.306 245.419 319.539 158.782 319.539C72.1447 319.539 1.91162 249.306 1.91162 162.669C1.91162 76.0325 72.1447 5.79938 158.782 5.79938C245.419 5.79938 315.652 76.0325 315.652 162.669ZM276.942 162.759C276.942 228.017 224.04 280.919 158.782 280.919C93.5236 280.919 40.6216 228.017 40.6216 162.759C40.6216 97.5014 93.5236 44.5993 158.782 44.5993C224.04 44.5993 276.942 97.5014 276.942 162.759Z" fill="#222222"/>
<path d="M158.782 320.409C245.899 320.409 316.522 249.787 316.522 162.669H314.782C314.782 248.826 244.938 318.669 158.782 318.669V320.409ZM1.04162 162.669C1.04162 249.787 71.6642 320.409 158.782 320.409V318.669C72.6252 318.669 2.78162 248.826 2.78162 162.669H1.04162ZM158.782 4.92938C71.6642 4.92938 1.04162 75.552 1.04162 162.669H2.78162C2.78162 76.513 72.6252 6.66938 158.782 6.66938V4.92938ZM316.522 162.669C316.522 75.552 245.899 4.92938 158.782 4.92938V6.66938C244.938 6.66938 314.782 76.513 314.782 162.669H316.522ZM158.782 281.789C224.52 281.789 277.812 228.498 277.812 162.759H276.072C276.072 227.537 223.559 280.049 158.782 280.049V281.789ZM39.7516 162.759C39.7516 228.498 93.0431 281.789 158.782 281.789V280.049C94.0041 280.049 41.4916 227.537 41.4916 162.759H39.7516ZM158.782 43.7293C93.0431 43.7293 39.7516 97.0209 39.7516 162.759H41.4916C41.4916 97.9819 94.0041 45.4693 158.782 45.4693V43.7293ZM277.812 162.759C277.812 97.0209 224.52 43.7293 158.782 43.7293V45.4693C223.559 45.4693 276.072 97.9819 276.072 162.759H277.812Z" fill="#D7CDBA"/>
<path d="M118.459 287.834L118.491 287.7L122.821 288.75L122.788 288.884C122.387 288.786 121.153 288.742 121.334 289.861L122.045 294.504L131.399 296.772L134.089 293.039C134.789 292.02 133.692 291.528 133.264 291.424L133.297 291.29L136.504 292.068L136.472 292.202C136.071 292.104 134.976 292.065 134.249 293.078L124.065 307.388L124.085 307.421C124.253 308.707 125.102 308.941 125.851 309.123L125.812 309.283L123.005 308.603L120.004 289.51C119.809 288.331 118.833 287.925 118.459 287.834ZM131.313 296.893L122.093 294.657L124.01 307.148L131.313 296.893Z" fill="#D7CDBA"/>
<path d="M109.923 303.642L107.432 304.474L107.28 304.41L109.417 299.282C107.783 299.699 105.964 299.56 104.164 298.803C99.7787 296.959 97.9513 292.551 99.7918 288.134C101.622 283.742 106.03 281.957 110.416 283.801C112.215 284.558 113.59 285.763 114.452 287.199L114.875 286.184L117.435 287.261L117.371 287.413C116.991 287.253 115.867 287.019 115.423 288.085L109.679 301.869C109.224 302.96 109.277 303.191 109.987 303.49L109.923 303.642ZM110.363 283.928C106.662 282.371 102.807 284.33 101.009 288.645C99.2103 292.961 100.527 297.094 104.228 298.651C106.256 299.504 108.066 299.52 109.501 299.079L114.367 287.402C113.687 286.102 112.365 284.77 110.363 283.928Z" fill="#D7CDBA"/>
<path d="M84.9637 289.353C80.9637 286.778 79.9111 282.11 82.466 278.064C85.0063 274.041 89.6416 273.036 93.6416 275.611C97.6416 278.187 98.6711 282.84 96.1308 286.863C93.5759 290.908 88.9637 291.929 84.9637 289.353ZM95.0441 286.163C97.5403 282.21 96.9208 277.886 93.5682 275.728C90.1925 273.554 86.0721 274.826 83.5759 278.778C81.0797 282.731 81.6761 287.04 85.0518 289.214C88.4044 291.372 92.5479 290.116 95.0441 286.163Z" fill="#D7CDBA"/>
<path d="M74.2849 262.403L74.2674 262.424L74.3717 262.513L72.9996 264.162C74.7775 263.659 77.171 264.265 78.9444 265.788C81.7819 268.224 82.5886 271.381 80.9174 273.39L74.6726 280.893C73.9338 281.781 74.6485 282.685 74.9614 282.954L74.8735 283.059L71.5979 280.247L71.6859 280.141C71.9988 280.41 72.995 280.975 73.7338 280.087L79.6267 273.006C81.4386 270.829 81.0152 267.856 78.6159 265.795C76.9886 264.398 74.6511 263.768 72.7885 264.416L65.5762 273.082C64.8374 273.97 65.5521 274.874 65.8859 275.16L65.7979 275.266L62.5015 272.435L62.5895 272.33C62.9233 272.616 63.9194 273.182 64.6582 272.294L71.378 264.219C72.1168 263.331 72.1323 263.055 71.5481 262.553L71.6361 262.448L74.2849 262.403Z" fill="#D7CDBA"/>
<path d="M59.6135 268.453C58.7765 269.249 59.092 269.935 59.5851 270.49L59.4855 270.585L56.0515 270.361L55.9602 270.258L57.7138 268.591L54.481 264.952L54.6404 264.8L57.8733 268.439L65.665 261.029C67.7175 259.077 67.6413 256.798 66.1071 255.071C64.9929 253.817 63.3607 253.056 61.5789 253.575L61.5673 253.396C63.1747 252.929 65.3151 253.435 66.5936 254.874C68.5662 257.094 68.5809 259.925 66.6878 261.725L59.6135 268.453Z" fill="#D7CDBA"/>
<path d="M36.9868 245.232C37.8899 246.932 39.7939 248.23 41.7044 248.251L51.6844 243.004C52.7067 242.467 52.3725 241.369 52.179 241.004L52.3007 240.94L54.3261 244.753L54.2044 244.817C54.0109 244.453 53.2873 243.56 52.2649 244.097L42.9909 248.973C41.9685 249.51 41.8383 249.734 42.1995 250.414L42.0535 250.491L39.5911 249.548L39.5137 249.402L41.461 248.379C39.6235 248.32 37.6694 246.986 36.6889 245.14C35.4117 242.736 35.465 240.315 36.7605 238.826C34.8599 238.707 32.6897 237.611 31.5544 235.474C29.9676 232.487 30.4746 229.455 32.7871 228.239L41.4282 223.697C42.4506 223.159 42.1164 222.061 41.91 221.673L42.0317 221.609L44.07 225.446L43.9483 225.51C43.7419 225.121 43.0182 224.228 41.9959 224.765L33.8415 229.052C31.3344 230.37 30.4977 233.016 31.8523 235.566C32.8844 237.509 34.9673 238.558 36.8922 238.664C37.1685 238.363 37.5321 238.11 37.9216 237.905L46.5628 233.363C47.5851 232.825 47.2509 231.727 47.0445 231.339L47.1662 231.275L49.2045 235.112L49.0828 235.176C48.8764 234.787 48.1527 233.894 47.1304 234.431L38.976 238.718C36.4689 240.036 35.6323 242.682 36.9868 245.232Z" fill="#D7CDBA"/>
<path d="M22.6482 217.716C21.839 214.973 22.9466 211.731 24.5179 211.228C24.8845 211.11 25.3707 211.301 25.5575 211.934L28.6075 222.273C29.701 222.385 30.8631 222.244 32.0678 221.858C36.5199 220.431 38.7776 216.619 37.4316 212.056C36.4824 208.838 33.5283 207.764 31.9331 207.409L31.9912 207.217C33.798 207.706 36.912 208.643 38.1258 212.757C39.4718 217.32 37.226 221.562 32.6954 223.013C28.1385 224.473 23.9943 222.279 22.6482 217.716ZM28.461 222.263L25.8 213.242C25.5588 212.424 24.7894 212.44 24.3966 212.566C23.0348 213.002 22.1284 215.371 22.8053 217.666C23.599 220.356 25.7743 221.997 28.461 222.263Z" fill="#D7CDBA"/>
<path d="M27.6626 168.201L27.8001 168.201L27.8518 172.655L27.7143 172.656C27.7095 172.243 27.448 171.034 26.4081 171.477L22.0839 173.275L22.1957 182.899L26.4783 184.621C27.6384 185.058 27.8447 183.875 27.8396 183.435L27.9771 183.435L28.0154 186.734L27.8779 186.735C27.8731 186.322 27.6407 185.25 26.4802 184.786L10.0971 178.311L10.0699 178.338C8.86532 178.809 8.84804 179.689 8.85698 180.459L8.69198 180.459L8.65844 177.572L26.4196 170.102C27.5142 169.631 27.667 168.586 27.6626 168.201ZM22.0576 182.845L21.9473 173.358L10.3158 178.2L22.0576 182.845Z" fill="#D7CDBA"/>
<path d="M9.8599 162.984L8.29651 160.876L8.31016 160.711L13.8484 161.143C12.9455 159.721 12.5131 157.95 12.6747 156.004C13.0684 151.263 16.6932 148.153 21.4637 148.524C26.2068 148.894 29.2717 152.526 28.878 157.267C28.7164 159.213 27.9973 160.895 26.8988 162.161L27.9954 162.246L27.7656 165.014L27.6011 165.001C27.6352 164.59 27.5092 163.449 26.3577 163.36L11.4703 162.199C10.2914 162.107 10.0881 162.229 10.0244 162.996L9.8599 162.984ZM28.7409 157.256C29.0732 153.255 26.0153 150.203 21.3544 149.84C16.6936 149.477 13.1714 152.015 12.8392 156.017C12.6571 158.209 13.2037 159.934 14.0677 161.16L26.6794 162.143C27.7049 161.092 28.5611 159.421 28.7409 157.256Z" fill="#D7CDBA"/>
<path d="M14.5685 136.068C15.3695 131.379 19.2437 128.623 23.9569 129.449C28.643 130.271 31.3781 134.184 30.577 138.873C29.776 143.563 25.9065 146.291 21.2204 145.47C16.5072 144.644 13.7674 140.758 14.5685 136.068ZM21.438 144.196C26.0428 145.003 29.7702 142.78 30.4416 138.85C31.1176 134.892 28.3394 131.557 23.7346 130.751C19.1298 129.944 15.407 132.139 14.731 136.097C14.0596 140.027 16.8332 143.389 21.438 144.196Z" fill="#D7CDBA"/>
<path d="M36.6105 115.986L36.5845 115.977L36.5397 116.107L34.5101 115.413C35.6272 116.9 35.9431 119.362 35.1824 121.572C33.9653 125.108 31.3367 127 28.8647 126.154L19.6273 122.996C18.5344 122.622 17.9593 123.617 17.8251 124.007L17.695 123.963L19.1 119.88L19.2301 119.925C19.0959 120.315 18.9371 121.452 20.03 121.826L28.7471 124.806C31.4272 125.723 34.0256 124.257 35.0548 121.267C35.7529 119.239 35.48 116.82 34.1979 115.307L23.5293 111.659C22.4364 111.285 21.8613 112.28 21.7181 112.696L21.588 112.652L23.002 108.543L23.1321 108.588C22.9889 109.004 22.8301 110.141 23.923 110.515L33.863 113.913C34.9559 114.287 35.2178 114.202 35.4684 113.474L35.5985 113.518L36.6105 115.986Z" fill="#D7CDBA"/>
<path d="M26.3749 104.552C25.3356 104.048 24.8188 104.592 24.4877 105.257L24.364 105.197L23.3149 101.876L23.3762 101.753L25.5536 102.809L27.7244 98.4528L27.9223 98.5488L25.7515 102.905L35.4261 107.598C37.9746 108.834 40.0464 107.944 41.0766 105.876C41.8247 104.375 41.9295 102.562 40.8003 101.066L40.9606 100.991C41.9781 102.341 42.2946 104.542 41.4361 106.265C40.1116 108.923 37.5092 109.953 35.1586 108.813L26.3749 104.552Z" fill="#D7CDBA"/>
<path d="M40.926 75.6097C39.6708 77.0692 39.1561 79.3126 39.8348 81.0963L48.373 88.46C49.2476 89.2143 50.1494 88.5031 50.4184 88.1904L50.5225 88.2802L47.7074 91.5537L47.6032 91.4639C47.8722 91.1511 48.4408 90.1526 47.5661 89.3982L39.6318 82.5554C38.7571 81.8011 38.5009 81.7616 37.9988 82.3454L37.8739 82.2377L37.8529 79.6049L37.9605 79.4798L39.6265 80.9167C39.0104 79.1869 39.5401 76.8839 40.9028 75.2992C42.678 73.235 44.9541 72.4019 46.8156 73.0631C46.2324 71.2528 46.4614 68.8356 48.0393 67.0008C50.2447 64.4362 53.2567 63.8018 55.235 65.508L62.6279 71.8839C63.5026 72.6382 64.4043 71.927 64.6912 71.5934L64.7953 71.6832L61.9623 74.9776L61.8582 74.8878C62.145 74.5542 62.7136 73.5556 61.839 72.8013L54.8626 66.7846C52.7176 64.9347 49.9451 65.122 48.0624 67.3113C46.628 68.9793 46.4112 71.298 47.0152 73.1262C47.3964 73.2734 47.7654 73.5191 48.0986 73.8065L55.4915 80.1824C56.3661 80.9367 57.2679 80.2255 57.5548 79.8919L57.6589 79.9817L54.8259 83.2761L54.7217 83.1863C55.0086 82.8527 55.5772 81.8541 54.7025 81.0998L47.7262 75.0831C45.5812 73.2332 42.8087 73.4204 40.926 75.6097Z" fill="#D7CDBA"/>
<path d="M62.069 52.6134C64.3364 50.8703 67.765 50.7309 68.8054 52.0116C69.0481 52.3104 69.0466 52.8317 68.5234 53.234L59.9771 59.8044C60.2699 60.8624 60.8237 61.8929 61.6213 62.8748C64.5691 66.5034 68.9479 67.2286 72.7196 64.3289C75.3794 62.284 75.3102 59.147 75.0626 57.5342L75.2628 57.519C75.4618 59.3772 75.7177 62.6133 72.3167 65.2281C68.545 68.1278 63.7698 67.5686 60.7701 63.876C57.753 60.1621 58.2974 55.5131 62.069 52.6134ZM59.9341 59.6642L67.3902 53.9318C68.066 53.4122 67.7723 52.7018 67.5122 52.3817C66.6105 51.2717 64.0698 51.2833 62.1731 52.7415C59.9493 54.4512 59.2064 57.0682 59.9341 59.6642Z" fill="#D7CDBA"/>
<path d="M111.111 41.0099L111.16 41.1385L106.948 42.5899L106.9 42.4613C107.289 42.3269 108.346 41.7012 107.56 40.8672L104.332 37.3857L95.2325 40.5215L95.103 45.0726C95.0958 46.2962 96.2917 46.1167 96.7077 45.9733L96.7563 46.1019L93.6364 47.1771L93.5877 47.0485C93.9777 46.9141 94.9138 46.3589 94.9471 45.1263L95.3376 27.7509L95.3019 27.7341C94.4317 26.7547 93.59 27.0157 92.862 27.2666L92.8036 27.1122L95.5335 26.1715L108.87 40.4449C109.701 41.3214 110.747 41.1353 111.111 41.0099ZM95.2358 40.375L104.206 37.284L95.5195 27.9208L95.2358 40.375Z" fill="#D7CDBA"/>
<path d="M108.106 20.8087L109.704 18.7835L109.867 18.756L111.003 24.1936C112.124 22.9735 113.714 22.12 115.639 21.7951C120.33 21.0037 124.352 23.7251 125.33 28.409C126.303 33.066 123.654 36.9128 118.963 37.7042C117.037 38.029 115.211 37.7519 113.68 37.007L113.905 38.0838L111.166 38.5458L111.132 38.3843C111.539 38.3157 112.606 37.9128 112.369 36.7822L109.316 22.1652C109.074 21.0077 108.899 20.8422 108.14 20.9702L108.106 20.8087ZM118.934 37.5696C122.894 36.9017 124.985 33.2048 124.029 28.6286C123.073 24.0524 119.632 21.2887 115.673 21.9567C113.504 22.3226 111.99 23.2747 111.048 24.409L113.635 36.7917C114.938 37.5193 116.792 37.931 118.934 37.5696Z" fill="#D7CDBA"/>
<path d="M135.837 16.8801C140.592 16.7071 144.185 19.9323 144.49 24.7076C144.793 29.4555 141.627 32.9266 136.872 33.0996C132.118 33.2726 128.551 30.0464 128.248 25.2986C127.944 20.5233 131.083 17.0531 135.837 16.8801ZM129.54 25.2516C129.838 29.9171 132.879 33.1074 136.864 32.9624C140.876 32.8164 143.469 29.4211 143.171 24.7556C142.873 20.0901 139.86 16.8988 135.848 17.0448C131.863 17.1898 129.242 20.586 129.54 25.2516Z" fill="#D7CDBA"/>
<path d="M161.965 31.8188L161.965 31.7913L161.828 31.7909L161.837 29.6459C160.786 31.1832 158.553 32.2774 156.216 32.2714C152.476 32.2617 149.844 30.3848 149.855 27.7724L149.898 18.01C149.904 16.855 148.777 16.6321 148.365 16.631L148.365 16.4935L152.683 16.5047L152.682 16.6422C152.27 16.6411 151.141 16.8582 151.136 18.0132L151.095 27.2256C151.083 30.0581 153.302 32.0438 156.464 32.052C158.609 32.0576 160.814 31.0183 161.839 29.3159L161.888 18.041C161.894 16.886 160.767 16.6631 160.327 16.662L160.328 16.5245L164.673 16.5357L164.672 16.6732C164.232 16.6721 163.104 16.8892 163.098 18.0442L163.052 28.5491C163.047 29.7041 163.211 29.9245 163.981 29.9265L163.98 30.064L161.965 31.8188Z" fill="#D7CDBA"/>
<path d="M169.086 18.4372C169.175 17.2856 168.479 17.0115 167.739 16.9545L167.749 16.8174L170.458 14.5985L170.595 14.6091L170.409 17.0219L175.262 17.395L175.245 17.6143L170.392 17.2413L169.566 27.9619C169.348 30.7861 170.936 32.3699 173.239 32.547C174.912 32.6756 176.639 32.0913 177.618 30.4841L177.747 30.6043C176.863 32.0533 174.929 33.1733 173.009 33.0258C170.048 32.7981 168.135 30.7756 168.336 28.1708L169.086 18.4372Z" fill="#D7CDBA"/>
<path d="M201.516 22.5952C199.701 21.953 197.424 22.285 196.008 23.5633L192.238 34.1895C191.852 35.2781 192.841 35.8615 193.23 35.9991L193.184 36.1287L189.114 34.6885L189.16 34.5589C189.549 34.6965 190.685 34.8653 191.072 33.7767L194.574 23.9021C194.96 22.8135 194.904 22.5603 194.178 22.3035L194.234 22.148L196.679 21.1756L196.835 21.2307L196.099 23.3041C197.488 22.1036 199.826 21.764 201.797 22.4612C204.363 23.3694 205.964 25.1902 206.022 27.1652C207.498 25.9663 209.833 25.3049 212.115 26.1122C215.303 27.2405 216.986 29.8193 216.112 32.2815L212.849 41.4823C212.462 42.5709 213.452 43.1543 213.867 43.3011L213.821 43.4307L209.724 41.9813L209.77 41.8517C210.185 41.9985 211.322 42.1672 211.708 41.0787L214.788 32.3962C215.735 29.7267 214.556 27.2093 211.834 26.2461C209.76 25.5123 207.52 26.1493 206.036 27.3741C206.036 27.7828 205.941 28.2158 205.794 28.6305L202.53 37.8313C202.144 38.9199 203.134 39.5033 203.548 39.6501L203.502 39.7797L199.406 38.3303L199.452 38.2007C199.867 38.3475 201.004 38.5163 201.39 37.4277L204.47 28.7453C205.416 26.0757 204.238 23.5584 201.516 22.5952Z" fill="#D7CDBA"/>
<path d="M230.389 34.8469C232.855 36.2966 234.238 39.4068 233.415 40.837C233.223 41.1707 232.733 41.361 232.164 41.0264L222.871 35.562C221.985 36.2209 221.219 37.1105 220.588 38.207C218.257 42.2592 219.175 46.5634 223.276 48.975C226.168 50.6756 229.089 49.4585 230.513 48.6372L230.601 48.8161C228.928 49.6829 225.982 51.1087 222.284 48.9341C218.183 46.5225 216.964 41.9139 219.337 37.7902C221.723 33.6427 226.288 32.4353 230.389 34.8469ZM222.987 35.4707L231.094 40.2381C231.829 40.6703 232.389 40.1382 232.595 39.7806C233.308 38.5412 232.369 36.2027 230.307 34.9899C227.889 33.5681 225.16 33.8453 222.987 35.4707Z" fill="#D7CDBA"/>
<path d="M258.206 77.6562L258.104 77.7484L255.177 74.3899L255.279 74.2977C255.55 74.6087 256.528 75.355 257.015 74.3228L259.065 70.0628L252.741 62.8068L248.439 64.3579C247.293 64.8004 247.907 65.8393 248.196 66.171L248.094 66.2631L245.926 63.7754L246.028 63.6832C246.299 63.9942 247.167 64.6552 248.331 64.2335L264.715 58.216L264.717 58.1769C265.308 57.0134 264.75 56.3316 264.244 55.7511L264.367 55.6405L266.264 57.8173L257.898 75.3778C257.389 76.4676 257.953 77.3659 258.206 77.6562ZM252.879 62.7561L259.113 69.9085L264.624 58.4464L252.879 62.7561Z" fill="#D7CDBA"/>
<path d="M275.022 68.3084L277.518 69.0344L277.606 69.1743L272.966 72.2297C274.53 72.8126 275.931 73.964 276.966 75.6196C279.488 79.6536 278.479 84.367 274.483 86.9989C270.51 89.6157 265.915 88.593 263.393 84.559C262.358 82.9034 261.922 81.1167 262.034 79.4296L261.116 80.0347L259.643 77.6796L259.781 77.5888C260 77.9386 260.781 78.7736 261.746 78.1383L274.216 69.925C275.204 69.2746 275.292 69.0521 274.884 68.3992L275.022 68.3084ZM263.508 84.4833C265.636 87.8878 269.879 88.4511 273.784 85.8797C277.688 83.3083 278.957 79.1147 276.828 75.7103C275.662 73.8449 274.199 72.8007 272.783 72.3507L262.218 79.3086C262.035 80.7789 262.356 82.6412 263.508 84.4833Z" fill="#D7CDBA"/>
<path d="M288.236 93.197C290.113 97.5687 288.391 102.062 284.033 104.037C279.699 106.001 275.309 104.277 273.433 99.9056C271.556 95.5339 273.288 91.0661 277.622 89.1023C281.98 87.1272 286.359 88.8253 288.236 93.197ZM278.131 90.29C273.873 92.2197 271.985 96.1847 273.558 99.8489C275.142 103.538 279.254 104.754 283.512 102.824C287.77 100.894 289.669 96.9546 288.086 93.2651C286.513 89.601 282.39 88.3603 278.131 90.29Z" fill="#D7CDBA"/>
<path d="M282.884 121.12L282.91 121.113L282.876 120.979L284.943 120.407C283.198 119.806 281.58 117.943 280.996 115.68C280.06 112.059 281.202 109.004 283.72 108.307L293.129 105.702C294.242 105.394 294.172 104.243 294.068 103.844L294.201 103.807L295.281 107.988L295.148 108.024C295.045 107.625 294.551 106.592 293.438 106.9L284.56 109.358C281.83 110.114 280.479 112.799 281.27 115.861C281.806 117.938 283.364 119.789 285.261 120.319L296.128 117.311C297.241 117.003 297.171 115.852 297.061 115.426L297.193 115.389L298.28 119.596L298.147 119.633C298.037 119.207 297.543 118.174 296.43 118.482L286.306 121.285C285.193 121.593 285.022 121.812 285.215 122.557L285.082 122.594L282.884 121.12Z" fill="#D7CDBA"/>
<path d="M299.324 124.079C300.468 123.919 300.601 123.179 300.512 122.442L300.648 122.423L303.346 124.601L303.363 124.738L300.966 125.072L301.544 129.904L301.327 129.935L300.748 125.102L290.098 126.585C287.293 126.975 286.052 128.869 286.326 131.163C286.526 132.828 287.434 134.395 289.196 135.01L289.104 135.162C287.514 134.606 286.042 132.951 285.813 131.04C285.46 128.091 287.067 125.785 289.654 125.425L299.324 124.079Z" fill="#D7CDBA"/>
<path d="M305.163 156.726C305.225 154.802 304.218 152.734 302.57 151.775L291.3 151.425C290.146 151.39 289.89 152.51 289.877 152.922L289.739 152.918L289.877 148.602L290.015 148.607C290.002 149.019 290.185 150.153 291.34 150.189L301.812 150.514C302.967 150.55 303.191 150.419 303.216 149.649L303.381 149.654L305.049 151.687L305.044 151.852L302.845 151.784C304.41 152.74 305.443 154.863 305.376 156.952C305.289 159.674 304.04 161.753 302.175 162.411C303.765 163.451 305.104 165.473 305.027 167.892C304.919 171.273 302.972 173.661 300.36 173.58L290.603 173.277C289.448 173.241 289.192 174.361 289.178 174.801L289.041 174.797L289.179 170.454L289.317 170.458C289.303 170.898 289.487 172.032 290.641 172.067L299.849 172.353C302.68 172.441 304.722 170.551 304.814 167.665C304.884 165.466 303.598 163.528 301.98 162.487C301.591 162.613 301.149 162.654 300.71 162.64L290.952 162.337C289.797 162.302 289.542 163.422 289.528 163.861L289.39 163.857L289.529 159.514L289.666 159.519C289.652 159.958 289.836 161.092 290.991 161.128L300.199 161.414C303.03 161.502 305.071 159.612 305.163 156.726Z" fill="#D7CDBA"/>
<path d="M303.649 187.109C303.248 189.94 300.903 192.371 299.271 192.128C298.891 192.071 298.529 191.683 298.621 191.03L300.134 180.357C299.19 179.771 298.078 179.383 296.827 179.196C292.203 178.507 288.581 180.942 287.913 185.652C287.442 188.974 289.674 191.253 290.973 192.281L290.841 192.428C289.406 191.185 286.972 188.96 287.574 184.712C288.242 180.002 292.031 177.175 296.736 177.876C301.469 178.582 304.317 182.398 303.649 187.109ZM300.263 180.431L298.943 189.743C298.823 190.587 299.527 190.915 299.935 190.976C301.349 191.186 303.15 189.453 303.486 187.084C303.879 184.307 302.587 181.862 300.263 180.431Z" fill="#D7CDBA"/>
<path d="M272.262 228.441L272.14 228.378L274.196 224.426L274.318 224.489C274.128 224.855 273.79 226.041 274.923 226.126L279.617 226.519L284.06 217.98L281.064 214.503C280.239 213.587 279.497 214.536 279.294 214.926L279.172 214.863L280.695 211.936L280.817 211.998C280.627 212.364 280.328 213.416 281.14 214.357L292.652 227.562L292.689 227.55C293.982 227.686 294.413 226.918 294.768 226.235L294.915 226.31L293.582 228.872L274.264 227.334C273.069 227.247 272.44 228.099 272.262 228.441ZM284.157 218.092L279.778 226.508L292.405 227.56L284.157 218.092Z" fill="#D7CDBA"/>
<path d="M286.294 240.534L286.524 243.137L286.426 243.27L281.914 240.029C281.939 241.706 281.378 243.436 280.217 245.006C277.388 248.831 272.652 249.593 268.765 246.801C264.901 244.026 264.188 239.349 267.017 235.524C268.178 233.954 269.677 232.898 271.283 232.392L270.389 231.751L272.041 229.518L272.175 229.614C271.929 229.946 271.438 230.98 272.376 231.654L284.504 240.366C285.464 241.056 285.702 241.057 286.16 240.438L286.294 240.534ZM267.129 235.604C264.741 238.832 265.753 243.013 269.55 245.74C273.347 248.467 277.696 248.137 280.083 244.909C281.391 243.141 281.83 241.391 281.735 239.901L271.461 232.521C270.031 232.882 268.42 233.858 267.129 235.604Z" fill="#D7CDBA"/>
<path d="M267.305 261.516C263.917 264.856 259.112 264.881 255.696 261.531C252.3 258.2 252.314 253.476 255.702 250.136C259.09 246.796 263.874 246.79 267.271 250.121C270.687 253.472 270.693 258.177 267.305 261.516ZM266.35 251.029C263.013 247.755 258.64 247.433 255.8 250.232C252.94 253.051 253.299 257.331 256.636 260.604C259.974 263.878 264.328 264.219 267.187 261.401C270.027 258.602 269.688 254.302 266.35 251.029Z" fill="#D7CDBA"/>
<path d="M238.636 266.274L238.652 266.296L238.764 266.216L240.053 267.931C239.978 266.093 241.131 263.92 243.033 262.562C246.078 260.39 249.35 260.351 250.92 262.44L256.785 270.244C257.479 271.167 258.529 270.688 258.865 270.449L258.947 270.559L255.433 273.066L255.35 272.956C255.686 272.717 256.472 271.886 255.778 270.963L250.243 263.598C248.541 261.334 245.538 261.045 242.964 262.882C241.218 264.128 240.055 266.241 240.251 268.195L247.025 277.208C247.719 278.132 248.769 277.653 249.127 277.397L249.21 277.507L245.673 280.031L245.59 279.921C245.948 279.665 246.734 278.834 246.04 277.911L239.729 269.513C239.035 268.59 238.768 268.51 238.142 268.957L238.059 268.847L238.636 266.274Z" fill="#D7CDBA"/>
<path d="M241.433 282.337C242.014 283.336 242.76 283.199 243.421 282.86L243.49 282.979L242.456 286.228L242.333 286.29L241.117 284.198L236.788 286.423L236.677 286.232L241.007 284.008L235.604 274.711C234.181 272.262 231.932 271.781 229.877 272.837C228.385 273.604 227.252 274.989 227.337 276.829L227.159 276.796C227.084 275.137 228.087 273.201 229.8 272.321C232.441 270.964 235.215 271.638 236.528 273.897L241.433 282.337Z" fill="#D7CDBA"/>
<path d="M214.097 299.981C215.962 299.508 217.664 297.969 218.121 296.123L215.275 285.213C214.984 284.095 213.835 284.16 213.435 284.261L213.401 284.128L217.585 283.066L217.62 283.199C217.22 283.3 216.183 283.791 216.475 284.908L219.119 295.047C219.41 296.164 219.599 296.343 220.345 296.154L220.387 296.313L218.905 298.477L218.745 298.518L218.19 296.389C217.713 298.155 215.965 299.734 213.939 300.248C211.3 300.918 208.949 300.295 207.791 298.688C207.241 300.501 205.676 302.346 203.33 302.941C200.052 303.773 197.208 302.566 196.548 300.038L194.085 290.592C193.793 289.474 192.645 289.538 192.218 289.647L192.184 289.514L196.395 288.445L196.43 288.578C196.003 288.686 194.966 289.176 195.257 290.294L197.582 299.208C198.297 301.949 200.689 303.384 203.488 302.674C205.62 302.133 207.12 300.362 207.663 298.522C207.432 298.183 207.268 297.771 207.157 297.345L204.693 287.899C204.402 286.781 203.253 286.846 202.827 286.954L202.792 286.821L207.004 285.752L207.038 285.885C206.612 285.993 205.574 286.483 205.866 287.601L208.191 296.515C208.906 299.256 211.298 300.692 214.097 299.981Z" fill="#D7CDBA"/>
<path d="M184.223 308.131C181.366 308.256 178.459 306.402 178.327 304.757C178.296 304.373 178.592 303.948 179.252 303.919L190.021 303.449C190.379 302.416 190.506 301.255 190.405 299.994C190.029 295.334 186.829 292.228 182.076 292.435C178.724 292.581 177.004 295.187 176.295 296.648L176.121 296.546C177.009 294.912 178.632 292.118 182.917 291.931C187.67 291.724 191.292 294.922 191.674 299.664C192.058 304.433 188.976 307.924 184.223 308.131ZM189.977 303.589L180.581 303.999C179.73 304.036 179.57 304.785 179.603 305.197C179.718 306.622 181.819 308.071 184.21 307.966C187.012 307.844 189.107 306.13 189.977 303.589Z" fill="#D7CDBA"/>
</g>
</g>
<defs>
<clipPath id="clip0_41_16001">
<rect width="317.72" height="326" fill="white"/>
</clipPath>
<clipPath id="clip1_41_16001">
<rect width="415.661" height="615.835" fill="white" transform="translate(-49 -45)"/>
</clipPath>
</defs>
</svg>
