<svg width="314" height="314" viewBox="0 0 314 314" fill="none" xmlns="http://www.w3.org/2000/svg">
<g clip-path="url(#clip0_41_18763)">
<path d="M156.87 313.74C243.507 313.74 313.74 243.507 313.74 156.87C313.74 70.2331 243.507 0 156.87 0C70.2331 0 0 70.2331 0 156.87C0 243.507 70.2331 313.74 156.87 313.74Z" fill="#222222"/>
<path d="M193.8 214.35L192 215.3C191.69 217.08 191.56 218.93 191 220.63C190.68 221.6 189.76 222.86 188.93 223C188.24 223.12 187.29 221.82 186.46 221.15L187.09 220.46C189.23 221.83 189.61 221.64 189.79 219.13C189.99 216.46 189.85 213.71 190.5 211.16C191.26 208.15 191.45 205.43 190.16 202.52C189.44 200.89 189.65 199.22 191.88 198.47C192.25 198.35 192.44 196.84 192.22 196.13C192.06 195.6 191.1 195.31 190.99 195.24C189.6 198.27 188.06 201.66 186.51 205.04C186.89 203.84 187.21 202.61 187.66 201.43C190.55 193.8 190.4 186.28 186.92 178.87C180.38 164.93 163.5 157.97 148.85 162.84C135.57 167.26 124.88 180.98 128.51 196.65C129.45 200.71 131.6 204.48 133.19 208.39L131.89 207.7C128.98 202.83 126.62 197.77 126.86 192.86H123.45C122.55 192.4 121.69 191.71 120.74 191.54C119.64 191.34 117.86 191.18 117.45 191.76C116.91 192.52 117.02 194.26 117.55 195.17C118.77 197.26 120.42 199.1 122.31 201.59C123.13 199.97 123.57 199.1 124 198.23C124.48 197.51 124.96 196.79 125.44 196.07L126.43 196.28C126.15 199.06 125.87 201.83 125.58 204.61C125.58 207.61 125.58 210.6 125.57 213.6L123.54 220.02C125.44 219.3 126.1 219.05 127.28 218.61C126.84 219.89 126.54 220.78 126.23 221.68L126.38 221.58C123.7 222.1 122.5 220.99 122.64 218.27C122.71 216.92 122.65 215.57 122.65 214.22L121.7 214.17C121.16 217.16 120.43 220.14 120.13 223.15C119.9 225.5 119.2 225.9 116.85 224.53C117.68 224.07 118.41 223.9 118.48 223.58C119.23 220.49 120.18 217.39 120.41 214.24C120.52 212.67 119.25 211.01 118.61 209.39C116.76 206.62 114.93 203.85 113.04 201.11C112.81 200.78 112.13 200.35 111.93 200.46C108.75 202.2 106.23 199.54 103.47 199.34C100.15 199.09 96.99 200.77 95.37 204.2C94.61 203.75 93.84 203.31 93.08 202.86C93.68 202.34 94.2199 201.69 94.8999 201.31C97.0399 200.12 99.2399 199.03 101.94 197.64C99.1399 196.09 96.9199 194.87 93.9299 193.21C94.4099 195.06 94.7699 196 94.8199 196.95C94.8399 197.22 93.9899 197.55 93.5399 197.85C93.2399 196.41 93.2099 194.84 92.5399 193.6C92.1999 192.97 90.5699 192.49 89.7799 192.74C87.7299 193.39 85.79 194.41 83.88 195.43C81 196.99 79.5099 199.25 80.0499 202.76C80.2599 204.1 79.5799 205.57 79.3099 206.98H74.75C75.95 203.94 76.9499 201.43 77.9399 198.92L77.48 198.46C76.33 199.53 75.17 200.59 74.02 201.66C73.11 202.85 72.2099 204.04 71.2999 205.23C69.6399 207.59 67.53 207.84 64.75 206.56C65.7 204.97 66.5599 203.53 67.4199 202.1C70.0099 200.26 72.61 198.42 75.2 196.58C78.41 197.2 79.5 194.72 80.27 192.59C83.12 184.77 85.46 176.76 88.46 169.01C90.75 163.09 91.9699 157.08 91.9199 150.79C91.8799 145.3 91.73 139.81 91.7 134.32C91.7 132.52 91.9299 130.73 92.0499 128.93C91.6399 128.9 91.24 128.86 90.83 128.83L90.0299 132.15C89.9399 132.06 89.85 131.97 89.76 131.88C89.71 130.67 89.65 129.46 89.59 128.13C88.22 128.13 86.86 128.17 85.49 128.13C83.99 128.08 82.49 128.02 81.01 127.84C79.83 127.7 78.67 127.37 77.5 127.13L77.46 126.12C87.3 128.35 95.06 126.11 99.35 116.46C100.88 114.98 102.42 113.51 103.95 112.03C105.06 110.69 106.17 109.35 107.44 107.82C106.75 107.32 106.01 106.78 104.78 105.89C107.19 105.68 109.07 105.59 110.92 105.3C111.47 105.21 113.25 105.19 111.67 103.8C112.76 102.96 113.77 101.98 114.95 101.31C117.65 99.77 117.55 97.6 116.54 95.18C116.16 94.27 115.63 93.43 115.08 92.39C113.99 92.63 112.86 92.88 111.45 93.19C114.25 90.01 123.83 91.79 125.19 95.38C120.95 92.72 119.41 93.54 118.25 98.82C117.88 100.49 116.99 102.05 116.17 104.06C123.45 104.06 130.74 104.72 137.86 103.88C145.54 102.97 145.71 101.98 143.55 94.99C147.48 98.16 147.75 99.4 145.3 103.26C135.86 107.01 126.21 106.69 116.46 104.88C115.85 104.77 115.08 105.46 114.39 105.78C111.06 106.12 112.52 109.32 111.33 110.93C110.95 111.38 110.25 111.82 110.23 112.28C110.04 119.12 109.89 125.97 109.91 132.81C109.91 133.44 111.1 134.47 111.87 134.62C115.9 135.38 119.97 135.92 123.86 136.51C124.42 134.87 124.79 133.79 125.18 132.65L125.87 136.87H112.72C113.12 139.9 114.02 143.02 110.18 144.95C110.52 142 110.85 139.04 111.19 136.09L110.19 136.01C110.01 137.04 109.67 138.06 109.66 139.09C109.61 143.96 109.62 148.83 109.67 153.7C109.68 154.57 110.06 155.44 110.18 156.32C110.56 159.09 110.83 161.88 111.28 164.64C111.43 165.59 111.87 167.17 112.39 167.27C116.53 168.03 120.72 168.5 124.9 169.06L125 168.27C120.86 167.7 116.71 167.14 112.48 166.56C113 156.74 113.48 147.51 113.99 137.94C118.24 138.24 122.1 138.51 125.96 138.79C126.2 139.48 126.42 140.76 126.68 140.77C130.83 140.9 134.98 140.86 139.3 140.86C139.53 139.1 139.74 137.49 139.95 135.87L141.08 135.92V140.93C145.51 141.83 150.01 142.75 155.18 143.8C154.42 142.49 153.75 141.33 153.25 140.48C153.67 139.8 154.32 139.04 154.54 138.17C154.61 137.91 153.45 137.34 152.83 136.9C156.16 134.8 153.9 132.25 153.54 129.74C152.26 132.87 149.91 132.12 148.03 131.22C146.05 130.27 146.26 126.4 148.13 123.91C147.08 129.8 147.95 131.53 151.54 130.3C150.43 129.7 149.42 129.14 147.88 128.31C150.78 126.11 153.26 124.22 156.27 121.94C151.38 120.93 146.95 120.01 142.99 119.19L141.92 124.53C141.56 124.48 141.2 124.43 140.83 124.39C140.73 122.74 140.63 121.08 140.51 119.3H137.35V139.93H129.86V119.61C128.8 126.43 129.98 133.43 127.33 140.06V122.59C126.7 124.09 126.28 125.08 125.83 126.16V118.05C130.67 118.05 135.77 117.75 140.81 118.13C145.82 118.51 150.78 119.58 156.18 120.42L153.18 118.76C153.49 118.49 153.79 118.22 154.1 117.95C154.77 118.17 155.43 118.4 156.1 118.62C157.73 119.94 159.8 126.71 158.53 128.11C156.24 130.64 157.12 133.51 156.88 136.27C156.53 140.26 156.25 144.26 155.95 148.25C155.66 148.25 155.38 148.25 155.09 148.24C154.9 147.34 154.7 146.44 154.44 145.24C153.48 145.74 152.73 146.13 151.99 146.52L152.11 146.44C148.22 146.72 144.34 147 140.19 147.31C139.91 150.26 139.65 153.03 139.38 155.8C139.61 155.87 139.83 155.93 140.06 156C140.38 155.61 140.71 155.21 141.03 154.82C141.6 154.52 142.17 154.22 142.74 153.93C144.29 153.17 145.85 152.41 147.4 151.65C147.38 152.84 146.85 153.55 146.18 154.09C142.29 157.24 136.5 158.66 136.27 165.13C136.27 165.24 135.46 165.32 135.24 165.37C134.61 164.01 134.06 162.8 133.5 161.6L132.45 162.03L133.78 165.57C132.727 167.13 132.88 168.3 134.24 169.08C138.49 166.52 142.52 164.09 146.56 161.65L146.43 161.36C145.33 161.72 144.22 162.08 143.03 162.47C143.74 156.5 144.78 155.08 149.19 153.99V148.55C149.91 149.22 150.63 149.88 151.36 150.56C153.35 150.15 155.36 149.73 157.72 149.24V137.73C161.47 137.57 162.26 135.91 161.36 132.66C160.22 128.54 159.87 124.26 160.59 119.97C161.89 119.66 163.2 119.34 164.5 119.03L178.02 117.67L178.08 118.36C175.94 118.51 173.8 118.66 171.34 118.83C176.75 119.42 181.81 119.96 186.57 120.48V130.26C186.05 127.28 185.55 124.37 185.05 121.45L184.38 121.48V138.16H174.93V138.64C178.56 138.86 182.19 139.07 185.83 139.29V135.41H201.35L201.32 135.1C197.44 134.65 193.55 134.2 189.67 133.75L189.72 133.25C194.03 133.62 198.35 134 202.37 134.35C202.37 138.83 202.41 142.73 202.35 146.63C202.33 147.92 202.04 149.2 201.87 150.48L193.82 151.67C190.89 152.43 189.23 154.4 188.36 157.23C188.03 158.3 187.35 159.28 186.78 160.27C185.33 162.8 185.52 167.44 187.2 169.51C188 172.61 188.79 175.72 189.59 178.82C189.92 181.33 190.26 183.84 190.66 186.86C193.38 186.23 197.01 186.46 198.6 184.77C201 182.21 201.98 178.31 203.57 174.98L203.47 175.12C203.53 171.02 203.59 166.91 203.66 162.81C203.69 161.11 203.58 159.38 203.87 157.72C204.07 156.59 205.16 155.61 205.29 154.49C205.53 152.44 205.5 150.32 205.31 148.26C204.98 144.75 206.61 140.94 203.69 137.75C203.33 137.36 203.88 136.06 204.12 135.21C204.47 133.99 205.23 132.8 205.26 131.58C205.35 128 205.36 124.39 205.04 120.83C204.65 116.64 206.43 112.1 203.05 108.31C202.66 107.87 203.14 106.57 203.34 105.7C204.22 101.86 204.24 101.84 199.96 101.91C193.37 102.02 186.78 102.12 180.53 99.48L179.27 97.56C187.05 102.13 195.4 100.95 204.41 100.35C203.93 98.02 203.54 96.15 203.16 94.29C203.87 94.13 204.96 93.89 205.99 93.66C205.86 95.9 205.74 98.03 205.54 101.45C213.15 99.03 219.69 96.94 226.23 94.86C226.52 95.08 226.81 95.29 227.11 95.51C225.77 96.26 224.43 97 223.09 97.75C219.86 98.66 216.63 99.57 213.4 100.48L213.51 100.38C209.5 99.64 206.93 102.18 206.34 105.26C205.53 109.5 206.14 114 206.14 118.89C214.52 119.31 222.24 119.69 229.95 120.08L229.98 120.96C226.65 121.02 223.33 121.11 220 121.11C218.07 121.11 216.13 120.96 214.2 120.88C211.72 120.56 209.24 120.25 206.4 119.9C206.4 124.27 206.38 128.18 206.4 132.09C206.41 134.32 206.44 136.56 206.57 138.78C206.94 145.46 205.02 152.24 207.64 158.83C208.02 159.79 207.71 161.09 207.54 162.21C207.11 165.03 206.58 167.84 206.09 170.65L207.13 170.83C209.45 166.88 211.77 162.92 214.09 158.97L214.82 159.39C213.29 162.49 211.76 165.59 210.23 168.69C209.63 169.52 209.04 170.34 208.44 171.17C205.08 174.36 206.68 178.46 206.58 182.2C206.58 182.5 209 183.32 209.14 183.11C210.54 181.06 213.26 179.63 212.36 176.39C211.97 175 212.06 173.47 211.94 172L213.21 168.3C213.86 167.21 215.04 166.15 215.08 165.04C215.27 159.51 215.18 153.98 215.14 148.45C215.14 147.8 214.87 147.14 214.74 146.49C214.31 144.36 213.89 142.23 213.47 140.1L213.34 140.22C215.29 138.67 216.25 128.87 214.35 126.47C212.76 124.45 212.88 122.75 214.1 120.81C218.42 121.84 218.39 121.83 216.87 126.31C216.58 127.15 216.55 128.14 216.62 129.04C216.92 133.25 217.33 137.46 217.63 141.67C217.7 142.69 217.43 143.73 217.43 144.75C217.41 149.98 216.45 155.45 217.65 160.4C220 170.14 223.49 179.6 226.69 189.12C227.2 190.64 228.67 191.84 229.7 193.19C231.04 193.99 232.41 194.75 233.72 195.59C238.07 198.39 242.49 201.1 246.69 204.11C247.83 204.93 248.34 206.69 248.92 208.12C248.98 208.28 247.41 209.57 246.93 209.4C245.37 208.83 243.81 208.02 242.52 206.97C239.26 204.33 236.14 201.52 232.97 198.77C231.82 198.04 230.67 197.31 229.81 196.75C229.81 198.58 229.62 200.08 229.88 201.5C230.04 202.36 230.9 203.09 231.88 204.49C232.01 204.33 231.55 205.37 230.98 205.43C230.2 205.52 228.91 205.06 228.62 204.47C228.13 203.43 228.01 202.09 228.14 200.91C228.59 196.73 227.4 194.49 223.66 193.27C223.35 193.17 222.76 193.9 222.31 194.24C218.69 196.16 215.05 198.03 211.47 200.02C207.79 202.07 204.22 204.89 200.3 199.91C198.84 203.13 197.72 205.6 196.61 208.06C196.12 208.62 195.63 209.19 195.13 209.77C194.14 207.12 193.22 204.66 192.3 202.19C192.39 205.09 193.08 207.81 194 210.45C194.16 210.9 195.26 211.02 195.93 211.29L195.86 211.16C195.71 212.04 195.27 212.99 195.44 213.8C196.39 218.23 197.5 222.63 198.55 227.05C198.22 227.2 197.88 227.36 197.55 227.51C197.15 226.66 196.62 225.84 196.38 224.95C195.46 221.45 194.62 217.93 193.76 214.42L193.8 214.35ZM211.35 193.25L211.23 193.13C212.93 193.9 214.64 194.67 216.57 195.54C217.27 188.65 216.29 187.83 209.43 189.55C210.12 190.88 210.73 192.06 211.34 193.25H211.35ZM96.72 193.04C98.33 194.01 99.93 194.98 101.7 196.05V185.28C100.77 186.02 100.27 186.42 99.76 186.82C98.92 187.43 98.16 188.19 97.24 188.61C94.55 189.85 94.85 191.32 96.72 193.03V193.04ZM103.76 196.73L104.65 197.22C106.06 199.5 107.71 197.87 107.78 196.78C108.02 192.83 108.69 188.65 105.76 185.24C105.36 184.77 104.35 184.39 103.82 184.57C103.29 184.75 102.69 185.66 102.67 186.27C102.56 189.27 102.58 192.27 102.69 195.27C102.71 195.77 103.39 196.24 103.76 196.72V196.73ZM112.73 170.54L112.83 170.62C111.83 170.43 110.84 170.23 109.63 170C109.63 171.45 109.73 172.37 109.61 173.27C108.9 178.62 109.73 183.09 115.84 184.71L111.99 183.78C113.2 185.83 114.45 187.95 115.73 190.12C118.49 188.43 117.21 186.51 115.7 184.59L122.23 186.8C123.51 186.78 124.79 186.76 126.3 186.73C126.22 186.54 126.41 187 126.74 187.83C128.02 183.38 129.16 179.4 130.32 175.32C129.86 174.65 129.08 173.49 127.93 171.8H122.8C122.58 176.84 122.36 181.87 122.13 186.89C121.95 184.75 121.61 182.6 121.6 180.46C121.58 171.4 121.62 171.4 112.71 170.55L112.73 170.54ZM223.48 183.37C221.42 177.05 219.36 170.72 217 163.47C217.41 168.91 217.77 173.29 218.05 177.67C218.2 179.97 218.27 182.28 218.23 184.58C218.16 188.22 220.27 189.46 223.49 189.61C223.87 188.81 224.6 187.98 224.55 187.2C224.46 185.9 223.87 184.64 223.49 183.36L223.48 183.37ZM94.26 171.79C94.64 176.44 95.0099 181.1 95.4199 186.17C97.0299 185.15 98.49 184.23 99.96 183.3C102.2 179.72 98.73 171.3 93.52 168.66L94.26 171.79ZM82.77 190.69C82.42 191.88 82.07 193.07 81.73 194.26L82.39 194.62C85.14 192.53 87.8899 190.44 90.0699 188.78V178.73H89.74C89.88 181.15 90.0199 183.58 90.1599 186.01L91.1 185.96V168.33L90.37 168.26C87.83 175.76 85.28 183.26 82.74 190.75L82.7799 190.69H82.77ZM100.49 167.24L100.6 167.38L100.94 165.87C103.14 166.71 105.34 167.55 107.54 168.39L107.3 169.07C106.75 169.11 106.2 169.15 105.66 169.19C104.89 169.84 103.63 170.39 103.46 171.17C103.08 172.83 103.27 174.62 103.23 176.35C103.56 177.43 103.67 178.66 104.28 179.55C104.85 180.37 105.95 180.81 106.82 181.41C107.23 180.49 107.96 179.57 107.98 178.64C108.09 173.25 108.03 167.85 108.03 162.43L105.64 164.35C105.41 163.67 104.96 162.98 104.99 162.3C105.3 153.17 105.68 144.05 105.99 134.92C106 134.62 105.55 134.29 104.63 133.09C104.63 135.22 104.67 136.32 104.63 137.41C104.32 144.81 104.15 152.23 103.58 159.61C103.33 162.84 102.87 165.7 106.93 166.86C104.9 166.12 102.87 165.39 100.84 164.65C101.21 164.41 101.58 164.17 101.95 163.94L100.55 158.54L101.21 157.97C101.62 157.43 102.38 156.9 102.39 156.35C102.52 149.22 102.54 142.08 102.55 134.94C102.55 134.68 102.13 134.43 101.9 134.17C101.85 131.33 103.74 130.48 106.08 130.09C106.62 130.54 107.16 130.98 107.71 131.43L107.26 131.99C106.29 131.78 105.31 131.58 104.34 131.37L104.18 132.05C105.39 132.43 106.61 132.8 108.37 133.35C107.34 126.18 109.57 119.33 106.94 112.93L105.73 112.72C103.87 115.16 102 117.59 100.14 120.03L99.46 120.52C97.52 122.25 95.5699 123.98 92.8999 126.36C97.5699 125.81 101.05 125.4 104.53 124.99L104.68 125.84C102.25 126.22 99.8 126.51 97.39 127.01C96.24 127.25 94.3999 127.64 94.1899 128.35C93.4899 130.74 93.03 133.31 93.11 135.79C93.27 140.77 93.84 145.73 94.24 150.7L94.35 150.54C93.93 150.9 93.1599 151.25 93.1499 151.62C93.0699 154.93 92.97 158.26 93.24 161.55C93.31 162.38 94.64 163.11 95.39 163.88L98.4399 169.25C99.3299 171.07 100.22 172.89 101.1 174.71C101.58 174.53 102.07 174.34 102.55 174.16C101.87 171.86 101.19 169.56 100.51 167.27L100.49 167.24ZM165.47 139.38C174.46 139.49 176.08 138.03 176.32 129.93C176.38 127.85 176.39 125.76 176.26 123.68C176.2 122.62 175.78 121.58 175.53 120.53L175.05 120.77C174.87 122.04 174.68 123.31 174.5 124.58C174.16 124.54 173.81 124.51 173.47 124.47V120.28C169.76 120.82 166.38 121.32 162.93 121.83C164.35 123.54 165.27 125.29 166.71 126.23C169.41 128.01 169.25 129.45 166.16 131.24C168.89 131.95 170.69 131.98 171.1 129.29C171.42 127.19 172.22 124.68 168.76 124.18C170.09 124.39 171.81 124.88 171.95 125.65C172.37 128.03 173.24 130.97 170.18 132.35C167.79 133.42 165.52 133.18 165.01 129.51C164.61 129.72 164.21 129.93 163.81 130.14C164.35 133.16 164.89 136.19 165.47 139.38ZM127.97 168.54C130.25 168.49 132.91 166.47 132.3 164.65C131.42 162.01 130.52 159.92 134.82 160.91C135.21 161 136.13 160.18 136.27 159.65C137.35 155.56 138.3 151.44 139.3 147.27C135.35 146.5 132.32 145.91 129.1 145.28C128.72 153.1 128.34 160.76 127.96 168.54H127.97ZM164.65 142.99V148.18H183.72C179.813 147.467 177.033 146.037 175.38 143.89C175.28 145.13 175.18 146.39 175.08 147.6C173.87 146.09 173.17 144.33 172.03 143.96C169.78 143.24 167.29 143.29 164.65 142.99ZM171.12 161.01L171.67 160.64C170.32 160.08 168.97 159.51 168.14 159.16C168.54 158.17 169.64 156.57 169.28 156.11C168.05 154.54 166.3 153.38 164.32 151.69C164.85 154.72 165.27 157.14 165.67 159.36H152.26V152.14C151.93 152.11 151.59 152.08 151.26 152.05C151.06 154.81 150.85 157.57 150.68 159.88C157.83 160.27 164.48 160.63 171.13 160.99L171.12 161.01ZM190.74 146.86C189.03 147.28 188.03 147.52 187.04 147.76L187.16 148.12C189.91 147.97 192.67 147.82 195.48 147.66C192.42 145.17 192.35 138.95 196.16 136.4C192.4 136.71 189.53 136.94 185.72 137.25C191.73 139.15 188.37 143.96 190.74 146.86ZM200.88 148.47C191.73 148.83 182.43 149.19 173.42 149.54C179.38 151.18 195.82 150.56 200.88 148.47ZM124.41 202.48L123.67 202.16C123.1 203.75 122.53 205.34 121.93 207.01C120.11 203.85 118.38 200.82 116.64 197.79C118.553 204.457 120.453 208.277 122.34 209.25C123.04 206.96 123.72 204.72 124.4 202.48H124.41ZM196.53 192.39L195.36 192.44C194.83 194.79 194.31 197.14 193.72 199.75C196.01 198.42 197.72 197.42 199.42 196.43L199.07 195.83C198.59 196 198.12 196.18 197.93 196.24C197.46 194.96 196.99 193.67 196.52 192.39H196.53ZM129.27 171.05L129.39 169.82L110.16 168.38L110.1 169.1C116.49 169.75 122.89 170.4 129.28 171.05H129.27ZM166.21 141.06L166.34 142.14H180.13V141.46H171.91L171.93 141.07C172.53 140.88 173.13 140.7 173.73 140.51L173.64 140.08L166.2 141.06H166.21ZM162.49 150.16C162.69 149.89 162.9 149.62 163.1 149.35C162.94 147.23 162.86 145.1 162.57 143C162.49 142.42 161.79 141.92 161.37 141.38C161.08 141.9 160.59 142.41 160.55 142.95C160.44 144.44 160.27 146 160.6 147.43C160.83 148.43 161.84 149.26 162.49 150.16ZM131.16 144.42C137.23 146.57 144 145.76 150.81 144.42H131.16ZM178 136.56C178.48 136.56 178.96 136.55 179.43 136.54C179.17 131.91 178.9 127.27 178.64 122.64L178 122.67V136.56ZM203.39 192.59C200.69 196.37 201.51 198.24 206.02 199.08C205.12 196.85 204.36 194.98 203.39 192.59ZM198.64 147.05C200.58 147.43 201.73 146.88 201.25 144.32C200.91 142.51 200.79 140.63 200.82 138.79C200.87 135.78 199.61 135.31 197.19 136.64C197.09 136.7 197.1 136.96 197.04 137.24C197.95 137.19 198.8 137.15 200.19 137.08C199.07 140.49 202.17 144.18 198.63 147.06L198.64 147.05ZM207.17 200.43C208.96 199.4 210.18 198.69 211.47 197.95C209.74 197.11 208.3 196.41 206.29 195.43C206.62 197.31 206.86 198.65 207.17 200.42V200.43ZM158.62 151.65L157.59 151.55C157.05 152.98 156.51 154.41 155.75 156.41C157.65 156.21 158.62 156.11 159.92 155.97C159.43 154.33 159.03 152.99 158.62 151.65ZM107.93 138.98L107.79 138.92V154.08H107.93V138.98ZM113.52 192.61L114.85 191.85L110.94 185.18L109.94 185.76C111.13 188.04 112.32 190.32 113.51 192.61H113.52Z" fill="#222222"/>
<path d="M143.6 94.9499C145.75 101.94 145.59 102.93 137.91 103.84C130.79 104.68 123.5 104.02 116.22 104.02C117.04 102.01 117.93 100.45 118.3 98.7799C119.46 93.4999 121 92.6799 125.24 95.3399C123.88 91.7499 114.31 89.9699 111.5 93.1499C112.92 92.8399 114.04 92.5899 115.13 92.3499C115.68 93.3899 116.21 94.2299 116.59 95.1399C117.6 97.5599 117.69 99.7299 115 101.27C113.82 101.95 112.81 102.92 111.72 103.76C107.58 102.41 103.45 101.07 99.3098 99.7199C97.1698 98.3399 94.7598 97.2299 92.9298 95.5199C88.9998 91.8399 89.9498 87.7899 95.1698 86.2899C98.5598 85.3099 102.22 84.57 105.71 84.73C112.6 85.06 119.66 85.3099 126.26 87.0699C132.31 88.6799 137.85 92.2399 143.61 94.9299L143.6 94.9499ZM115.06 86.3799V85.9499H100.4V86.3799H115.06Z" fill="#D7CDBA"/>
<path d="M125.92 136.83L125.23 132.61C124.84 133.75 124.47 134.83 123.91 136.47C120.02 135.88 115.95 135.34 111.92 134.58C111.15 134.43 109.96 133.4 109.96 132.77C109.94 125.93 110.09 119.08 110.28 112.24C110.29 111.78 110.99 111.34 111.38 110.89C110.93 116.6 110.48 122.32 110 128.46C115.19 128.16 119.65 127.89 124.41 127.62C124.41 124.83 124.27 122.1 124.48 119.41C124.57 118.27 125.27 116.33 125.93 116.23C134.87 114.79 143.83 114.12 152.61 117.29C144.5 116.45 136.41 114.53 129.95 116.32C136.64 117.01 144.94 117.86 153.24 118.71L156.24 120.37C150.84 119.54 145.88 118.47 140.87 118.08C135.82 117.7 130.73 118 125.89 118V126.11C126.34 125.03 126.76 124.04 127.39 122.54V140.01C130.05 133.38 128.86 126.38 129.92 119.56V139.88H137.41V119.25H140.57C140.68 121.04 140.78 122.69 140.89 124.34C141.25 124.39 141.61 124.44 141.98 124.48L143.05 119.14C147.01 119.96 151.44 120.88 156.33 121.89C153.32 124.18 150.84 126.06 147.94 128.26C149.48 129.1 150.49 129.65 151.6 130.25C148.02 131.48 147.14 129.74 148.19 123.86C146.31 126.35 146.11 130.22 148.09 131.17C149.96 132.07 152.32 132.82 153.6 129.69C153.97 132.2 156.22 134.76 152.89 136.85C153.51 137.29 154.67 137.86 154.6 138.12C154.38 138.99 153.73 139.75 153.31 140.43C153.8 141.28 154.48 142.44 155.24 143.75C150.07 142.7 145.57 141.78 141.14 140.88V135.87L140.01 135.82C139.8 137.43 139.59 139.05 139.36 140.81C135.05 140.81 130.89 140.85 126.74 140.72C126.48 140.72 126.26 139.43 126.02 138.74C125.99 138.1 125.96 137.47 125.94 136.83H125.92Z" fill="#D7CDBA"/>
<path d="M226.27 94.79C219.73 96.87 213.19 98.9599 205.58 101.38C205.78 97.9699 205.9 95.83 206.03 93.59C205 93.82 203.91 94.06 203.2 94.22C203.58 96.08 203.97 97.95 204.45 100.28C195.43 100.88 187.08 102.06 179.31 97.49C179.31 97.18 179.31 96.8699 179.31 96.5599C182.25 95.0599 185.04 92.78 188.14 92.22C196.76 90.67 205.48 89.5399 214.21 88.8699C217.79 88.5899 221.52 89.7599 225.12 90.5599C227.73 91.1399 228.2 92.74 226.28 94.78L226.27 94.79ZM199.18 94.01C202.27 93.7299 205.48 93.4399 208.38 93.1799C206.98 90.9799 201.66 91.28 199.18 94.01Z" fill="#D7CDBA"/>
<path d="M180.57 99.41C186.82 102.05 193.41 101.95 200 101.84C204.28 101.77 204.26 101.79 203.38 105.63C203.18 106.5 202.7 107.8 203.09 108.24C206.47 112.02 204.69 116.57 205.08 120.76C205.41 124.32 205.39 127.93 205.3 131.51C205.27 132.73 204.51 133.91 204.16 135.14C203.92 135.99 203.37 137.29 203.73 137.68C206.65 140.87 205.02 144.68 205.35 148.19C205.55 150.25 205.57 152.37 205.33 154.42C205.2 155.53 204.11 156.52 203.91 157.65C203.62 159.31 203.73 161.04 203.7 162.74C203.63 166.84 203.57 170.95 203.51 175.05C203.46 171.47 203.99 167.76 203.17 164.36C202.5 161.59 202 159.41 203.16 156.56C203.82 154.93 205.29 151.81 201.91 150.41C202.08 149.13 202.37 147.84 202.39 146.56C202.45 142.66 202.41 138.76 202.41 134.28C198.38 133.93 194.07 133.56 189.76 133.18L189.71 133.68C193.59 134.13 197.48 134.58 201.36 135.03L201.39 135.34H185.87V139.22C182.23 139 178.6 138.79 174.97 138.57V138.09H184.42V121.41L185.09 121.38C185.59 124.29 186.1 127.21 186.61 130.19V120.41C181.86 119.9 176.79 119.35 171.38 118.76C173.84 118.59 175.98 118.44 178.12 118.29L178.06 117.6L164.54 118.96C165.6 118.44 166.66 117.47 167.7 117.49C173.69 117.61 179.68 117.91 185.66 118.29C187.8 118.42 188.35 119.59 187.99 121.87C187.45 125.24 187.55 128.71 187.36 132.63H203.18C203.18 128.83 203.26 124.93 203.11 121.04C203.08 120.34 202.23 119.57 201.59 119.03C200.66 118.24 199.58 117.63 198.31 116.77C199 116.12 199.36 115.48 199.79 115.42C204.07 114.89 203.26 112.17 202.65 109.31C202.2 107.22 202.16 105.04 201.94 102.86C196.5 102.51 191.21 102.35 185.96 101.74C184.09 101.52 182.36 100.21 180.56 99.4L180.57 99.41Z" fill="#D7CDBA"/>
<path d="M214.24 120.81C216.17 120.89 218.11 121.04 220.04 121.04C223.37 121.04 226.69 120.94 230.02 120.89L229.99 120.01C222.27 119.62 214.56 119.24 206.18 118.82C206.18 113.94 205.57 109.43 206.38 105.19C206.97 102.11 209.54 99.5599 213.55 100.31C210.65 100.9 208.42 102.76 207.83 105.4C207.2 108.2 207.69 111.25 207.69 114.18C213.42 115.11 214.16 114.7 214.7 109.74C215.02 106.88 215.07 103.99 215.11 101.12C215.11 100.89 214.03 100.64 213.44 100.4C216.67 99.49 219.9 98.58 223.13 97.67C221.2 98.56 219.27 99.4599 217.28 100.38C217.28 103.68 217.2 107.22 217.31 110.75C217.39 113.4 218.32 115.3 221.52 115.51C224.26 115.69 226.99 116.35 229.67 116.99C230.8 117.26 231.82 118.02 233.27 118.75C229 123.26 223.8 121.51 218.39 122.41C218.09 127 217.69 131.72 217.52 136.45C217.47 137.75 218.13 139.06 218.36 140.39C218.57 141.61 219.08 143.04 218.68 144.07C216.51 149.77 217.03 155.36 218.9 160.95C222.49 171.67 226.13 182.38 229.74 193.09C228.71 191.74 227.25 190.54 226.73 189.02C223.53 179.5 220.05 170.03 217.69 160.3C216.5 155.35 217.46 149.89 217.47 144.65C217.47 143.62 217.74 142.58 217.67 141.57C217.37 137.36 216.96 133.15 216.66 128.94C216.6 128.04 216.63 127.06 216.91 126.21C218.42 121.73 218.46 121.74 214.14 120.71L214.23 120.79L214.24 120.81Z" fill="#D7CDBA"/>
<path d="M99.3901 116.44C95.1001 126.08 87.3401 128.32 77.5001 126.1L77.54 127.11C78.71 127.35 79.87 127.68 81.05 127.82C82.53 128 84.03 128.06 85.53 128.11C86.89 128.16 88.2601 128.11 89.6301 128.11C89.6901 129.44 89.74 130.65 89.8 131.86C89.28 130.95 88.7601 130.05 88.2001 129.08C83.7301 128.56 78.7701 129.89 74.6401 125.17C77.2201 124.41 79.7501 123.31 82.3801 122.95C90.3001 121.87 90.3301 121.98 90.5001 114.02C90.5401 112.33 90.5 110.63 91.16 108.83C94.25 112.36 91.4401 117.29 94.2601 120.82C95.8301 119.48 97.6101 117.96 99.3901 116.44Z" fill="#D7CDBA"/>
<path d="M90.0702 132.13C90.3402 131.02 90.6002 129.92 90.8702 128.81C91.2802 128.84 91.6802 128.88 92.0902 128.91C91.9602 130.71 91.7302 132.5 91.7402 134.3C91.7602 139.79 91.9202 145.28 91.9602 150.77C92.0102 157.07 90.7902 163.07 88.5002 168.99C85.5002 176.75 83.1602 184.75 80.3102 192.57C79.5302 194.7 78.4502 197.18 75.2402 196.56C77.9902 194.99 79.3502 192.53 80.3102 189.57C82.8002 181.93 85.3702 174.3 88.1702 166.77C90.3102 161.01 91.4902 155.36 88.9402 149.44C88.6402 148.76 88.8102 147.84 88.8802 147.04C89.2702 142.07 89.6802 137.1 90.0902 132.13H90.0702Z" fill="#D7CDBA"/>
<path d="M186.5 205.04C188.05 201.65 189.6 198.27 190.98 195.24C191.09 195.31 192.05 195.6 192.21 196.13C192.43 196.84 192.24 198.34 191.87 198.47C189.64 199.22 189.43 200.89 190.15 202.52C191.44 205.43 191.25 208.15 190.49 211.16C189.84 213.71 189.98 216.47 189.78 219.13C189.59 221.64 189.22 221.82 187.08 220.46L186.45 221.15C187.28 221.82 188.23 223.13 188.92 223C189.75 222.85 190.67 221.59 190.99 220.63C191.55 218.93 191.68 217.09 191.99 215.3C191.91 217.48 191.93 219.66 191.7 221.82C191.49 223.83 190.26 224.66 188.27 223.93C186.59 223.32 185.09 222.8 185.96 220.26C187.61 215.5 188.9 210.63 189.75 205.31L185.29 210.51L184.77 211.17L184.02 211.02C183.97 210.84 183.93 210.66 183.88 210.48C184.75 208.67 185.62 206.85 186.49 205.04H186.5Z" fill="#D7CDBA"/>
<path d="M183.9 210.49C183.95 210.67 184 210.85 184.04 211.03C181.77 213.41 179.5 215.79 177.24 218.17C175.85 218.85 174.46 219.53 173.07 220.2C170.79 220.52 168.48 220.67 166.26 221.2C164.21 221.68 162.27 223.06 160.25 223.13C157.05 223.24 153.82 222.6 150.61 222.27L150.73 222.35C150.99 219.6 152.94 221.31 154.1 221.15C158.55 220.52 163.02 220.04 167.48 219.51C172.56 217.86 177.44 215.88 181.17 211.78C181.8 211.09 182.98 210.9 183.9 210.48V210.49Z" fill="#D7CDBA"/>
<path d="M173.07 220.2C174.46 219.52 175.85 218.84 177.24 218.17C176.22 219.09 175.23 220.05 174.17 220.92C172.8 222.04 171.38 223.11 169.94 224.14C169.42 224.51 168.72 225.02 168.21 224.92C161.6 223.7 154.95 224.49 148.32 224.32C147.77 224.31 147.11 224.26 146.7 223.96C143.83 221.83 141.01 219.62 138.17 217.44C137.11 216.16 135.92 214.95 135.02 213.56C134.44 212.66 134.29 211.49 133.95 210.43C137.69 213.2 141.47 215.91 145.13 218.79C145.76 219.29 145.88 220.45 146.24 221.31L148.26 220.96C148.13 221.79 148 222.63 147.86 223.55C148.84 223.14 149.78 222.74 150.72 222.35L150.6 222.27C156.63 224.54 162.59 224.14 168.77 221.49C168.48 222.55 168.31 223.18 168.08 224.02C169.96 222.58 171.51 221.39 173.06 220.2H173.07Z" fill="#D7CDBA"/>
<path d="M152.03 146.47C152.78 146.08 153.53 145.69 154.48 145.19C154.74 146.39 154.94 147.29 155.13 148.19C155.42 148.19 155.7 148.19 155.99 148.2C156.3 144.21 156.58 140.21 156.92 136.22C157.16 133.46 156.28 130.59 158.57 128.06C159.84 126.65 157.77 119.89 156.14 118.57C157.64 119.02 159.14 119.48 160.64 119.93C159.92 124.22 160.27 128.5 161.41 132.62C162.31 135.87 161.52 137.53 157.77 137.69V149.2C155.41 149.69 153.4 150.11 151.41 150.52C150.67 149.84 149.95 149.17 149.24 148.51L149.3 148.58C150.72 148.79 152.14 149 153.55 149.2L154 148.57C153.34 147.88 152.68 147.18 152.03 146.49V146.47ZM160.41 129.2L158.45 129.13C158.21 131.18 157.88 133.22 157.78 135.27C157.76 135.68 158.57 136.41 159.05 136.46C159.46 136.5 160.32 135.8 160.35 135.38C160.49 133.33 160.41 131.26 160.41 129.2Z" fill="#D7CDBA"/>
<path d="M118.62 209.39C119.26 211.01 120.54 212.67 120.42 214.24C120.19 217.38 119.24 220.48 118.49 223.58C118.41 223.9 117.68 224.07 116.86 224.53C119.21 225.9 119.91 225.5 120.14 223.15C120.43 220.13 121.16 217.16 121.71 214.17L122.659 214.22C122.659 215.57 122.719 216.92 122.649 218.27C122.509 220.98 123.71 222.1 126.39 221.58C124.14 223.27 122.65 222.74 121.39 219.99C121.28 221.13 121.339 222.32 121.029 223.4C120.729 224.43 120.18 225.49 119.44 226.24C119.15 226.53 117.6 226.21 117.37 225.77C116.9 224.87 116.59 223.64 116.81 222.67C117.32 220.44 118.48 218.32 118.8 216.08C119.11 213.91 118.71 211.63 118.63 209.4L118.62 209.39Z" fill="#D7CDBA"/>
<path d="M99.3101 99.73C103.45 101.08 107.59 102.42 111.72 103.77C113.3 105.16 111.52 105.18 110.97 105.27C109.12 105.56 107.23 105.65 104.83 105.86C106.06 106.75 106.8 107.29 107.49 107.79C106.22 109.32 105.11 110.66 104 112C104.1 110.03 104.19 108.07 104.29 106.1L103.25 105.8C104.18 105.06 105.11 104.33 105.76 103.81C103.65 102.47 101.48 101.1 99.3201 99.73H99.3101Z" fill="#D7CDBA"/>
<path d="M222.35 194.17C222.81 193.83 223.39 193.09 223.7 193.2C227.44 194.43 228.63 196.66 228.18 200.84C228.05 202.01 228.17 203.36 228.66 204.4C228.94 205 230.24 205.45 231.02 205.36C231.59 205.3 232.05 204.26 231.92 204.42C230.95 203.02 230.08 202.29 229.92 201.43C229.66 200.02 229.85 198.52 229.85 196.68C230.72 197.23 231.86 197.96 233.01 198.7C232.58 198.98 231.76 199.35 231.8 199.51C232.08 200.61 232.94 201.7 232.85 202.72C232.74 203.94 231.86 205.08 231.31 206.26C229.95 205.32 228.32 204.6 227.33 203.37C226.77 202.68 227.14 201.11 227.32 199.98C227.95 196.04 225.26 195.04 222.36 194.17H222.35Z" fill="#D7CDBA"/>
<path d="M125.59 204.62C125.87 201.84 126.15 199.07 126.44 196.29L125.45 196.08C124.97 196.8 124.49 197.52 124.02 198.23C123.83 196.44 123.65 194.65 123.46 192.86H126.87C126.63 197.77 128.99 202.83 131.9 207.7L129.76 208.29C129.12 207.11 128.62 205.82 127.78 204.82C127.45 204.42 126.35 204.66 125.61 204.61L125.59 204.62Z" fill="#D7CDBA"/>
<path d="M193.8 214.35C194.67 217.86 195.5 221.39 196.42 224.88C196.66 225.78 197.19 226.59 197.59 227.44C197.92 227.29 198.26 227.13 198.59 226.98C197.54 222.57 196.44 218.17 195.48 213.73C195.31 212.92 195.74 211.97 195.9 211.09C196.35 213.04 196.72 215.02 197.28 216.94C198.02 219.48 199.11 221.94 199.63 224.52C199.83 225.51 198.88 226.74 198.46 227.85C197.43 227.21 195.68 226.72 195.5 225.9C194.69 222.1 194.33 218.2 193.8 214.33V214.35Z" fill="#D7CDBA"/>
<path d="M129.74 208.3L131.88 207.71L133.18 208.4C133.32 208.57 133.36 208.76 133.3 208.97C133.51 209.46 133.73 209.95 133.94 210.44C134.28 211.49 134.43 212.67 135.01 213.57C135.91 214.96 137.09 216.17 138.16 217.45C135.58 215.62 132.88 213.94 130.51 211.87C129.78 211.23 129.97 209.52 129.74 208.31V208.3Z" fill="#222222"/>
<path d="M153.229 118.7C144.929 117.85 136.619 117 129.939 116.31C136.399 114.52 144.489 116.44 152.599 117.28C153.119 117.48 153.629 117.69 154.149 117.89C153.839 118.16 153.539 118.43 153.229 118.7Z" fill="#222222"/>
<path d="M114.439 105.74C115.129 105.42 115.9 104.73 116.51 104.84C126.27 106.65 135.919 106.97 145.349 103.22C142.179 106.3 138.009 106.58 134.059 106.6C127.519 106.64 120.979 106.06 114.439 105.74Z" fill="#D7CDBA"/>
<path d="M93.55 197.85C94 197.55 94.8501 197.22 94.8301 196.95C94.7701 196 94.4201 195.06 93.9401 193.21C96.9301 194.86 99.1401 196.09 101.95 197.64C99.2601 199.03 97.06 200.12 94.91 201.31C94.23 201.69 93.6901 202.34 93.0901 202.86C93.8501 203.31 94.6201 203.75 95.3801 204.2C94.3601 204.08 93.3301 203.96 92.3101 203.84C92.7901 202.72 92.9601 201.17 93.8101 200.56C95.4401 199.4 97.4501 198.78 99.9701 197.62C98.1601 196.53 96.9001 195.76 94.9401 194.57C95.5001 196.11 95.81 196.95 96.4 198.55C95.19 198.25 94.37 198.04 93.55 197.84V197.85Z" fill="#D7CDBA"/>
<path d="M126.24 221.68C126.55 220.79 126.85 219.89 127.29 218.61C126.11 219.06 125.45 219.3 123.55 220.02L125.58 213.6C126.38 215.54 127.36 217.43 127.88 219.44C128.03 220.01 126.83 220.92 126.25 221.67L126.24 221.68Z" fill="#D7CDBA"/>
<path d="M195.97 211.23C195.3 210.96 194.19 210.84 194.04 210.39C193.12 207.75 192.42 205.03 192.34 202.13C193.26 204.6 194.18 207.06 195.17 209.71C195.67 209.13 196.16 208.57 196.65 208C196.43 209.08 196.2 210.15 195.98 211.23H195.97Z" fill="#D7CDBA"/>
<path d="M184.79 211.17L185.31 210.51L185.16 211.53L184.79 211.16V211.17Z" fill="#D7CDBA"/>
<path d="M133.3 208.97C133.36 208.76 133.31 208.57 133.18 208.4C131.59 204.49 129.44 200.72 128.5 196.66C124.87 180.98 135.56 167.26 148.84 162.85C163.49 157.98 180.37 164.93 186.91 178.88C190.38 186.29 190.53 193.81 187.65 201.44C187.2 202.62 186.88 203.85 186.5 205.05C185.63 206.86 184.76 208.68 183.89 210.49C182.97 210.91 181.79 211.1 181.16 211.79C177.43 215.89 172.56 217.87 167.47 219.52C154.66 222.19 143.51 219.42 134.53 209.48C134.26 209.18 133.71 209.14 133.29 208.97H133.3Z" fill="#D7CDBA"/>
<path d="M201.91 150.41C205.29 151.81 203.82 154.93 203.16 156.56C202 159.41 202.5 161.59 203.17 164.36C203.98 167.75 203.46 171.47 203.51 175.05L203.61 174.91C202.05 177.24 200.23 179.43 198.98 181.92C197.44 184.98 195.3 185.96 192.27 185.16C191.35 182.93 190.49 180.84 189.63 178.75C188.83 175.65 188.04 172.54 187.24 169.44C186.65 165.83 186.43 162.47 188.5 158.94C190.07 156.26 191.28 153.48 193.86 151.59L201.91 150.4V150.41Z" fill="#222222"/>
<path d="M106.09 130.11C103.75 130.5 101.86 131.35 101.91 134.19C101.68 136.99 100.05 139.87 102.37 142.53C102.48 142.65 102.35 142.98 102.34 143.21C101.96 148.13 101.59 153.06 101.21 157.98L100.55 158.55C100.1 160.72 99.5 162.87 99.28 165.06C99.21 165.78 100.13 166.61 100.6 167.39L100.49 167.25C100.49 168.43 100.49 169.62 100.49 171.22C99.6201 170.39 99.02 169.82 98.42 169.24L95.3701 163.87C93.0201 159.58 94.12 155.02 94.34 150.53L94.23 150.69C94.5 149.32 95.03 147.94 94.96 146.58C94.84 144.21 94.01 141.86 94.08 139.52C94.2 135.86 94.82 132.22 95.22 128.66C98.89 127.87 102.36 127.12 106.08 126.31V130.1L106.09 130.11Z" fill="#222222"/>
<path d="M214.15 120.73C212.93 122.67 212.81 124.38 214.4 126.39C216.29 128.79 215.33 138.59 213.38 140.14C213.17 133.96 212.97 127.77 212.76 121.5C210.5 121.34 209.07 121.24 207.57 121.14C207.57 130.06 208.05 138.71 207.41 147.28C206.95 153.46 210.51 159.57 207.45 165.68C207.43 165.71 207.78 165.92 207.91 166.02C213.28 159.43 215.26 152.19 212.46 143.87C212.11 142.82 213.13 141.32 213.51 140.03C213.93 142.16 214.35 144.29 214.78 146.42C214.91 147.08 215.18 147.73 215.18 148.38C215.21 153.91 215.31 159.45 215.12 164.97C215.08 166.08 213.9 167.15 213.25 168.23C213.31 167.16 213.36 166.09 213.45 164.3C212.1 166.14 211.18 167.37 210.27 168.61C211.8 165.51 213.33 162.41 214.86 159.31L214.13 158.89C211.81 162.84 209.49 166.8 207.17 170.75L206.13 170.57C206.62 167.76 207.15 164.95 207.58 162.13C207.75 161.01 208.06 159.71 207.68 158.75C205.06 152.16 206.97 145.38 206.61 138.7C206.49 136.47 206.46 134.24 206.44 132.01C206.41 128.1 206.44 124.19 206.44 119.82C209.28 120.18 211.76 120.49 214.24 120.8L214.15 120.72V120.73Z" fill="#D7CDBA"/>
<path d="M165.47 139.38C164.9 136.18 164.36 133.16 163.81 130.14C164.21 129.93 164.61 129.72 165.01 129.51C165.53 133.18 167.79 133.43 170.18 132.35C173.24 130.98 172.37 128.04 171.95 125.65C171.81 124.88 170.09 124.39 168.76 124.18C172.22 124.68 171.42 127.19 171.1 129.29C170.69 131.98 168.89 131.95 166.16 131.24C169.25 129.46 169.41 128.01 166.71 126.23C165.27 125.28 164.35 123.54 162.93 121.83C166.38 121.32 169.76 120.83 173.47 120.28V124.47C173.81 124.51 174.16 124.54 174.5 124.58C174.68 123.31 174.87 122.04 175.05 120.77L175.53 120.53C175.79 121.58 176.2 122.62 176.26 123.68C176.39 125.76 176.38 127.85 176.32 129.93C176.08 138.02 174.46 139.48 165.47 139.38Z" fill="#D7CDBA"/>
<path d="M127.97 168.55C128.35 160.78 128.73 153.11 129.11 145.29C132.33 145.92 135.36 146.51 139.31 147.28C138.31 151.45 137.36 155.57 136.28 159.66C136.14 160.2 135.21 161.01 134.83 160.92C130.53 159.93 131.43 162.02 132.31 164.66C132.92 166.48 130.25 168.49 127.98 168.55H127.97Z" fill="#D7CDBA"/>
<path d="M106.09 130.11V126.32C102.37 127.13 98.9 127.87 95.23 128.67C94.83 132.22 94.21 135.87 94.09 139.53C94.02 141.87 94.85 144.23 94.97 146.59C95.04 147.94 94.5 149.33 94.24 150.7C93.84 145.73 93.27 140.77 93.11 135.79C93.03 133.31 93.4899 130.74 94.1899 128.35C94.3999 127.64 96.24 127.25 97.39 127.01C99.8 126.51 102.25 126.22 104.68 125.84L104.53 124.99C101.05 125.4 97.5799 125.81 92.8999 126.36C95.5699 123.98 97.52 122.25 99.46 120.52C101.55 121.08 103.64 121.64 105.89 122.23V114.24C103.69 116.45 101.92 118.24 100.14 120.03C102 117.59 103.87 115.16 105.73 112.72L106.94 112.93C109.57 119.33 107.34 126.19 108.37 133.35C106.61 132.8 105.39 132.43 104.18 132.05L104.34 131.37C105.31 131.58 106.29 131.78 107.26 131.99L107.71 131.43C107.17 130.98 106.63 130.54 106.08 130.09L106.09 130.11Z" fill="#D7CDBA"/>
<path d="M100.6 167.39C100.13 166.61 99.2101 165.79 99.2801 165.06C99.5001 162.87 100.1 160.72 100.55 158.55L101.95 163.95C101.58 164.19 101.21 164.43 100.84 164.66C102.87 165.4 104.9 166.13 106.93 166.87C102.87 165.71 103.33 162.85 103.58 159.62C104.14 152.24 104.31 144.82 104.63 137.42C104.68 136.33 104.63 135.23 104.63 133.1C105.54 134.31 106 134.63 105.99 134.93C105.67 144.06 105.29 153.18 104.99 162.31C104.97 162.99 105.41 163.68 105.64 164.36L108.03 162.44C108.03 167.85 108.09 173.25 107.98 178.65C107.96 179.58 107.22 180.5 106.82 181.42C105.95 180.81 104.84 180.37 104.28 179.56C103.67 178.68 103.56 177.44 103.23 176.36C104.07 177.67 104.91 178.98 105.75 180.28L106.59 179.94C106.28 176.36 105.97 172.77 105.66 169.19C106.21 169.15 106.76 169.11 107.3 169.07L107.54 168.39C105.34 167.55 103.14 166.71 100.94 165.87L100.6 167.38V167.39Z" fill="#D7CDBA"/>
<path d="M125.92 136.83C125.95 137.47 125.981 138.1 126.001 138.74C122.141 138.47 118.28 138.19 114.03 137.89C113.53 147.46 113.041 156.69 112.521 166.51C116.761 167.09 120.9 167.66 125.04 168.22L124.94 169.01C120.76 168.45 116.57 167.98 112.43 167.22C111.91 167.12 111.47 165.54 111.32 164.59C110.87 161.83 110.6 159.04 110.22 156.27C110.1 155.39 109.72 154.53 109.71 153.65C109.65 148.78 109.64 143.91 109.7 139.04C109.71 138.01 110.04 136.99 110.23 135.96L111.23 136.04C110.89 138.99 110.56 141.95 110.22 144.9C114.06 142.97 113.151 139.85 112.761 136.82H125.91L125.92 136.83Z" fill="#D7CDBA"/>
<path d="M149.24 148.49V153.93C144.82 155.02 143.79 156.44 143.08 162.41C144.28 162.02 145.38 161.66 146.48 161.3L146.61 161.59C142.57 164.02 138.54 166.46 134.29 169.02C132.93 168.24 132.777 167.07 133.83 165.51L132.5 161.97L133.55 161.54C134.11 162.74 134.66 163.95 135.29 165.31C135.51 165.26 136.31 165.18 136.32 165.07C136.55 158.6 142.34 157.18 146.23 154.03C146.9 153.49 147.43 152.77 147.45 151.59C145.9 152.35 144.34 153.11 142.79 153.87C144.96 152.1 147.13 150.33 149.3 148.56L149.24 148.49Z" fill="#D7CDBA"/>
<path d="M82.72 190.75C85.26 183.25 87.81 175.75 90.35 168.26L91.08 168.33V185.96L90.14 186.01C90 183.58 89.86 181.15 89.72 178.72H90.0499V188.79C87.8799 190.44 85.12 192.53 82.37 194.63L81.71 194.27C82.06 193.08 82.41 191.89 82.77 190.69C84.79 190.19 86.79 189.7 88.61 189.26V177.79C87.6 179.02 87.13 180.38 86.58 181.7C85.31 184.73 84.01 187.74 82.72 190.75Z" fill="#D7CDBA"/>
<path d="M122.14 186.89C122.36 181.86 122.58 176.84 122.81 171.8H127.94C129.08 173.49 129.87 174.64 130.33 175.32C129.16 179.4 128.02 183.38 126.75 187.83C126.41 187 126.23 186.54 126.31 186.73C124.8 186.76 123.52 186.78 122.24 186.8L122.15 186.89H122.14ZM123.9 172.38V187.04C127.29 182.09 122.74 176.37 128.41 173.06L127.51 172.59L123.89 172.39L123.9 172.38Z" fill="#D7CDBA"/>
<path d="M164.65 142.99C167.28 143.29 169.78 143.24 172.03 143.96C173.18 144.33 173.88 146.08 175.08 147.6C175.18 146.39 175.28 145.13 175.38 143.89C177.027 146.037 179.807 147.467 183.72 148.18H164.65V142.99Z" fill="#D7CDBA"/>
<path d="M94.2498 171.79L93.5098 168.66C98.7198 171.3 102.19 179.72 99.9497 183.3C98.5697 183.65 97.1998 184 95.6198 184.41C96.3298 179.96 97.3397 175.62 94.2397 171.79H94.2498Z" fill="#222222"/>
<path d="M171.11 161.01C164.46 160.65 157.81 160.29 150.66 159.9C150.83 157.59 151.03 154.83 151.24 152.07C151.57 152.1 151.91 152.13 152.24 152.16V159.38H165.65C165.26 157.15 164.84 154.74 164.3 151.71C166.28 153.4 168.03 154.56 169.26 156.13C169.62 156.58 168.52 158.19 168.12 159.18C168.95 159.53 170.3 160.09 171.65 160.66L171.1 161.03L171.11 161.01Z" fill="#D7CDBA"/>
<path d="M190.73 146.86C188.36 143.96 191.72 139.15 185.71 137.25C189.52 136.94 192.38 136.71 196.15 136.4C192.34 138.96 192.41 145.17 195.47 147.66C192.66 147.81 189.91 147.97 187.15 148.12L187.03 147.76C188.02 147.52 189.02 147.28 190.73 146.86Z" fill="#D7CDBA"/>
<path d="M123.44 192.86C123.63 194.65 123.82 196.43 124 198.23C123.56 199.11 123.12 199.97 122.3 201.6C120.4 199.1 118.76 197.26 117.54 195.18C117.01 194.27 116.9 192.53 117.44 191.77C117.85 191.19 119.63 191.35 120.73 191.55C121.68 191.72 122.54 192.41 123.44 192.87V192.86Z" fill="#222222"/>
<path d="M223.469 183.37C223.849 184.65 224.439 185.91 224.529 187.21C224.579 187.98 223.849 188.81 223.469 189.62C218.709 186.05 217.399 180.98 219.489 173.67C219.819 174.73 220.009 175.62 220.359 176.43C221.359 178.76 222.429 181.06 223.469 183.37Z" fill="#222222"/>
<path d="M210.27 168.62C211.18 167.38 212.1 166.14 213.45 164.31C213.36 166.1 213.3 167.17 213.25 168.24L211.98 171.94C211.66 172.51 210.93 173.23 211.08 173.62C212.57 177.52 210.62 179.79 207.03 181.88C207.54 178.06 208.01 174.58 208.48 171.11C209.08 170.28 209.67 169.46 210.27 168.63V168.62Z" fill="#222222"/>
<path d="M149.3 148.55C147.13 150.32 144.96 152.09 142.79 153.86C142.22 154.16 141.65 154.46 141.08 154.75C140.97 152.57 140.86 150.4 140.76 148.5C144.88 147.73 148.51 147.05 152.15 146.38L152.03 146.46C152.69 147.15 153.35 147.85 154 148.54L153.55 149.17C152.13 148.96 150.71 148.75 149.3 148.55Z" fill="#222222"/>
<path d="M115.83 184.71C109.72 183.1 108.89 178.62 109.6 173.28C109.72 172.38 109.62 171.46 109.62 170.01C110.83 170.24 111.83 170.44 112.83 170.64C111.17 170.73 110.07 171.2 110.32 173.29C110.53 175.12 110.27 177 110.4 178.84C110.46 179.66 110.77 180.92 111.34 181.18C114.19 182.51 117.17 183.58 120.36 184.83V172.66C117.69 171.92 115.2 171.22 112.72 170.53C121.63 171.38 121.59 171.38 121.61 180.44C121.61 182.59 121.95 184.73 122.14 186.87L122.23 186.78C120.06 186.04 117.88 185.31 115.71 184.57L115.84 184.69L115.83 184.71Z" fill="#D7CDBA"/>
<path d="M223.47 183.37C222.43 181.06 221.36 178.76 220.36 176.43C220.01 175.61 219.82 174.73 219.49 173.67C217.41 180.98 218.72 186.05 223.47 189.62C220.25 189.48 218.15 188.24 218.21 184.59C218.25 182.29 218.18 179.98 218.03 177.68C217.75 173.29 217.39 168.91 216.98 163.48C219.34 170.73 221.4 177.05 223.46 183.38L223.47 183.37Z" fill="#D7CDBA"/>
<path d="M103.76 196.74C103.39 196.26 102.71 195.78 102.69 195.29C102.58 192.29 102.56 189.29 102.67 186.29C102.69 185.68 103.29 184.77 103.82 184.59C104.35 184.41 105.35 184.79 105.76 185.26C108.69 188.67 108.02 192.85 107.78 196.8C107.71 197.89 106.06 199.52 104.65 197.24C105.17 196.81 106.11 196.4 106.13 195.95C106.25 193.31 106.31 190.65 106.05 188.03C105.95 187.06 104.92 186.17 104.32 185.25C103.95 185.37 103.58 185.5 103.21 185.62C103.39 189.33 103.58 193.03 103.76 196.74Z" fill="#D7CDBA"/>
<path d="M200.87 148.47C195.82 150.56 179.38 151.18 173.41 149.54C182.42 149.19 191.72 148.83 200.87 148.47Z" fill="#D7CDBA"/>
<path d="M189.64 178.76C190.5 180.85 191.36 182.94 192.28 185.17C195.3 185.97 197.45 184.99 198.99 181.93C200.24 179.45 202.05 177.25 203.62 174.92C202.03 178.25 201.05 182.15 198.65 184.71C197.07 186.4 193.43 186.17 190.71 186.8C190.31 183.77 189.97 181.27 189.64 178.76Z" fill="#D7CDBA"/>
<path d="M103.76 196.74C103.58 193.03 103.39 189.33 103.21 185.62C103.58 185.5 103.95 185.37 104.32 185.25C104.93 186.17 105.96 187.05 106.05 188.03C106.31 190.65 106.25 193.31 106.13 195.95C106.11 196.4 105.17 196.81 104.65 197.24L103.76 196.75V196.74Z" fill="#222222"/>
<path d="M208.48 171.1C208.01 174.57 207.55 178.05 207.03 181.87C210.63 179.78 212.57 177.51 211.08 173.61C210.93 173.22 211.66 172.5 211.98 171.93C212.11 173.4 212.01 174.93 212.4 176.32C213.3 179.55 210.58 180.99 209.18 183.04C209.04 183.25 206.61 182.44 206.62 182.13C206.72 178.38 205.12 174.29 208.48 171.1Z" fill="#D7CDBA"/>
<path d="M124.4 202.48C123.72 204.72 123.04 206.96 122.34 209.25C120.446 208.277 118.546 204.457 116.64 197.79C118.38 200.82 120.11 203.84 121.93 207.01C122.53 205.34 123.1 203.75 123.67 202.16L124.41 202.48H124.4Z" fill="#D7CDBA"/>
<path d="M100.14 120.03C101.92 118.24 103.69 116.45 105.89 114.24V122.23C103.64 121.63 101.55 121.07 99.46 120.52L100.14 120.03Z" fill="#222222"/>
<path d="M96.72 193.05C94.85 191.34 94.5501 189.87 97.2401 188.63C98.1601 188.2 98.9301 187.44 99.7601 186.84C100.16 189.2 100.57 191.57 101.02 194.23C99.1001 193.71 97.91 193.38 96.72 193.06V193.05Z" fill="#222222"/>
<path d="M105.66 169.2C105.97 172.78 106.28 176.37 106.59 179.95L105.75 180.29C104.91 178.98 104.07 177.67 103.23 176.37C103.27 174.64 103.08 172.85 103.46 171.19C103.64 170.4 104.9 169.86 105.66 169.21V169.2Z" fill="#222222"/>
<path d="M196.52 192.39C196.99 193.68 197.46 194.96 197.93 196.24C198.12 196.17 198.59 196 199.07 195.83L199.42 196.43C197.71 197.43 196 198.42 193.72 199.75C194.31 197.14 194.83 194.79 195.36 192.44L196.53 192.39H196.52Z" fill="#D7CDBA"/>
<path d="M101.21 157.98C101.59 153.06 101.96 148.13 102.34 143.21C102.36 142.98 102.48 142.66 102.37 142.53C100.04 139.86 101.68 136.98 101.91 134.19C102.14 134.45 102.56 134.7 102.56 134.96C102.55 142.1 102.52 149.23 102.4 156.37C102.4 156.92 101.63 157.45 101.22 157.99L101.21 157.98Z" fill="#D7CDBA"/>
<path d="M129.26 171.05C122.87 170.4 116.47 169.75 110.08 169.1L110.14 168.38L129.37 169.82L129.25 171.05H129.26Z" fill="#D7CDBA"/>
<path d="M94.25 171.79C97.35 175.62 96.34 179.96 95.63 184.41C97.2 184.01 98.58 183.66 99.96 183.3C98.49 184.23 97.0199 185.16 95.4199 186.17C95.0099 181.1 94.63 176.44 94.26 171.79H94.25Z" fill="#D7CDBA"/>
<path d="M166.2 141.06L173.64 140.08L173.73 140.51C173.13 140.7 172.53 140.88 171.93 141.07L171.91 141.46H180.14V142.14H166.33L166.2 141.06Z" fill="#D7CDBA"/>
<path d="M162.48 150.16C161.82 149.26 160.82 148.43 160.59 147.43C160.26 146 160.43 144.44 160.54 142.95C160.58 142.41 161.08 141.9 161.36 141.38C161.78 141.92 162.48 142.42 162.56 143C162.85 145.1 162.93 147.23 163.09 149.35C162.89 149.62 162.68 149.89 162.48 150.16Z" fill="#D7CDBA"/>
<path d="M131.15 144.42H150.8C143.99 145.76 137.22 146.57 131.15 144.42Z" fill="#D7CDBA"/>
<path d="M96.7197 193.05C97.9097 193.37 99.0998 193.7 101.02 194.22C100.56 191.56 100.16 189.19 99.7598 186.83C100.26 186.43 100.77 186.03 101.7 185.29V196.06C99.9297 194.99 98.3297 194.02 96.7197 193.05Z" fill="#D7CDBA"/>
<path d="M177.99 136.56V122.67L178.63 122.64C178.89 127.27 179.16 131.91 179.42 136.54C178.94 136.54 178.46 136.55 177.99 136.56Z" fill="#D7CDBA"/>
<path d="M152.15 146.39C148.51 147.07 144.88 147.75 140.76 148.51C140.86 150.4 140.97 152.58 141.08 154.76C140.76 155.15 140.43 155.55 140.11 155.94C139.88 155.87 139.66 155.81 139.43 155.74C139.69 152.97 139.96 150.2 140.24 147.25C144.38 146.95 148.27 146.67 152.16 146.38L152.15 146.39Z" fill="#D7CDBA"/>
<path d="M193.87 151.6C191.29 153.49 190.08 156.26 188.51 158.95C186.45 162.48 186.66 165.83 187.25 169.45C185.57 167.38 185.38 162.74 186.83 160.21C187.4 159.22 188.07 158.24 188.41 157.17C189.29 154.34 190.94 152.37 193.87 151.61V151.6Z" fill="#D7CDBA"/>
<path d="M203.38 192.59C204.35 194.98 205.11 196.85 206.01 199.08C201.5 198.24 200.68 196.37 203.38 192.59Z" fill="#D7CDBA"/>
<path d="M211.349 193.25C210.739 192.06 210.119 190.88 209.439 189.55C216.299 187.83 217.279 188.64 216.579 195.54C214.649 194.67 212.94 193.9 211.24 193.13C212.76 193.46 214.28 193.79 216.5 194.27C215.97 192.49 215.929 190.8 215.059 189.98C214.389 189.34 212.679 189.8 211.429 189.77L211.349 193.26V193.25Z" fill="#D7CDBA"/>
<path d="M94.3398 150.53C94.1198 155.02 93.0199 159.58 95.3699 163.87C94.6199 163.1 93.2898 162.37 93.2198 161.54C92.9598 158.25 93.0499 154.92 93.1299 151.61C93.1299 151.24 93.9098 150.89 94.3298 150.53H94.3398Z" fill="#D7CDBA"/>
<path d="M115.7 184.59C117.2 186.51 118.49 188.43 115.73 190.12C114.45 187.95 113.19 185.83 111.99 183.78C113.05 184.04 114.45 184.38 115.84 184.71L115.71 184.59H115.7Z" fill="#D7CDBA"/>
<path d="M198.63 147.05C202.18 144.17 199.07 140.48 200.19 137.07C198.8 137.14 197.95 137.18 197.04 137.23C197.11 136.95 197.09 136.68 197.19 136.63C199.6 135.3 200.87 135.78 200.82 138.78C200.79 140.62 200.91 142.5 201.25 144.31C201.73 146.88 200.57 147.42 198.64 147.04L198.63 147.05Z" fill="#D7CDBA"/>
<path d="M207.16 200.43C206.85 198.65 206.61 197.31 206.28 195.44C208.29 196.41 209.73 197.11 211.46 197.96C210.17 198.7 208.96 199.4 207.16 200.44V200.43Z" fill="#D7CDBA"/>
<path d="M158.61 151.65C159.01 152.99 159.41 154.33 159.91 155.97C158.61 156.11 157.65 156.21 155.74 156.41C156.5 154.41 157.04 152.98 157.58 151.55L158.61 151.65Z" fill="#D7CDBA"/>
<path d="M98.4199 169.24C99.0199 169.81 99.62 170.38 100.49 171.22C100.49 169.62 100.49 168.44 100.49 167.25C101.17 169.55 101.85 171.85 102.53 174.14C102.05 174.32 101.56 174.51 101.08 174.69C100.19 172.87 99.2999 171.05 98.4199 169.23V169.24Z" fill="#D7CDBA"/>
<path d="M107.92 138.98V154.08H107.78V138.92L107.92 138.98Z" fill="#D7CDBA"/>
<path d="M113.5 192.6C112.31 190.32 111.12 188.04 109.93 185.75L110.93 185.17L114.84 191.84L113.51 192.6H113.5Z" fill="#D7CDBA"/>
<path d="M213.44 100.41C214.02 100.65 215.11 100.9 215.11 101.13C215.08 104.01 215.02 106.89 214.7 109.75C214.15 114.71 213.42 115.12 207.69 114.19C207.69 111.26 207.2 108.21 207.83 105.41C208.42 102.76 210.65 100.91 213.55 100.32L213.44 100.42V100.41Z" fill="#222222"/>
<path d="M133.3 208.97C133.72 209.13 134.27 209.18 134.54 209.48C143.52 219.42 154.66 222.19 167.48 219.52C163.02 220.06 158.55 220.53 154.1 221.16C152.94 221.32 150.99 219.61 150.73 222.36C149.79 222.75 148.85 223.15 147.87 223.56C148.01 222.64 148.14 221.8 148.27 220.97L146.25 221.32C145.89 220.45 145.77 219.3 145.14 218.8C141.48 215.93 137.7 213.21 133.96 210.44C133.75 209.95 133.53 209.46 133.32 208.97H133.3Z" fill="#222222"/>
<path d="M173.07 220.2C171.52 221.39 169.96 222.58 168.09 224.02C168.32 223.18 168.49 222.55 168.78 221.49C162.6 224.14 156.64 224.54 150.61 222.27C153.83 222.59 157.05 223.24 160.25 223.13C162.27 223.06 164.21 221.68 166.26 221.2C168.49 220.68 170.8 220.52 173.07 220.2Z" fill="#222222"/>
<path d="M160.41 129.2C160.41 131.26 160.48 133.33 160.35 135.38C160.32 135.8 159.47 136.5 159.05 136.46C158.57 136.41 157.76 135.67 157.78 135.27C157.88 133.22 158.2 131.17 158.45 129.13L160.41 129.2Z" fill="#222222"/>
<path d="M213.51 140.03C213.13 141.32 212.11 142.83 212.46 143.87C215.26 152.19 213.28 159.43 207.91 166.02C207.78 165.92 207.44 165.71 207.45 165.68C210.51 159.57 206.95 153.46 207.41 147.28C208.05 138.71 207.57 130.06 207.57 121.14C209.07 121.24 210.5 121.34 212.76 121.5C212.97 127.77 213.17 133.96 213.38 140.14L213.51 140.02V140.03Z" fill="#222222"/>
<path d="M82.7197 190.75C84.0097 187.73 85.3197 184.72 86.5797 181.7C87.1297 180.38 87.6097 179.02 88.6097 177.79V189.26C86.7897 189.7 84.7898 190.19 82.7698 190.69C82.7598 190.7 82.7197 190.76 82.7197 190.76V190.75Z" fill="#222222"/>
<path d="M123.9 172.38L127.521 172.58L128.42 173.05C122.75 176.36 127.29 182.09 123.91 187.03V172.37L123.9 172.38Z" fill="#222222"/>
<path d="M112.72 170.54C115.2 171.23 117.69 171.92 120.36 172.67V184.84C117.17 183.58 114.2 182.52 111.34 181.19C110.77 180.93 110.46 179.67 110.4 178.85C110.26 177.01 110.53 175.12 110.32 173.3C110.08 171.21 111.17 170.74 112.83 170.65L112.72 170.56V170.54Z" fill="#222222"/>
<path d="M211.35 193.25L211.43 189.76C212.68 189.79 214.38 189.34 215.06 189.97C215.93 190.79 215.96 192.48 216.5 194.26C214.28 193.78 212.76 193.44 211.24 193.12L211.36 193.24L211.35 193.25Z" fill="#222222"/>
</g>
<defs>
<clipPath id="clip0_41_18763">
<rect width="313.74" height="313.74" fill="white"/>
</clipPath>
</defs>
</svg>
