<svg width="318" height="326" viewBox="0 0 318 326" fill="none" xmlns="http://www.w3.org/2000/svg">
<g clip-path="url(#clip0_41_16001)">
<circle cx="158.83" cy="162.755" r="156.821" fill="#222222"/>
<path d="M185.612 129.809C185.032 130.839 184.462 131.869 183.652 133.319L185.352 132.379L185.202 133.789L187.412 132.309L187.812 132.679C185.812 134.649 183.802 136.609 181.412 138.959L184.042 138.399C183.522 139.689 183.612 141.299 181.522 140.909C181.202 141.929 180.842 143.059 180.492 144.189L180.052 144.069L181.042 140.359L178.472 143.159C179.242 141.609 180.012 140.069 180.982 138.109L179.022 139.599L178.662 139.149C180.612 137.699 182.562 136.239 184.522 134.789L184.212 134.339L182.352 134.939L182.702 133.059C179.292 135.199 175.712 136.329 174.542 140.439C174.032 142.229 173.042 143.889 172.272 145.599L171.682 145.339C172.792 142.649 173.602 139.759 175.132 137.329C176.092 135.799 178.132 134.939 179.702 133.809C180.412 133.299 181.172 132.869 182.252 132.179C178.622 131.739 173.912 135.389 172.772 138.659C172.062 140.689 171.192 142.929 169.702 144.359C166.652 147.319 165.452 150.829 165.082 154.849C164.982 155.939 164.652 157.009 163.992 158.019C164.072 156.179 164.152 154.329 164.232 152.489L163.822 152.379L162.762 156.319C161.572 150.099 162.512 145.609 166.642 144.249L164.002 148.679C165.622 147.659 166.952 146.569 168.212 145.389C168.722 144.919 169.172 144.319 169.472 143.699C170.592 141.359 171.622 138.979 172.702 136.609C173.832 134.119 175.612 132.489 178.352 131.839C179.212 131.639 179.942 130.879 180.732 130.369L180.272 129.769C175.992 131.579 171.742 133.319 169.952 138.359C169.232 140.389 167.842 142.179 166.752 144.079C167.502 140.529 169.032 137.379 170.882 134.219C172.892 130.789 177.012 130.739 179.792 127.839L177.922 127.539L177.972 127.599L178.902 125.899C173.292 128.889 166.952 130.709 164.402 137.439C163.572 139.639 161.762 141.479 160.302 143.419C159.042 145.099 158.532 146.879 158.612 148.999C158.722 151.849 158.512 154.709 158.372 157.559C158.342 158.229 158.022 158.879 157.842 159.539L157.112 159.439C157.292 156.329 157.462 153.229 157.642 150.119C156.892 153.719 154.662 157.009 155.012 160.909C155.012 158.979 154.812 157.019 155.062 155.119C155.382 152.729 155.812 150.289 156.662 148.039C157.472 145.899 158.892 143.989 160.042 141.989C160.802 140.649 161.552 139.299 162.342 137.979C163.242 136.459 163.922 134.719 165.142 133.519C167.372 131.329 169.882 129.419 172.372 127.509C173.302 126.789 174.522 126.449 175.552 125.849C176.472 125.309 177.302 124.629 177.932 123.629C174.172 125.229 170.332 126.739 167.452 129.669C164.632 132.539 162.172 135.759 159.282 139.139C159.642 137.899 159.702 136.789 160.242 135.999C163.852 130.619 168.852 126.879 174.622 124.059C175.712 123.529 176.572 122.549 177.342 121.539C169.112 125.359 161.692 130.149 156.992 138.249C156.722 136.449 157.132 135.099 158.702 134.239C159.182 133.979 159.752 133.549 159.912 133.079C160.922 130.179 163.562 128.969 165.782 127.389C168.672 125.339 171.742 123.539 174.682 121.559C175.332 121.129 175.802 120.419 176.352 119.839L175.922 119.299C174.642 120.079 173.382 120.889 172.092 121.649C165.442 125.579 159.432 130.279 155.122 136.749C153.332 139.439 152.142 142.569 150.922 145.589C150.012 147.859 148.742 149.729 146.742 151.129C144.662 152.589 143.852 154.509 144.412 157.069C144.852 159.109 145.042 161.199 145.652 163.199C145.822 160.579 145.742 157.919 146.262 155.379C146.512 154.159 147.922 153.169 148.802 152.079L148.762 152.029C146.292 154.669 145.712 157.629 147.052 161.029C147.402 161.929 147.332 162.999 147.422 163.989C147.712 167.079 147.982 170.169 148.252 173.259C148.332 174.219 148.372 175.189 148.422 176.149L147.892 176.229C147.272 172.909 146.652 169.589 146.032 166.269L145.582 166.339V173.849L145.082 173.899C144.572 167.409 144.052 160.909 143.542 154.419L143.182 154.349C142.942 156.449 142.512 158.549 142.492 160.659C142.472 162.929 142.812 165.209 143.022 167.479C143.222 169.679 143.452 171.879 143.452 174.089C140.742 166.639 141.142 159.069 142.402 150.869C141.572 152.389 140.792 153.529 140.302 154.779C139.782 156.139 139.532 157.599 139.102 159.279C138.232 156.259 139.322 152.659 142.042 150.299C144.482 148.179 145.772 145.499 146.692 142.519C147.442 140.079 148.842 138.069 151.052 136.639C148.582 141.889 147.792 147.939 143.122 152.099C146.892 150.579 148.882 147.929 149.642 144.049C149.992 142.239 151.462 140.649 152.452 138.979C152.632 138.679 153.082 138.499 153.162 138.199C154.052 134.869 156.402 132.539 158.682 130.199C159.912 128.949 161.322 127.849 162.772 126.849C166.112 124.539 169.532 122.359 172.882 120.069C173.392 119.719 173.692 119.069 173.882 118.349C166.842 122.869 159.452 126.859 153.932 133.369C154.042 130.939 155.782 129.589 157.372 128.299C159.352 126.679 161.562 125.329 163.662 123.859C165.742 122.399 167.832 120.959 169.872 119.439C170.272 119.139 170.472 118.569 170.562 117.929C163.112 122.449 155.932 127.239 150.292 134.029C150.972 131.759 151.592 129.699 154.202 128.649C155.892 127.969 157.052 126.069 158.612 124.929C161.752 122.629 165.012 120.479 168.192 118.239C168.612 117.949 168.902 117.479 169.042 116.689C168.632 116.759 168.142 116.709 167.822 116.919C160.302 121.869 152.712 126.769 147.002 133.909C145.422 135.889 144.412 138.319 142.962 140.429C141.542 142.499 139.902 144.409 138.352 146.389L137.382 145.689C139.912 141.989 142.422 138.279 144.982 134.609C146.032 133.099 147.212 131.679 148.332 130.209C148.632 129.809 148.822 129.289 149.202 128.999C151.722 127.099 154.272 125.249 156.842 123.399C157.472 122.939 158.212 122.629 158.852 122.169C160.912 120.689 162.952 119.189 164.962 117.649C165.492 117.249 165.882 116.669 166.632 115.859H164.412L164.972 114.399C158.852 116.309 154.542 120.419 150.042 123.889C145.482 127.409 141.832 132.119 138.042 136.039C138.622 133.489 140.212 131.269 142.432 129.699C143.462 128.969 144.522 128.039 145.062 126.949C145.952 125.149 147.812 124.479 148.922 123.159C151.392 120.229 154.972 119.269 157.872 117.179C158.902 116.439 160.052 115.859 161.122 115.169C161.792 114.739 162.422 114.249 163.562 113.429H160.912L161.372 112.289L160.952 111.799C151.102 116.509 141.372 121.389 135.032 131.039C135.782 127.829 137.612 125.389 140.052 123.639C141.362 122.699 142.442 121.429 143.672 120.369C144.302 119.829 145.032 119.419 145.732 118.959C146.672 118.349 147.612 117.749 148.562 117.149C149.212 116.739 149.842 116.319 150.522 115.969C151.282 115.579 152.092 115.279 152.852 114.909C154.672 114.019 156.492 113.109 158.302 112.199C158.922 111.889 159.542 111.569 160.072 110.939C157.822 110.799 155.672 111.389 153.792 112.479C149.662 114.859 145.662 117.459 141.602 119.969C141.542 119.899 141.472 119.839 141.412 119.769C145.582 115.089 151.002 112.449 156.772 110.409C157.492 110.149 158.232 109.919 158.672 109.779C158.512 108.529 158.382 107.509 158.162 105.859C157.302 105.949 155.852 106.019 154.432 106.269C152.972 106.529 151.552 106.969 150.092 107.219C152.342 106.009 154.462 104.589 157.282 105.069C158.052 105.199 158.992 104.279 159.852 103.839L159.702 103.299L154.782 102.449L154.822 102.109L160.052 102.639L160.192 102.159C158.462 101.679 156.722 101.199 154.992 100.719V100.509L161.462 101.499L161.582 101.109L157.172 99.6293L157.252 99.1593C159.082 99.5393 160.912 99.9193 162.732 100.299L162.852 99.9893L159.862 98.2993L159.992 97.9893C162.272 98.3693 164.552 98.7493 166.832 99.1293V99.5293L165.542 99.8693C168.932 99.8693 172.052 100.399 174.162 103.509C174.382 103.149 174.492 103.049 174.492 102.939C174.492 102.809 174.412 102.669 174.422 102.689H179.882L180.092 103.449C177.362 104.159 174.632 104.879 171.562 105.679L173.332 106.519C170.392 107.019 167.822 105.009 165.192 105.849L165.072 106.519L168.092 108.389C168.092 108.529 167.932 109.269 168.192 109.499C168.492 109.759 169.392 109.789 169.672 109.529C171.302 107.999 172.482 109.009 173.742 110.039C175.762 111.689 177.882 112.049 180.292 110.769C181.212 110.279 182.362 110.209 183.402 109.949L183.532 110.459L181.442 110.939L184.022 112.499L183.682 112.939L181.032 111.769L181.262 113.339L179.592 112.759C183.842 118.419 190.422 120.759 195.882 124.659C201.472 128.649 207.702 131.529 214.602 133.659C211.832 133.889 202.872 130.369 196.642 126.479C191.232 123.099 185.992 119.449 180.392 116.129C181.092 116.949 181.642 117.989 182.502 118.559C190.482 123.809 198.402 129.189 207.382 132.699C207.982 132.929 208.542 133.239 209.102 133.549C209.332 133.679 209.512 133.909 210.042 134.389C200.072 132.189 192.672 126.009 184.502 121.279C191.652 127.609 200.012 131.819 208.772 135.589C207.672 135.339 206.542 135.149 205.462 134.819C203.852 134.319 202.272 133.719 200.672 133.159C196.852 130.879 193.032 128.599 189.212 126.329C188.772 126.069 188.282 125.889 187.812 125.669C191.432 129.389 195.902 131.549 200.692 133.139L202.902 134.949L202.672 135.409L190.282 129.329L189.972 129.929C193.802 131.839 197.642 133.759 201.472 135.669L201.272 136.159C198.612 135.069 195.942 133.989 193.282 132.899L193.072 133.349L202.602 137.819C196.182 138.069 192.672 132.949 188.012 130.039L189.002 128.769L188.792 128.369C187.722 128.849 186.662 129.339 185.592 129.819C186.202 128.999 186.812 128.179 187.422 127.369L186.912 126.929L182.622 130.599L182.882 130.949L185.662 129.749L185.612 129.809ZM178.092 115.149C177.562 116.289 177.062 117.349 176.562 118.429L177.782 119.479C179.409 118.339 179.512 116.896 178.092 115.149ZM186.212 125.769L185.742 125.269C184.312 126.579 182.882 127.899 181.442 129.209L181.992 129.789C183.212 128.249 185.862 128.209 186.212 125.769ZM185.402 124.579L184.722 123.729L180.382 127.119L180.932 127.799C182.422 126.719 183.912 125.649 185.402 124.569V124.579ZM165.662 110.179C164.496 109.186 163.216 109.106 161.822 109.939L163.042 110.209L161.872 112.039C163.492 111.249 164.542 110.729 165.662 110.179ZM166.972 101.869L166.672 100.759L163.032 102.009L163.362 103.009L166.972 101.869ZM163.212 105.179L160.182 105.849L161.872 106.359L160.022 107.519L160.162 107.849C161.262 107.509 162.372 107.179 163.462 106.839L163.202 105.169L163.212 105.179Z" fill="#D7CDBA"/>
<path d="M156.792 169.869C156.352 170.559 155.692 171.189 155.532 171.939C155.122 173.799 153.992 174.509 152.282 174.159C150.472 173.789 148.852 172.969 148.652 170.799C148.332 167.349 151.032 164.889 155.082 164.709L152.392 163.679C154.442 162.879 156.022 162.259 157.592 161.649L157.872 162.149C157.352 162.849 156.832 163.539 156.312 164.239C159.132 162.209 161.942 161.199 165.082 163.519C165.102 160.769 167.332 160.539 169.082 160.029C171.982 159.179 173.372 159.879 174.842 162.489C175.422 162.069 175.332 161.313 174.572 160.219L174.952 159.759L178.392 162.609L178.512 162.389C179.222 162.879 179.912 163.429 180.672 163.839C181.122 164.079 181.702 164.109 182.232 164.179C184.082 164.459 184.842 165.639 184.292 167.499C184.582 167.519 184.862 167.579 185.142 167.559C186.512 167.459 187.852 167.919 187.852 169.299C187.852 170.229 186.962 171.579 186.112 171.999C184.812 172.639 184.672 173.139 185.152 173.809C186.172 173.539 187.532 172.889 187.752 173.169C188.772 174.429 189.892 175.879 190.122 177.399C190.272 178.349 189.132 179.789 188.192 180.559C186.952 181.579 184.102 180.909 183.102 179.619L181.592 181.309L181.742 181.559L182.852 181.009C183.032 181.909 182.932 183.059 183.462 183.679C184.182 184.529 187.212 183.829 188.032 182.839C188.702 184.389 188.202 185.619 187.062 186.649C185.832 187.759 184.462 188.409 182.762 187.629L183.282 186.899C182.782 186.819 182.212 186.559 181.782 186.689C180.462 187.109 179.192 187.649 178.092 186.209L180.262 185.779L180.362 185.249C179.792 185.049 179.232 184.819 178.662 184.649C178.062 184.479 177.322 184.549 176.872 184.209C176.002 183.549 175.512 182.769 177.062 182.159C177.592 181.949 177.972 181.349 178.572 180.779C175.402 180.059 175.132 179.719 175.632 177.139C176.382 178.639 177.512 178.909 178.662 178.079C179.512 177.469 180.122 176.529 180.972 175.609C180.532 174.349 179.852 173.929 178.482 175.109C177.852 175.649 176.892 175.809 175.742 175.909C178.402 173.979 178.922 171.679 177.482 168.469C177.142 169.869 176.802 170.849 176.672 171.849C176.162 175.639 171.532 178.239 168.542 175.239L165.502 176.779C165.862 174.959 168.462 174.529 167.522 172.349C167.022 171.179 166.222 170.149 165.362 168.739C165.172 170.039 164.902 171.009 164.932 171.959C164.982 173.939 164.142 175.319 162.302 175.909C160.572 176.469 158.922 176.179 157.582 174.779C156.192 173.339 155.982 171.829 157.372 170.149L156.802 169.869H156.792Z" fill="#D7CDBA"/>
<path d="M140.572 202.759C137.432 203.499 134.292 204.259 131.152 204.989C128.542 205.599 125.932 206.179 123.422 207.279L133.342 205.499L133.492 206.059C126.802 207.009 120.202 208.239 114.862 212.819C116.622 211.969 118.322 210.969 120.152 210.319C122.962 209.319 125.942 207.669 128.702 207.909C134.172 208.389 138.602 205.519 143.712 204.869C142.292 205.489 140.872 206.109 139.442 206.729L139.682 207.289C142.662 205.939 145.642 204.589 148.622 203.239L148.742 203.429C147.242 204.389 145.742 205.329 144.262 206.319C144.202 206.359 144.392 206.749 144.462 206.979C142.782 207.459 141.102 207.949 139.432 208.429C142.572 208.739 145.492 208.299 147.862 206.029C147.072 206.319 146.282 206.609 145.502 206.899C146.912 205.889 148.322 204.869 149.732 203.859L150.022 204.109L149.352 205.279L149.722 205.599C151.262 204.319 152.812 203.039 154.262 201.839L154.002 203.899L155.482 203.209C155.522 203.919 155.822 204.719 155.552 205.029C153.892 206.939 152.752 209.639 150.022 210.189C147.342 210.729 144.552 210.769 141.802 210.909C139.752 211.009 137.692 210.929 135.682 210.929L137.842 209.389C133.992 209.329 124.512 212.809 122.892 214.659C125.592 213.859 128.572 212.989 131.552 212.109L131.802 212.729L126.672 215.199L126.792 215.569L129.282 215.069L129.532 215.469C126.642 217.699 123.742 219.919 120.852 222.149L120.392 221.619C122.252 219.999 124.102 218.369 125.962 216.749C121.192 218.289 118.372 222.559 114.322 225.089L113.872 224.549C117.592 221.439 121.322 218.329 125.042 215.219L124.922 214.979C123.692 215.599 122.452 216.219 121.012 216.959L121.382 215.469C118.972 216.879 116.812 218.129 114.662 219.379L114.442 219.019C117.302 217.149 120.162 215.279 123.022 213.419L122.652 212.839C118.832 215.209 115.012 217.589 111.192 219.959C114.222 216.209 118.902 214.689 122.582 211.709L119.892 212.509L119.722 212.019C122.542 210.959 125.352 209.899 128.172 208.839L128.072 208.389C127.122 208.609 126.102 208.679 125.222 209.069C121.642 210.669 118.102 212.339 114.572 214.049C112.622 214.989 110.742 216.069 108.652 216.959C110.602 215.189 112.552 213.409 114.502 211.639L114.332 211.339L110.102 213.429L109.792 212.759C113.232 211.299 116.662 209.849 120.102 208.389L119.892 207.869C116.272 209.209 112.662 210.559 108.902 211.959C111.942 207.979 117.032 209.019 120.632 206.499C117.152 207.309 113.672 208.149 110.182 208.909C109.622 209.029 108.982 208.769 108.382 208.679L108.292 207.699C111.442 206.699 114.592 205.699 117.752 204.699L117.682 204.399L106.962 206.629C108.592 205.699 109.842 204.989 111.092 204.279L110.992 204.009L109.312 204.349L109.252 204.129C110.582 203.569 111.912 202.999 113.632 202.269C112.152 201.929 110.512 203.369 110.342 200.879C114.052 198.139 118.962 198.029 123.452 196.699C118.352 196.589 113.652 197.969 109.102 200.249C110.012 199.689 110.892 199.099 111.832 198.589C112.832 198.049 113.872 197.589 114.752 196.689C112.942 197.349 111.132 198.009 109.322 198.669L109.062 198.279C110.272 197.429 111.412 196.469 112.692 195.769C114.882 194.569 117.112 193.419 119.412 192.459C122.062 191.359 124.762 190.289 127.542 189.609C128.972 189.259 130.602 189.769 132.152 189.889L132.102 190.499C131.992 190.559 131.842 190.689 131.772 190.659C128.852 189.339 126.412 191.259 123.762 191.899H125.782L125.842 192.199C122.722 192.879 119.592 193.569 116.832 194.169L116.442 196.549C118.532 195.609 120.492 194.659 122.512 193.859C123.722 193.379 125.032 193.149 126.432 193.209L124.702 194.269C126.822 193.889 128.412 193.599 130.012 193.319L130.102 193.589C128.412 194.279 126.732 194.959 124.892 195.709C129.412 196.739 133.192 193.859 137.462 194.039C134.182 194.989 130.902 195.929 127.622 196.879C134.672 195.379 141.722 193.879 149.152 194.759C147.972 195.179 146.782 195.599 145.072 196.209H148.342C147.292 197.119 146.422 197.879 145.552 198.629L145.702 198.899C146.912 198.259 148.082 197.499 149.352 197.009C150.422 196.599 151.642 196.609 152.732 196.239C153.312 196.039 153.752 195.439 154.212 195.059C155.082 196.889 154.962 197.089 150.882 199.829L151.742 198.239C151.602 198.119 151.502 198.029 151.492 198.039C150.672 198.719 149.862 199.399 148.582 200.469C149.132 199.409 149.422 198.839 149.762 198.169C146.862 200.389 144.022 202.559 141.182 204.739L140.792 204.229L144.322 201.839L144.182 201.579C142.942 202.019 141.702 202.459 140.462 202.899C141.152 202.329 141.852 201.769 142.992 200.829C139.882 201.959 137.312 202.889 134.752 203.819L134.802 204.049C136.712 203.649 138.612 203.239 140.522 202.839L140.572 202.759ZM136.262 201.279L134.722 202.239L134.992 202.769C137.972 201.599 140.952 200.439 143.942 199.269L143.742 198.779C142.602 199.059 141.452 199.589 140.312 199.549C139.222 199.509 138.182 198.689 137.082 198.579C136.052 198.479 134.982 198.839 133.942 199.069C133.822 199.099 133.822 199.619 133.722 200.129C129.812 200.389 125.672 200.659 121.532 200.929L121.562 201.249H136.272L136.262 201.279ZM131.992 202.639L131.802 201.839L112.292 203.959L112.372 204.619C118.912 203.959 125.452 203.299 131.982 202.639H131.992ZM144.102 196.049L143.922 195.449C140.712 195.729 137.502 196.009 134.292 196.279L134.312 196.679H139.402C138.482 197.099 137.532 197.279 136.582 197.479C135.702 197.659 134.822 197.859 133.952 198.049L134.102 198.599C137.352 197.449 141.262 198.769 144.102 196.039V196.049ZM113.462 200.409C116.512 199.919 119.552 199.319 122.622 198.959C125.682 198.599 128.772 198.489 131.852 198.269L131.782 197.629C125.622 198.189 119.262 197.389 113.462 200.409ZM110.992 207.169L111.132 207.809C115.012 207.029 118.892 206.239 122.762 205.459L122.622 204.799C118.742 205.589 114.872 206.389 110.992 207.179V207.169ZM124.552 211.089L124.752 211.809C128.392 210.699 132.032 209.589 135.672 208.489L135.482 207.889L124.542 211.089H124.552ZM144.842 210.329C147.832 210.649 151.742 208.769 153.032 206.329C150.342 207.639 147.392 209.079 144.842 210.329ZM151.842 205.669C148.452 207.009 145.352 208.229 142.262 209.449C145.822 209.329 149.042 208.409 151.842 205.669ZM131.532 203.729L131.422 203.139C129.162 203.559 126.902 203.969 124.642 204.389L124.762 204.989C127.022 204.569 129.282 204.149 131.542 203.729H131.532Z" fill="#D7CDBA"/>
<path d="M196.152 95.6894C193.962 91.4694 191.782 87.2494 189.552 82.9594C191.042 82.9794 191.902 84.4893 192.292 85.5993C192.772 87.0193 193.852 87.6294 194.682 88.5894C195.162 89.1394 195.392 89.8993 195.882 90.8593C195.632 90.9093 195.942 90.8494 196.482 90.7494L195.942 91.9894L197.382 91.8493L196.662 92.7993L199.502 94.1894L197.602 96.2794L199.182 95.9193L198.122 97.3094L199.842 96.8094L199.422 97.9894L201.172 97.5793L201.612 98.1993C200.922 98.7093 200.262 99.5793 199.522 99.6693C196.202 100.069 192.842 100.529 189.512 100.459C180.722 100.289 171.882 99.9494 163.542 96.7993C156.012 93.9593 149.132 89.8794 143.032 84.5894C141.862 83.5694 140.872 82.2994 140.012 80.9994C139.582 80.3594 139.642 79.3893 139.482 78.5693L140.002 78.3994C140.342 78.7194 140.682 79.0393 141.022 79.3493C141.952 78.9093 142.892 78.4593 143.822 78.0193L144.282 78.6594L141.302 80.1194L142.082 80.8994C144.412 80.7494 147.292 83.7393 146.362 85.7593L148.152 84.9694C148.082 85.5294 148.042 85.8794 148.072 85.6194L152.832 89.8193L151.942 88.1093L152.212 87.9094L153.382 89.2293C158.142 82.0393 164.562 76.7193 172.542 73.2593L168.322 76.6794C168.692 77.7594 168.092 78.2694 165.462 78.3394L165.752 79.9493L164.762 79.8293C165.462 81.3493 163.392 83.5093 160.762 83.5093L162.112 84.2094L160.262 84.4193L161.872 85.3893L159.812 85.6894C159.892 86.1094 160.192 86.7894 160.012 86.9594C158.972 87.9294 158.802 89.9893 156.702 89.7893C155.802 91.9093 157.002 92.7693 158.902 93.5693C164.892 96.0693 170.942 98.3093 177.542 99.1393L177.812 97.8094L170.152 95.6093L170.292 95.0894C173.052 95.7894 175.812 96.4994 178.722 97.2394C179.172 89.1894 178.072 81.4594 176.432 73.7794L176.922 73.5193C178.212 76.1693 179.502 78.8193 180.852 81.5693L179.102 82.6393L181.912 82.3694L183.102 85.2094L180.442 86.2593C181.762 87.1193 182.822 87.8094 183.882 88.4994L184.152 88.1794L184.852 90.2993L182.302 91.3094L182.342 91.5294L184.902 91.2293L184.962 91.5093L181.682 92.6894L183.402 92.9994L181.632 94.2394C183.242 93.8594 184.342 93.5993 185.642 93.2893L186.242 96.0594L182.742 97.2494L182.802 97.5793L185.742 97.1093L185.852 97.4193L183.972 98.2094V98.6894H196.602V98.1194C193.812 98.2494 191.042 98.3793 188.272 98.5093L188.162 98.0294C188.672 97.8894 189.192 97.6393 189.702 97.6293C191.702 97.5893 193.702 97.6494 195.702 97.5894C195.992 97.5894 196.272 97.1093 196.552 96.8593L196.602 96.8893L196.112 95.6194L196.152 95.6594V95.6894Z" fill="#D7CDBA"/>
<path d="M98.6226 219.419C100.433 216.249 102.233 213.069 104.043 209.899L103.783 209.719C102.833 210.929 101.893 212.139 100.943 213.349L100.573 213.139L104.103 206.749L103.873 206.549C102.233 208.509 100.583 210.479 98.9426 212.439L98.6226 212.219C100.773 208.999 102.933 205.789 104.953 202.759C103.603 204.019 102.073 205.449 100.543 206.879L100.213 206.599C101.943 204.489 103.683 202.389 105.413 200.279C99.4526 203.929 96.1826 210.269 90.9326 214.639C91.7826 211.929 94.3326 210.619 96.0126 208.589C97.7726 206.459 99.3226 204.169 101.093 201.779C96.8226 204.109 94.5726 208.319 91.0426 211.399C91.2326 210.789 91.2526 209.999 91.6526 209.589C96.3526 204.789 100.353 198.979 107.893 198.349C105.133 204.999 105.263 212.049 106.753 219.129C108.223 226.129 110.213 232.879 117.043 236.899C116.843 237.059 116.643 237.269 116.403 237.389C115.833 237.669 115.233 237.899 114.483 238.219V236.289C113.403 237.549 112.523 238.569 111.253 240.069L112.563 235.259C110.283 237.509 109.103 240.809 104.953 241.329C109.733 238.099 110.453 237.079 110.483 233.169C108.363 236.939 106.093 239.929 102.183 241.219C105.793 239.049 108.663 236.359 109.213 232.209C107.343 234.269 105.423 236.529 103.313 238.609C102.433 239.479 101.193 240.079 100.023 240.529C99.4026 240.769 98.5526 240.419 97.6926 239.959C103.443 238.549 107.003 235.149 108.563 228.989C107.163 230.909 106.083 232.399 105.003 233.889L104.823 233.749C105.693 231.709 106.553 229.669 107.423 227.629C104.293 232.059 101.003 236.019 95.1326 236.639C100.533 234.449 105.383 231.769 106.223 225.169C103.463 229.869 99.7126 233.379 94.4026 234.979C94.8526 233.369 96.6626 233.769 97.6826 232.989C98.9226 232.039 100.353 231.279 101.413 230.159C102.423 229.099 103.143 227.729 103.863 226.419C104.563 225.139 105.113 223.779 105.413 222.289L102.533 226.429L102.323 226.319L104.963 219.429C101.623 224.069 98.9726 229.309 93.0126 231.199L92.4226 230.789C92.7626 230.289 92.9926 229.499 93.4626 229.329C97.9026 227.659 101.083 224.809 102.643 220.219C103.163 218.699 103.953 217.269 104.473 215.689C100.793 220.379 98.4326 226.249 91.8726 228.469C92.1326 227.959 92.2726 227.169 92.6826 226.969C97.5426 224.669 100.653 220.859 102.643 215.969C103.123 214.789 103.883 213.729 104.233 212.379C103.623 213.209 103.033 214.059 102.383 214.859C101.143 216.379 99.8626 217.869 98.5926 219.369L98.6326 219.409L98.6226 219.419Z" fill="#D7CDBA"/>
<path d="M153.552 215.399C153.652 213.319 153.642 211.909 153.802 210.509C153.952 209.129 154.662 208.919 156.012 209.389C161.982 211.469 168.022 211.619 174.072 209.659C177.352 208.599 179.082 206.499 179.242 202.909C179.452 198.349 179.982 193.809 180.412 189.269C180.452 188.799 180.682 188.339 180.822 187.869L181.372 187.939C181.422 188.359 181.562 188.799 181.522 189.209C180.892 196.329 180.202 203.439 179.642 210.559C179.482 212.619 178.622 214.039 176.932 215.119C171.972 218.259 166.552 218.549 161.012 217.519C158.302 217.009 155.692 216.029 153.552 215.409V215.399Z" fill="#D7CDBA"/>
<path d="M163.072 180.369L163.632 179.239L164.002 181.429C164.492 179.799 164.812 178.759 165.122 177.719L165.882 177.869L163.552 209.879L162.902 209.899L162.362 207.399L161.722 209.639H161.352L160.852 207.109C160.512 208.159 160.332 208.709 160.092 209.429L159.422 206.939L158.952 208.989L158.342 208.919C159.202 198.539 160.052 188.169 160.912 177.789L161.362 177.749L161.732 180.209L162.452 177.829H162.662V180.269L163.092 180.349L163.072 180.369Z" fill="#D7CDBA"/>
<path d="M190.332 160.559C193.342 159.549 196.352 158.549 199.372 157.539L199.282 157.079C197.852 157.329 196.412 157.499 195.002 157.839C193.482 158.199 192.002 158.699 190.512 159.139L190.312 158.659C193.042 157.619 195.772 156.569 198.502 155.529L198.372 154.939L192.022 156.249L191.872 155.859C194.382 154.929 196.882 153.999 199.392 153.059L199.252 152.569C197.122 153.109 194.992 153.649 192.852 154.199L192.712 153.789L199.712 151.129L199.562 150.599C197.422 151.129 195.282 151.669 193.132 152.199L192.972 151.669C195.432 150.849 197.882 150.029 200.342 149.209L200.152 148.519C198.372 148.939 196.582 149.359 194.802 149.769L194.642 149.439C195.602 149.039 196.562 148.649 197.512 148.239C198.512 147.809 199.512 147.369 200.512 146.939L200.312 146.439L196.252 147.509L196.122 147.229C197.962 146.389 199.802 145.539 202.052 144.509C201.402 153.399 200.142 161.779 197.912 170.169L192.792 169.159L196.922 167.499L196.732 166.939C194.552 167.549 192.372 168.149 190.192 168.759L190.082 168.429C192.492 167.489 194.902 166.559 197.312 165.619L197.112 165.009L188.552 167.489L188.412 167.059L197.442 163.759L197.282 163.139L194.122 163.649L194.042 163.439L197.672 161.809L197.522 161.299C195.032 161.839 192.542 162.379 190.052 162.929L189.932 162.509L198.102 160.119L197.932 159.459C195.432 159.949 192.932 160.449 190.432 160.939L190.332 160.559Z" fill="#D7CDBA"/>
<path d="M153.562 216.309L152.332 216.589C155.622 218.659 158.642 220.569 161.662 222.469L161.362 222.999C158.432 221.369 155.502 219.749 152.582 218.119L152.342 218.499C155.602 220.619 158.872 222.729 162.132 224.849L161.912 225.239C159.122 223.739 156.332 222.249 153.542 220.749L153.312 221.139C156.192 223.029 159.072 224.929 161.952 226.819L161.702 227.259C159.302 225.869 156.912 224.489 154.512 223.099L154.282 223.399C156.572 225.009 158.862 226.619 161.142 228.219L160.972 228.549C159.442 227.679 157.912 226.799 156.382 225.929L156.192 226.239C158.402 227.839 160.612 229.449 162.812 231.049L162.612 231.389C160.602 230.209 158.582 229.029 156.572 227.849L156.402 228.139C159.022 230.139 161.642 232.149 164.262 234.149L163.942 234.669C161.972 233.549 160.002 232.439 158.032 231.319L157.802 231.599C159.472 232.869 161.152 234.139 162.822 235.419L162.652 235.749L160.062 234.739L159.932 234.949C161.052 235.829 162.182 236.709 163.302 237.589L163.162 237.849L161.302 237.409L163.802 239.719L161.482 238.949L163.172 241.879L162.682 242.489C162.002 242.039 160.922 241.729 160.712 241.119C157.862 232.709 153.762 224.899 149.232 217.209C150.632 216.319 151.852 215.229 153.532 216.389L153.582 216.329L153.562 216.309Z" fill="#D7CDBA"/>
<path d="M179.832 211.309C180.732 208.659 181.412 205.909 182.592 203.389C184.142 200.109 186.062 196.999 187.892 193.849C189.842 190.489 190.732 186.979 190.532 183.019C190.352 179.509 190.872 175.969 191.092 172.439C191.222 170.349 192.402 169.859 194.302 170.139C198.402 170.739 198.602 170.729 199.432 166.539C200.592 160.669 201.422 154.739 202.382 148.839C202.572 147.679 202.742 146.509 203.052 145.369C203.382 151.989 202.282 158.449 200.862 164.869C200.432 166.819 199.842 168.729 199.372 170.669C199.092 171.849 198.402 172.149 197.322 171.789C197.252 171.769 197.182 171.769 197.112 171.739C191.672 169.979 192.232 171.129 191.772 175.739C191.442 179.059 191.622 182.439 191.702 185.789C191.762 188.449 190.922 190.689 189.632 193.039C186.672 198.469 184.122 204.119 181.432 209.699C181.132 210.309 180.952 210.979 180.722 211.629L179.832 211.299V211.309Z" fill="#D7CDBA"/>
<path d="M131.863 101.769C130.913 100.249 129.683 98.8193 129.073 97.1793C128.503 95.6393 128.583 93.8493 128.373 92.1793H129.283C128.513 86.9293 129.053 85.2593 133.313 83.4993C134.953 82.8193 137.213 83.4793 139.153 83.7793C139.523 83.8393 139.713 85.0993 140.163 86.2693L136.193 84.0693L135.923 84.4393L138.403 86.6193L138.243 86.8793L134.093 85.0893L133.863 85.5193L136.723 87.4793L136.553 87.8393L133.063 86.2593L132.763 86.6293L135.533 89.1993L135.233 89.5693C134.553 88.9693 133.933 88.2693 133.183 87.7993C132.623 87.4493 131.893 87.3793 131.233 87.1893C131.083 87.9093 130.593 88.8193 130.863 89.3293C131.883 91.2993 133.153 93.1393 133.923 95.3293C132.533 93.4093 131.133 91.4893 129.743 89.5693L129.453 89.7293C130.033 90.8293 130.503 92.0093 131.233 92.9993C132.373 94.5393 133.273 95.9793 133.733 97.9993C134.983 103.519 136.553 104.699 141.853 105.539C138.883 106.439 137.343 105.919 135.513 103.579C133.793 101.359 131.983 99.2193 130.033 96.8193L131.803 101.809L131.863 101.779V101.769Z" fill="#D7CDBA"/>
<path d="M170.132 236.119L167.902 237.259L167.662 237.039L170.082 234.759L169.942 234.459L167.902 235.389L167.722 235.119C168.672 234.289 169.622 233.459 170.572 232.629L170.332 232.309L167.762 233.829L167.532 233.509L171.312 230.399L171.012 229.949C169.972 230.589 168.932 231.239 167.882 231.879L167.572 231.539C169.012 230.349 170.452 229.159 171.892 227.979L171.602 227.569C170.362 228.299 169.132 229.019 167.892 229.749L167.672 229.429C169.482 227.969 171.282 226.519 173.092 225.059L172.782 224.569C171.182 225.589 169.582 226.609 167.972 227.629L167.692 227.179C169.532 225.769 171.382 224.349 173.222 222.939L172.862 222.399L167.522 225.889L167.242 225.469C169.602 223.739 171.952 222.009 174.702 219.999L173.182 220.149L172.862 219.799L174.852 218.489L174.602 218.169C173.922 218.449 173.242 218.719 172.572 218.999L172.342 218.549C173.692 217.809 175.032 217.079 176.362 216.349C174.382 224.829 172.432 233.159 170.452 241.619L168.842 241.709C169.182 240.219 169.602 238.409 170.132 236.109V236.119Z" fill="#D7CDBA"/>
<path d="M145.912 179.899L148.352 179.659C141.432 181.509 140.792 185.139 141.332 190.259C141.682 182.279 146.822 180.769 153.282 181.169C150.422 181.609 146.942 181.029 145.162 183.809C143.612 186.229 142.892 189.169 141.672 192.189L138.582 191.859C138.532 186.989 138.322 182.179 143.042 179.189C146.342 177.099 150.012 177.149 153.662 177.519L153.772 178.259C151.122 178.569 148.472 178.889 145.832 179.199L145.912 179.889V179.899Z" fill="#D7CDBA"/>
<path d="M120.143 190.729C120.263 189.819 120.143 188.919 120.513 188.279C121.983 185.679 123.603 183.169 125.163 180.619C127.353 177.039 126.733 175.919 122.463 175.679C120.973 175.589 119.493 175.389 118.023 175.169C116.403 174.929 115.503 173.889 115.253 172.329C114.253 165.969 114.803 150.189 120.573 142.529C120.503 143.069 120.573 143.689 120.343 144.139C115.833 152.539 115.253 161.519 116.273 170.769C116.533 173.159 117.973 173.999 120.093 174.319C122.133 174.629 124.193 174.899 126.163 175.479C128.203 176.079 128.533 177.109 127.703 179.099C127.513 179.559 127.303 180.019 127.023 180.429C124.823 183.759 122.593 187.079 120.163 190.729H120.143Z" fill="#D7CDBA"/>
<path d="M140.712 170.829C136.152 165.509 136.752 159.339 136.542 153.289C135.522 155.979 135.112 158.739 135.662 161.499C136.202 164.179 137.072 166.779 137.792 169.419L137.052 169.639C136.312 167.019 135.312 164.439 134.892 161.769C134.042 156.399 135.042 151.769 139.842 148.129C141.862 146.599 142.902 143.599 144.022 141.109C145.532 137.769 146.142 136.749 149.642 134.379C149.292 135.059 149.092 135.419 148.912 135.789C147.912 137.899 147.052 140.089 145.872 142.089C144.802 143.889 143.672 145.889 142.042 147.079C138.382 149.769 136.912 153.089 137.802 157.469C138.592 161.359 139.502 165.229 140.352 169.109C140.452 169.579 140.542 170.049 140.702 170.819L140.712 170.829Z" fill="#D7CDBA"/>
<path d="M128.612 181.829L130.182 182.439L129.862 182.799L128.042 182.629L127.792 183.159C129.382 183.999 130.972 184.849 132.562 185.689L132.472 185.999L126.972 184.249L126.702 184.849L129.542 186.599L129.502 186.979L125.672 186.299L125.542 186.599L127.082 187.709L126.922 188.159L125.132 187.809L122.562 189.939L122.032 189.599C122.582 188.609 123.092 187.589 123.682 186.629C125.252 184.089 127.012 181.649 128.392 178.999C128.882 178.059 128.472 176.659 128.472 175.339C132.062 176.809 135.932 178.399 139.802 179.979L139.502 180.719C136.272 179.369 133.042 178.019 129.722 176.639C129.952 177.719 129.942 177.739 134.122 179.639C135.762 180.379 137.462 180.989 139.142 181.659L138.872 182.359C135.892 181.169 132.912 179.979 129.932 178.779L129.642 179.449C131.892 182.039 135.622 181.829 138.892 183.709C134.732 184.749 132.362 181.039 129.072 181.079L128.612 181.819V181.829Z" fill="#D7CDBA"/>
<path d="M124.252 153.509L119.872 152.879L119.772 153.189L125.812 155.409C123.152 156.219 120.822 153.979 117.862 155.119C121.042 155.949 123.802 156.679 126.562 157.399C123.612 158.569 121.002 155.549 118.002 157.259C121.112 157.999 124.072 158.709 127.042 159.419L126.892 160.099C123.712 159.909 120.832 157.249 117.162 159.159C117.422 153.979 118.742 149.419 120.852 144.429V149.519L123.112 150.739L122.972 151.099C122.012 151.009 121.052 150.919 120.092 150.819L120.012 151.059C121.482 151.719 122.942 152.389 124.412 153.049L124.272 153.489L124.252 153.509Z" fill="#D7CDBA"/>
<path d="M134.302 167.059C128.462 165.809 123.702 161.739 117.662 163.529C124.532 164.199 130.672 166.709 136.222 170.739C133.522 169.519 130.842 168.269 128.122 167.099C125.182 165.829 122.272 164.429 118.882 165.669C117.302 166.249 116.442 165.559 116.652 163.759C116.812 162.369 116.862 160.959 117.002 158.999C121.152 160.069 124.952 161.049 128.742 162.019L128.602 162.569C124.872 162.779 121.592 159.249 117.602 161.299C123.422 162.049 128.892 163.769 134.302 167.059Z" fill="#D7CDBA"/>
<path d="M152.192 162.609L150.432 161.829L153.882 151.129C149.132 154.789 148.622 160.039 149.022 165.639C148.402 161.529 147.512 157.459 149.922 153.589C151.682 150.769 153.302 147.859 155.002 144.999C155.752 143.749 156.532 142.509 157.292 141.269L158.042 141.609C156.192 146.879 154.242 152.119 152.552 157.439C152.042 159.029 152.282 160.859 152.172 162.609H152.192Z" fill="#D7CDBA"/>
<path d="M187.993 188.319L186.783 187.849C189.563 186.229 189.033 183.619 189.023 181.129C189.953 184.339 189.913 187.469 188.903 190.579C188.813 190.839 188.623 191.069 188.473 191.319C186.073 195.449 183.673 199.569 180.893 203.559C181.413 202.109 181.933 200.649 182.433 199.269L181.613 199.509L181.293 199.209L184.083 197.299L183.603 196.719L181.933 197.539L181.683 197.139L185.673 194.149L185.473 193.799L182.053 195.779L181.773 195.379C183.003 194.469 184.223 193.559 185.453 192.649L185.343 192.429C184.303 192.889 183.253 193.359 182.213 193.819L182.013 193.479C183.173 192.639 184.343 191.799 185.503 190.959L185.383 190.709L182.373 192.209L182.103 191.729C184.013 190.619 185.913 189.519 187.993 188.309V188.319Z" fill="#D7CDBA"/>
<path d="M129.533 125.539C131.423 124.109 133.313 122.679 135.213 121.249L134.903 120.779C131.423 121.849 128.183 123.419 125.253 125.649C122.183 127.979 120.783 131.219 120.153 135.459C118.933 131.699 122.013 127.319 126.573 122.279L121.573 124.679C121.899 123.499 123.759 122.276 127.153 121.009L122.213 120.759C122.993 120.439 123.603 120.029 124.233 119.979C125.433 119.889 126.683 119.849 127.853 120.079C130.763 120.659 133.593 121.069 136.193 119.069C136.533 118.809 137.093 118.819 137.773 118.649C136.063 120.619 134.593 122.459 132.963 124.129C132.073 125.039 131.113 126.249 129.493 125.479L129.533 125.529V125.539Z" fill="#D7CDBA"/>
<path d="M126.392 170.579L118.142 169.749L118.062 170.089L125.182 172.129L125.092 172.609C123.552 172.449 122.002 172.299 120.462 172.139L120.372 172.399C121.162 172.659 121.952 172.919 122.822 173.209C117.962 174.069 116.742 172.639 116.902 166.059C123.922 166.809 130.542 168.519 136.262 172.939C134.052 171.979 131.712 171.239 129.672 169.999C126.032 167.799 122.152 167.859 118.342 168.129C120.922 168.929 123.642 169.769 126.352 170.609L126.402 170.569L126.392 170.579Z" fill="#D7CDBA"/>
<path d="M178.463 143.149C178.523 143.279 178.653 143.429 178.633 143.539C177.673 147.589 176.703 151.629 175.723 155.669L175.113 155.539L176.433 147.959L176.063 147.849C174.953 150.179 173.853 152.499 172.743 154.829L172.533 154.759L173.323 151.079L172.863 150.899C172.213 152.519 171.553 154.139 170.853 155.889L170.463 154.029L168.553 158.819C168.973 155.259 167.933 151.309 171.263 148.649L170.093 152.119L170.663 152.439C172.633 149.839 174.603 147.239 176.623 144.569L176.213 146.529L176.713 146.739C177.303 145.539 177.883 144.339 178.463 143.139H178.453L178.463 143.149Z" fill="#D7CDBA"/>
<path d="M177.892 127.539C176.522 128.489 175.212 129.569 173.752 130.379C170.752 132.049 168.652 134.379 167.472 137.639C166.872 139.299 166.042 140.949 164.952 142.329C161.922 146.159 160.712 150.499 160.732 155.289C160.732 156.189 160.572 157.089 160.482 157.989C160.232 155.429 160.032 152.899 159.722 150.389C159.402 147.869 160.332 145.899 162.222 144.359C163.852 143.029 164.702 141.419 165.152 139.339C166.382 133.659 171.022 131.079 175.552 128.489C176.282 128.069 177.152 127.889 177.952 127.599L177.902 127.539H177.892Z" fill="#D7CDBA"/>
<path d="M122.412 119.049C125.882 116.989 130.192 120.729 133.722 117.829H127.752V117.599C130.742 116.959 133.722 116.349 136.692 115.649C137.712 115.409 138.962 115.179 139.602 114.469C143.512 110.169 149.402 109.929 154.092 107.269C154.612 106.979 155.382 107.149 156.102 107.499C155.122 107.819 154.152 108.199 153.152 108.459C146.572 110.189 141.202 114.109 135.822 118.009C133.752 119.509 131.742 120.279 129.072 119.589C126.932 119.039 124.622 119.189 122.412 119.039V119.049Z" fill="#D7CDBA"/>
<path d="M159.542 113.789C151.102 119.959 141.992 125.059 136.142 134.089C137.602 131.339 137.782 127.939 141.042 126.299C142.302 125.669 143.162 124.259 144.262 123.249C144.982 122.589 145.762 121.999 146.552 121.419C146.832 121.209 147.312 121.209 147.502 120.959C150.052 117.619 154.612 117.489 157.522 114.709C158.032 114.229 158.862 114.089 159.552 113.789H159.542Z" fill="#D7CDBA"/>
<path d="M168.202 93.6893L159.992 90.9893C159.992 90.5693 159.932 90.3893 159.992 90.3093C163.272 86.1093 161.882 86.8393 166.412 88.3393C167.412 88.6693 168.362 89.1393 169.492 89.6193C169.072 90.9393 168.692 92.1293 168.192 93.6893H168.202Z" fill="#D7CDBA"/>
<path d="M162.782 117.259C158.322 120.669 153.982 123.949 149.682 127.289C146.252 129.959 143.552 133.229 141.562 137.119C140.772 138.659 139.782 140.109 138.732 141.499C140.142 137.329 141.632 133.319 145.332 130.409C148.102 128.229 150.142 125.149 152.892 122.939C155.722 120.659 159.012 118.949 162.112 117.009C162.182 116.969 162.352 117.099 162.772 117.259H162.782Z" fill="#D7CDBA"/>
<path d="M194.943 176.559C200.603 172.369 211.933 176.349 217.293 180.979C215.453 180.369 213.633 179.689 211.763 179.159C207.613 177.979 203.463 176.719 199.243 175.809C197.923 175.529 196.373 176.279 194.933 176.559H194.943Z" fill="#D7CDBA"/>
<path d="M216.942 177.889C210.872 176.159 205.202 172.709 198.072 173.849C203.592 170.099 213.212 173.829 216.942 177.889Z" fill="#D7CDBA"/>
<path d="M172.562 241.729C171.022 237.619 176.652 216.289 179.872 213.889C176.512 223.179 173.342 232.139 172.562 241.729Z" fill="#D7CDBA"/>
<path d="M217.462 183.559C216.392 183.259 215.312 182.979 214.242 182.649C209.552 181.199 204.902 179.579 200.152 178.359C198.452 177.919 196.512 178.439 194.532 178.079C195.602 177.789 196.662 177.329 197.752 177.239C203.312 176.819 208.412 178.529 213.352 180.839C214.812 181.519 216.262 182.209 217.712 182.899L217.462 183.549V183.559Z" fill="#D7CDBA"/>
<path d="M212.533 131.599C206.543 131.459 187.123 118.599 183.143 114.549C193.233 120.539 201.953 127.669 212.533 131.599Z" fill="#D7CDBA"/>
<path d="M131.132 161.169C131.272 157.329 128.012 154.209 129.062 149.549L129.662 151.439C130.852 148.269 129.772 143.729 135.172 142.499C133.912 144.079 132.842 145.299 131.902 146.619C130.342 148.799 131.062 151.219 131.332 153.579C131.622 156.059 131.912 158.539 132.202 161.019L131.132 161.169Z" fill="#D7CDBA"/>
<path d="M156.872 208.879C156.852 198.249 158.332 187.699 158.952 177.109L159.602 177.149C158.932 187.739 158.262 198.329 157.592 208.929L156.882 208.889L156.872 208.879Z" fill="#D7CDBA"/>
<path d="M178.412 96.5393C175.652 95.7093 173.112 94.9493 170.402 94.1293L171.672 90.3793C174.142 92.3193 178.232 91.9694 178.412 96.5294V96.5393Z" fill="#D7CDBA"/>
<path d="M123.172 237.929C131.792 235.489 140.742 235.089 150.062 233.639C148.202 234.959 126.272 238.399 123.172 237.929Z" fill="#D7CDBA"/>
<path d="M186.862 114.909C195.172 119.939 203.482 124.969 211.792 129.999C202.732 126.179 194.482 120.969 186.862 114.909Z" fill="#D7CDBA"/>
<path d="M200.553 180.429C203.223 179.559 214.633 183.099 217.913 185.449L217.753 185.999C212.023 184.139 206.293 182.289 200.563 180.429H200.553Z" fill="#D7CDBA"/>
<path d="M196.113 95.6393H187.943L187.513 93.0793C190.813 93.0993 194.063 92.2694 196.143 95.6794L196.113 95.6393Z" fill="#D7CDBA"/>
<path d="M167.472 207.109C168.392 197.359 169.312 187.619 170.232 177.869L170.962 177.939C170.022 187.679 169.082 197.409 168.132 207.149L167.462 207.109H167.472Z" fill="#D7CDBA"/>
<path d="M214.683 171.339C210.273 170.129 206.043 167.719 200.843 169.589C203.623 165.929 209.183 166.749 214.683 171.339Z" fill="#D7CDBA"/>
<path d="M165.082 84.1993C167.012 80.6293 167.512 80.5393 171.452 83.0493L170.592 86.0293L165.082 84.1993Z" fill="#D7CDBA"/>
<path d="M169.072 178.149C168.282 187.789 167.492 197.419 166.702 207.059L166.042 207.009C166.852 197.379 167.672 187.739 168.482 178.109L169.072 178.159V178.149Z" fill="#D7CDBA"/>
<path d="M125.922 115.429C132.062 115.789 136.802 111.809 142.242 110.299C137.172 114.809 131.052 116.849 125.922 115.429Z" fill="#D7CDBA"/>
<path d="M216.372 174.499C210.982 173.289 206.462 170.339 200.962 171.269C204.042 168.459 211.132 170.329 216.372 174.499Z" fill="#D7CDBA"/>
<path d="M155.412 201.279L157.072 176.869L157.662 176.909C157.172 185.059 156.672 193.209 156.182 201.349L155.402 201.279H155.412Z" fill="#D7CDBA"/>
<path d="M125.212 233.329C132.672 231.209 140.372 230.359 148.032 229.269L148.162 230.059C140.512 231.149 132.862 232.239 125.212 233.329Z" fill="#D7CDBA"/>
<path d="M203.093 115.389L207.293 118.949L207.013 119.399C201.023 115.529 195.043 111.659 189.053 107.789L189.513 107.069C190.173 107.569 190.803 108.119 191.503 108.539C195.093 110.679 198.703 112.789 202.303 114.909L203.103 115.379L203.093 115.389Z" fill="#D7CDBA"/>
<path d="M138.942 109.719C134.902 111.129 131.522 114.429 126.752 113.769L126.532 113.139L138.712 108.999L138.942 109.719Z" fill="#D7CDBA"/>
<path d="M139.123 239.709L152.823 237.419C148.613 240.249 144.003 240.799 139.123 239.709Z" fill="#D7CDBA"/>
<path d="M111.862 168.179C109.122 170.509 105.832 171.269 102.482 170.669C99.6824 170.179 97.1124 170.489 94.4724 171.159C94.0824 171.259 93.6723 171.279 93.2723 171.329L93.1523 170.779C94.7723 170.429 96.3923 169.889 98.0323 169.779C100.372 169.619 102.762 169.999 105.082 169.739C107.372 169.479 109.602 168.709 111.862 168.169V168.179Z" fill="#D7CDBA"/>
<path d="M129.482 125.489C128.432 126.729 127.322 127.919 126.352 129.209C124.442 131.729 122.932 134.449 122.712 137.719C122.682 138.199 122.512 138.679 122.372 139.159C122.342 139.249 122.153 139.299 121.812 139.499C122.072 135.829 122.092 132.299 124.772 129.509C125.972 128.259 127.102 126.959 128.332 125.749C128.562 125.519 129.122 125.609 129.522 125.559L129.482 125.509V125.489Z" fill="#D7CDBA"/>
<path d="M196.632 230.139C190.482 229.939 185.042 227.469 179.742 224.619C185.372 226.459 191.002 228.299 196.632 230.139Z" fill="#D7CDBA"/>
<path d="M200.962 111.019C198.672 109.129 196.382 107.229 194.082 105.339L194.322 105.009C200.202 109.159 206.092 113.309 212.312 117.699L204.932 113.859C203.612 112.909 202.292 111.959 200.972 111.019H200.962Z" fill="#D7CDBA"/>
<path d="M200.963 111.019C202.283 111.969 203.603 112.919 204.923 113.859L209.553 117.459L206.313 116.319L205.653 115.729C201.433 112.709 197.203 109.699 192.983 106.669C192.373 106.229 191.783 105.759 191.473 104.899C193.943 106.599 196.413 108.319 198.903 109.989C199.533 110.409 200.273 110.679 200.963 111.019Z" fill="#D7CDBA"/>
<path d="M164.412 208.059L166.462 183.979L166.822 184.009L165.162 208.119L164.412 208.069V208.059Z" fill="#D7CDBA"/>
<path d="M219.203 121.809L215.813 120.479L214.743 123.119L214.603 120.389L213.893 120.299C213.503 121.659 213.113 123.019 212.733 124.379L212.373 124.279L212.813 121.039L212.013 120.829C211.683 121.719 211.343 122.609 211.003 123.519L210.893 121.689L209.433 122.189L209.183 121.929C209.703 121.439 210.173 120.859 210.763 120.479C213.343 118.779 217.163 119.289 219.203 121.819V121.809Z" fill="#D7CDBA"/>
<path d="M195.082 117.739L189.202 112.929L189.312 112.759C195.342 116.479 201.372 120.199 207.402 123.919L207.162 124.339C204.012 122.499 200.862 120.649 197.692 118.849C196.852 118.369 195.912 118.059 195.012 117.679L195.082 117.749V117.739Z" fill="#D7CDBA"/>
<path d="M185.502 87.9994C190.422 87.1694 191.452 87.5394 192.582 90.2494C190.892 90.2494 189.192 90.4494 187.572 90.1594C186.872 90.0394 186.342 88.9194 185.502 87.9994Z" fill="#D7CDBA"/>
<path d="M220.263 198.679C217.383 200.219 211.843 199.299 209.223 196.649C212.813 197.309 216.403 197.969 220.263 198.679Z" fill="#D7CDBA"/>
<path d="M146.283 187.829L145.103 189.439C145.023 188.869 145.083 188.399 144.903 188.079C144.033 186.569 144.223 186.119 145.913 185.979C146.623 185.919 147.353 185.859 148.063 185.909C148.583 185.949 149.083 186.159 149.593 186.299C149.313 186.939 149.203 187.759 148.733 188.169C147.353 189.379 146.503 189.259 146.293 187.829H146.283Z" fill="#D7CDBA"/>
<path d="M205.652 115.729L206.312 116.319L206.912 117.079L206.702 117.349L203.102 115.389L202.302 114.919C199.032 112.659 195.752 110.399 192.482 108.129C191.502 107.449 190.552 106.719 189.862 105.599C191.882 106.929 193.892 108.279 195.932 109.589C199.162 111.649 202.412 113.679 205.652 115.729Z" fill="#D7CDBA"/>
<path d="M166.232 158.649C166.272 154.159 165.302 149.239 170.422 146.539C168.292 150.299 166.292 154.119 166.232 158.649Z" fill="#D7CDBA"/>
<path d="M177.442 89.3293C172.672 87.6093 172.262 87.0894 173.562 83.9694C175.212 85.5694 178.052 86.0893 177.442 89.3293Z" fill="#D7CDBA"/>
<path d="M112.242 161.599C107.872 165.469 102.342 164.719 97.1124 165.359L96.9624 164.729C98.3424 164.439 99.8124 163.669 101.072 163.939C104.912 164.759 108.152 163.269 111.462 161.849C111.712 161.739 111.982 161.679 112.242 161.589V161.599Z" fill="#D7CDBA"/>
<path d="M99.4023 198.039L111.942 194.569L112.102 195.079C107.982 196.449 104.112 198.659 99.6423 198.869L99.4023 198.039Z" fill="#D7CDBA"/>
<path d="M184.123 212.929C188.173 213.569 192.273 213.999 195.563 217.109C191.683 215.939 187.813 214.769 183.933 213.599L184.123 212.929Z" fill="#D7CDBA"/>
<path d="M95.7224 166.939C97.0624 165.469 99.4524 165.749 101.462 165.999C104.652 166.389 107.492 165.889 110.282 164.469C110.642 164.289 111.062 164.239 111.502 164.279C109.062 166.259 106.132 166.779 103.122 166.919C100.562 167.039 97.9824 166.939 95.7124 166.939H95.7224Z" fill="#D7CDBA"/>
<path d="M180.372 222.359C185.632 224.359 190.902 226.359 196.162 228.349C190.442 227.619 185.282 225.329 180.372 222.359Z" fill="#D7CDBA"/>
<path d="M155.772 108.819L141.282 116.709C145.322 112.619 150.492 110.609 155.772 108.819Z" fill="#D7CDBA"/>
<path d="M177.372 232.559L195.462 237.859C188.792 237.069 182.932 235.419 177.372 232.559Z" fill="#D7CDBA"/>
<path d="M171.532 186.909C170.812 194.049 170.102 201.189 169.382 208.329L168.732 208.259C169.542 201.129 170.352 193.999 171.162 186.869L171.532 186.909Z" fill="#D7CDBA"/>
<path d="M135.363 238.499C136.833 238.119 138.293 237.639 139.783 237.379C143.413 236.749 147.063 236.209 150.723 235.799C145.783 237.809 140.623 238.479 135.353 238.499H135.363Z" fill="#D7CDBA"/>
<path d="M111.373 166.229C109.273 167.959 106.873 168.609 104.293 168.709C100.943 168.829 97.5826 168.949 94.3726 169.059C95.1126 168.759 96.1226 168.059 97.1826 167.979C101.933 167.639 106.823 168.539 111.373 166.229Z" fill="#D7CDBA"/>
<path d="M196.472 220.409C192.122 218.809 187.772 217.209 183.422 215.609L183.632 214.979C188.032 216.429 192.422 217.889 196.822 219.339L196.472 220.409Z" fill="#D7CDBA"/>
<path d="M194.832 83.7393C194.342 84.4393 193.982 84.9593 193.372 85.8293C193.122 84.9693 192.672 84.2393 192.862 83.7593C193.002 83.3893 193.942 83.2893 194.542 83.1293C195.152 82.9693 195.862 82.6593 196.392 82.8293C197.372 83.1493 198.382 83.6493 199.092 84.3593C199.302 84.5693 198.532 85.7493 197.952 86.5393C198.752 83.0593 195.202 85.5693 194.842 83.7293L194.832 83.7393Z" fill="#D7CDBA"/>
<path d="M181.362 218.339C186.642 220.369 191.602 222.279 196.622 224.209C193.022 224.219 184.252 220.909 181.362 218.339Z" fill="#D7CDBA"/>
<path d="M202.732 164.159C205.272 161.819 209.862 162.099 212.652 164.919C209.342 164.669 205.932 164.409 202.732 164.159Z" fill="#D7CDBA"/>
<path d="M196.822 232.199C192.632 233.099 189.082 231.579 185.752 229.209C189.442 230.209 193.132 231.209 196.822 232.199Z" fill="#D7CDBA"/>
<path d="M148.782 152.089C151.372 149.739 152.432 146.609 153.362 143.369C153.712 142.149 154.542 141.069 155.422 140.079C154.432 144.429 153.242 148.659 149.672 151.679C149.432 151.879 149.062 151.929 148.742 152.049L148.782 152.099V152.089Z" fill="#D7CDBA"/>
<path d="M202.353 166.319C205.513 164.159 209.763 164.799 213.623 168.379C212.443 167.999 211.263 167.579 210.063 167.239C208.833 166.889 207.603 166.489 206.353 166.349C205.043 166.199 203.703 166.319 202.353 166.319Z" fill="#D7CDBA"/>
<path d="M141.592 120.019C138.372 123.439 135.162 126.859 131.942 130.289L131.862 130.159C133.742 127.429 135.472 124.569 137.572 122.009C138.442 120.949 140.102 120.529 141.402 119.819C141.462 119.889 141.532 119.949 141.592 120.019Z" fill="#D7CDBA"/>
<path d="M194.732 213.779C191.132 213.049 187.702 212.349 184.192 211.629C185.312 209.969 191.462 211.299 194.732 213.779Z" fill="#D7CDBA"/>
<path d="M98.2725 180.269C101.102 180.269 103.963 180.509 106.753 180.199C109.453 179.909 112.082 179.049 114.762 178.549C109.512 181.049 103.992 181.589 98.3125 181.099L98.2725 180.269Z" fill="#D7CDBA"/>
<path d="M146.872 217.679C145.222 220.199 140.752 221.519 138.422 220.639C137.222 220.179 135.892 220.079 134.612 219.449C138.852 220.599 142.802 219.879 146.872 217.679Z" fill="#D7CDBA"/>
<path d="M210.603 192.289C213.673 192.989 216.743 193.699 219.893 194.419C217.903 195.829 212.943 194.849 210.603 192.289Z" fill="#D7CDBA"/>
<path d="M153.072 211.159C152.192 211.949 151.312 212.739 150.432 213.529L150.522 213.719L152.462 212.749C151.822 214.739 150.802 215.349 148.792 215.159C148.182 215.099 147.552 215.389 146.922 215.519C146.302 215.649 145.692 215.779 144.922 215.619L152.802 210.959L153.062 211.169L153.072 211.159Z" fill="#D7CDBA"/>
<path d="M122.952 221.839C126.692 219.069 129.982 215.659 134.742 214.379C130.922 217.029 127.112 219.679 123.292 222.329L122.952 221.839Z" fill="#D7CDBA"/>
<path d="M153.622 87.2094L151.322 83.7993C151.832 83.1593 152.312 82.5594 152.782 81.9694C155.802 83.9594 155.872 84.3793 153.622 87.1993V87.2094Z" fill="#D7CDBA"/>
<path d="M219.963 214.899C218.203 216.369 213.053 216.199 209.973 214.219C213.293 214.449 216.613 214.669 219.963 214.899Z" fill="#D7CDBA"/>
<path d="M184.822 217.639C189.192 219.179 193.552 220.719 197.922 222.259L197.632 223.059C193.252 221.499 188.882 219.939 184.502 218.389L184.822 217.639Z" fill="#D7CDBA"/>
<path d="M111.732 160.189C108.212 162.729 103.882 162.669 99.6624 163.119L99.5024 162.449C103.632 161.689 107.752 160.919 111.742 160.189H111.732Z" fill="#D7CDBA"/>
<path d="M138.612 98.9793L145.812 102.099L141.372 101.649L143.122 103.199C139.992 102.789 137.692 100.379 138.612 98.9793Z" fill="#D7CDBA"/>
<path d="M210.913 189.849C213.833 190.599 216.743 191.349 219.813 192.139C217.923 193.479 214.083 192.669 210.803 190.429L210.903 189.849H210.913Z" fill="#D7CDBA"/>
<path d="M98.7324 195.629C102.732 194.659 106.722 193.679 110.722 192.709L110.912 193.429C106.942 194.509 102.972 195.589 99.0024 196.669L98.7324 195.619V195.629Z" fill="#D7CDBA"/>
<path d="M90.8726 222.989C91.3226 222.219 91.6025 221.219 92.2625 220.709C94.0825 219.279 96.0625 218.049 98.2725 216.949L91.8525 223.639L90.8825 222.989H90.8726Z" fill="#D7CDBA"/>
<path d="M183.763 82.2693C186.123 82.0093 187.953 82.4893 188.903 84.7593C184.983 85.6193 184.723 85.5093 183.763 82.2693Z" fill="#D7CDBA"/>
<path d="M220.832 212.309C217.772 214.439 213.542 214.319 210.362 212.309H220.832Z" fill="#D7CDBA"/>
<path d="M130.822 225.939C135.342 225.109 139.872 224.269 144.392 223.439L144.492 224.039C140.122 225.839 135.392 225.559 130.822 225.939Z" fill="#D7CDBA"/>
<path d="M197.243 226.819C193.433 226.909 190.243 224.989 186.883 223.649L187.093 222.989C190.503 224.099 193.913 225.199 197.323 226.309L197.253 226.829L197.243 226.819Z" fill="#D7CDBA"/>
<path d="M146.362 227.659C142.542 229.339 138.403 229.209 134.312 229.389C138.273 228.579 142.232 227.769 146.182 226.969L146.362 227.659Z" fill="#D7CDBA"/>
<path d="M81.3823 223.289C82.3323 219.309 85.6723 218.709 88.2023 217.149L88.6523 217.699C86.3523 219.469 84.0523 221.229 81.3823 223.279V223.289Z" fill="#D7CDBA"/>
<path d="M219.452 200.859C215.702 202.059 212.272 200.909 208.922 199.239L219.452 200.859Z" fill="#D7CDBA"/>
<path d="M98.5825 219.379C97.3025 222.169 95.4125 224.089 91.3525 225.979C91.6725 225.339 91.8425 224.519 92.3525 224.109C94.3825 222.479 96.5226 220.969 98.6226 219.419L98.5825 219.379Z" fill="#D7CDBA"/>
<path d="M210.053 194.539C213.223 195.219 216.383 195.899 219.463 196.559C217.993 197.769 212.903 196.989 210.053 194.539Z" fill="#D7CDBA"/>
<path d="M211.853 203.909C214.663 204.209 217.423 204.509 220.233 204.819C217.503 206.689 212.373 206.189 211.853 203.909Z" fill="#D7CDBA"/>
<path d="M211.313 208.349H220.083V209.009C217.173 210.009 214.243 209.759 211.303 208.919V208.349H211.313Z" fill="#D7CDBA"/>
<path d="M81.6924 226.329C82.4324 223.439 82.8724 223.039 88.5724 220.639C87.4724 221.559 86.3724 222.489 85.2624 223.409C84.1324 224.339 82.9924 225.269 81.6924 226.329Z" fill="#D7CDBA"/>
<path d="M98.6724 209.589C96.2524 212.329 93.8324 215.059 91.1624 218.089C90.9324 216.129 92.4224 214.459 98.6724 209.589Z" fill="#D7CDBA"/>
<path d="M110.362 189.549C106.772 190.319 103.182 191.089 99.5923 191.859L99.3823 190.779C103.022 190.159 106.662 189.549 110.292 188.929L110.362 189.549Z" fill="#D7CDBA"/>
<path d="M209.843 216.649H220.073C218.243 218.519 213.393 218.389 209.843 216.649Z" fill="#D7CDBA"/>
<path d="M211.093 185.379C213.753 186.129 216.423 186.889 219.083 187.639L218.923 188.249C215.913 188.829 213.463 187.239 210.893 186.079L211.093 185.379Z" fill="#D7CDBA"/>
<path d="M128.212 131.859L123.742 139.369C123.182 136.689 125.572 132.569 128.212 131.859Z" fill="#D7CDBA"/>
<path d="M177.462 234.809C181.682 236.029 186.192 237.339 190.342 238.539C187.722 239.059 179.592 236.739 177.462 234.809Z" fill="#D7CDBA"/>
<path d="M146.583 79.3793L148.883 77.9094L151.443 80.1693L149.583 81.9094L146.583 79.3793Z" fill="#D7CDBA"/>
<path d="M93.2422 232.469L100.712 228.169C99.0622 231.159 94.5422 233.819 93.2422 232.469Z" fill="#D7CDBA"/>
<path d="M156.232 79.1594L158.372 81.4594L156.472 83.5993C155.732 82.6293 155.072 81.7793 154.312 80.7993L156.232 79.1594Z" fill="#D7CDBA"/>
<path d="M126.343 170.629C127.753 171.049 129.223 171.309 130.553 171.909C133.463 173.209 136.303 174.679 139.173 176.069L138.893 176.669C134.723 174.639 130.563 172.609 126.383 170.579L126.333 170.629H126.343Z" fill="#D7CDBA"/>
<path d="M98.7725 177.239C103.422 176.759 108.072 176.289 112.422 175.839C108.302 178.129 103.512 177.459 98.7725 177.239Z" fill="#D7CDBA"/>
<path d="M135.223 233.749C137.543 233.219 139.833 232.539 142.183 232.209C143.913 231.959 145.713 232.159 147.533 232.439C143.413 232.859 139.303 233.289 135.183 233.709L135.223 233.749Z" fill="#D7CDBA"/>
<path d="M135.182 233.709C130.952 234.699 126.722 235.689 122.502 236.669C122.462 236.669 122.402 236.579 122.152 236.349C126.502 234.959 130.582 233.079 135.222 233.739L135.192 233.709H135.182Z" fill="#D7CDBA"/>
<path d="M88.9326 212.359C86.6726 213.719 84.4125 215.079 82.0825 216.479C82.5225 214.289 83.2125 213.789 88.4825 211.809L88.9326 212.349V212.359Z" fill="#D7CDBA"/>
<path d="M211.112 210.499H219.322C216.612 212.139 213.882 211.599 211.112 210.499Z" fill="#D7CDBA"/>
<path d="M189.482 110.659C192.722 112.859 195.962 115.059 199.212 117.259L198.942 117.679C195.632 115.579 192.332 113.479 189.022 111.379L189.482 110.669V110.659Z" fill="#D7CDBA"/>
<path d="M188.382 135.329L186.292 139.169L186.592 139.399C187.582 138.199 188.582 137.009 189.702 135.649C188.382 139.519 187.572 140.249 185.002 139.809L188.022 135.009L188.372 135.329H188.382Z" fill="#D7CDBA"/>
<path d="M82.2124 228.309C83.1124 225.509 85.9724 224.869 88.0024 223.309L88.4624 223.809L82.6424 228.739L82.2224 228.309H82.2124Z" fill="#D7CDBA"/>
<path d="M188.482 108.209C191.942 110.589 195.402 112.969 198.862 115.339L198.602 115.739C195.082 113.439 191.562 111.139 188.042 108.839L188.482 108.209Z" fill="#D7CDBA"/>
<path d="M98.3723 213.689C96.1823 216.009 93.9823 218.329 91.7923 220.639L91.1823 220.029C91.1323 219.019 91.1423 219.029 94.1123 216.519C95.3923 215.439 96.6423 214.309 97.9023 213.209L98.3623 213.679L98.3723 213.689Z" fill="#D7CDBA"/>
<path d="M218.993 190.999C216.333 190.199 213.673 189.399 211.013 188.599L211.263 187.769C213.923 188.529 216.583 189.299 219.243 190.059L218.993 190.999Z" fill="#D7CDBA"/>
<path d="M99.9121 188.279C103.282 187.839 106.662 187.389 110.032 186.949C106.732 188.059 103.432 189.179 99.9121 188.279Z" fill="#D7CDBA"/>
<path d="M200.192 193.939C197.342 193.739 195.032 193.579 192.652 193.409C194.392 192.009 197.822 192.099 200.192 193.939Z" fill="#D7CDBA"/>
<path d="M182.022 159.489C182.932 156.109 183.852 152.729 184.762 149.349L185.452 149.549C184.532 152.929 183.612 156.309 182.702 159.689L182.022 159.489Z" fill="#D7CDBA"/>
<path d="M195.783 235.039L185.723 231.959L185.903 231.369C189.323 232.379 192.733 233.389 196.153 234.399L195.783 235.029V235.039Z" fill="#D7CDBA"/>
<path d="M88.5424 210.009C86.2824 211.319 84.0223 212.619 81.4023 214.129C82.8223 210.809 85.9223 210.759 88.1923 209.439L88.5424 210.009Z" fill="#D7CDBA"/>
<path d="M209.803 230.119H217.893C215.123 231.609 212.483 231.549 209.803 230.119Z" fill="#D7CDBA"/>
<path d="M195.013 117.659C196.933 119.049 198.853 120.449 200.783 121.839C201.473 122.329 202.163 122.809 202.593 123.709L192.803 117.399L193.063 116.969C193.743 117.229 194.413 117.479 195.093 117.739L195.023 117.669L195.013 117.659Z" fill="#D7CDBA"/>
<path d="M88.2822 215.219L81.9922 219.509C82.8422 216.419 85.7421 216.049 87.9421 214.739L88.2922 215.219H88.2822Z" fill="#D7CDBA"/>
<path d="M218.163 223.219H208.883V222.709H218.243L218.163 223.219Z" fill="#D7CDBA"/>
<path d="M206.482 143.439C206.432 143.309 206.292 143.109 206.332 143.059C208.012 141.019 209.702 138.999 211.612 137.159C210.302 139.579 209.422 142.339 206.472 143.399L206.492 143.439H206.482Z" fill="#D7CDBA"/>
<path d="M89.7124 228.459C88.0324 230.229 86.3524 232.009 84.4624 233.999C84.4924 231.449 85.2124 230.649 89.7124 228.459Z" fill="#D7CDBA"/>
<path d="M125.872 146.519C126.562 148.989 127.252 151.449 127.942 153.919L127.192 154.169L124.812 146.839L125.862 146.519H125.872Z" fill="#D7CDBA"/>
<path d="M153.972 239.789C151.062 241.589 147.862 242.039 144.492 241.499C147.652 240.929 150.812 240.359 153.972 239.789Z" fill="#D7CDBA"/>
<path d="M147.482 100.719C144.592 100.889 141.702 100.509 140.462 97.2094L147.482 100.719Z" fill="#D7CDBA"/>
<path d="M152.302 97.9694C149.712 97.6594 147.002 97.7193 144.532 95.1993L152.412 97.3893L152.302 97.9694Z" fill="#D7CDBA"/>
<path d="M88.8024 226.329C86.9524 227.999 85.1024 229.679 82.9224 231.649C83.4324 227.979 86.7324 227.749 88.3624 225.829L88.7924 226.329H88.8024Z" fill="#D7CDBA"/>
<path d="M199.643 191.339H193.053C194.633 189.789 197.013 189.569 199.643 191.339Z" fill="#D7CDBA"/>
<path d="M218.132 224.579C215.252 225.679 212.342 225.979 209.452 224.579H218.132Z" fill="#D7CDBA"/>
<path d="M219.132 219.039C216.132 220.389 212.992 220.209 210.042 218.639C213.112 218.779 215.882 218.899 219.132 219.039Z" fill="#D7CDBA"/>
<path d="M199.103 200.489C196.183 199.709 193.253 198.929 190.053 198.079C193.543 197.319 196.303 199.019 199.243 199.809L199.093 200.489H199.103Z" fill="#D7CDBA"/>
<path d="M102.982 159.859C105.952 159.319 108.912 158.789 111.882 158.249L112.012 158.819L103.172 160.749L102.972 159.859H102.982Z" fill="#D7CDBA"/>
<path d="M109.362 183.939C106.332 184.349 103.302 184.759 100.272 185.169L100.162 184.369L109.292 183.379L109.362 183.939Z" fill="#D7CDBA"/>
<path d="M137.263 189.979L135.373 187.729L135.893 190.099L132.643 187.389C134.903 186.459 136.253 187.049 137.253 189.979H137.263Z" fill="#D7CDBA"/>
<path d="M152.272 224.499C154.192 228.179 156.112 231.849 158.042 235.529L157.432 235.839C155.672 232.089 153.922 228.349 152.162 224.599L152.272 224.499Z" fill="#D7CDBA"/>
<path d="M146.002 106.349C149.722 105.589 153.012 103.039 157.502 103.709C153.372 104.659 149.682 105.509 146.002 106.349Z" fill="#D7CDBA"/>
<path d="M192.733 211.289L185.263 209.069L185.443 208.399C187.993 209.099 190.543 209.809 193.103 210.509L192.743 211.289H192.733Z" fill="#D7CDBA"/>
<path d="M150.552 77.1093C152.352 75.0993 153.372 76.6293 154.632 77.7393L152.912 79.1993L150.552 77.1093Z" fill="#D7CDBA"/>
<path d="M99.9326 186.189L108.263 185.409L108.343 186.069C105.573 186.409 102.803 186.749 100.043 187.089L99.9326 186.189Z" fill="#D7CDBA"/>
<path d="M194.002 236.239C190.972 235.369 187.942 234.499 184.912 233.629L185.092 232.999C188.132 233.889 191.182 234.769 194.222 235.659L194.002 236.239Z" fill="#D7CDBA"/>
<path d="M206.463 143.409L204.013 143.279L208.293 137.959L208.853 138.349C208.063 139.469 207.213 140.549 206.533 141.739C206.283 142.169 206.473 142.859 206.463 143.439C206.463 143.449 206.463 143.419 206.463 143.419V143.409Z" fill="#D7CDBA"/>
<path d="M149.103 192.359C150.713 191.249 152.883 191.309 153.533 192.689C153.823 193.299 153.283 194.299 152.673 194.959C152.363 194.189 152.253 193.139 151.683 192.719C151.093 192.289 150.053 192.459 149.103 192.359Z" fill="#D7CDBA"/>
<path d="M210.032 161.309C207.522 161.639 205.302 161.929 203.082 162.229C205.382 160.239 207.352 159.919 210.032 161.309Z" fill="#D7CDBA"/>
<path d="M208.942 159.009C206.952 159.419 205.152 159.799 203.172 160.209C205.012 157.809 206.802 157.409 208.942 159.009Z" fill="#D7CDBA"/>
<path d="M145.082 226.189L136.222 227.689L136.112 227.319C136.422 227.179 136.712 226.979 137.042 226.919C139.672 226.429 142.302 225.959 144.942 225.479L145.082 226.179V226.189Z" fill="#D7CDBA"/>
<path d="M181.483 135.569L176.523 139.999C176.503 137.719 178.203 136.089 181.483 135.569Z" fill="#D7CDBA"/>
<path d="M153.502 216.379C156.212 217.209 158.932 218.049 160.642 220.719C158.282 219.249 155.922 217.789 153.552 216.319L153.502 216.379Z" fill="#D7CDBA"/>
<path d="M217.802 227.029H210.322L210.292 226.679C212.802 226.549 215.312 226.409 217.812 226.279V227.029H217.802Z" fill="#D7CDBA"/>
<path d="M103.402 235.349C101.182 237.469 98.9723 238.539 96.4023 238.739L96.1724 238.199C98.4524 237.299 100.732 236.399 103.402 235.349Z" fill="#D7CDBA"/>
<path d="M211.633 221.239C214.253 221.009 216.873 220.779 219.493 220.559C216.993 222.289 214.313 221.819 211.633 221.239Z" fill="#D7CDBA"/>
<path d="M186.842 204.939L193.102 205.929L192.962 206.899L186.822 205.789L186.842 204.949V204.939Z" fill="#D7CDBA"/>
<path d="M160.782 160.789C162.392 160.469 163.992 160.149 165.982 159.749C164.642 163.099 162.482 160.899 160.912 161.429L160.782 160.789Z" fill="#D7CDBA"/>
<path d="M209.832 228.329H217.412C214.962 229.459 212.432 229.439 209.832 228.329Z" fill="#D7CDBA"/>
<path d="M160.252 79.9394L158.652 77.8994C159.692 76.866 160.832 76.9927 162.072 78.2794L160.252 79.9394Z" fill="#D7CDBA"/>
<path d="M192.872 183.409C194.812 181.439 196.582 181.169 199.552 182.429C197.162 182.779 195.212 183.059 192.872 183.409Z" fill="#D7CDBA"/>
<path d="M210.372 232.359C212.802 232.239 215.202 232.119 217.592 232.009C216.012 233.649 212.882 233.819 210.372 232.359Z" fill="#D7CDBA"/>
<path d="M135.542 108.719L128.552 110.959L128.322 110.279C130.652 109.519 132.972 108.759 135.302 107.999L135.542 108.719Z" fill="#D7CDBA"/>
<path d="M212.093 206.419C214.713 206.579 217.333 206.749 220.433 206.939C217.293 208.229 214.693 207.369 212.093 206.419Z" fill="#D7CDBA"/>
<path d="M177.762 156.239C178.702 153.299 179.642 150.359 180.582 147.419L181.032 147.569C180.142 150.549 179.252 153.519 178.362 156.499L177.752 156.239H177.762Z" fill="#D7CDBA"/>
<path d="M183.442 147.489C182.632 150.619 181.822 153.749 181.022 156.879L180.492 156.739C181.292 153.589 182.092 150.429 182.892 147.279L183.442 147.489Z" fill="#D7CDBA"/>
<path d="M192.322 194.539L199.552 195.499L199.442 196.349C198.252 196.129 197.072 195.899 195.882 195.689C194.672 195.469 193.462 195.279 192.252 195.069L192.322 194.529V194.539Z" fill="#D7CDBA"/>
<path d="M98.5322 178.639H105.932V179.109L98.5422 179.519V178.639H98.5322Z" fill="#D7CDBA"/>
<path d="M81.4121 210.799L87.9821 207.159L88.2721 207.659L81.8121 211.479L81.4121 210.809V210.799Z" fill="#D7CDBA"/>
<path d="M193.212 187.189C194.872 185.419 196.252 185.269 199.312 186.719C197.002 186.899 195.142 187.039 193.212 187.189Z" fill="#D7CDBA"/>
<path d="M172.932 77.6193L172.172 79.8793L169.462 78.9393V78.0493L172.932 77.6093V77.6193Z" fill="#D7CDBA"/>
<path d="M186.672 206.739L192.742 208.249L192.532 209.099C190.532 208.519 188.532 207.929 186.532 207.349L186.672 206.739Z" fill="#D7CDBA"/>
<path d="M207.022 189.049C205.272 188.529 203.532 188.009 201.782 187.489L202.062 186.599C203.792 187.169 205.522 187.729 207.252 188.299L207.012 189.039L207.022 189.049Z" fill="#D7CDBA"/>
<path d="M110.943 172.819C107.833 174.529 104.203 174.009 100.583 173.759C104.093 173.439 107.603 173.119 110.943 172.819Z" fill="#D7CDBA"/>
<path d="M131.802 101.799C133.422 103.739 135.052 105.689 136.382 107.289C135.082 107.199 131.602 104.219 131.372 102.429C131.352 102.239 131.672 101.999 131.852 101.779L131.802 101.799Z" fill="#D7CDBA"/>
<path d="M84.8823 197.799L90.3124 195.149L90.6323 195.789C88.8423 196.709 87.0524 197.629 85.2524 198.559L84.8823 197.799Z" fill="#D7CDBA"/>
<path d="M89.0024 180.839C91.1324 179.999 93.2624 179.159 95.3924 178.319L95.6624 178.979C93.5324 179.809 91.4024 180.649 89.2624 181.479L89.0024 180.829V180.839Z" fill="#D7CDBA"/>
<path d="M200.513 116.309L206.783 119.889L206.413 120.529C204.333 119.319 202.263 118.099 200.183 116.889L200.513 116.309Z" fill="#D7CDBA"/>
<path d="M199.613 180.289L193.933 181.089C195.733 179.159 197.263 178.919 199.613 180.289Z" fill="#D7CDBA"/>
<path d="M196.553 96.8793H188.433C191.343 96.0293 193.973 96.5894 196.593 96.9094L196.553 96.8793Z" fill="#D7CDBA"/>
<path d="M166.753 95.9594L158.542 92.8293L158.732 92.3193L167.042 95.4893L166.753 95.9594Z" fill="#D7CDBA"/>
<path d="M129.522 188.749C132.372 187.759 132.782 187.869 134.712 190.449C132.862 189.839 131.092 189.259 129.522 188.749Z" fill="#D7CDBA"/>
<path d="M135.353 238.499C133.863 238.639 132.363 238.739 130.883 238.929C129.463 239.109 128.063 239.379 126.653 239.599L126.583 238.669C129.513 238.609 132.433 238.549 135.363 238.499H135.353Z" fill="#D7CDBA"/>
<path d="M208.662 234.129H214.642V234.519H208.652V234.129H208.662Z" fill="#D7CDBA"/>
<path d="M210.712 203.689C209.782 206.069 208.472 204.449 207.292 204.299C207.672 203.259 208.812 203.056 210.712 203.689Z" fill="#D7CDBA"/>
<path d="M219.802 203.539C217.552 203.369 215.303 203.189 213.062 203.019L213.112 202.409C215.352 202.509 217.582 202.609 219.822 202.709V203.549L219.802 203.539Z" fill="#D7CDBA"/>
<path d="M174.022 106.529C176.152 105.969 178.282 105.409 180.412 104.859L180.562 105.499C178.392 106.029 176.233 106.569 174.062 107.099L174.022 106.539V106.529Z" fill="#D7CDBA"/>
<path d="M169.563 88.5093L163.433 86.4394L163.653 85.7194L169.793 87.8593L169.573 88.5093H169.563Z" fill="#D7CDBA"/>
<path d="M193.553 204.259C195.543 205.089 197.533 205.909 199.523 206.739L199.253 207.319C197.213 206.619 195.013 206.239 193.603 204.229L193.553 204.259Z" fill="#D7CDBA"/>
<path d="M152.162 224.599C150.762 222.489 149.362 220.369 147.962 218.259L148.722 217.819C149.912 220.049 151.092 222.279 152.282 224.499L152.172 224.599H152.162Z" fill="#D7CDBA"/>
<path d="M105.032 192.769C103.212 193.179 101.392 193.579 99.5723 193.989L99.4023 192.989L104.972 192.279L105.032 192.769Z" fill="#D7CDBA"/>
<path d="M186.553 161.479L186.813 156.029L187.133 156.049V161.499L186.553 161.479Z" fill="#D7CDBA"/>
<path d="M85.4326 235.159C86.6726 233.819 87.9026 232.469 89.1426 231.129L89.7226 231.659C88.4926 233.009 87.2726 234.369 86.0426 235.719L85.4326 235.159Z" fill="#D7CDBA"/>
<path d="M206.063 184.449L201.093 183.079L201.303 182.279L206.223 183.629L206.063 184.449Z" fill="#D7CDBA"/>
<path d="M86.1226 195.079C87.9226 194.249 89.7325 193.419 91.5325 192.589L91.8026 193.179C90.0226 194.039 88.2325 194.899 86.4525 195.749L86.1226 195.079Z" fill="#D7CDBA"/>
<path d="M187.413 148.819L185.633 155.729L185.053 155.579C185.683 153.289 186.323 150.999 186.953 148.699L187.403 148.819H187.413Z" fill="#D7CDBA"/>
<path d="M91.4326 207.089L94.8826 203.219L95.4326 203.709C94.3026 205.009 93.1626 206.309 92.0326 207.619L91.4426 207.089H91.4326Z" fill="#D7CDBA"/>
<path d="M198.442 184.669L193.292 185.099C194.792 183.569 196.532 183.609 198.442 184.669Z" fill="#D7CDBA"/>
<path d="M100.153 182.489L106.943 182.049L106.983 182.579C104.723 182.799 102.463 183.019 100.203 183.229L100.143 182.489H100.153Z" fill="#D7CDBA"/>
<path d="M145.482 214.599C143.572 215.059 141.672 215.529 139.762 215.989L139.592 215.439C141.482 214.919 143.382 214.389 145.272 213.869L145.482 214.599Z" fill="#D7CDBA"/>
<path d="M158.412 75.0093C157.042 76.8593 156.192 75.5593 155.192 74.6293C156.412 73.2993 157.372 73.8693 158.412 75.0093Z" fill="#D7CDBA"/>
<path d="M147.322 75.0793L151.872 73.0693L152.152 73.7693C150.612 73.9693 149.842 76.2793 147.332 75.0793H147.322Z" fill="#D7CDBA"/>
<path d="M193.602 204.239C191.712 204.159 189.832 204.069 187.942 203.989L188.002 203.319C189.992 202.619 191.742 203.589 193.542 204.269L193.602 204.239Z" fill="#D7CDBA"/>
<path d="M202.833 140.159C201.863 141.329 201.683 143.369 199.103 143.209C200.283 141.849 201.283 140.709 202.273 139.559L202.833 140.149V140.159Z" fill="#D7CDBA"/>
<path d="M129.492 139.459L127.432 144.179L126.822 143.929L128.732 139.039L129.492 139.459Z" fill="#D7CDBA"/>
<path d="M163.283 72.5893C162.193 73.3493 161.123 74.6093 159.603 72.3893L163.183 71.8593L163.283 72.5893Z" fill="#D7CDBA"/>
<path d="M97.6323 172.019L92.0123 173.479L91.8423 172.789L97.5823 171.469L97.6323 172.029V172.019Z" fill="#D7CDBA"/>
<path d="M137.673 178.089L131.893 175.379L132.123 174.879C134.053 175.769 135.993 176.669 137.923 177.559L137.673 178.089Z" fill="#D7CDBA"/>
<path d="M206.632 191.409C205.242 191.039 203.852 190.659 202.462 190.289L202.682 189.479L206.832 190.589L206.632 191.419V191.409Z" fill="#D7CDBA"/>
<path d="M86.4722 190.359C88.3922 189.669 90.3222 188.989 92.2422 188.299L92.4222 188.779L86.7822 191.139L86.4722 190.359Z" fill="#D7CDBA"/>
<path d="M192.883 189.189C195.173 187.799 197.253 187.599 200.013 188.769C197.323 188.929 195.243 189.049 192.883 189.189Z" fill="#D7CDBA"/>
<path d="M206.923 186.549L201.143 185.349L201.313 184.549L207.053 185.939L206.923 186.539V186.549Z" fill="#D7CDBA"/>
<path d="M90.6524 234.239L87.1424 238.049L86.4824 237.439C87.6724 236.179 88.8524 234.919 90.0424 233.659L90.6524 234.239Z" fill="#D7CDBA"/>
<path d="M187.492 90.7293L192.812 91.1493L192.782 91.3993H187.462L187.482 90.7393L187.492 90.7293Z" fill="#D7CDBA"/>
<path d="M111.782 157.009C109.932 157.449 108.082 157.879 106.222 158.319L106.042 157.589C107.872 157.179 109.712 156.779 111.542 156.369L111.782 157.009Z" fill="#D7CDBA"/>
</g>
<defs>
<clipPath id="clip0_41_16001">
<rect width="317.72" height="326" fill="white"/>
</clipPath>
</defs>
</svg>
