<svg width="66" height="66" viewBox="0 0 66 66" fill="none" xmlns="http://www.w3.org/2000/svg">
<circle cx="33.3971" cy="33.3463" r="29.7271" stroke="#D7CDBA" stroke-width="0.425906"/>
<circle cx="33.3968" cy="33.3465" r="31.8654" stroke="#D7CDBA" stroke-width="1.27772"/>
<mask id="path-3-inside-1_83_2710" fill="white">
<path d="M11.1738 15.1933C11.7701 14.7899 12.3156 14.2215 12.9754 14.0083C18.0807 12.3666 23.2189 10.8315 28.3217 9.1847C30.1258 8.60363 31.8665 7.82211 33.6249 7.10402C35.9847 6.14234 37.3778 6.47474 38.9992 8.38034C44.1197 14.389 49.2529 20.3874 54.3734 26.3986C56.1268 28.4564 57.8649 30.532 59.5929 32.6102C61.2244 34.5716 61.1179 35.6018 59.1565 37.2562C57.9157 38.3016 56.822 42.0519 57.5046 43.4957C57.8243 44.1732 58.5424 44.6908 59.1514 45.1958C60.7829 46.5533 60.6256 48.4818 58.6845 49.3267C54.6627 51.0725 50.6003 52.7294 46.5556 54.4244C43.597 55.6652 40.6485 56.9339 37.6721 58.129C36.7206 58.5096 35.6878 58.6771 34.7008 58.974C34.4851 59.04 34.2872 59.2201 34.1222 59.3851C33.1758 60.334 32.0441 60.3772 31.1814 59.3521C30.0142 57.9692 29.1286 56.2818 27.766 55.1501C26.4948 54.092 25.8249 52.7954 25.0789 51.4531C24.5409 50.4863 23.9015 49.5754 23.3027 48.6441C22.3461 47.1572 21.4047 45.6627 20.4252 44.191C18.6693 41.5546 17.0403 38.8116 15.0637 36.3503C13.8559 34.8482 13.049 32.935 11.1763 31.9708C10.7881 31.7728 10.5953 31.1765 10.3415 30.7452C10.2147 30.532 10.2223 30.1768 10.0523 30.0601C7.9665 28.6214 7.96397 25.8987 6.3933 24.1301C6.06851 23.7673 5.98224 22.9426 6.1421 22.4427C6.76123 20.4889 7.40827 18.5275 8.27607 16.6777C8.80385 15.5536 9.98375 15.2339 11.255 15.5765L11.1763 15.1882L11.1738 15.1933ZM41.1382 46.9771C43.3382 46.1093 45.5356 45.2415 47.7355 44.3762C47.6467 44.1834 47.5579 43.9931 47.4665 43.8002C45.3656 44.8685 43.2646 45.9367 41.1611 47.0024C39.7883 47.4769 38.413 47.9489 37.0403 48.4234L37.2281 48.87C38.5323 48.2382 39.834 47.6063 41.1382 46.9745V46.9771ZM45.462 50.768C41.9578 52.1788 38.4435 53.5693 34.9596 55.0359C34.6018 55.1856 34.4394 55.7946 34.1857 56.1904L34.5029 56.4899C38.3445 54.7999 42.1887 53.11 46.0304 51.4201C45.9847 51.5673 45.9365 51.7144 45.7893 52.1762C49.636 50.4102 53.2443 48.7558 56.8525 47.1014L56.6977 46.7868L55.9897 46.8959C56.3754 46.5279 56.685 46.2311 56.9946 45.9342C56.9184 45.8251 56.8423 45.716 56.7662 45.6068C54.9494 46.3833 53.1326 47.1598 51.3158 47.9387C52.8078 46.9517 54.4191 46.2361 56.0126 45.48C56.3678 45.3125 56.6546 45.0004 56.9743 44.7568L56.7155 44.361C55.2564 44.9421 53.7974 45.5206 52.3384 46.1017C53.4041 45.3658 54.5333 44.7771 55.7309 44.4041C56.8296 44.0616 57.124 43.4805 56.7459 42.3742C49.1641 45.7363 41.1179 47.9667 33.9954 52.2904L34.1273 52.6051C38.7302 50.6335 43.3306 48.6619 47.9334 46.6878L48.0755 47.0354C44.3988 48.6264 40.7145 50.2021 37.0479 51.8159C36.4567 52.0747 35.939 52.496 35.3859 52.841C35.4569 52.973 35.528 53.1024 35.599 53.2343C37.6518 52.3361 39.7046 51.4353 41.7573 50.5371C41.5544 50.9151 41.2651 51.1207 40.9454 51.2526C38.918 52.0849 36.888 52.9121 34.8505 53.719C33.9903 54.059 33.9802 54.0336 34.2034 54.8228C38.5602 53.039 42.9195 51.2577 47.2788 49.4739L47.3625 49.682C46.8576 49.9763 46.3552 50.2681 45.8502 50.5624C45.7208 50.631 45.5889 50.6995 45.4594 50.768H45.462ZM58.3419 33.4957C58.583 33.6937 58.8266 33.8916 59.0854 34.1047C57.3447 34.8685 55.7081 35.584 54.074 36.3021C54.1171 36.4011 54.1603 36.5 54.2034 36.5965C55.9238 35.9748 57.6416 35.3557 59.362 34.734C59.4178 34.8431 59.4711 34.9522 59.5269 35.0613C59.1641 35.2745 58.8164 35.5231 58.4358 35.6957C56.7814 36.4417 55.1245 37.1826 53.4574 37.8982C48.687 39.9459 43.8888 41.9327 39.1489 44.0463C37.1494 44.937 34.7997 45.2592 33.3991 47.2587C33.3103 47.3856 32.9804 47.4795 32.8485 47.416C31.4224 46.7182 30.9936 47.7916 30.4709 48.7177C30.8185 47.9134 31.1662 47.109 31.6153 46.0737C31.4986 45.9088 31.2245 45.4292 30.854 45.041C30.5952 44.7695 30.1131 44.3914 29.8949 44.4752C29.4915 44.6325 29.2098 45.0968 28.8774 45.4343L29.0855 45.6068C29.258 45.4952 29.4306 45.3861 29.7173 45.2034C28.3648 48.5604 27.9588 51.5292 28.6338 52.9425C28.7683 50.5548 28.7505 48.1595 30.0167 46.0408C28.9231 51.5216 28.814 53.7723 29.6843 54.8507C29.6843 53.9372 29.5828 53.039 29.7097 52.1737C29.8822 50.9938 30.2324 49.8418 30.5039 48.6771C30.0268 51.5977 30.2755 54.4929 30.8312 57.3729C30.9961 58.228 31.3412 58.9664 32.5567 59.1059C32.0619 58.2026 31.4706 57.5784 31.3971 56.8984C31.1738 54.8075 31.0215 52.6863 31.1179 50.5903C31.1509 49.8418 31.8208 48.9055 32.4755 48.4564C33.3788 47.8372 34.6551 47.751 34.9596 46.3935C34.9799 46.3046 35.2463 46.2615 35.4036 46.2133C36.1268 45.9925 36.8753 45.8428 37.5681 45.5536C41.9705 43.7165 46.3628 41.8565 50.75 39.9865C53.5487 38.7939 56.3348 37.5785 59.1235 36.3605C60.174 35.9012 60.6307 34.9624 60.0674 34.3153C59.5396 33.7114 58.8773 33.2293 58.04 32.4858C58.2278 33.0618 58.3013 33.2902 58.3775 33.5211C56.987 33.955 55.5965 34.3915 54.2059 34.8253L54.3354 35.206C55.6269 34.7746 56.9235 34.3509 58.2075 33.9017C58.2912 33.8713 58.3013 33.6328 58.347 33.4932L58.3419 33.4957ZM16.7688 35.2973L17.1215 35.3633C17.4615 33.8916 17.8041 32.4199 18.1441 30.9507L18.342 31.004C18.1137 32.8335 17.8827 34.6604 17.6544 36.4899L18.1263 36.5483C18.205 35.6525 18.2228 34.7442 18.3826 33.8637C18.545 32.9603 18.8444 32.0824 19.0855 31.1943L19.3037 31.2653C18.9332 33.4628 18.5602 35.6576 18.1898 37.855L18.5298 37.9261C18.8825 36.2565 19.2352 34.5868 19.5879 32.9172L19.7173 32.9984L19.4179 39.0679L19.7072 39.1009C20.0599 37.4668 20.4151 35.8302 20.7678 34.1961L21.0038 34.262C20.712 36.226 20.4202 38.19 20.1284 40.1539L20.5014 40.2275C21.0926 38.5376 20.6181 36.4772 21.9249 35.1958C21.5798 37.274 21.2195 39.4638 20.8566 41.6536L21.2042 41.7246L22.6886 36.3986L23.2012 36.5153C22.2497 38.4665 21.8031 40.4889 22.1025 42.6279C22.5237 40.867 22.615 38.9969 23.9903 37.6089C23.1555 39.6236 22.4653 41.6434 22.9931 44.196C23.3712 42.4985 23.6757 41.1283 23.9827 39.7556L24.3329 39.8368C24.1527 40.5929 23.9726 41.3491 23.7949 42.1001C24.7135 41.24 25.5711 40.4356 26.3273 39.7276C25.325 38.0631 24.4039 36.363 23.323 34.7746C20.8591 31.1461 18.3293 27.5582 15.7792 23.988C15.5432 23.6582 14.881 23.3207 14.5739 23.4272C14.1527 23.5744 13.8787 24.1479 13.5438 24.5386L13.7797 24.7442L14.409 24.4321C14.0995 26.4519 13.1987 28.3549 13.8076 30.3925C13.9447 28.4006 14.1502 26.4417 15.2058 24.6782C14.508 27.0811 14.2593 29.5018 14.6577 31.9708C15.117 29.8774 14.5942 27.6089 15.7868 25.7262C15.6168 28.0986 15.4468 30.5168 15.2743 32.9324C15.7513 32.0925 15.9721 31.2095 16.2385 30.3392C16.5125 29.4511 16.7231 28.4894 18.0604 28.2179C16.406 29.545 15.934 32.7168 16.1472 34.1352C16.5684 32.7396 17.0048 31.2856 17.4412 29.8342L17.5884 29.9028C17.3169 31.7018 17.0429 33.5008 16.7714 35.2998L16.7688 35.2973ZM33.3788 57.9362L33.5488 58.1823C35.835 57.4135 38.1415 56.6954 40.4074 55.8682C46.2841 53.7241 52.0796 51.3896 57.5528 48.3244C60.3287 46.769 60.3287 46.566 57.6974 44.8C57.6797 44.7873 57.6315 44.8228 57.5959 44.838C58.4409 46.4899 58.2557 47.3526 56.6774 48.0479C51.9654 50.1235 47.2407 52.1686 42.4907 54.1478C39.8035 55.2668 37.0479 56.2234 34.3329 57.279C33.9827 57.416 33.696 57.7129 33.3788 57.9362ZM8.00203 24.0718L8.46891 24.2265C8.68967 21.6917 9.76046 19.814 12.4679 19.1568C11.8665 18.3423 11.4732 17.6267 10.9074 17.0913C10.3339 16.5483 9.57269 16.4671 9.06521 17.2461C8.44608 18.1976 7.82694 19.1644 7.3626 20.1971C6.99467 21.0167 6.86019 21.9403 6.62421 22.8183L6.81959 22.8487C7.54783 21.1867 8.27607 19.5247 9.00685 17.8627L9.17685 17.9515C8.58056 19.7353 7.9868 21.5191 7.39051 23.3029L7.78888 23.4374L8.91042 20.1971L9.13372 20.2885C8.75818 21.5496 8.3801 22.8107 8.00456 24.0718H8.00203ZM57.1011 41.3313C57.0047 41.207 56.9058 41.0826 56.8093 40.9583C49.4457 44.1301 42.0847 47.3019 34.7211 50.4711C34.7591 50.5751 34.7972 50.6817 34.8327 50.7857C35.4011 50.5751 35.9746 50.3772 36.5353 50.1514C42.1684 47.8981 47.8015 45.6449 53.432 43.379C54.3709 43.0009 55.3021 42.6 56.2029 42.1433C56.5505 41.9682 56.8043 41.6053 57.1011 41.3288V41.3313ZM26.4009 49.8926C26.6901 48.2102 26.9769 46.5305 27.2661 44.8482L27.6569 44.9217C27.1519 46.9086 26.6901 48.9004 27.1748 50.938C27.4133 48.0783 27.3905 45.178 29.3976 42.6711C28.6541 42.8132 27.8548 42.9629 27.4285 43.4424C25.7513 45.3227 26.0989 47.6469 26.4009 49.89V49.8926ZM24.376 49.649L24.8048 49.6794C24.8607 49.2531 24.9444 48.8294 24.9647 48.4031C25.0383 46.8477 25.0713 45.2897 25.1575 43.7342C25.226 42.4985 25.8452 41.7094 27.0987 41.4201C27.4285 41.344 27.7102 41.0496 28.2913 40.6792C26.3933 40.3392 25.0459 40.8847 24.6653 42.0951C23.8812 44.5817 23.9269 47.1192 24.3735 49.6515L24.376 49.649ZM15.2819 18.5427C14.6272 18.2636 13.9371 18.152 13.3814 19.0578C13.2139 19.3293 12.8307 19.479 12.5262 19.649C11.9858 19.951 11.2956 20.1032 10.9074 20.5321C9.00685 22.628 9.22253 25.2314 9.18447 27.7586C9.75792 25.8911 9.87464 23.7622 10.8795 22.2068C11.8589 20.6919 13.7493 19.7632 15.2844 18.5427H15.2819ZM13.998 21.5825C11.4986 22.8893 10.6257 27.7409 12.1253 30.3392C12.2852 28.8827 12.3436 27.3552 12.6506 25.8784C12.9398 24.4854 13.4955 23.1481 13.998 21.5825ZM12.4045 15.7566C16.4339 13.407 21.1103 13.0568 25.1322 11.0015C21.3336 12.052 17.5656 13.1989 13.8305 14.4473C13.2723 14.6351 12.8739 15.3075 12.4045 15.7541V15.7566ZM10.5014 28.8421C11.1535 25.9774 10.8617 23.0796 13.3306 21.2197C11.4707 20.6488 9.84419 24.937 10.5014 28.8421ZM25.8477 21.0218C25.8985 21.1385 25.9517 21.2527 26.0025 21.3694C29.5828 20.1946 33.1656 19.0197 36.7459 17.8475L36.6292 17.4948C33.0362 18.6696 29.4432 19.8469 25.8477 21.0218ZM32.4983 43.889C35.3478 43.7393 37.6518 42.2143 40.07 40.9938C37.5706 41.9504 35.0712 42.9045 32.4983 43.889ZM29.1946 21.3263L29.3341 21.6282C31.6609 20.867 33.9878 20.1058 36.3171 19.3471L36.208 19.0121C33.871 19.7835 31.5341 20.5549 29.1971 21.3263H29.1946ZM50.4531 43.0085L50.5546 43.2344L56.9793 40.4635C56.3348 40.3442 55.7512 40.4178 55.2437 40.6563C53.6325 41.4074 52.0491 42.2194 50.4531 43.0085ZM38.4283 9.81652C38.3927 9.67696 38.3572 9.53994 38.3217 9.40039C36.647 9.82921 34.9748 10.258 33.3001 10.6869L33.3864 11.037C35.0662 10.631 36.7459 10.225 38.4257 9.81906L38.4283 9.81652ZM32.9398 45.0943L33.1276 45.4546C34.7287 44.8659 36.3273 44.2772 37.9284 43.6886L37.8218 43.4094C36.1953 43.9702 34.5663 44.5335 32.9398 45.0943ZM30.4404 39.4536L30.4836 39.7276C32.1354 39.3267 33.7898 38.9233 35.4417 38.5224L35.3681 38.2407C33.7239 38.6442 32.0822 39.0476 30.4379 39.4536H30.4404ZM29.6234 22.902L29.7224 23.2065C31.2778 22.6889 32.8332 22.1712 34.3887 21.6561C34.3608 21.5699 34.3329 21.481 34.3024 21.3948C32.7419 21.8972 31.1814 22.4021 29.6209 22.9045L29.6234 22.902ZM36.7815 7.86525C36.7612 7.74599 36.7434 7.62673 36.7231 7.50493C35.5813 7.67748 34.442 7.84748 33.3001 8.02003L33.3661 8.43363L36.7815 7.86525ZM35.5077 11.3593C35.5584 11.4557 35.6066 11.5521 35.6574 11.646L39.3696 10.6716L39.2707 10.3189C38.0172 10.6666 36.7612 11.0116 35.5077 11.3593Z"/>
</mask>
<path d="M11.1738 15.1933C11.7701 14.7899 12.3156 14.2215 12.9754 14.0083C18.0807 12.3666 23.2189 10.8315 28.3217 9.1847C30.1258 8.60363 31.8665 7.82211 33.6249 7.10402C35.9847 6.14234 37.3778 6.47474 38.9992 8.38034C44.1197 14.389 49.2529 20.3874 54.3734 26.3986C56.1268 28.4564 57.8649 30.532 59.5929 32.6102C61.2244 34.5716 61.1179 35.6018 59.1565 37.2562C57.9157 38.3016 56.822 42.0519 57.5046 43.4957C57.8243 44.1732 58.5424 44.6908 59.1514 45.1958C60.7829 46.5533 60.6256 48.4818 58.6845 49.3267C54.6627 51.0725 50.6003 52.7294 46.5556 54.4244C43.597 55.6652 40.6485 56.9339 37.6721 58.129C36.7206 58.5096 35.6878 58.6771 34.7008 58.974C34.4851 59.04 34.2872 59.2201 34.1222 59.3851C33.1758 60.334 32.0441 60.3772 31.1814 59.3521C30.0142 57.9692 29.1286 56.2818 27.766 55.1501C26.4948 54.092 25.8249 52.7954 25.0789 51.4531C24.5409 50.4863 23.9015 49.5754 23.3027 48.6441C22.3461 47.1572 21.4047 45.6627 20.4252 44.191C18.6693 41.5546 17.0403 38.8116 15.0637 36.3503C13.8559 34.8482 13.049 32.935 11.1763 31.9708C10.7881 31.7728 10.5953 31.1765 10.3415 30.7452C10.2147 30.532 10.2223 30.1768 10.0523 30.0601C7.9665 28.6214 7.96397 25.8987 6.3933 24.1301C6.06851 23.7673 5.98224 22.9426 6.1421 22.4427C6.76123 20.4889 7.40827 18.5275 8.27607 16.6777C8.80385 15.5536 9.98375 15.2339 11.255 15.5765L11.1763 15.1882L11.1738 15.1933ZM41.1382 46.9771C43.3382 46.1093 45.5356 45.2415 47.7355 44.3762C47.6467 44.1834 47.5579 43.9931 47.4665 43.8002C45.3656 44.8685 43.2646 45.9367 41.1611 47.0024C39.7883 47.4769 38.413 47.9489 37.0403 48.4234L37.2281 48.87C38.5323 48.2382 39.834 47.6063 41.1382 46.9745V46.9771ZM45.462 50.768C41.9578 52.1788 38.4435 53.5693 34.9596 55.0359C34.6018 55.1856 34.4394 55.7946 34.1857 56.1904L34.5029 56.4899C38.3445 54.7999 42.1887 53.11 46.0304 51.4201C45.9847 51.5673 45.9365 51.7144 45.7893 52.1762C49.636 50.4102 53.2443 48.7558 56.8525 47.1014L56.6977 46.7868L55.9897 46.8959C56.3754 46.5279 56.685 46.2311 56.9946 45.9342C56.9184 45.8251 56.8423 45.716 56.7662 45.6068C54.9494 46.3833 53.1326 47.1598 51.3158 47.9387C52.8078 46.9517 54.4191 46.2361 56.0126 45.48C56.3678 45.3125 56.6546 45.0004 56.9743 44.7568L56.7155 44.361C55.2564 44.9421 53.7974 45.5206 52.3384 46.1017C53.4041 45.3658 54.5333 44.7771 55.7309 44.4041C56.8296 44.0616 57.124 43.4805 56.7459 42.3742C49.1641 45.7363 41.1179 47.9667 33.9954 52.2904L34.1273 52.6051C38.7302 50.6335 43.3306 48.6619 47.9334 46.6878L48.0755 47.0354C44.3988 48.6264 40.7145 50.2021 37.0479 51.8159C36.4567 52.0747 35.939 52.496 35.3859 52.841C35.4569 52.973 35.528 53.1024 35.599 53.2343C37.6518 52.3361 39.7046 51.4353 41.7573 50.5371C41.5544 50.9151 41.2651 51.1207 40.9454 51.2526C38.918 52.0849 36.888 52.9121 34.8505 53.719C33.9903 54.059 33.9802 54.0336 34.2034 54.8228C38.5602 53.039 42.9195 51.2577 47.2788 49.4739L47.3625 49.682C46.8576 49.9763 46.3552 50.2681 45.8502 50.5624C45.7208 50.631 45.5889 50.6995 45.4594 50.768H45.462ZM58.3419 33.4957C58.583 33.6937 58.8266 33.8916 59.0854 34.1047C57.3447 34.8685 55.7081 35.584 54.074 36.3021C54.1171 36.4011 54.1603 36.5 54.2034 36.5965C55.9238 35.9748 57.6416 35.3557 59.362 34.734C59.4178 34.8431 59.4711 34.9522 59.5269 35.0613C59.1641 35.2745 58.8164 35.5231 58.4358 35.6957C56.7814 36.4417 55.1245 37.1826 53.4574 37.8982C48.687 39.9459 43.8888 41.9327 39.1489 44.0463C37.1494 44.937 34.7997 45.2592 33.3991 47.2587C33.3103 47.3856 32.9804 47.4795 32.8485 47.416C31.4224 46.7182 30.9936 47.7916 30.4709 48.7177C30.8185 47.9134 31.1662 47.109 31.6153 46.0737C31.4986 45.9088 31.2245 45.4292 30.854 45.041C30.5952 44.7695 30.1131 44.3914 29.8949 44.4752C29.4915 44.6325 29.2098 45.0968 28.8774 45.4343L29.0855 45.6068C29.258 45.4952 29.4306 45.3861 29.7173 45.2034C28.3648 48.5604 27.9588 51.5292 28.6338 52.9425C28.7683 50.5548 28.7505 48.1595 30.0167 46.0408C28.9231 51.5216 28.814 53.7723 29.6843 54.8507C29.6843 53.9372 29.5828 53.039 29.7097 52.1737C29.8822 50.9938 30.2324 49.8418 30.5039 48.6771C30.0268 51.5977 30.2755 54.4929 30.8312 57.3729C30.9961 58.228 31.3412 58.9664 32.5567 59.1059C32.0619 58.2026 31.4706 57.5784 31.3971 56.8984C31.1738 54.8075 31.0215 52.6863 31.1179 50.5903C31.1509 49.8418 31.8208 48.9055 32.4755 48.4564C33.3788 47.8372 34.6551 47.751 34.9596 46.3935C34.9799 46.3046 35.2463 46.2615 35.4036 46.2133C36.1268 45.9925 36.8753 45.8428 37.5681 45.5536C41.9705 43.7165 46.3628 41.8565 50.75 39.9865C53.5487 38.7939 56.3348 37.5785 59.1235 36.3605C60.174 35.9012 60.6307 34.9624 60.0674 34.3153C59.5396 33.7114 58.8773 33.2293 58.04 32.4858C58.2278 33.0618 58.3013 33.2902 58.3775 33.5211C56.987 33.955 55.5965 34.3915 54.2059 34.8253L54.3354 35.206C55.6269 34.7746 56.9235 34.3509 58.2075 33.9017C58.2912 33.8713 58.3013 33.6328 58.347 33.4932L58.3419 33.4957ZM16.7688 35.2973L17.1215 35.3633C17.4615 33.8916 17.8041 32.4199 18.1441 30.9507L18.342 31.004C18.1137 32.8335 17.8827 34.6604 17.6544 36.4899L18.1263 36.5483C18.205 35.6525 18.2228 34.7442 18.3826 33.8637C18.545 32.9603 18.8444 32.0824 19.0855 31.1943L19.3037 31.2653C18.9332 33.4628 18.5602 35.6576 18.1898 37.855L18.5298 37.9261C18.8825 36.2565 19.2352 34.5868 19.5879 32.9172L19.7173 32.9984L19.4179 39.0679L19.7072 39.1009C20.0599 37.4668 20.4151 35.8302 20.7678 34.1961L21.0038 34.262C20.712 36.226 20.4202 38.19 20.1284 40.1539L20.5014 40.2275C21.0926 38.5376 20.6181 36.4772 21.9249 35.1958C21.5798 37.274 21.2195 39.4638 20.8566 41.6536L21.2042 41.7246L22.6886 36.3986L23.2012 36.5153C22.2497 38.4665 21.8031 40.4889 22.1025 42.6279C22.5237 40.867 22.615 38.9969 23.9903 37.6089C23.1555 39.6236 22.4653 41.6434 22.9931 44.196C23.3712 42.4985 23.6757 41.1283 23.9827 39.7556L24.3329 39.8368C24.1527 40.5929 23.9726 41.3491 23.7949 42.1001C24.7135 41.24 25.5711 40.4356 26.3273 39.7276C25.325 38.0631 24.4039 36.363 23.323 34.7746C20.8591 31.1461 18.3293 27.5582 15.7792 23.988C15.5432 23.6582 14.881 23.3207 14.5739 23.4272C14.1527 23.5744 13.8787 24.1479 13.5438 24.5386L13.7797 24.7442L14.409 24.4321C14.0995 26.4519 13.1987 28.3549 13.8076 30.3925C13.9447 28.4006 14.1502 26.4417 15.2058 24.6782C14.508 27.0811 14.2593 29.5018 14.6577 31.9708C15.117 29.8774 14.5942 27.6089 15.7868 25.7262C15.6168 28.0986 15.4468 30.5168 15.2743 32.9324C15.7513 32.0925 15.9721 31.2095 16.2385 30.3392C16.5125 29.4511 16.7231 28.4894 18.0604 28.2179C16.406 29.545 15.934 32.7168 16.1472 34.1352C16.5684 32.7396 17.0048 31.2856 17.4412 29.8342L17.5884 29.9028C17.3169 31.7018 17.0429 33.5008 16.7714 35.2998L16.7688 35.2973ZM33.3788 57.9362L33.5488 58.1823C35.835 57.4135 38.1415 56.6954 40.4074 55.8682C46.2841 53.7241 52.0796 51.3896 57.5528 48.3244C60.3287 46.769 60.3287 46.566 57.6974 44.8C57.6797 44.7873 57.6315 44.8228 57.5959 44.838C58.4409 46.4899 58.2557 47.3526 56.6774 48.0479C51.9654 50.1235 47.2407 52.1686 42.4907 54.1478C39.8035 55.2668 37.0479 56.2234 34.3329 57.279C33.9827 57.416 33.696 57.7129 33.3788 57.9362ZM8.00203 24.0718L8.46891 24.2265C8.68967 21.6917 9.76046 19.814 12.4679 19.1568C11.8665 18.3423 11.4732 17.6267 10.9074 17.0913C10.3339 16.5483 9.57269 16.4671 9.06521 17.2461C8.44608 18.1976 7.82694 19.1644 7.3626 20.1971C6.99467 21.0167 6.86019 21.9403 6.62421 22.8183L6.81959 22.8487C7.54783 21.1867 8.27607 19.5247 9.00685 17.8627L9.17685 17.9515C8.58056 19.7353 7.9868 21.5191 7.39051 23.3029L7.78888 23.4374L8.91042 20.1971L9.13372 20.2885C8.75818 21.5496 8.3801 22.8107 8.00456 24.0718H8.00203ZM57.1011 41.3313C57.0047 41.207 56.9058 41.0826 56.8093 40.9583C49.4457 44.1301 42.0847 47.3019 34.7211 50.4711C34.7591 50.5751 34.7972 50.6817 34.8327 50.7857C35.4011 50.5751 35.9746 50.3772 36.5353 50.1514C42.1684 47.8981 47.8015 45.6449 53.432 43.379C54.3709 43.0009 55.3021 42.6 56.2029 42.1433C56.5505 41.9682 56.8043 41.6053 57.1011 41.3288V41.3313ZM26.4009 49.8926C26.6901 48.2102 26.9769 46.5305 27.2661 44.8482L27.6569 44.9217C27.1519 46.9086 26.6901 48.9004 27.1748 50.938C27.4133 48.0783 27.3905 45.178 29.3976 42.6711C28.6541 42.8132 27.8548 42.9629 27.4285 43.4424C25.7513 45.3227 26.0989 47.6469 26.4009 49.89V49.8926ZM24.376 49.649L24.8048 49.6794C24.8607 49.2531 24.9444 48.8294 24.9647 48.4031C25.0383 46.8477 25.0713 45.2897 25.1575 43.7342C25.226 42.4985 25.8452 41.7094 27.0987 41.4201C27.4285 41.344 27.7102 41.0496 28.2913 40.6792C26.3933 40.3392 25.0459 40.8847 24.6653 42.0951C23.8812 44.5817 23.9269 47.1192 24.3735 49.6515L24.376 49.649ZM15.2819 18.5427C14.6272 18.2636 13.9371 18.152 13.3814 19.0578C13.2139 19.3293 12.8307 19.479 12.5262 19.649C11.9858 19.951 11.2956 20.1032 10.9074 20.5321C9.00685 22.628 9.22253 25.2314 9.18447 27.7586C9.75792 25.8911 9.87464 23.7622 10.8795 22.2068C11.8589 20.6919 13.7493 19.7632 15.2844 18.5427H15.2819ZM13.998 21.5825C11.4986 22.8893 10.6257 27.7409 12.1253 30.3392C12.2852 28.8827 12.3436 27.3552 12.6506 25.8784C12.9398 24.4854 13.4955 23.1481 13.998 21.5825ZM12.4045 15.7566C16.4339 13.407 21.1103 13.0568 25.1322 11.0015C21.3336 12.052 17.5656 13.1989 13.8305 14.4473C13.2723 14.6351 12.8739 15.3075 12.4045 15.7541V15.7566ZM10.5014 28.8421C11.1535 25.9774 10.8617 23.0796 13.3306 21.2197C11.4707 20.6488 9.84419 24.937 10.5014 28.8421ZM25.8477 21.0218C25.8985 21.1385 25.9517 21.2527 26.0025 21.3694C29.5828 20.1946 33.1656 19.0197 36.7459 17.8475L36.6292 17.4948C33.0362 18.6696 29.4432 19.8469 25.8477 21.0218ZM32.4983 43.889C35.3478 43.7393 37.6518 42.2143 40.07 40.9938C37.5706 41.9504 35.0712 42.9045 32.4983 43.889ZM29.1946 21.3263L29.3341 21.6282C31.6609 20.867 33.9878 20.1058 36.3171 19.3471L36.208 19.0121C33.871 19.7835 31.5341 20.5549 29.1971 21.3263H29.1946ZM50.4531 43.0085L50.5546 43.2344L56.9793 40.4635C56.3348 40.3442 55.7512 40.4178 55.2437 40.6563C53.6325 41.4074 52.0491 42.2194 50.4531 43.0085ZM38.4283 9.81652C38.3927 9.67696 38.3572 9.53994 38.3217 9.40039C36.647 9.82921 34.9748 10.258 33.3001 10.6869L33.3864 11.037C35.0662 10.631 36.7459 10.225 38.4257 9.81906L38.4283 9.81652ZM32.9398 45.0943L33.1276 45.4546C34.7287 44.8659 36.3273 44.2772 37.9284 43.6886L37.8218 43.4094C36.1953 43.9702 34.5663 44.5335 32.9398 45.0943ZM30.4404 39.4536L30.4836 39.7276C32.1354 39.3267 33.7898 38.9233 35.4417 38.5224L35.3681 38.2407C33.7239 38.6442 32.0822 39.0476 30.4379 39.4536H30.4404ZM29.6234 22.902L29.7224 23.2065C31.2778 22.6889 32.8332 22.1712 34.3887 21.6561C34.3608 21.5699 34.3329 21.481 34.3024 21.3948C32.7419 21.8972 31.1814 22.4021 29.6209 22.9045L29.6234 22.902ZM36.7815 7.86525C36.7612 7.74599 36.7434 7.62673 36.7231 7.50493C35.5813 7.67748 34.442 7.84748 33.3001 8.02003L33.3661 8.43363L36.7815 7.86525ZM35.5077 11.3593C35.5584 11.4557 35.6066 11.5521 35.6574 11.646L39.3696 10.6716L39.2707 10.3189C38.0172 10.6666 36.7612 11.0116 35.5077 11.3593Z" fill="#222222" stroke="#D7CDBA" stroke-width="0.170362" mask="url(#path-3-inside-1_83_2710)"/>
<path d="M45.8529 50.5652C46.3578 50.2709 46.8602 49.9791 47.3652 49.6847L47.2814 49.4767C42.9222 51.2605 38.5654 53.0443 34.2061 54.8255C33.9828 54.0364 33.993 54.0618 34.8532 53.7218C36.8907 52.9149 38.9206 52.0877 40.948 51.2554C41.2678 51.1234 41.557 50.9205 41.76 50.5398C39.7072 51.4381 37.6545 52.3389 35.6017 53.2371C35.5306 53.1052 35.4596 52.9758 35.3886 52.8438C35.9417 52.4987 36.4593 52.0775 37.0506 51.8187C40.7171 50.2049 44.3989 48.6266 48.0782 47.0382L47.9361 46.6906C43.3332 48.6621 38.7329 50.6337 34.13 52.6078L33.998 52.2932C41.1206 47.9669 49.1668 45.7365 56.7486 42.377C57.1266 43.4858 56.8323 44.0643 55.7336 44.4069C54.5385 44.7799 53.4068 45.3686 52.3411 46.1044C53.8001 45.5234 55.2591 44.9448 56.7181 44.3638L56.9769 44.7596C56.6572 45.0057 56.3705 45.3153 56.0153 45.4828C54.4218 46.2389 52.8105 46.9545 51.3185 47.9415C53.1353 47.1651 54.9521 46.3886 56.7689 45.6096C56.845 45.7187 56.9211 45.8278 56.9972 45.937C56.6877 46.2338 56.3756 46.5307 55.9924 46.8986L56.7004 46.7895L56.8551 47.1042C53.2469 48.7586 49.6387 50.413 45.792 52.179C45.9392 51.7172 45.9848 51.57 46.0305 51.4229C46.3375 51.3061 46.6446 51.192 46.949 51.0752C48.1645 50.5145 49.3799 49.9512 50.5953 49.3904L50.4735 49.2102C48.9333 49.6619 47.3931 50.1161 45.8529 50.5677V50.5652Z" fill="#D7CDBA"/>
<path d="M16.7691 35.3001C17.0406 33.5011 17.3146 31.7021 17.5862 29.903L17.439 29.8345C17.0025 31.2859 16.5661 32.7373 16.1449 34.1355C15.9318 32.717 16.4037 29.5453 18.0581 28.2182C16.7184 28.4897 16.5077 29.4539 16.2362 30.3395C15.9673 31.2098 15.7465 32.0928 15.272 32.9327C15.4446 30.5145 15.6171 28.0964 15.7846 25.7264C14.5945 27.6092 15.1147 29.8777 14.6554 31.971C14.2596 29.5021 14.5083 27.0814 15.2035 24.6785C14.1479 26.4445 13.945 28.4009 13.8054 30.3928C13.1964 28.3552 14.0972 26.4521 14.4068 24.4323L13.7775 24.7445L13.5415 24.5389C13.879 24.1482 14.1505 23.5747 14.5717 23.4275C14.8813 23.3184 15.541 23.6584 15.777 23.9883C18.3271 27.5585 20.8544 31.1438 23.3207 34.7749C24.4017 36.3658 25.3202 38.0634 26.325 39.7279C25.5714 40.4359 24.7112 41.2402 23.7927 42.1004C23.9703 41.3493 24.1505 40.5932 24.3306 39.837L23.9805 39.7558C23.676 41.1286 23.3689 42.5013 22.9909 44.1963C22.4631 41.6437 23.1533 39.6239 23.9881 37.6092C22.6128 38.9972 22.524 40.8672 22.1002 42.6282C21.8008 40.4892 22.2474 38.4668 23.1989 36.5156L22.6864 36.3988L21.202 41.7249L20.8544 41.6538C21.2172 39.464 21.5775 37.2768 21.9226 35.1961C20.6158 36.4775 21.0903 38.5379 20.4991 40.2278L20.1261 40.1542C20.4179 38.1903 20.7097 36.2263 21.0015 34.2623L20.7655 34.1963C20.4128 35.8304 20.0576 37.4671 19.7049 39.1012L19.4156 39.0682L19.7151 32.9987L19.5856 32.9175C19.2329 34.5871 18.8802 36.2567 18.5275 37.9264L18.1875 37.8553C18.558 35.6579 18.931 33.463 19.3015 31.2656L19.0832 31.1946C18.8422 32.0827 18.5428 32.9606 18.3804 33.8639C18.223 34.747 18.2053 35.6528 18.1241 36.5485L17.6521 36.4902C17.8805 34.6607 18.1114 32.8338 18.3398 31.0043L18.1418 30.951C17.8018 32.4227 17.4593 33.8944 17.1193 35.3636L16.7666 35.2976L16.7691 35.3001Z" fill="#D7CDBA"/>
<path d="M30.471 48.7233C30.9911 47.7997 31.42 46.7238 32.846 47.4241C32.9779 47.4876 33.3078 47.3937 33.3966 47.2668C34.7973 45.2673 37.1469 44.9451 39.1464 44.0544C43.8888 41.9408 48.6846 39.954 53.4549 37.9063C55.122 37.1907 56.7815 36.4523 58.4333 35.7038C58.814 35.5312 59.1616 35.2826 59.5244 35.0694C59.4686 34.9603 59.4153 34.8512 59.3595 34.7421C57.6391 35.3638 55.9213 35.9829 54.2009 36.6046C54.1578 36.5056 54.1147 36.4067 54.0715 36.3102C55.7082 35.5921 57.3423 34.8766 59.0829 34.1128C58.8216 33.8997 58.5805 33.7018 58.3395 33.5038L58.3674 33.5318L58.0324 32.499C58.8698 33.2425 59.5346 33.7246 60.0598 34.3285C60.6231 34.9755 60.1664 35.9144 59.1159 36.3737C56.3298 37.5916 53.5412 38.8071 50.7424 39.9996C46.3552 41.8697 41.9604 43.7297 37.5605 45.5667C36.8678 45.856 36.1167 46.0057 35.3961 46.2265C35.2388 46.2747 34.9723 46.3178 34.952 46.4066C34.6476 47.7616 33.3712 47.8504 32.4679 48.4696C31.8133 48.9187 31.1459 49.855 31.1104 50.6035C31.014 52.6994 31.1687 54.8182 31.3895 56.9116C31.4631 57.5916 32.0543 58.2158 32.5491 59.1191C31.3337 58.977 30.9886 58.2412 30.8237 57.3861C30.268 54.5061 30.0193 51.6109 30.4963 48.6903L30.4659 48.7284L30.471 48.7233Z" fill="#D7CDBA"/>
<path d="M33.3789 57.9413C33.6961 57.718 33.9828 57.4185 34.333 57.2841C37.048 56.2285 39.8037 55.2719 42.4908 54.1529C47.2434 52.1737 51.9681 50.1285 56.6775 48.0529C58.2532 47.3577 58.441 46.4949 57.5961 44.8431C57.6316 44.8304 57.6798 44.7949 57.6976 44.805C60.3289 46.5685 60.3289 46.7741 57.5529 48.3295C52.0822 51.3947 46.2842 53.7291 40.4076 55.8733C38.1416 56.7005 35.8377 57.4185 33.5489 58.1874L33.3789 57.9413Z" fill="#D7CDBA"/>
<path d="M8.00243 24.072C8.37797 22.8109 8.75604 21.5498 9.13158 20.2887L8.90829 20.1974L7.78675 23.4377L7.38837 23.3032C7.98467 21.5194 8.57842 19.7356 9.17472 17.9518L9.00471 17.863C8.27647 19.525 7.54823 21.187 6.81745 22.849L6.62207 22.8186C6.86059 21.9406 6.99253 21.017 7.36046 20.1974C7.82481 19.1672 8.4414 18.1979 9.06307 17.2464C9.57055 16.4674 10.3292 16.5486 10.9052 17.0916C11.4711 17.627 11.8669 18.3425 12.4658 19.1571C9.75832 19.8142 8.68753 21.6919 8.46678 24.2268L7.99989 24.072H8.00243Z" fill="#D7CDBA"/>
<path d="M46.9517 51.0751C46.6447 51.1918 46.3377 51.3085 46.0332 51.4227C42.1915 53.1126 38.3473 54.8026 34.5057 56.4899L34.1885 56.1905C34.4422 55.7947 34.6046 55.1857 34.9624 55.036C38.4437 53.5694 41.9581 52.1814 45.4648 50.7681C45.7033 50.8036 45.9444 50.829 46.1803 50.8772C46.4391 50.9305 46.6954 51.0066 46.9517 51.07V51.0751Z" fill="#D7CDBA"/>
<path d="M57.1013 41.3314C56.8044 41.608 56.5506 41.9683 56.203 42.1459C55.3022 42.6026 54.371 43.0036 53.4321 43.3816C47.8041 45.6476 42.1685 47.9008 36.5354 50.154C35.9721 50.3799 35.4012 50.5778 34.8328 50.7884C34.7948 50.6843 34.7567 50.5778 34.7212 50.4737C42.0848 47.302 49.4459 44.1302 56.8095 40.9609C56.9059 41.0853 57.0048 41.2096 57.1013 41.3339V41.3314Z" fill="#D7CDBA"/>
<path d="M30.5019 48.6851C30.2279 49.8498 29.8802 51.0018 29.7077 52.1817C29.5808 53.047 29.6823 53.9452 29.6823 54.8587C28.812 53.7803 28.9236 51.5296 30.0147 46.0487C28.746 48.1675 28.7663 50.5603 28.6318 52.9505C27.9569 51.5347 28.3629 48.5684 29.7153 45.2114C29.4311 45.3941 29.2586 45.5032 29.0835 45.6148L28.8754 45.4423C29.2078 45.1048 29.4895 44.6405 29.8929 44.4832C30.1137 44.3969 30.5958 44.7775 30.8521 45.049C31.2225 45.4372 31.4966 45.9168 31.6133 46.0817C31.1642 47.117 30.8165 47.9214 30.4689 48.7257L30.4994 48.6877L30.5019 48.6851Z" fill="#D7CDBA"/>
<path d="M26.4011 49.8928C26.1017 47.6497 25.7515 45.3254 27.4288 43.4452C27.8576 42.9656 28.6543 42.8159 29.3978 42.6738C27.3907 45.1783 27.4135 48.0811 27.175 50.9407C26.6878 48.9007 27.1522 46.9113 27.6571 44.9245L27.2664 44.8509C26.9771 46.5332 26.6904 48.213 26.4011 49.8953V49.8928Z" fill="#D7CDBA"/>
<path d="M24.3789 49.6488C23.9323 47.119 23.8866 44.579 24.6707 42.0923C25.0513 40.8845 26.3961 40.339 28.2966 40.6765C27.7156 41.0469 27.4364 41.3413 27.104 41.4174C25.8506 41.7066 25.2314 42.4958 25.1629 43.7315C25.0766 45.287 25.0437 46.8449 24.9701 48.4004C24.9498 48.8267 24.866 49.2529 24.8102 49.6767L24.3814 49.6462L24.3789 49.6488Z" fill="#D7CDBA"/>
<path d="M15.2821 18.543C13.747 19.7635 11.8566 20.6922 10.8771 22.2071C9.87231 23.7625 9.75559 25.894 9.18213 27.759C9.22019 25.2317 9.00451 22.6283 10.905 20.5324C11.2958 20.1036 11.986 19.9513 12.5239 19.6494C12.8284 19.4794 13.2116 19.3271 13.379 19.0581C13.9347 18.1523 14.6249 18.2639 15.2796 18.543H15.2821Z" fill="#D7CDBA"/>
<path d="M13.9982 21.5806C13.4932 23.1462 12.9401 24.4834 12.6508 25.8764C12.3438 27.3532 12.288 28.8807 12.1256 30.3372C10.626 27.7389 11.4988 22.8873 13.9982 21.5806Z" fill="#D7CDBA"/>
<path d="M12.4048 15.7541C12.8767 15.3049 13.2726 14.6325 13.8308 14.4473C17.5659 13.1989 21.334 12.052 25.1325 11.0015C21.1107 13.0542 16.4317 13.4069 12.4048 15.7566V15.7541Z" fill="#D7CDBA"/>
<path d="M10.4987 28.837C9.84154 24.9319 11.468 20.6462 13.328 21.2146C10.8616 23.0745 11.1534 25.9723 10.4987 28.837Z" fill="#D7CDBA"/>
<path d="M25.8457 21.0168C29.4387 19.8419 33.0317 18.6646 36.6272 17.4897L36.7439 17.8424C33.1636 19.0173 29.5808 20.1921 26.0005 21.3644C25.9497 21.2477 25.8965 21.1335 25.8457 21.0168Z" fill="#D7CDBA"/>
<path d="M41.1615 47.0075C43.2625 45.9392 45.3635 44.871 47.467 43.8027C47.5558 43.9956 47.6446 44.1859 47.736 44.3787C45.536 45.2465 43.3386 46.1143 41.1387 46.9796L41.1615 47.0075Z" fill="#D7CDBA"/>
<path d="M32.4961 43.884C35.069 42.8994 37.5684 41.9454 40.0678 40.9888C37.6496 42.2093 35.3482 43.7343 32.4961 43.884Z" fill="#D7CDBA"/>
<path d="M29.1925 21.321C31.5294 20.5496 33.8664 19.7782 36.2034 19.0068L36.3125 19.3418C33.9857 20.103 31.6589 20.8642 29.3295 21.6229L29.1899 21.321H29.1925Z" fill="#D7CDBA"/>
<path d="M50.4507 43.0011C52.0442 42.2119 53.6301 41.4 55.2413 40.6489C55.7488 40.4129 56.3324 40.3368 56.9769 40.456L50.5522 43.2269L50.4507 43.0011Z" fill="#D7CDBA"/>
<path d="M46.9518 51.0755C46.6955 51.0095 46.4392 50.9359 46.1804 50.8826C45.9444 50.8344 45.7034 50.809 45.4648 50.7735C45.5943 50.705 45.7262 50.6365 45.8556 50.568C47.3958 50.1163 48.936 49.6621 50.4763 49.2104L50.5981 49.3906C49.3826 49.9514 48.1672 50.5147 46.9518 51.0755Z" fill="black"/>
<path d="M38.4288 9.81662C36.749 10.2226 35.0693 10.6286 33.3895 11.0346L33.3032 10.6844C34.9779 10.2556 36.6501 9.82677 38.3248 9.39795C38.3603 9.53751 38.3958 9.67453 38.4314 9.81409L38.4288 9.81662Z" fill="#D7CDBA"/>
<path d="M32.9404 45.097C34.5669 44.5362 36.1959 43.9729 37.8224 43.4121L37.929 43.6912C36.3279 44.2799 34.7293 44.8686 33.1282 45.4573L32.9404 45.097Z" fill="#D7CDBA"/>
<path d="M30.4409 39.4561C32.0852 39.0526 33.7269 38.6492 35.3711 38.2432L35.4447 38.5248C33.7929 38.9257 32.1385 39.3292 30.4866 39.7301L30.4435 39.4561H30.4409Z" fill="#D7CDBA"/>
<path d="M58.3422 33.501C58.2966 33.6431 58.2864 33.8816 58.2027 33.9095C56.9162 34.3612 55.6221 34.7849 54.3306 35.2137L54.2012 34.8331C55.5917 34.3992 56.9822 33.9628 58.3702 33.5289L58.3422 33.501Z" fill="#D7CDBA"/>
<path d="M29.6235 22.9023C31.184 22.3999 32.7446 21.895 34.3051 21.3926C34.333 21.4789 34.3609 21.5677 34.3914 21.6539C32.8359 22.1716 31.2805 22.6892 29.725 23.2043L29.6261 22.8998L29.6235 22.9023Z" fill="#D7CDBA"/>
<path d="M36.7816 7.8652L33.3663 8.43358L33.3003 8.01998C34.4421 7.84743 35.5814 7.67743 36.7233 7.50488C36.7436 7.62414 36.7613 7.7434 36.7816 7.8652Z" fill="#D7CDBA"/>
<path d="M41.1385 46.9795L37.2283 48.8749L37.0405 48.4284C38.4133 47.9539 39.7886 47.4819 41.1613 47.0074L41.1385 46.9795Z" fill="#D7CDBA"/>
<path d="M35.5078 11.3592C36.7613 11.0116 38.0173 10.6665 39.2708 10.3188L39.3698 10.6715L35.6575 11.6459C35.6068 11.5495 35.5586 11.4531 35.5078 11.3592Z" fill="#D7CDBA"/>
</svg>
