<svg width="566" height="61" viewBox="0 0 566 61" fill="none" xmlns="http://www.w3.org/2000/svg">
<path d="M0.120117 28.876H565.68" stroke="#D7CDBA" stroke-width="1.1" stroke-miterlimit="10"/>
<path d="M259.72 8.58606V18.366C259.72 18.366 258.74 28.866 247.98 28.866C258.94 28.866 259.72 41.066 259.72 41.066V51.236H265.2C265.2 51.236 269.83 61.216 283.07 60.626C296.31 60.036 301.4 50.6461 301.4 50.6461H306.1V39.296C306.1 39.296 308.06 28.866 317.84 28.866C308.45 28.866 306.3 17.386 306.3 17.386V7.79602H300.04C300.04 7.79602 295.87 0.166016 283.08 0.166016C270.29 0.166016 265.99 8.38605 265.99 8.38605L259.73 8.58606H259.72Z" fill="#D7CDBA"/>
</svg>
