<svg width="203" height="251" viewBox="0 0 203 251" fill="none" xmlns="http://www.w3.org/2000/svg">
<g clip-path="url(#clip0_73_3924)">
<path d="M182.161 25.1729C181.622 20.1505 181.044 15.3985 180.659 10.6465C180.351 6.66723 178.386 3.96286 174.727 2.68794C165.944 -0.402771 157.046 -0.750476 148.225 2.26297C143.834 3.76969 141.291 6.93767 141.214 11.8442C141.137 15.0122 140.752 18.1415 140.675 21.3095C140.675 22.7776 140.02 23.3184 138.711 23.7048C134.974 24.7865 131.854 26.8728 129.735 30.2339C128.041 32.9383 128.079 35.1404 130.467 37.3039C132.547 39.2356 134.974 40.8582 137.439 42.2877C138.672 42.9831 139.211 43.5626 139.019 44.9148C138.48 48.3532 138.056 51.8303 137.516 55.6164C137.671 56.0414 138.325 56.9299 138.364 57.8185C138.711 64.6954 138.903 71.5336 136.168 78.1013C135.398 79.9557 135.706 82.3511 134.782 84.0509C133.857 85.7508 132.162 87.4507 130.39 88.2234C115.56 94.5207 103.619 104.836 92.0241 115.653C88.2106 119.246 84.6282 123.071 80.6992 126.548C78.7732 128.248 76.4234 129.484 74.1122 130.682C67.949 133.85 61.7472 136.941 55.5455 139.954C54.3899 140.495 53.0031 140.766 51.732 140.843C44.7983 141.152 37.8647 141.345 30.9311 141.615C30.6229 141.615 30.3147 141.809 29.6599 142.04L32.703 144.127L25.8464 147.72C27.4642 148.995 28.851 150.115 30.2377 151.235C30.1607 151.39 30.0836 151.622 29.9681 151.699C26.2701 153.631 22.7648 155.601 21.9944 160.353C21.8788 161.164 20.5306 162.014 19.6061 162.362C16.7556 163.444 13.7125 164.1 10.862 165.221C7.31818 166.612 7.16411 167.5 9.82201 170.552H3.38911L2.65724 171.557L6.39369 173.063L5.6618 174.068L0.114899 175.845L6.47073 179.052L4.08249 180.713L11.9021 183.688L8.82047 186.122L12.4414 186.547L12.5569 188.44C13.9051 188.015 14.9837 187.628 16.1008 187.358C22.5722 185.813 29.0051 184.074 35.5535 182.915C38.2884 182.413 41.293 183.108 44.1435 183.379C53.658 184.306 63.134 185.31 72.6485 186.315C76.9627 186.778 80.4681 188.787 83.3571 192.033C84.0119 192.767 84.9364 193.308 86.2076 194.273L86.4387 196.36L87.6328 195.973C88.2491 197.905 88.5573 199.875 89.4433 201.537C90.9841 204.396 92.9871 207.023 94.605 209.882C95.1057 210.732 94.9517 211.929 95.1057 213.011C101.616 215.406 99.7667 221.974 102.078 226.687L104.274 225.953C104.428 226.301 104.582 226.533 104.582 226.803C105.275 236.153 104.351 237.118 94.9902 237.814C92.4864 238.007 90.0211 238.471 87.5943 239.127C84.6283 239.9 82.6637 242.527 82.4711 245.927C83.203 245.772 83.8578 245.541 84.5127 245.541C86.5928 245.541 88.7114 245.541 90.7915 245.618C92.5634 245.695 94.3739 246.004 96.1458 245.927C103.272 245.618 110.36 245.154 117.447 244.807C121.531 244.613 125.652 244.459 129.735 244.652C131.931 244.729 134.127 245.541 136.322 246.043C137.478 246.313 138.402 247.047 139.404 245.27C140.328 243.648 144.373 244.961 146.145 247.202C149.034 250.911 149.188 251.065 152 247.086C153.965 244.266 156.237 243.261 159.666 243.454C164.211 243.764 168.795 243.377 173.34 243.454C174.727 243.454 176.114 244.073 178.155 244.536C177.924 243.3 178.001 242.218 177.5 241.523C176.807 240.518 175.806 239.552 174.727 239.05C169.758 236.809 164.827 234.221 159.049 235.148C158.587 235.225 158.163 235.264 157.701 235.264C151.576 235.38 149.381 233.371 149.573 227.267C149.689 224.408 150.613 221.549 150.999 218.69C151.769 212.856 152.27 207.023 153.233 201.228C153.541 199.296 154.697 197.364 155.852 195.742C158.086 192.574 160.59 189.599 163.055 186.585C163.633 185.851 164.558 185.349 165.405 184.924C167.408 183.92 169.45 182.954 171.568 182.142C172.493 181.795 173.571 181.795 174.496 181.602L182.662 170.359L184.781 175.613C188.787 171.982 191.869 167.152 197.57 165.182C199.11 157.494 201.152 149.265 202.23 140.959C202.654 137.598 201.576 133.657 200.035 130.566C198.263 126.973 196.761 123.419 195.99 119.478C195.566 117.276 194.642 115.151 193.987 113.026C193.833 112.524 193.332 111.79 193.525 111.52C195.412 108.622 192.523 107.309 191.522 105.415C190.02 102.441 188.44 99.5045 186.784 96.4138L188.671 95.4093C188.594 95.1002 188.556 94.7912 188.44 94.598C186.591 91.6232 184.627 88.6484 182.893 85.6349C182.2 84.4373 180.621 83.3169 181.969 81.5784C182.123 81.3852 181.545 80.6512 181.275 80.1876C179.658 77.1355 176.653 74.7402 177.308 70.6063C177.5 69.4087 176.229 67.9792 175.69 66.6657C175.343 65.8157 175.074 64.9658 174.92 64.0772C174.38 61.2956 173.61 58.398 176.306 56.3118C178.926 54.3028 181.622 55.1914 184.203 56.505C186.322 57.6254 188.402 58.823 191.175 59.7502C190.097 56.4663 189.018 53.1825 188.016 49.8986C187.67 48.7396 187.439 47.5033 187.516 46.3443C187.708 43.4467 186.938 40.9741 184.781 39.0038C182.585 36.9562 182.893 36.7244 185.59 35.295C189.057 33.4405 192.292 31.1225 195.335 28.6499C196.221 27.9545 196.761 25.5206 196.221 24.7093C195.605 23.7434 193.563 23.2025 192.254 23.3571C189.403 23.7048 186.63 24.5934 183.818 25.2501C183.471 25.3274 183.124 25.2501 182.431 25.2501L182.161 25.1729ZM112.286 169.432L117.37 160.932C111.477 164.525 106.084 166.109 100.229 162.903C99.8822 162.71 99.343 162.825 98.8807 162.825C95.4524 162.825 93.4879 161.319 92.4479 158.189C92.1012 157.146 91.2537 156.142 90.4063 155.408C87.941 153.36 85.7839 151.313 86.7469 147.642C86.8624 147.217 86.4772 146.445 86.092 146.097C82.0859 142.581 81.7007 140.727 84.0504 135.82C79.5436 132.112 83.7808 123.998 90.4833 120.444C90.83 125.003 91.9086 127.36 94.682 129.562C93.4109 121.642 94.9131 114.842 101.885 109.356C101.654 113.606 102.001 117.083 105.853 119.208C103.349 110.129 105.391 104.334 111.631 102.325C112.684 108.3 114.302 111.7 116.484 112.524C114.597 109.202 113.326 105.725 115.521 102.866C117.447 100.354 117.563 96.1047 121.762 95.332C122.378 103.445 122.686 104.372 125.691 106.497C124.766 101.011 122.917 95.4093 128.464 91.3528C131.353 94.2889 128.657 99.0795 132.547 101.243C132.74 100.161 132.701 99.1954 132.47 98.2682C132.047 96.4138 131.392 94.6366 131.045 92.7436C130.737 91.1596 130.968 89.6915 133.241 89.4597C134.088 93.5549 135.513 97.5342 135.513 101.513C135.513 104.488 136.708 105.918 138.942 107.27C138.672 104.991 138.094 102.788 137.555 100.586C136.631 96.916 135.629 93.2458 134.859 89.537C134.627 88.4938 135.167 87.2962 135.398 85.9826L138.133 88.0689V80.458L140.637 82.0806L139.751 67.8247L140.791 67.6702C141.561 74.8561 144.335 81.3466 147.455 87.7212C144.065 74.0834 139.288 60.7161 141.869 46.267C143.256 59.0934 144.335 71.9585 149.804 84.5918L151.076 82.1192C155.66 86.5235 155.698 92.9367 158.934 97.7273C159.126 97.1092 159.165 96.5297 158.972 96.0275C158.125 93.6321 157.123 91.3141 156.314 88.9188C155.467 86.4462 154.735 83.8964 153.888 81.2307C149.612 81.5784 149.304 81.5011 148.148 76.4014C147.108 71.9199 146.107 67.3997 145.606 62.8023C145.182 58.9775 145.529 55.0369 145.529 51.1349H146.029L148.764 70.4904L149.612 70.3745L148.456 54.8437L149.419 54.6892C151.384 64.9272 154.003 74.972 158.394 84.4373C158.24 83.0078 157.855 81.6556 157.316 80.3421C153.117 70.0268 152.963 58.8616 150.729 48.1214C150.228 45.6488 150.844 43.3694 153.387 41.515C153.04 45.8034 151.538 49.9372 154.581 53.4915C153.965 49.9372 152.925 46.3443 156.276 42.9445L157.316 48.6237L159.935 45.108L160.436 45.3784V48.5464L160.937 48.6237L163.903 42.3263L164.442 42.5581L163.402 47.9282L163.941 48.0055L166.33 42.9445C166.638 44.4126 166.291 45.6102 166.06 46.8465C165.867 47.9669 165.829 49.0873 165.713 50.2076H166.06L168.179 43.6785L168.91 43.8717L167.678 49.8599L168.371 50.0145L171.106 44.1808L171.645 44.4126L170.644 49.1645L171.183 49.3577L172.724 46.6147C173.957 47.8896 174.804 49.435 176.114 49.9372C177.963 50.6712 180.12 50.7099 181.969 51.019L180.929 49.2032L181.275 48.8941L183.664 50.3235L183.818 48.3918L184.742 48.0828L188.556 55.8868L174.958 51.0576C172.146 53.4915 170.259 56.4663 167.986 56.814C164.673 57.3163 164.943 58.823 165.482 60.7933C166.869 66.0089 168.487 71.1859 170.066 76.3628C170.336 77.2127 170.798 78.0241 171.222 78.7967C171.645 79.5694 172.108 80.3035 172.531 81.0761C170.336 74.6243 167.909 68.3656 168.525 61.3728L171.607 71.9972L172.146 71.8426L170.836 61.7205L171.568 61.566C171.799 62.1069 172.146 62.5705 172.262 63.15C172.84 65.6612 172.917 68.4042 174.034 70.645C176.191 75.0106 177.924 79.4921 179.581 84.0509C180.582 86.7939 182.547 89.1892 184.01 91.7777C184.357 92.3959 184.473 93.2072 184.588 93.9412C184.704 94.8298 184.473 95.8343 184.819 96.5683C186.591 100.123 188.517 103.6 190.405 107.115C190.597 107.502 191.06 108.081 190.944 108.274C189.403 110.67 191.368 112.37 192.1 114.224C195.104 121.719 195.913 129.484 194.642 137.404C192.716 149.342 187.439 159.812 180.544 169.664C175.729 176.54 170.22 182.065 161.515 183.456C160.243 183.649 159.165 185.04 158.048 185.89C157.894 186.006 157.855 186.354 157.74 186.663H160.359L150.228 198.794C151.769 201.266 149.92 203.275 149.034 204.936C149.458 206.018 149.881 206.675 149.92 207.332C149.997 210.384 148.033 213.243 148.957 216.411C149.073 216.797 148.495 217.415 148.033 218.381L146.068 214.711L140.483 218.381L140.059 218.072L143.872 212.972L143.372 212.547L140.097 214.865L139.712 214.479L143.256 209.495L142.601 209.07L138.364 212.431L137.863 211.891L143.911 204.975L143.217 204.318L137.401 208.684L136.862 208.143L145.529 199.798L145.028 199.18L137.131 204.086L136.708 203.546L146.915 194.196L146.415 193.578L136.939 199.798C138.557 195.896 143.68 191.724 147.878 189.946C150.536 188.826 153.271 187.744 155.582 186.083C164.904 179.361 172.531 171.016 178.695 161.28C178.926 160.932 178.964 160.43 179.08 159.967C177.886 160.43 177.154 161.164 176.576 161.976C170.451 170.475 163.287 177.931 154.889 184.19C150.113 187.783 144.566 188.71 138.711 188.787C143.025 185.117 147.724 182.065 152 178.511C156.391 174.841 160.359 170.707 164.519 166.766L163.518 165.53C162.709 166.109 161.861 166.612 161.129 167.23C155.505 172.02 149.92 176.85 144.258 181.602C143.68 182.104 142.871 182.297 142.139 182.645L141.715 181.949C149.188 175.729 156.815 169.664 162.67 161.821L162.092 161.126L148.418 173.102L147.686 172.329C149.92 169.78 152.193 167.268 154.388 164.68C156.545 162.13 158.626 159.503 160.744 156.876L159.974 156.142C159.357 156.644 158.626 157.069 158.086 157.687C155.12 160.971 152.039 164.178 149.342 167.693C146.492 171.402 143.834 175.266 141.523 179.322C137.594 186.122 133.356 192.496 126.962 197.287C121.338 201.498 117.756 207.409 114.828 213.668C113.634 216.179 113.172 219.038 112.363 221.742H111.515L111.015 217.261L104.543 221.085L104.081 220.66L110.283 213.899L109.782 213.359L103.311 217.686L102.848 217.222L111.246 208.452L110.668 207.718L102.579 213.165L101.962 212.47L113.018 201.846C107.856 202.966 104.428 206.327 100.614 209.186C103.311 204.705 107.471 201.884 111.708 199.141L111.13 198.253L97.494 206.52C102.039 199.45 108.742 196.012 115.714 192.999C108.742 194.196 102.848 197.596 97.5325 202.232L96.9162 201.343L105.814 193.694L105.699 193.424L95.645 199.064C98.8422 195.046 102.925 192.342 107.548 190.256C105.545 190.526 103.619 191.028 101.808 191.724C99.9208 192.458 98.1103 193.385 96.2614 194.235L95.7991 193.462L105.93 186.701L105.506 185.929L91.0996 193.462L90.7144 192.921L100.036 185.658L99.7282 185.079L90.6374 188.865L90.1752 187.899C92.5634 186.663 94.8746 185.079 97.3784 184.19C104.081 181.911 110.899 179.94 117.64 177.815L117.447 177.159L103.426 180.443L103.079 179.477C104.851 178.511 106.623 177.506 108.395 176.579C110.629 175.42 112.941 174.416 115.175 173.257C117.948 171.866 120.683 170.32 123.495 169.007C125.845 167.887 128.387 167.152 130.775 166.071C135.86 163.675 139.597 159.773 142.601 155.06C137.401 161.396 130.891 165.491 122.609 166.573C123.688 165.414 124.959 164.371 126.384 164.062C132.586 162.671 136.939 158.885 140.444 153.785C141.484 152.278 142.909 150.926 144.412 149.96C149.188 146.87 152.077 142.697 152.462 136.979C152.116 137.173 151.962 137.482 151.846 137.829C149.92 142.852 146.954 146.831 141.6 148.647C140.829 148.917 140.136 149.883 139.674 150.694C136.476 156.528 131.777 160.121 125.229 161.551C123.88 161.821 122.34 162.71 121.531 163.83C116.253 170.939 109.127 174.957 100.653 176.927C100.537 176.927 100.422 177.159 100.306 177.313L101.847 179.013L92.1012 179.515L93.3723 181.099C83.4341 184.963 69.4513 178.086 65.137 169.625C66.7163 170.166 68.2186 170.977 69.5668 171.943C69.9906 172.252 70.0676 173.102 70.2987 173.682C70.838 173.179 71.4928 172.793 71.8781 172.175C72.2247 171.634 72.2633 170.9 72.4559 170.205C66.4082 169.046 61.4776 166.148 57.0863 162.246C53.0802 158.73 52.1172 153.669 54.4284 149.033C54.698 148.492 54.9677 147.874 54.9292 147.295C54.8136 143.277 57.5871 139.916 61.285 139.336C61.1694 141.19 60.399 143.431 61.0539 145.054C62.3636 148.106 61.4391 150.617 60.3605 153.244C59.6286 154.983 58.5501 156.605 57.8182 158.344C57.5871 158.846 57.9723 159.58 58.0878 160.237C58.6656 159.928 59.436 159.735 59.7442 159.271C60.6687 157.764 61.362 156.103 62.171 154.519C64.9059 156.026 63.9044 157.803 63.134 159.735C62.7488 160.739 62.9414 161.976 62.8643 163.096C63.6732 162.439 64.4822 161.821 65.3296 161.203C65.4452 161.126 65.6378 161.164 66.1771 161.087L67.1786 166.071C68.3727 166.341 70.0291 166.38 70.1061 166.766C70.6069 169.355 73.0337 168.891 74.8826 169.895C74.1508 170.243 73.65 170.475 73.7655 170.436C74.0352 172.291 74.1893 173.798 74.4204 175.304C74.4974 175.806 74.7286 176.27 74.8826 176.734C75.4219 176.541 76.0382 176.425 76.462 176.116C76.8472 175.806 77.0398 175.266 77.8487 173.991C78.6576 175.497 79.1584 176.502 79.6977 177.468C79.9673 178.009 80.2755 178.511 80.5836 179.013C81.1229 178.665 81.6622 178.279 82.24 177.97C83.126 177.545 84.089 176.811 84.8979 176.927C86.015 177.081 87.0165 177.931 88.1721 178.549L91.2152 175.188C90.7144 175.072 90.4063 174.957 90.0981 174.918C84.5512 174.184 80.4681 171.673 78.8887 165.878C78.6191 164.95 77.502 164.023 76.5775 163.521C70.5684 160.276 69.7209 153.824 67.1401 148.454C66.8704 147.874 67.5253 146.908 67.4867 146.097C67.4867 144.745 67.4868 143.277 67.0245 142.04C66.1385 139.645 66.6778 136.477 68.8735 135.357C71.0691 134.198 73.4959 133.541 75.7301 132.691C77.3094 136.245 75.4604 138.563 73.4189 140.843C75.653 141.461 76.2694 143.045 75.2678 144.899C74.0352 147.217 72.7255 149.497 71.6084 151.853C71.2617 152.626 71.3773 153.592 71.3002 154.481H72.0321L74.8441 148.415C76.8857 151.235 76.7701 151.197 75.8456 153.824C75.0752 155.987 73.4574 158.035 75.0752 160.701L78.1954 152.549C79.6591 157.417 79.6206 157.417 78.6576 161.435C78.5035 162.014 78.8887 162.671 79.0043 163.289C79.5051 162.825 80.1984 162.478 80.5066 161.898C80.9688 161.087 81.1229 160.121 81.4311 159.194C84.089 159.889 84.9749 161.164 83.9349 163.598C83.3186 164.989 82.8178 166.496 82.6252 168.002C82.5096 168.93 83.0489 169.973 83.28 170.977L84.2045 170.823L86.3617 162.787C89.1351 165.53 90.1366 168.35 88.6729 171.789C88.4803 172.214 89.0966 173.025 89.3277 173.643L90.0211 173.411L91.4078 168.93C93.7961 169.393 93.8731 170.668 93.4494 172.407C93.2953 173.025 93.8731 173.798 94.1042 174.532C94.682 174.068 95.3754 173.72 95.8376 173.179C96.1458 172.793 96.0687 172.059 96.3769 171.673C97.0318 170.9 97.8407 170.243 98.6111 169.509L99.1889 170.089L98.8807 173.913L100.036 174.802C100.422 174.068 100.999 173.334 101.153 172.561C101.616 170.166 103.041 169.548 105.198 169.934L106.161 172.214C108.511 171.789 107.779 165.646 111.939 169.741L112.286 169.432ZM130.698 196.746C131.276 206.675 135.899 214.865 138.248 223.828L140.906 222.592C140.714 225.876 140.675 228.774 140.29 231.594C139.674 236.5 133.934 240.209 129.466 238.123C126.037 236.5 122.609 236.269 119.065 235.921C115.329 235.534 111.901 230.551 112.748 226.919C112.825 226.571 113.018 226.301 113.172 225.992C113.634 225.065 114.443 224.176 114.558 223.21C115.56 214.054 120.067 206.752 126.5 200.455C127.771 199.219 129.158 198.137 130.698 196.746ZM143.256 219.888V219.076C144.103 218.883 145.336 218.226 145.798 218.574C146.607 219.192 147.378 220.351 147.455 221.394C147.763 224.717 147.57 228.078 147.84 231.401C148.071 234.066 149.727 235.766 152.385 236.037C155.968 236.423 159.55 236.423 163.132 236.771C164.404 236.887 165.79 237.35 166.792 238.084C167.37 238.509 167.293 239.823 167.485 240.711C166.869 240.711 166.214 240.634 165.598 240.596C165.367 240.596 165.097 240.596 164.866 240.673C163.364 241.175 160.32 240.905 158.934 240.789C157.316 240.673 155.621 241.136 153.425 241.407L152.539 239.668C151.422 241.523 154.08 244.768 150.228 244.15L148.996 247.975L144.489 240.557L142.909 242.72L142.486 241.87C141.6 242.102 140.714 242.45 139.828 242.527C139.211 242.604 138.402 242.489 137.94 242.102C137.131 241.445 136.515 240.557 135.783 239.707C138.942 237.93 142.447 236.771 142.486 232.405C142.486 231.246 142.409 229.971 142.871 228.967C143.795 226.958 143.449 225.065 143.217 223.056C143.14 222.553 143.949 221.897 144.412 221.356C144.566 221.201 144.912 221.201 145.375 221.047L143.295 219.926L143.256 219.888ZM106.854 223.365L106.777 222.553C107.817 222.283 109.012 221.588 109.859 221.897C110.437 222.09 110.629 223.674 110.822 224.678C111.092 226.456 111.169 228.271 111.438 230.048C112.247 235.187 114.366 237.118 119.605 237.659C121.03 237.814 122.571 237.505 123.88 237.968C125.267 238.471 126.577 239.475 127.655 240.557C127.925 240.789 127.193 242.759 126.808 242.836C125.152 243.029 123.418 242.914 121.762 242.759C120.105 242.604 118.449 242.18 116.793 242.064C115.637 241.986 114.481 242.257 113.326 242.334C112.44 242.141 111.631 242.489 110.783 242.527C109.012 242.527 107.201 242.102 105.468 242.295C103.542 242.527 101.693 243.454 99.7282 243.763C97.8022 244.034 95.7991 244.073 93.8731 243.802C92.756 243.648 91.0226 242.875 90.7915 242.025C90.2907 240.325 91.7545 239.514 93.3723 239.321C93.9887 239.243 94.6435 239.359 95.2598 239.243C98.4185 238.625 101.577 238.007 104.697 237.312C105.237 237.196 106.084 236.732 106.123 236.346C106.546 232.753 106.854 229.121 107.201 224.987C107.201 224.987 107.74 224.64 108.588 224.099L106.777 223.365H106.854ZM186.013 170.784C183.933 169.084 184.434 167.771 185.397 166.187C191.175 156.992 195.489 147.256 196.876 136.361C197.107 134.584 197.261 132.768 197.454 130.991L198.571 130.875C199.264 133.773 200.767 136.786 200.459 139.568C199.881 145.247 198.186 150.81 197.184 156.49C195.99 163.366 190.328 166.457 185.975 170.784H186.013ZM57.9723 175.459L60.5146 178.395C59.5901 178.472 59.1664 178.588 58.7427 178.549C51.7705 177.854 44.7983 177.236 37.8262 176.386C29.0051 175.304 20.6847 172.329 12.4799 169.046C11.825 168.775 11.3628 167.925 10.8235 167.346L11.5554 166.805L13.6355 168.35V165.762L14.1748 165.491L18.2194 170.243L18.6431 169.895L16.2934 165.221L17.1023 164.68L23.6122 172.561L24.2671 170.089L28.0806 173.566L29.2362 171.711L32.9726 174.686C33.666 172.793 34.5134 172.523 35.6305 173.913C36.8247 175.343 38.0188 176.116 39.2129 173.72C40.0603 174.493 40.6382 175.266 41.4086 175.652C41.9478 175.922 42.7568 175.691 43.4501 175.652C44.2206 175.652 45.3376 175.266 45.6843 175.652C47.1481 177.159 48.2266 177.429 49.0356 175.188L53.2343 177.777L53.658 175.575L58.0108 178.472V175.536L57.9723 175.459ZM52.3098 172.638L51.9631 173.295C51.1927 173.295 50.3838 173.295 49.6134 173.295C48.8044 173.295 47.9955 173.179 47.1866 173.102C38.5581 172.329 29.9681 171.325 22.2255 166.998C21.3781 166.534 20.6847 165.723 19.9143 165.105L20.4151 164.564L23.3426 166.959V164.912C26.1546 164.448 26.6168 169.548 30.4688 167.5L34.3979 170.552L34.1283 167.655L38.8277 171.325L39.0974 168.621L43.5272 171.982V169.2L48.5348 172.87L48.3037 169.2L52.3483 172.677L52.3098 172.638ZM52.0787 166.573L51.732 167.539C46.994 167.114 42.256 166.959 37.5951 166.264C33.9742 165.723 30.4303 164.641 26.8864 163.598C25.5382 163.173 24.113 162.285 24.9219 159.967L28.5813 163.405L29.1591 161.241L33.6275 164.873L33.9356 162.4L38.7122 165.955L38.1729 162.671L43.6813 166.418L42.5642 162.98L47.4948 166.496L47.88 165.916L47.1481 163.482L47.7644 162.903L52.1172 166.612L52.0787 166.573ZM174.958 45.4557C175.536 44.8375 176.229 43.833 177.154 43.2149C178.309 42.4036 179.658 41.8627 180.967 41.3218C181.853 40.9741 183.356 40.356 183.702 40.6651C184.665 41.7468 185.513 43.1376 185.782 44.5285C185.898 45.1466 184.781 46.4215 183.972 46.7692C182.007 47.5805 179.889 48.1214 177.809 48.5464C175.96 48.8941 175.343 47.5805 174.958 45.417V45.4557ZM35.4379 151.39L36.0543 150.385C36.6706 150.849 37.4795 151.197 37.8647 151.815C38.7507 153.128 39.4826 154.558 41.9093 154.017L38.2499 149.844C40.1759 148.454 40.0604 148.531 41.1774 149.922C42.4101 151.467 43.8739 152.858 45.2221 154.326L46.108 153.476L41.7552 148.222L41.9093 147.488C42.6797 147.681 43.7968 147.565 44.182 148.067C45.8384 150.154 47.2636 152.394 48.7274 154.596C43.7583 156.103 32.8186 155.562 30.1607 153.206L33.2038 153.669L33.3964 151.931L34.3594 151.235C34.6675 151.892 34.8216 152.665 35.2838 153.167C35.7076 153.631 36.4395 153.785 37.0173 154.094L37.2869 153.592L35.4379 151.39ZM145.567 22.314V21.8504C147.994 22.0049 150.344 22.1981 152.732 22.314C154.697 22.3912 156.7 22.4685 158.664 22.3912C162.131 22.2367 165.636 21.7345 169.103 21.8504C172.108 21.9663 175.112 22.6617 178.117 23.2025C178.772 23.3184 179.388 23.7821 180.004 24.0911C179.388 24.5547 178.81 25.4047 178.232 25.366C173.725 25.2501 169.257 25.0956 164.789 24.6706C158.394 24.0139 152 23.1253 145.606 22.3526L145.567 22.314ZM26.6553 157.996L28.7354 155.678L32.6645 159.194L33.2423 156.721L37.441 159.464L37.9418 157.339L41.3315 159.542L41.6782 156.876L46.8014 160.005L46.1851 157.455L46.6473 157.185L49.9986 160.392L49.5749 161.126C41.8708 160.469 33.9357 161.319 26.6553 157.996ZM147.724 33.0542L147.416 32.6679C147.955 32.0883 148.418 31.2384 149.111 30.968C150.575 30.3498 152.193 30.0021 153.734 29.5771C156.083 28.959 157.162 29.8862 157.316 32.6292L153.888 30.6589L156.083 34.2905L152.154 33.3246L153.656 35.8358L150.767 34.6768L151.807 36.6858L144.604 34.1746L147.724 33.0928V33.0542ZM155.467 37.3426C155.66 35.7199 156.237 33.9814 158.471 33.8269C160.513 33.6723 162.67 36.5699 162.709 39.2743C162.747 41.7082 161.361 43.7944 159.743 43.7558C157.701 43.7558 155.428 40.4333 155.428 37.3039L155.467 37.3426ZM146.453 5.70139C151.576 1.41302 168.949 0.833514 173.725 4.89007C164.596 4.65827 155.39 2.22433 146.453 5.70139ZM156.584 19.4937V18.6437C162.67 17.2916 168.679 16.9052 175.112 19.4937H156.584ZM53.735 180.404L55.7381 182.683L55.4684 183.34L36.6706 180.327L36.9402 178.897C37.9803 179.09 38.9818 179.284 40.0218 179.477C40.9078 179.631 42.3716 180.249 42.6412 179.94C43.8739 178.356 44.6058 179.477 45.4532 180.211C46.7629 181.331 48.034 181.833 49.0356 180.018C50.5379 180.481 51.6164 183.379 53.735 180.443V180.404ZM157.008 7.90352V6.8604C162.246 5.93319 167.447 5.77865 172.493 7.98079V8.7921L157.008 7.90352ZM172.493 11.8442H156.854V10.8783C161.938 10.3375 167.023 9.2557 172.493 11.8442ZM51.5779 149.767L47.8029 147.14L47.6103 147.488L51.6164 153.437L50.8075 153.978L44.7213 146.986C49.0356 144.358 50.8075 145.015 51.5779 149.767ZM151.923 39.2356C149.188 43.0217 149.15 47.1556 150.305 51.4439C146.838 47.3487 147.686 40.3946 151.923 39.2356ZM157.239 15.5144V14.7417C162.439 14.2395 167.601 13.6213 172.685 15.5144H157.239ZM161.361 28.7658C164.365 29.1522 166.715 34.7154 165.521 38.4243L161.361 28.7658ZM165.02 28.6113C167.408 28.4181 170.259 35.6813 169.103 39.0038L165.02 28.6113ZM171.915 28.8817C174.573 31.0452 175.652 35.9131 174.496 39.3129L171.915 28.8817ZM147.609 37.6903L148.841 38.1152L146.415 45.417L145.298 45.0693L147.609 37.7289V37.6903ZM130.275 240.48C133.857 240.557 134.705 241.059 135.128 243.223C131.97 242.785 130.352 241.87 130.275 240.48ZM178.271 37.8448L177.231 37.9993L175.536 30.1953L176.615 29.9635L178.271 37.8448ZM144.142 44.5285C142.563 41.09 142.986 39.0038 145.721 37.0335L144.142 44.5285ZM171.414 35.4495L168.525 28.9204C170.991 28.6113 171.068 28.8045 171.414 35.4495ZM180.736 38.038L178.964 31.5475C181.43 32.3974 181.969 34.5995 180.736 38.038ZM35.2068 178.549L34.7061 179.631L28.2732 177.313L28.5428 176.618L35.2453 178.549H35.2068ZM161.129 32.9383L157.008 29.1522C159.704 28.3409 160.32 28.8431 161.129 32.9383ZM147.031 16.9825L142.909 18.5665C142.717 15.4371 143.256 15.2053 147.031 16.9825Z" fill="#222222"/>
<path d="M144.335 248.786H73.1881L73.0726 249.172C73.92 249.288 74.7675 249.559 75.6149 249.559C89.7518 249.597 103.889 249.559 118.064 249.713C125.884 249.752 133.742 250.022 141.562 250.177C142.486 250.177 143.41 250.061 144.335 249.984V248.786Z" fill="#222222"/>
<path d="M64.4824 244.536H79.8135V243.802H64.4054L64.4824 244.536Z" fill="#222222"/>
<path d="M65.5989 241.098C71.2228 240.634 76.8853 241.407 82.4707 240.712L82.3937 239.359L65.5218 240.248V241.098H65.5989Z" fill="#222222"/>
<path d="M171.222 247.936H162.901V248.747H171.222V247.936Z" fill="#222222"/>
<path d="M178.502 239.939H192.138V239.282H178.579L178.502 239.939Z" fill="#222222"/>
<path d="M154.466 248.631H161.322V248.052H154.466V248.631Z" fill="#222222"/>
<path d="M172.724 248.747H179.311L179.388 248.207H172.801L172.724 248.747Z" fill="#222222"/>
<path d="M180.736 244.42H187.438V243.686H180.697V244.42H180.736Z" fill="#222222"/>
<path d="M189.711 244.343H197.646V243.88L189.75 243.493V244.343H189.711Z" fill="#222222"/>
<path d="M186.977 248.168L181.468 247.82L181.391 249.134L186.9 249.366V248.129L186.977 248.168Z" fill="#222222"/>
<path d="M64.4822 249.288H70.915V248.631H64.4436L64.5207 249.288H64.4822Z" fill="#222222"/>
<path d="M55.0064 249.018H48.3424V249.481H55.0449V249.018H55.0064Z" fill="#222222"/>
<path d="M112.286 169.432C108.126 165.337 108.858 171.48 106.508 171.905L105.545 169.625C103.388 169.239 101.963 169.857 101.5 172.252C101.346 173.064 100.769 173.759 100.383 174.493L99.2277 173.604L99.5359 169.78L98.9581 169.2C98.1877 169.896 97.3788 170.552 96.7239 171.364C96.4158 171.75 96.4928 172.484 96.1846 172.87C95.7224 173.411 95.029 173.798 94.4512 174.223C94.2201 173.527 93.6423 172.716 93.7964 172.098C94.2201 170.359 94.1431 169.046 91.7548 168.621L90.3681 173.102L89.6747 173.334C89.4436 172.716 88.8273 171.943 89.0199 171.48C90.5222 168.041 89.4821 165.221 86.7087 162.478L84.5515 170.514L83.627 170.668C83.3959 169.664 82.8566 168.659 82.9722 167.693C83.1648 166.187 83.6656 164.68 84.2819 163.289C85.3219 160.855 84.436 159.58 81.7781 158.885C81.4699 159.774 81.3158 160.739 80.8536 161.589C80.5454 162.169 79.8521 162.517 79.3513 162.98C79.2357 162.362 78.8891 161.667 79.0046 161.126C79.9676 157.146 80.0061 157.146 78.5424 152.24L75.4222 160.392C73.7659 157.726 75.4222 155.64 76.1926 153.515C77.1557 150.888 77.2327 150.926 75.1911 148.106L72.3791 154.21H71.6473C71.7243 153.283 71.6087 152.279 71.9554 151.544C73.0725 149.188 74.3822 146.908 75.6148 144.59C76.6164 142.736 76 141.152 73.7659 140.534C75.7689 138.254 77.6179 135.936 76.0771 132.382C73.8429 133.232 71.4161 133.927 69.2205 135.048C67.0248 136.207 66.4856 139.336 67.3715 141.731C67.8338 142.968 67.7952 144.436 67.8338 145.788C67.8338 146.561 67.2174 147.565 67.4871 148.145C70.0679 153.515 70.9154 159.967 76.9245 163.212C77.849 163.714 78.9661 164.641 79.2357 165.569C80.8151 171.364 84.8597 173.875 90.4451 174.609C90.7533 174.648 91.0614 174.763 91.5622 174.879L88.5191 178.241C87.3635 177.622 86.362 176.772 85.2449 176.618C84.436 176.502 83.4344 177.236 82.587 177.661C82.0092 177.931 81.4699 178.356 80.9306 178.704C80.6225 178.202 80.3528 177.661 80.0447 177.159C79.5054 176.193 79.0046 175.188 78.1957 173.682C77.3868 174.957 77.1942 175.498 76.809 175.807C76.3853 176.154 75.7689 176.232 75.2296 176.425C75.0756 175.961 74.8444 175.459 74.7674 174.995C74.5363 173.489 74.3437 171.982 74.1126 170.127C73.997 170.166 74.4978 169.934 75.2296 169.587C73.3807 168.621 70.9924 169.046 70.4531 166.457C70.3761 166.071 68.7197 166.032 67.5256 165.762L66.5241 160.778C66.0233 160.855 65.7922 160.778 65.6766 160.894C64.8292 161.512 64.0203 162.169 63.2113 162.787C63.2884 161.667 63.0958 160.43 63.481 159.426C64.2129 157.494 65.2529 155.717 62.518 154.21C61.709 155.794 61.0157 157.417 60.0912 158.962C59.8216 159.426 59.0126 159.619 58.4348 159.928C58.3193 159.31 57.9726 158.537 58.1652 158.035C58.9356 156.296 60.0142 154.712 60.7075 152.935C61.7861 150.308 62.6721 147.797 61.4009 144.745C60.7075 143.161 61.5164 140.92 61.632 139.027C57.9341 139.607 55.1606 143.006 55.2762 146.986C55.2762 147.565 55.0451 148.183 54.7754 148.724C52.4642 153.399 53.4272 158.421 57.4333 161.937C61.8246 165.8 66.7552 168.737 72.8029 169.896C72.6103 170.591 72.5717 171.325 72.2251 171.866C71.8399 172.445 71.185 172.87 70.6457 173.373C70.4146 172.793 70.3761 171.943 69.9139 171.634C68.5657 170.668 67.1019 169.857 65.484 169.316C69.7983 177.816 83.7811 184.692 93.7193 180.79L92.4482 179.206L102.194 178.704L100.653 177.004C100.653 177.004 100.884 176.657 101 176.618C109.436 174.648 116.6 170.668 121.878 163.521C122.687 162.439 124.227 161.551 125.576 161.242C132.085 159.851 136.823 156.219 140.021 150.385C140.444 149.574 141.138 148.608 141.947 148.338C147.301 146.522 150.306 142.581 152.193 137.52C152.309 137.211 152.463 136.902 152.809 136.67C152.424 142.388 149.535 146.561 144.759 149.651C143.256 150.656 141.831 152.008 140.791 153.476C137.286 158.576 132.933 162.362 126.731 163.753C125.306 164.062 124.035 165.144 122.956 166.264C131.238 165.144 137.748 161.087 142.948 154.751C139.944 159.464 136.207 163.366 131.122 165.762C128.773 166.882 126.23 167.616 123.842 168.698C121.03 170.012 118.295 171.557 115.522 172.948C113.288 174.068 110.976 175.111 108.742 176.27C106.932 177.197 105.198 178.202 103.426 179.168L103.773 180.134L117.794 176.85L117.987 177.506C111.208 179.593 104.428 181.563 97.7254 183.881C95.1831 184.731 92.9104 186.315 90.5222 187.59L90.9844 188.556L100.075 184.77L100.383 185.349L91.0614 192.612L91.4467 193.153L105.853 185.62L106.277 186.392L96.1461 193.153L96.6084 193.926C98.4573 193.076 100.268 192.149 102.155 191.415C103.966 190.719 105.892 190.217 107.895 189.947C103.272 192.033 99.1892 194.699 95.992 198.755L106.046 193.115L106.161 193.385L97.2632 201.035L97.8795 201.923C103.195 197.326 109.05 193.926 116.061 192.69C109.089 195.742 102.386 199.141 97.841 206.211L111.477 197.944L112.055 198.832C107.818 201.575 103.658 204.434 100.961 208.877C104.775 206.057 108.241 202.657 113.365 201.537L102.309 212.161L102.926 212.857L111.015 207.409L111.593 208.143L103.195 216.913L103.658 217.377L110.129 213.05L110.63 213.591L104.428 220.351L104.89 220.776L111.362 216.952L111.862 221.472H112.71C113.519 218.729 114.02 215.909 115.175 213.359C118.103 207.1 121.724 201.189 127.309 196.978C133.703 192.187 137.941 185.774 141.87 179.013C144.181 174.957 146.877 171.093 149.689 167.384C152.386 163.869 155.467 160.701 158.433 157.378C158.973 156.799 159.666 156.374 160.321 155.833L161.091 156.567C158.973 159.155 156.893 161.782 154.735 164.371C152.54 166.959 150.267 169.471 148.033 172.02L148.765 172.793L162.439 160.817L163.017 161.512C157.162 169.355 149.535 175.42 142.062 181.64L142.486 182.336C143.179 181.988 144.027 181.795 144.605 181.293C150.229 176.541 155.852 171.711 161.476 166.921C162.208 166.303 163.056 165.8 163.865 165.221L164.866 166.457C160.706 170.398 156.738 174.532 152.347 178.202C148.071 181.756 143.372 184.808 139.058 188.479C144.913 188.363 150.421 187.435 155.236 183.881C163.634 177.622 170.798 170.166 176.923 161.667C177.501 160.855 178.233 160.121 179.427 159.658C179.311 160.083 179.273 160.585 179.042 160.971C172.878 170.668 165.251 179.052 155.93 185.774C153.618 187.435 150.883 188.517 148.225 189.638C144.065 191.415 138.904 195.587 137.286 199.489L146.762 193.269L147.262 193.887L137.055 203.237L137.478 203.778L145.375 198.871L145.876 199.489L137.209 207.834L137.748 208.375L143.565 204.009L144.258 204.666L138.21 211.582L138.711 212.122L142.948 208.761L143.603 209.186L140.059 214.17L140.444 214.556L143.719 212.238L144.219 212.663L140.406 217.763L140.83 218.072L146.415 214.402L148.38 218.072C148.842 217.106 149.42 216.527 149.304 216.102C148.38 212.895 150.344 210.075 150.267 207.023C150.267 206.366 149.805 205.671 149.381 204.627C150.267 202.966 152.116 200.957 150.575 198.485L160.706 186.354H158.087C158.202 186.045 158.241 185.697 158.395 185.581C159.512 184.731 160.59 183.34 161.862 183.147C170.567 181.756 176.076 176.232 180.891 169.355C187.747 159.503 193.063 149.033 194.989 137.095C196.26 129.175 195.451 121.449 192.447 113.915C191.715 112.099 189.75 110.361 191.291 107.965C191.407 107.772 190.944 107.193 190.752 106.806C188.864 103.291 186.938 99.8137 185.166 96.2594C184.781 95.5253 185.051 94.4822 184.935 93.6323C184.82 92.8982 184.743 92.0869 184.357 91.4688C182.894 88.8803 180.929 86.485 179.928 83.742C178.271 79.1832 176.538 74.7017 174.381 70.336C173.302 68.0953 173.187 65.3522 172.609 62.841C172.493 62.3002 172.147 61.7979 171.915 61.2571L171.184 61.4116L172.493 71.5337L171.954 71.6882L168.872 61.0639C168.256 68.0566 170.683 74.3153 172.878 80.7672C172.416 79.9945 171.954 79.2605 171.569 78.4878C171.145 77.6765 170.683 76.9038 170.413 76.0538C168.834 70.8769 167.254 65.7 165.829 60.4844C165.29 58.5527 165.02 57.0073 168.333 56.5051C170.606 56.1574 172.532 53.1826 175.305 50.7486L188.903 55.5779L185.089 47.7738L184.165 48.0829L184.011 50.0146L181.622 48.5851L181.276 48.8942L182.316 50.71C180.467 50.4009 178.31 50.4009 176.461 49.6282C175.19 49.126 174.304 47.5806 173.071 46.3057L171.53 49.0487L170.991 48.8556L171.992 44.1036L171.453 43.8718L168.718 49.7055L168.025 49.551L169.257 43.5627L168.526 43.3696L166.407 49.86H166.06C166.176 48.7783 166.214 47.6579 166.407 46.5375C166.6 45.3012 166.946 44.1036 166.677 42.6355L164.288 47.6966L163.749 47.6193L164.789 42.2492L164.25 42.0174L161.284 48.3147L160.783 48.2374V45.0694L160.282 44.799L157.663 48.3147L156.623 42.6355C153.272 46.0353 154.312 49.6282 154.928 53.1826C151.885 49.6282 153.387 45.4944 153.734 41.2061C151.192 43.0605 150.575 45.3785 151.076 47.8125C153.31 58.5527 153.464 69.7179 157.663 80.0331C158.202 81.3467 158.587 82.6989 158.741 84.1283C154.35 74.663 151.769 64.6182 149.766 54.3802L148.803 54.5348L149.959 70.0656L149.111 70.1815L146.376 50.7873H145.876C145.876 54.7279 145.529 58.6299 145.953 62.4933C146.454 67.0521 147.455 71.5723 148.495 76.0925C149.689 81.1535 149.959 81.2694 154.235 80.9217C155.082 83.5874 155.814 86.0987 156.661 88.6099C157.47 91.0052 158.472 93.3232 159.319 95.7185C159.512 96.2207 159.473 96.8002 159.281 97.4184C156.045 92.6278 156.007 86.2146 151.423 81.8103L150.151 84.2829C144.72 71.6496 143.603 58.7845 142.216 45.958C139.635 60.4071 144.412 73.7744 147.802 87.4122C144.682 81.0376 141.908 74.5857 141.138 67.3612L140.098 67.5157L140.984 81.7717L138.48 80.149V87.7599L135.745 85.6737C135.514 86.9872 134.974 88.1849 135.206 89.228C135.976 92.9369 136.978 96.6071 137.902 100.277C138.441 102.479 139.019 104.682 139.289 106.961C137.055 105.57 135.86 104.179 135.86 101.205C135.86 97.2252 134.435 93.2846 133.588 89.1507C131.315 89.3825 131.122 90.8506 131.392 92.4346C131.739 94.289 132.394 96.1048 132.817 97.9593C133.048 98.8865 133.087 99.891 132.894 100.934C129.004 98.7706 131.7 93.98 128.811 91.0438C123.303 95.1004 125.152 100.702 126.038 106.188C123.033 104.063 122.725 103.136 122.109 95.0231C117.91 95.7958 117.756 100.045 115.868 102.557C113.711 105.416 114.983 108.893 116.831 112.215C114.649 111.391 113.031 107.991 111.978 102.016C105.776 104.025 103.735 109.859 106.2 118.899C102.348 116.774 102.04 113.297 102.232 109.047C95.2987 114.533 93.7579 121.333 95.029 129.253C92.2556 127.051 91.2155 124.694 90.8303 120.135C84.1278 123.689 79.8906 131.803 84.3975 135.511C82.0477 140.418 82.4329 142.272 86.439 145.788C86.8242 146.136 87.2094 146.87 87.0939 147.333C86.0923 151.004 88.288 153.051 90.7533 155.099C91.6393 155.833 92.4482 156.837 92.7949 157.88C93.8349 161.01 95.7609 162.555 99.2277 162.517C99.69 162.517 100.191 162.401 100.576 162.594C106.431 165.8 111.824 164.216 117.717 160.623L112.633 169.123L112.286 169.432ZM163.903 106.729C163.903 108.275 163.749 109.588 163.903 110.902C164.442 114.842 165.444 118.744 165.675 122.685C165.945 127.707 165.675 132.768 165.405 137.791C165.367 138.679 164.096 139.529 163.402 140.418C163.094 139.413 162.555 138.409 162.516 137.404C162.362 129.91 162.516 122.415 162.17 114.958C162.093 113.065 160.59 111.249 159.55 109.047C158.973 109.859 158.78 109.974 158.819 110.09C158.934 110.902 159.127 111.674 159.204 112.486C159.627 119.401 160.128 126.317 160.398 133.232C160.436 134.584 159.666 135.936 159.281 137.289L158.01 137.211C157.778 135.936 157.355 134.623 157.355 133.348C157.316 126.703 157.432 120.019 157.355 113.374C157.355 111.172 156.854 108.97 156.507 106.111C159.165 108.584 161.553 108.545 163.942 106.768L163.903 106.729ZM125.152 159.426L124.343 158.846L127.001 142.272C123.226 142.968 123.303 143.045 122.995 145.904C122.532 150.231 121.955 154.519 121.261 158.769C121.107 159.696 120.144 160.469 119.566 161.28L118.719 160.739C118.912 159.889 119.104 159.039 119.258 158.19C120.067 154.133 120.876 150.038 121.608 145.943C121.762 145.131 121.608 143.586 121.261 143.509C120.183 143.2 118.95 143.393 117.756 143.431C117.371 143.431 116.986 143.663 116.639 143.779L115.06 136.439C121.492 140.263 123.573 140.882 130.891 135.627C130.391 136.98 130.275 138.061 129.697 138.718C127.925 140.65 128.118 142.968 128.002 145.324C127.848 149.111 127.463 152.897 126.924 156.644C126.77 157.61 125.768 158.46 125.152 159.349V159.426ZM163.903 93.0141C164.442 95.4094 164.789 97.9593 165.637 100.316C169.335 110.747 170.875 121.487 170.798 132.498C170.798 135.357 170.182 138.216 169.643 141.075C169.527 141.654 168.641 142.118 168.102 142.62C167.794 142.041 167.293 141.5 167.216 140.92C167.1 139.954 167.216 138.95 167.293 137.945C168.333 127.746 168.217 117.547 165.868 107.502C164.866 103.291 164.442 98.8478 161.746 95.6026L163.98 93.0141H163.903ZM149.612 90.1938C150.036 91.8551 149.959 94.2118 150.96 94.8299C152 95.4867 154.081 94.4436 155.39 94.2118L157.201 104.295C155.044 101.784 154.928 97.9593 150.999 96.5684C151.808 100.045 152.886 103.329 153.31 106.652C154.235 113.992 154.928 121.371 155.467 128.712C155.583 130.334 154.774 132.034 154.427 133.696L153.387 133.618C153.118 131.687 152.424 129.716 152.655 127.862C153.58 120.869 153.04 113.954 151.808 107.077C150.729 101.05 149.997 94.8686 145.953 89.8075C145.606 89.3439 145.529 88.6871 145.259 87.9531L149.612 90.1552V90.1938ZM185.552 144.088C185.475 142.466 185.359 141.422 185.359 140.379C185.475 135.898 186.091 131.339 185.706 126.896C185.205 120.715 183.972 114.61 183.125 108.468C183.048 107.85 183.317 107.193 183.433 106.575C183.972 107.038 184.781 107.386 184.974 107.927C187.824 116.851 189.057 126.046 188.98 135.357C188.98 138.216 188.98 141.577 185.513 144.088H185.552ZM176.653 97.6116L174.304 97.3025C174.227 98.1911 173.957 99.1183 174.111 99.9682C174.342 101.089 175.036 102.132 175.305 103.252C175.459 103.948 175.267 104.759 175.228 105.493C174.381 105.184 174.111 104.836 173.957 104.45C171.222 97.4957 168.487 90.5416 165.714 83.5875C162.593 75.7448 158.472 68.1725 158.318 59.4413C158.318 58.6686 158.819 57.9345 159.05 57.1619C159.512 57.8959 160.244 58.5913 160.398 59.364C161.284 64.0387 161.438 68.9838 163.017 73.4267C165.521 80.6513 168.911 87.5667 171.954 94.5981C172.224 95.2163 172.57 95.7571 173.071 96.6457L174.496 93.5164C179.234 95.3708 180.043 95.9889 180.236 98.1524C179.003 97.148 177.809 94.0186 176.653 97.6116ZM186.129 105.995L187.208 105.647C187.632 106.381 188.171 107.077 188.441 107.85C189.288 110.399 190.328 112.988 190.752 115.615C191.792 122.376 192.678 129.214 193.371 136.014C193.641 138.679 192.639 141.152 189.981 142.736C191.484 130.141 189.596 117.972 186.168 105.956L186.129 105.995ZM181.815 144.784L180.39 144.359C181.892 133.193 182.663 122.067 180.814 110.786C181.7 111.211 182.239 111.752 182.393 112.331C182.817 114.07 183.163 115.847 183.433 117.624C184.511 125.312 185.397 133.039 183.78 140.766C183.471 142.195 182.47 143.431 181.815 144.784ZM176.037 130.605C175.536 134.121 175.113 137.945 174.419 141.731C174.304 142.466 173.187 143.006 172.493 143.625C172.224 142.775 171.53 141.847 171.684 141.075C173.264 133.232 173.302 125.312 172.493 117.392C172.416 116.658 172.955 115.885 173.225 115.151C173.687 115.769 174.458 116.388 174.573 117.044C175.151 121.41 175.536 125.814 176.037 130.605ZM177.501 145.131L176.268 144.706C176.384 143.238 176.422 141.731 176.615 140.263C176.884 137.829 177.501 135.434 177.501 133.039C177.501 127.746 177.231 122.415 177.154 117.122C177.154 116.619 177.539 116.079 177.732 115.576C178.194 115.924 178.733 116.156 179.08 116.619C179.35 116.929 179.35 117.469 179.427 117.933C180.544 125.776 180.698 133.58 179.35 141.384C179.119 142.697 178.156 143.934 177.578 145.17L177.501 145.131ZM169.681 165.762C169.681 166.341 169.681 166.573 169.604 166.689C163.749 173.72 157.778 180.597 149.92 185.465C148.649 186.238 147.031 186.431 145.568 186.856L145.298 186.199C153.888 180.868 160.706 173.566 167.755 166.534C168.179 166.109 168.911 166.032 169.681 165.723V165.762ZM116.369 174.3C131.238 170.05 143.68 162.632 150.537 147.913C144.104 164.757 130.352 173.218 116.369 174.3ZM148.996 103.291L151.23 124.539L149.766 124.771C149.111 121.796 148.225 118.822 147.879 115.808C147.378 111.52 147.994 107 144.951 103.098L148.996 103.291ZM165.174 180.249C174.419 172.87 180.775 163.791 186.322 153.669C186.515 154.365 186.669 154.558 186.592 154.674C186.091 155.833 185.552 156.953 184.974 158.074C181.276 165.491 176.576 172.175 170.683 178.009C169.335 179.322 167.986 180.868 165.174 180.211V180.249ZM153.657 149.574C150.768 157.88 145.375 164.525 139.212 170.746C138.942 169.973 138.788 169.239 139.096 168.814C143.911 162.362 148.803 155.987 153.657 149.574ZM141.677 174.995L140.521 174.223C143.796 166.534 150.883 161.667 155.044 154.597L156.161 155.408L141.716 174.995H141.677ZM145.491 115.808C140.483 110.554 143.025 103.098 138.403 97.882L142.062 98.2683C142.833 104.063 146.145 109.279 145.529 115.808H145.491ZM114.559 122.569C119.297 126.162 124.112 125.467 129.119 122.801C128.503 125.969 126.384 127.63 123.033 128.016C119.027 128.48 116.1 126.703 114.559 122.569ZM131.546 132.807H132.394C132.663 139.066 132.971 145.324 133.203 151.583C133.203 152.626 133.01 153.785 132.663 154.751C132.471 155.292 131.7 155.601 131.161 156.026C130.93 155.408 130.506 154.79 130.545 154.21C130.814 150.27 131.315 146.329 131.508 142.388C131.662 139.22 131.508 136.014 131.508 132.807H131.546ZM168.217 97.6502L167.216 97.9206C164.712 90.7347 162.555 83.3556 157.586 77.1742L160.244 75.7834C161.322 78.6809 162.247 81.3467 163.287 83.9738C164.674 87.4895 166.176 90.9665 167.563 94.5208C167.948 95.4867 168.025 96.6071 168.217 97.6502ZM136.169 151.042V133.155C138.441 135.898 138.326 148.57 136.169 151.042ZM184.82 100.586L183.857 100.934L178.888 89.4212L177.886 89.653L178.464 93.5164C174.766 90.2711 174.458 88.1849 177.462 85.1714C178.348 85.9441 179.619 86.5623 180.043 87.5667C181.507 91.0052 182.663 94.5595 183.934 98.0752C184.242 98.8865 184.511 99.7364 184.781 100.586H184.82ZM158.433 74.5471C155.506 68.4816 153.772 62.1456 154.119 54.5734C155.044 55.4233 155.583 55.6938 155.621 56.0028C156.584 62.1843 157.509 68.3271 158.433 74.5085V74.5471ZM173.764 113.49L172.724 113.992L167.486 100.393L169.951 98.307L173.726 113.49H173.764ZM113.634 161.744L113.172 161.358L116.331 144.784L117.178 144.938C117.294 145.17 117.486 145.44 117.448 145.672C116.831 150.424 116.254 155.176 115.483 159.889C115.368 160.585 114.289 161.126 113.673 161.744H113.634ZM102.271 124.346C105.237 128.712 108.858 129.6 113.365 128.789C112.171 131.609 110.206 131.957 107.972 131.725C104.775 131.339 102.887 129.098 102.271 124.385V124.346ZM109.936 187.513L109.59 186.663L129.466 179.09L129.89 180.211C123.842 184.19 116.292 184.345 109.936 187.513ZM141.099 145.518V129.446C143.796 134.043 143.834 143.547 141.099 145.518ZM146.107 142.581L144.335 125.389C147.686 129.755 148.649 139.182 146.107 142.581ZM103.966 163.56C102.078 161.589 104.197 149.42 106.084 146.715L106.816 146.831L103.966 163.56ZM117.371 179.67L135.321 170.823L135.629 171.48C130.391 176 123.881 177.816 117.371 179.67ZM133.549 187.435L133.819 188.054C128.465 191.801 122.995 195.317 116.369 196.476L133.549 187.435ZM110.399 147.797L111.516 147.952C110.861 152.742 110.206 157.533 109.474 162.285C109.436 162.632 108.55 162.864 107.625 163.444L110.399 147.797ZM153.926 92.8596L153.272 92.9755L147.763 84.5533C149.882 85.0555 152.077 85.0169 152.386 85.7509C153.31 87.9531 153.464 90.4643 153.926 92.8596ZM165.868 72.2677L165.136 72.3836C163.672 67.6316 161.862 62.9569 162.131 57.8959L163.248 57.7027L165.868 72.2291V72.2677ZM160.706 85.326L161.939 93.7868L156.353 86.7941L160.706 85.2873V85.326ZM143.796 91.9324L143.218 92.3573L138.749 82.5057L142.524 84.476L143.796 91.8937V91.9324ZM99.9596 150.27L101 150.54C100.383 153.824 99.8055 157.146 99.0737 160.43C98.9966 160.778 97.9951 160.933 96.9165 161.435L99.9596 150.308V150.27ZM156.854 99.6592L161.63 99.1955L162.054 106.034H161.515L156.854 99.6592ZM174.573 91.7006L173.61 92.0483C173.533 88.9576 169.103 87.2963 170.991 83.2011L174.342 84.3988L174.612 85.1328L172.57 86.3691L174.612 91.6619L174.573 91.7006ZM146.993 101.591L146.569 101.745L142.524 94.0959L146.646 94.9458L146.993 101.629V101.591ZM139.327 89.4598L140.444 96.7616C137.478 94.5595 137.709 91.4301 135.86 88.803L139.366 89.4598H139.327ZM176.384 82.7761C175.652 81.308 175.267 79.2991 174.111 78.4491C172.147 77.0197 172.455 75.6675 173.032 73.8517C176.692 75.9379 175.382 79.8013 176.422 82.7761H176.384ZM115.06 190.603L114.828 189.715L125.999 186.16L126.346 187.397L115.06 190.565V190.603ZM166.214 78.0242L165.367 78.1787L166.291 74.7789C170.259 75.9766 168.333 79.2218 169.296 81.2694L166.176 78.0242H166.214ZM150.999 72.1132L152.578 79.3764L152.193 79.4923L148.071 71.6882L150.999 72.0745V72.1132ZM70.0294 150.27C68.8353 147.952 70.2605 144.784 73.9585 141.616L70.0294 150.27ZM173.418 108.197L178.079 105.725C177.27 107.463 176.884 108.584 176.191 109.434C176.037 109.627 174.65 108.738 173.418 108.197Z" fill="#D7CDBA"/>
<path d="M143.256 219.888L145.336 221.008C144.873 221.124 144.527 221.124 144.373 221.317C143.91 221.858 143.102 222.515 143.179 223.017C143.448 225.026 143.795 226.919 142.832 228.928C142.37 229.932 142.485 231.207 142.447 232.366C142.408 236.732 138.903 237.891 135.744 239.668C136.476 240.518 137.092 241.407 137.901 242.063C138.364 242.411 139.172 242.527 139.789 242.488C140.675 242.411 141.561 242.063 142.447 241.832L142.87 242.682L144.45 240.518L148.957 247.936L150.189 244.111C154.041 244.729 151.345 241.484 152.5 239.63L153.386 241.368C155.582 241.098 157.238 240.634 158.895 240.75C160.282 240.866 163.286 241.136 164.827 240.634C165.058 240.557 165.328 240.557 165.559 240.557C166.175 240.557 166.83 240.634 167.446 240.673C167.254 239.784 167.331 238.47 166.753 238.046C165.751 237.311 164.365 236.848 163.094 236.732C159.511 236.384 155.929 236.384 152.346 235.998C149.727 235.727 148.032 234.028 147.801 231.362C147.531 228.039 147.685 224.678 147.416 221.356C147.339 220.351 146.568 219.154 145.759 218.535C145.297 218.188 144.103 218.844 143.217 219.038V219.849L143.256 219.888Z" fill="#D7CDBA"/>
<path d="M106.854 223.365L108.665 224.099C107.817 224.639 107.24 224.987 107.278 224.987C106.893 229.082 106.623 232.714 106.2 236.346C106.161 236.732 105.314 237.196 104.774 237.311C101.654 238.007 98.4956 238.625 95.3369 239.243C94.7206 239.359 94.0657 239.243 93.4494 239.32C91.8701 239.514 90.3678 240.325 90.8686 242.025C91.0997 242.875 92.8331 243.647 93.9502 243.802C95.8762 244.072 97.8792 244.034 99.8053 243.763C101.731 243.493 103.58 242.566 105.545 242.295C107.278 242.102 109.089 242.527 110.861 242.527C111.708 242.527 112.517 242.141 113.403 242.334C114.558 242.218 115.753 241.986 116.87 242.063C118.526 242.179 120.182 242.604 121.839 242.759C123.534 242.913 125.229 243.068 126.885 242.836C127.309 242.797 128.002 240.827 127.732 240.557C126.654 239.514 125.383 238.47 123.957 237.968C122.648 237.505 121.107 237.814 119.682 237.659C114.404 237.118 112.324 235.187 111.515 230.048C111.246 228.271 111.169 226.455 110.899 224.678C110.745 223.674 110.514 222.09 109.936 221.896C109.089 221.587 107.894 222.283 106.854 222.553L106.931 223.365H106.854Z" fill="#D7CDBA"/>
<path d="M186.013 170.784C190.405 166.457 196.029 163.366 197.223 156.489C198.224 150.81 199.881 145.247 200.497 139.568C200.805 136.747 199.303 133.773 198.609 130.875L197.492 130.991C197.3 132.768 197.146 134.584 196.915 136.361C195.528 147.256 191.175 156.992 185.436 166.186C184.473 167.77 183.972 169.084 186.052 170.784H186.013ZM186.707 167.539L197.801 147.14C196.76 155.021 190.52 166.573 186.707 167.539Z" fill="#D7CDBA"/>
<path d="M57.9718 175.459V178.395L53.619 175.497L53.1953 177.699L48.9966 175.111C48.1876 177.352 47.1091 177.081 45.6453 175.575C45.2986 175.227 44.1815 175.575 43.4111 175.575C42.7178 175.575 41.9088 175.806 41.3696 175.575C40.5992 175.188 40.0599 174.454 39.1739 173.643C37.9798 176.038 36.7857 175.304 35.5915 173.836C34.4359 172.445 33.5885 172.716 32.9336 174.609L29.1972 171.634L28.0416 173.488L24.2281 170.011L23.5732 172.484L17.0633 164.603L16.2544 165.143L18.6041 169.818L18.1804 170.166L14.1358 165.414L13.5965 165.684V168.273L11.5164 166.727L10.7845 167.268C11.3238 167.848 11.786 168.698 12.4409 168.968C20.6457 172.213 28.9661 175.227 37.7872 176.309C44.7593 177.159 51.7315 177.777 58.7037 178.472C59.1274 178.511 59.5126 178.395 60.4756 178.318L57.9333 175.381L57.9718 175.459Z" fill="#D7CDBA"/>
<path d="M52.3096 172.639L48.265 169.161L48.4961 172.832L43.4884 169.161V171.943L39.0586 168.582L38.789 171.286L34.0895 167.616L34.3592 170.514L30.4301 167.462C26.6166 169.509 26.1158 164.409 23.3039 164.873V166.921L20.3763 164.525L19.8755 165.066C20.6459 165.723 21.3393 166.496 22.1868 166.959C29.9678 171.286 38.5193 172.291 47.1479 173.063C47.9568 173.141 48.7657 173.218 49.5746 173.257C50.345 173.257 51.154 173.257 51.9244 173.257L52.271 172.6L52.3096 172.639Z" fill="#D7CDBA"/>
<path d="M52.0791 166.612L47.7263 162.903L47.11 163.482L47.8419 165.916L47.4567 166.496L42.5261 162.98L43.6432 166.419L38.1348 162.671L38.6741 165.955L33.8976 162.401L33.5894 164.873L29.1211 161.242L28.5432 163.405L24.8838 159.967C24.0749 162.323 25.5002 163.212 26.8484 163.598C30.3537 164.641 33.9361 165.723 37.557 166.264C42.2179 166.96 46.9944 167.153 51.6939 167.539L52.0406 166.573L52.0791 166.612Z" fill="#D7CDBA"/>
<path d="M174.959 45.4554C175.344 47.6189 175.96 48.9325 177.809 48.5848C179.889 48.1598 182.008 47.6189 183.972 46.8076C184.781 46.4599 185.898 45.185 185.783 44.5669C185.475 43.176 184.666 41.7466 183.703 40.7035C183.394 40.3558 181.892 40.9739 180.968 41.3602C179.658 41.9011 178.31 42.442 177.154 43.2533C176.23 43.8714 175.536 44.8759 174.959 45.4941V45.4554Z" fill="#D7CDBA"/>
<path d="M35.4762 151.39L37.3251 153.592L37.0555 154.094C36.4777 153.785 35.7458 153.631 35.3221 153.167C34.8598 152.665 34.7057 151.892 34.3976 151.235L33.4346 151.931L33.242 153.669L30.1989 153.206C32.8568 155.601 43.7965 156.142 48.7656 154.596C47.2633 152.433 45.8381 150.154 44.2202 148.067C43.835 147.565 42.7179 147.681 41.9475 147.488L41.7935 148.222L46.1462 153.476L45.2603 154.326C43.9121 152.858 42.4483 151.467 41.2157 149.922C40.0986 148.531 40.2141 148.454 38.2881 149.844L41.9475 154.017C39.5208 154.558 38.7889 153.128 37.9029 151.815C37.4792 151.197 36.7088 150.849 36.0925 150.385L35.4762 151.39Z" fill="#D7CDBA"/>
<path d="M145.567 22.3138C151.962 23.0865 158.356 24.0137 164.75 24.6319C169.219 25.0955 173.726 25.2114 178.194 25.3273C178.772 25.3273 179.388 24.4773 179.966 24.0524C179.349 23.7433 178.733 23.2797 178.078 23.1638C175.074 22.6229 172.108 21.9275 169.065 21.8116C165.598 21.6957 162.131 22.2366 158.626 22.3525C156.661 22.4297 154.658 22.3525 152.694 22.2752C150.305 22.1593 147.917 21.9661 145.529 21.8116V22.2752L145.567 22.3138ZM164.827 24.2842L164.904 23.0865L177.038 23.8978L176.961 24.9409L164.827 24.2842Z" fill="#D7CDBA"/>
<path d="M26.6558 157.996C33.9361 161.319 41.8713 160.469 49.5753 161.126L49.999 160.392L46.6478 157.185L46.1855 157.455L46.8019 160.005L41.6787 156.876L41.332 159.542L37.9422 157.339L37.4414 159.464L33.2427 156.721L32.6649 159.194L28.7359 155.678L26.6558 157.996Z" fill="#D7CDBA"/>
<path d="M147.724 33.054L144.604 34.1357L151.807 36.647L150.767 34.638L153.656 35.797L152.154 33.2858L156.083 34.2516L153.887 30.6201L157.315 32.5904C157.161 29.8474 156.044 28.9202 153.733 29.5383C152.192 29.9633 150.574 30.311 149.111 30.9291C148.417 31.1996 147.955 32.0495 147.416 32.629L147.724 33.0154V33.054Z" fill="#D7CDBA"/>
<path d="M155.467 37.3814C155.467 40.5108 157.74 43.7946 159.781 43.8333C161.399 43.8333 162.786 41.747 162.747 39.3517C162.709 36.6474 160.552 33.7498 158.51 33.9044C156.276 34.0589 155.698 35.7974 155.505 37.42L155.467 37.3814ZM161.206 39.004L161.707 40.3562C160.937 40.6653 159.704 41.4766 159.435 41.2448C158.549 40.3949 157.817 39.2358 157.431 38.0768C157.277 37.5746 158.202 36.7633 158.664 36.1065L161.206 39.004Z" fill="#D7CDBA"/>
<path d="M146.453 5.7012C155.351 2.22415 164.596 4.61945 173.726 4.88989C168.949 0.833327 151.576 1.41283 146.453 5.7012Z" fill="#D7CDBA"/>
<path d="M156.545 19.4938H175.073C168.64 16.9054 162.631 17.2917 156.584 18.6439V19.4938H156.545Z" fill="#D7CDBA"/>
<path d="M53.6962 180.404C51.5776 183.34 50.5375 180.404 48.9967 179.979C47.9952 181.795 46.724 181.292 45.4143 180.172C44.5669 179.438 43.835 178.318 42.6023 179.902C42.3327 180.249 40.8689 179.631 39.983 179.438C38.9429 179.245 37.9414 179.052 36.9014 178.858L36.6317 180.288L55.4296 183.301L55.6992 182.645L53.6962 180.365V180.404Z" fill="#D7CDBA"/>
<path d="M157.008 7.90353L172.416 8.79211V7.98079C167.447 5.8173 162.247 5.97183 157.008 6.86041V7.90353Z" fill="#D7CDBA"/>
<path d="M172.531 11.8058C167.061 9.21728 161.977 10.299 156.931 10.8399V11.8058H172.531Z" fill="#D7CDBA"/>
<path d="M51.6168 149.767C50.8464 145.054 49.0744 144.359 44.7602 146.986L50.8464 153.978L51.6553 153.438L47.6492 147.488L47.8418 147.14L51.6168 149.767Z" fill="#D7CDBA"/>
<path d="M151.923 39.2358C147.686 40.3949 146.838 47.349 150.305 51.4442C149.149 47.1558 149.188 43.022 151.923 39.2358Z" fill="#D7CDBA"/>
<path d="M157.239 15.5144H172.686C167.562 13.6213 162.401 14.2008 157.239 14.7417V15.5144Z" fill="#D7CDBA"/>
<path d="M161.361 28.7656L165.521 38.4241C166.677 34.7152 164.365 29.1133 161.361 28.7656Z" fill="#D7CDBA"/>
<path d="M165.059 28.6112L169.142 39.0037C170.297 35.6812 167.447 28.418 165.059 28.6112Z" fill="#D7CDBA"/>
<path d="M171.915 28.8818L174.496 39.313C175.613 35.9132 174.534 31.0453 171.915 28.8818Z" fill="#D7CDBA"/>
<path d="M147.609 37.6905L145.298 45.0309L146.415 45.3786L148.842 38.0768L147.609 37.6519V37.6905Z" fill="#D7CDBA"/>
<path d="M130.274 240.479C130.351 241.87 131.969 242.785 135.128 243.222C134.704 241.059 133.857 240.557 130.274 240.479Z" fill="#D7CDBA"/>
<path d="M178.271 37.8447L176.614 29.9634L175.536 30.1952L177.23 37.9992L178.271 37.8447Z" fill="#D7CDBA"/>
<path d="M144.18 44.5287L145.76 37.0337C143.025 39.004 142.601 41.0903 144.18 44.5287Z" fill="#D7CDBA"/>
<path d="M171.453 35.4496C171.068 28.7659 170.991 28.6114 168.564 28.9204L171.453 35.4496Z" fill="#D7CDBA"/>
<path d="M180.774 38.0379C182.007 34.5994 181.468 32.3973 179.002 31.5474L180.774 38.0379Z" fill="#D7CDBA"/>
<path d="M35.207 178.549L28.5045 176.618L28.2349 177.313L34.6678 179.631L35.1685 178.549H35.207Z" fill="#D7CDBA"/>
<path d="M161.129 32.9384C160.281 28.8432 159.704 28.341 157.007 29.1523L161.129 32.9384Z" fill="#D7CDBA"/>
<path d="M147.031 16.9823C143.256 15.2051 142.717 15.4369 142.91 18.5663L147.031 16.9823Z" fill="#D7CDBA"/>
<path d="M163.903 106.729C161.515 108.506 159.126 108.583 156.469 106.072C156.815 108.931 157.277 111.133 157.316 113.335C157.393 119.98 157.277 126.664 157.316 133.309C157.316 134.584 157.74 135.898 157.971 137.173L159.242 137.25C159.627 135.898 160.398 134.507 160.359 133.193C160.089 126.278 159.589 119.362 159.165 112.447C159.126 111.636 158.895 110.863 158.78 110.052C158.78 109.936 158.972 109.781 159.512 109.008C160.513 111.211 162.054 113.026 162.131 114.919C162.478 122.376 162.362 129.871 162.478 137.366C162.478 138.37 163.056 139.375 163.364 140.379C164.057 139.529 165.328 138.679 165.367 137.752C165.636 132.73 165.906 127.669 165.636 122.646C165.444 118.706 164.404 114.804 163.864 110.863C163.672 109.588 163.864 108.236 163.864 106.69L163.903 106.729Z" fill="#222222"/>
<path d="M125.151 159.387C125.767 158.499 126.807 157.649 126.923 156.683C127.462 152.935 127.848 149.149 128.002 145.363C128.117 143.006 127.925 140.727 129.697 138.757C130.274 138.1 130.39 137.018 130.891 135.666C123.572 140.92 121.492 140.263 115.059 136.477L116.638 143.818C116.985 143.702 117.37 143.47 117.755 143.47C118.949 143.393 120.182 143.238 121.261 143.547C121.607 143.625 121.761 145.17 121.607 145.981C120.914 150.076 120.066 154.133 119.258 158.228C119.103 159.078 118.911 159.928 118.718 160.778L119.566 161.319C120.143 160.469 121.106 159.696 121.261 158.808C121.992 154.519 122.57 150.231 122.994 145.943C123.302 143.045 123.187 142.968 127 142.311L124.342 158.885L125.151 159.465V159.387Z" fill="#222222"/>
<path d="M163.903 93.0142L161.668 95.6026C164.365 98.8479 164.789 103.291 165.79 107.502C168.14 117.547 168.255 127.707 167.215 137.945C167.1 138.95 167.023 139.954 167.138 140.92C167.215 141.538 167.716 142.079 168.024 142.62C168.564 142.118 169.488 141.654 169.565 141.075C170.066 138.254 170.682 135.357 170.721 132.498C170.836 121.487 169.257 110.747 165.559 100.316C164.712 97.9593 164.403 95.3708 163.826 93.0142H163.903Z" fill="#222222"/>
<path d="M149.612 90.1938L145.259 87.9917C145.529 88.7257 145.567 89.4212 145.952 89.8461C149.997 94.9072 150.729 101.089 151.807 107.115C153.001 113.992 153.579 120.908 152.655 127.901C152.424 129.755 153.117 131.725 153.387 133.657L154.427 133.734C154.812 132.073 155.621 130.373 155.467 128.75C154.889 121.371 154.234 114.031 153.31 106.691C152.886 103.368 151.807 100.084 150.998 96.6071C154.966 97.9979 155.082 101.823 157.2 104.334L155.39 94.2504C154.08 94.4822 152 95.5253 150.96 94.8685C149.958 94.2504 150.035 91.8937 149.612 90.2325V90.1938Z" fill="#222222"/>
<path d="M185.551 144.088C189.018 141.577 189.018 138.216 189.018 135.357C189.095 126.046 187.862 116.851 185.012 107.927C184.819 107.347 184.01 107 183.471 106.575C183.356 107.193 183.047 107.888 183.163 108.468C184.01 114.611 185.243 120.715 185.744 126.896C186.091 131.339 185.513 135.898 185.397 140.379C185.397 141.422 185.474 142.466 185.59 144.088H185.551Z" fill="#222222"/>
<path d="M176.653 97.5727C177.847 93.9798 179.003 97.1478 180.235 98.1136C180.043 95.9501 179.234 95.332 174.496 93.4776L173.071 96.6069C172.608 95.7183 172.223 95.1388 171.954 94.5593C168.91 87.5279 165.521 80.6125 163.017 73.3879C161.476 68.945 161.322 64.0385 160.397 59.3252C160.243 58.5525 159.511 57.8571 159.049 57.123C158.78 57.8957 158.279 58.6298 158.317 59.4024C158.433 68.1723 162.593 75.706 165.713 83.5486C168.487 90.5027 171.183 97.4568 173.957 104.411C174.111 104.797 174.38 105.145 175.228 105.454C175.266 104.72 175.497 103.909 175.305 103.213C175.035 102.093 174.342 101.05 174.111 99.9294C173.957 99.0795 174.226 98.1523 174.303 97.2637L176.653 97.5727Z" fill="#222222"/>
<path d="M186.129 105.995C189.558 118.01 191.445 130.18 189.943 142.775C192.601 141.191 193.602 138.718 193.333 136.052C192.639 129.214 191.792 122.415 190.713 115.654C190.289 112.988 189.249 110.438 188.402 107.888C188.132 107.115 187.593 106.42 187.169 105.686L186.091 106.034L186.129 105.995Z" fill="#222222"/>
<path d="M181.815 144.783C182.508 143.431 183.51 142.195 183.779 140.766C185.397 133.039 184.511 125.312 183.433 117.624C183.202 115.847 182.816 114.07 182.393 112.331C182.239 111.713 181.738 111.211 180.813 110.786C182.662 122.067 181.892 133.232 180.39 144.359L181.815 144.783Z" fill="#222222"/>
<path d="M175.998 130.566C175.497 125.776 175.074 121.371 174.534 117.006C174.457 116.31 173.648 115.731 173.186 115.113C172.916 115.847 172.377 116.62 172.454 117.354C173.225 125.274 173.225 133.193 171.645 141.036C171.491 141.809 172.146 142.736 172.454 143.586C173.109 142.968 174.226 142.427 174.38 141.693C175.074 137.907 175.536 134.043 175.998 130.566Z" fill="#222222"/>
<path d="M177.5 145.131C178.117 143.856 179.08 142.659 179.272 141.345C180.62 133.541 180.466 125.698 179.349 117.894C179.272 117.431 179.272 116.928 179.002 116.581C178.656 116.156 178.117 115.885 177.654 115.538C177.462 116.04 177.076 116.581 177.076 117.083C177.192 122.376 177.462 127.707 177.423 133C177.423 135.395 176.807 137.829 176.537 140.225C176.383 141.693 176.306 143.161 176.191 144.668L177.423 145.093L177.5 145.131Z" fill="#222222"/>
<path d="M169.643 165.762C168.872 166.071 168.14 166.148 167.717 166.573C160.629 173.604 153.811 180.906 145.259 186.238L145.529 186.894C146.993 186.431 148.649 186.276 149.882 185.504C157.74 180.636 163.71 173.759 169.566 166.728C169.643 166.612 169.566 166.38 169.643 165.8V165.762Z" fill="#222222"/>
<path d="M116.369 174.3C130.352 173.218 144.103 164.757 150.536 147.913C143.68 162.632 131.238 170.05 116.369 174.3Z" fill="#222222"/>
<path d="M148.995 103.291L144.951 103.098C147.994 107.038 147.339 111.52 147.878 115.808C148.225 118.822 149.111 121.796 149.766 124.771L151.229 124.539L148.995 103.291Z" fill="#222222"/>
<path d="M165.136 180.249C167.948 180.906 169.296 179.361 170.644 178.047C176.538 172.214 181.237 165.53 184.935 158.112C185.513 156.992 186.014 155.833 186.553 154.712C186.592 154.597 186.476 154.403 186.284 153.708C180.737 163.83 174.419 172.87 165.136 180.288V180.249Z" fill="#222222"/>
<path d="M153.656 149.574C148.803 155.987 143.911 162.362 139.096 168.814C138.787 169.239 138.942 169.973 139.211 170.746C145.336 164.526 150.767 157.881 153.656 149.574Z" fill="#222222"/>
<path d="M141.677 174.995L156.122 155.408L155.005 154.597C150.883 161.667 143.757 166.496 140.483 174.223L141.638 174.995H141.677Z" fill="#222222"/>
<path d="M145.529 115.808C146.145 109.279 142.832 104.063 142.062 98.2682L138.402 97.8818C143.063 103.097 140.521 110.515 145.49 115.808H145.529Z" fill="#222222"/>
<path d="M114.597 122.569C116.137 126.741 119.103 128.518 123.071 128.016C126.422 127.63 128.502 125.969 129.157 122.801C124.15 125.466 119.335 126.162 114.597 122.569Z" fill="#222222"/>
<path d="M131.584 132.807C131.584 136.014 131.7 139.182 131.584 142.388C131.392 146.329 130.891 150.27 130.621 154.21C130.583 154.79 131.045 155.447 131.238 156.026C131.739 155.601 132.547 155.292 132.74 154.751C133.125 153.747 133.318 152.626 133.279 151.583C133.048 145.325 132.74 139.066 132.47 132.807H131.623H131.584Z" fill="#222222"/>
<path d="M168.217 97.6114C168.024 96.5683 167.947 95.4479 167.562 94.4821C166.175 90.9664 164.673 87.4893 163.286 83.935C162.246 81.3079 161.283 78.6035 160.243 75.7446L157.585 77.1355C162.554 83.3169 164.711 90.696 167.215 97.8819L168.217 97.6114Z" fill="#222222"/>
<path d="M136.169 151.004C138.326 148.531 138.441 135.859 136.169 133.116V151.004Z" fill="#222222"/>
<path d="M184.819 100.586C184.549 99.7364 184.28 98.9251 183.971 98.0751C182.7 94.5594 181.545 91.0051 180.081 87.5667C179.657 86.5622 178.386 85.9441 177.5 85.1714C174.457 88.1848 174.765 90.3097 178.502 93.5163L177.924 89.6529L178.925 89.4211L183.894 100.934L184.857 100.586H184.819Z" fill="#222222"/>
<path d="M158.433 74.5469C157.508 68.3655 156.584 62.1841 155.621 56.0413C155.582 55.7322 155.043 55.4618 154.118 54.6118C153.772 62.1841 155.505 68.52 158.433 74.5855V74.5469Z" fill="#222222"/>
<path d="M173.764 113.49L169.989 98.3066L167.524 100.393L172.763 113.992L173.803 113.49H173.764Z" fill="#222222"/>
<path d="M113.634 161.743C114.251 161.125 115.329 160.584 115.445 159.889C116.215 155.176 116.793 150.424 117.409 145.672C117.409 145.44 117.217 145.208 117.14 144.938L116.292 144.783L113.133 161.357L113.596 161.743H113.634Z" fill="#222222"/>
<path d="M102.309 124.346C102.925 129.06 104.812 131.3 108.01 131.687C110.244 131.957 112.208 131.609 113.402 128.751C108.934 129.562 105.275 128.673 102.309 124.308V124.346Z" fill="#222222"/>
<path d="M109.936 187.513C116.292 184.306 123.842 184.19 129.89 180.211L129.466 179.09L109.589 186.663L109.936 187.513Z" fill="#222222"/>
<path d="M141.137 145.518C143.872 143.547 143.833 134.082 141.137 129.446V145.518Z" fill="#222222"/>
<path d="M146.106 142.581C148.649 139.181 147.686 129.755 144.334 125.389L146.106 142.581Z" fill="#222222"/>
<path d="M103.965 163.56L106.815 146.831L106.084 146.715C104.196 149.42 102.077 161.589 103.965 163.56Z" fill="#222222"/>
<path d="M117.37 179.67C123.88 177.777 130.39 176 135.629 171.48L135.321 170.823L117.37 179.67Z" fill="#222222"/>
<path d="M133.549 187.435L116.369 196.475C123.033 195.316 128.464 191.801 133.818 188.053L133.549 187.435Z" fill="#222222"/>
<path d="M110.437 147.835L107.663 163.482C108.626 162.903 109.474 162.671 109.512 162.323C110.244 157.533 110.899 152.781 111.554 147.99L110.437 147.835Z" fill="#222222"/>
<path d="M153.965 92.8981C153.503 90.5028 153.349 87.9916 152.424 85.7894C152.116 85.0554 149.92 85.094 147.802 84.5918L153.31 93.014L153.965 92.8981Z" fill="#222222"/>
<path d="M165.867 72.2676L163.248 57.7412L162.131 57.9344C161.861 62.9954 163.672 67.6701 165.135 72.4221L165.867 72.3062V72.2676Z" fill="#222222"/>
<path d="M160.706 85.3257L156.353 86.8324L161.938 93.8251L160.706 85.3643V85.3257Z" fill="#222222"/>
<path d="M143.795 91.9325L142.524 84.5148L138.749 82.5444L143.217 92.3961L143.795 91.9711V91.9325Z" fill="#222222"/>
<path d="M99.959 150.27L96.9159 161.396C98.033 160.894 98.996 160.739 99.073 160.392C99.8049 157.108 100.383 153.824 100.999 150.501L99.959 150.231V150.27Z" fill="#222222"/>
<path d="M156.853 99.6589L161.514 106.034H162.054L161.63 99.1953L156.853 99.6589Z" fill="#222222"/>
<path d="M174.573 91.7006L172.532 86.4077L174.573 85.1714L174.304 84.4374L170.952 83.2397C169.065 87.3349 173.495 88.9576 173.572 92.0869L174.535 91.7392L174.573 91.7006Z" fill="#222222"/>
<path d="M146.992 101.591L146.646 94.9071L142.524 94.0571L146.568 101.707L146.992 101.552V101.591Z" fill="#222222"/>
<path d="M139.327 89.4595L135.821 88.8027C137.67 91.4685 137.439 94.5592 140.405 96.7613L139.288 89.4595H139.327Z" fill="#222222"/>
<path d="M176.384 82.8146C175.382 79.8398 176.653 75.9764 172.994 73.8901C172.416 75.7059 172.147 77.0581 174.073 78.4876C175.267 79.3375 175.613 81.3465 176.345 82.8146H176.384Z" fill="#222222"/>
<path d="M115.097 190.642L126.384 187.474L126.037 186.238L114.866 189.792L115.097 190.681V190.642Z" fill="#222222"/>
<path d="M166.214 78.0241L169.334 81.2693C168.371 79.2217 170.258 75.9765 166.329 74.7788L165.405 78.1786L166.252 78.0241H166.214Z" fill="#222222"/>
<path d="M150.999 72.1129L148.071 71.7266L152.193 79.5306L152.578 79.4147L150.999 72.1515V72.1129Z" fill="#222222"/>
<path d="M70.0289 150.269L73.958 141.615C70.2601 144.783 68.8348 147.951 70.0289 150.269Z" fill="#222222"/>
<path d="M173.417 108.197C174.65 108.777 176.037 109.627 176.191 109.433C176.884 108.584 177.269 107.463 178.078 105.725L173.417 108.197Z" fill="#222222"/>
<path d="M186.707 167.577C190.559 166.612 196.761 155.06 197.801 147.179L186.707 167.577Z" fill="#222222"/>
<path d="M164.866 24.2455L177 24.9023L177.077 23.8592L164.943 23.0479L164.866 24.2455Z" fill="#222222"/>
<path d="M161.206 39.004L158.664 36.1064C158.202 36.7632 157.277 37.6132 157.431 38.0768C157.816 39.2358 158.548 40.3948 159.434 41.2448C159.665 41.4766 160.898 40.7039 161.707 40.3562L161.206 39.004Z" fill="#222222"/>
</g>
<defs>
<clipPath id="clip0_73_3924">
<rect width="202" height="250" fill="white" transform="matrix(-1 0 0 1 202.115 0.176758)"/>
</clipPath>
</defs>
</svg>
