<svg width="314" height="314" viewBox="0 0 314 314" fill="none" xmlns="http://www.w3.org/2000/svg">
<g clip-path="url(#clip0_574_3583)">
<path fill-rule="evenodd" clip-rule="evenodd" d="M313.74 156.87C313.74 243.507 243.507 313.74 156.87 313.74C70.2331 313.74 0 243.507 0 156.87C0 70.2331 70.2331 0 156.87 0C243.507 0 313.74 70.2331 313.74 156.87ZM275.03 156.96C275.03 222.218 222.128 275.12 156.87 275.12C91.612 275.12 38.71 222.218 38.71 156.96C38.71 91.702 91.612 38.8 156.87 38.8C222.128 38.8 275.03 91.702 275.03 156.96Z" fill="#222222"/>
<path d="M156.87 314.61C243.987 314.61 314.61 243.987 314.61 156.87H312.87C312.87 243.026 243.026 312.87 156.87 312.87V314.61ZM-0.87 156.87C-0.87 243.987 69.7526 314.61 156.87 314.61V312.87C70.7136 312.87 0.87 243.026 0.87 156.87H-0.87ZM156.87 -0.87C69.7526 -0.87 -0.87 69.7526 -0.87 156.87H0.87C0.87 70.7135 70.7136 0.87 156.87 0.87V-0.87ZM314.61 156.87C314.61 69.7526 243.987 -0.87 156.87 -0.87V0.87C243.026 0.87 312.87 70.7135 312.87 156.87H314.61ZM156.87 275.99C222.608 275.99 275.9 222.698 275.9 156.96H274.16C274.16 221.737 221.647 274.25 156.87 274.25V275.99ZM37.84 156.96C37.84 222.698 91.1315 275.99 156.87 275.99V274.25C92.0925 274.25 39.58 221.737 39.58 156.96H37.84ZM156.87 37.93C91.1315 37.93 37.84 91.2215 37.84 156.96H39.58C39.58 92.1825 92.0925 39.67 156.87 39.67V37.93ZM275.9 156.96C275.9 91.2215 222.608 37.93 156.87 37.93V39.67C221.647 39.67 274.16 92.1825 274.16 156.96H275.9Z" fill="#D7CDBA"/>
<path d="M156.87 276.12C222.128 276.12 275.03 223.218 275.03 157.96C275.03 92.702 222.128 39.8 156.87 39.8C91.612 39.8 38.71 92.702 38.71 157.96C38.71 223.218 91.612 276.12 156.87 276.12Z" stroke="#D7CDBA" stroke-width="1.31" stroke-miterlimit="10"/>
</g>
<path d="M111.521 14.6998C111.131 14.8101 110.125 15.3194 110.434 16.4105L112.573 23.9707L124.809 20.5081L122.67 12.9479C122.361 11.8568 121.237 11.9504 120.822 12.068L120.778 11.9121L124.908 10.7432L124.952 10.8991C124.537 11.0167 123.53 11.526 123.839 12.6171L128.169 27.9193C128.478 29.0104 129.602 28.9169 130.018 28.7992L130.054 28.9291L125.924 30.098L125.887 29.9681C126.303 29.8505 127.309 29.3412 127 28.2501L124.853 20.664L112.617 24.1266L114.764 31.7127C115.072 32.8038 116.196 32.7103 116.586 32.6L116.623 32.7299L112.518 33.8914L112.481 33.7615C112.871 33.6513 113.877 33.142 113.569 32.0509L109.238 16.7487C108.93 15.6575 107.806 15.7511 107.416 15.8614L107.372 15.7055L111.477 14.544L111.521 14.6998Z" fill="#D7CDBA"/>
<path d="M137.895 12.2529C142.527 11.6513 146.244 14.4901 146.849 19.149C147.451 23.7811 144.582 27.4754 139.95 28.077C135.318 28.6786 131.627 25.8363 131.025 21.2042C130.42 16.5453 133.263 12.8545 137.895 12.2529ZM132.284 21.0407C132.875 25.5925 136.05 28.4473 139.932 27.9431C143.842 27.4354 146.155 23.8677 145.564 19.3159C144.973 14.7641 141.825 11.9058 137.916 12.4135C134.033 12.9178 131.693 16.4889 132.284 21.0407Z" fill="#D7CDBA"/>
<path d="M157.87 11.1487C155.982 11.0679 153.94 12.0345 152.98 13.6419L152.507 24.7018C152.458 25.8348 153.555 26.0979 153.959 26.1152L153.954 26.2501L149.719 26.0689L149.724 25.934C150.129 25.9513 151.244 25.7829 151.293 24.6499L151.732 14.3723C151.781 13.2393 151.655 13.0178 150.9 12.9854L150.907 12.8236L152.922 11.2072L153.084 11.2142L152.991 13.3722C153.948 11.8457 156.045 10.8544 158.095 10.9421C160.765 11.0564 162.793 12.3052 163.417 14.1426C164.456 12.5926 166.457 11.2999 168.831 11.4015C172.149 11.5435 174.471 13.4805 174.362 16.0432L173.952 25.6194C173.903 26.7524 175 27.0155 175.432 27.034L175.426 27.1688L171.164 26.9865L171.17 26.8516C171.601 26.8701 172.717 26.7016 172.765 25.5686L173.152 16.5319C173.271 13.7534 171.438 11.7293 168.606 11.6081C166.448 11.5157 164.53 12.7579 163.49 14.3349C163.608 14.7183 163.644 15.1522 163.625 15.5838L163.216 25.16C163.167 26.293 164.264 26.5561 164.696 26.5746L164.69 26.7095L160.428 26.5271L160.434 26.3922C160.865 26.4107 161.98 26.2422 162.029 25.1093L162.415 16.0725C162.534 13.2941 160.702 11.2699 157.87 11.1487Z" fill="#D7CDBA"/>
<path d="M188.275 14.412C191.021 15.0006 193.253 17.4674 192.913 19.0514C192.834 19.421 192.433 19.7491 191.799 19.6132L181.45 17.3946C180.818 18.2809 180.369 19.3444 180.109 20.5588C179.147 25.0468 181.304 28.7676 185.871 29.7468C189.092 30.4372 191.461 28.4046 192.547 27.2016L192.683 27.3412C191.378 28.663 189.048 30.8974 184.93 30.0145C180.363 29.0353 177.832 25.124 178.812 20.5568C179.796 15.9632 183.708 13.4328 188.275 14.412ZM181.531 17.2739L190.56 19.2096C191.378 19.385 191.742 18.7175 191.827 18.3215C192.122 16.9487 190.538 15.0628 188.241 14.5704C185.548 13.9931 183.076 15.0922 181.531 17.2739Z" fill="#D7CDBA"/>
<path d="M224.693 23.9563C224.338 23.7603 223.265 23.4135 222.716 24.4058L218.913 31.281L230.041 37.4366L233.844 30.5614C234.393 29.5691 233.529 28.8442 233.151 28.6351L233.229 28.4934L236.986 30.5714L236.908 30.7131C236.53 30.504 235.456 30.1572 234.907 31.1495L227.21 45.0653C226.661 46.0576 227.525 46.7824 227.903 46.9916L227.838 47.1097L224.081 45.0317L224.146 44.9135C224.524 45.1227 225.598 45.4695 226.146 44.4772L229.963 37.5783L218.835 31.4227L215.019 38.3216C214.47 39.3139 215.334 40.0387 215.688 40.2348L215.623 40.3529L211.89 38.2879L211.955 38.1698C212.31 38.3659 213.383 38.7127 213.932 37.7204L221.63 23.8046C222.178 22.8123 221.314 22.0874 220.96 21.8914L221.038 21.7496L224.771 23.8146L224.693 23.9563Z" fill="#D7CDBA"/>
<path d="M245.168 40.785C248.883 43.6163 249.528 48.2491 246.68 51.9858C243.849 55.7009 239.211 56.3079 235.496 53.4767C231.781 50.6455 231.158 46.029 233.989 42.3138C236.836 38.5772 241.453 37.9538 245.168 40.785ZM234.998 43.083C232.216 46.7337 232.464 50.9964 235.578 53.3693C238.713 55.7587 242.868 54.851 245.65 51.2002C248.432 47.5495 248.205 43.3032 245.07 40.9139C241.956 38.5409 237.78 39.4323 234.998 43.083Z" fill="#D7CDBA"/>
<path d="M260.16 54.0778C258.877 52.6906 256.747 51.9393 254.933 52.4039L246.808 59.9225C245.975 60.6927 246.569 61.6519 246.844 61.9492L246.745 62.0409L243.866 58.9296L243.965 58.8379C244.24 59.1351 245.15 59.8009 245.982 59.0307L253.533 52.044C254.365 51.2738 254.432 51.028 253.918 50.4731L254.037 50.3631L256.606 50.6346L256.716 50.7535L255.131 52.2205C256.885 51.8109 259.072 52.5835 260.465 54.0896C262.281 56.0515 262.841 58.3659 261.99 60.1098C263.819 59.7413 266.15 60.2329 267.764 61.9768C270.02 64.4143 270.304 67.425 268.421 69.1671L261.386 75.6771C260.554 76.4473 261.147 77.4065 261.441 77.7236L261.342 77.8153L258.444 74.6842L258.543 74.5925C258.837 74.9096 259.747 75.5753 260.579 74.8052L267.218 68.6619C269.259 66.7731 269.384 64.0458 267.459 61.965C265.992 60.3796 263.755 59.9108 261.906 60.2976C261.72 60.6535 261.44 60.9865 261.123 61.2799L254.088 67.7899C253.256 68.5601 253.849 69.5193 254.142 69.8364L254.043 69.9281L251.146 66.797L251.245 66.7053C251.538 67.0223 252.449 67.6881 253.281 66.9179L259.92 60.7747C261.961 58.8859 262.086 56.1585 260.16 54.0778Z" fill="#D7CDBA"/>
<path d="M279.421 77.7778C280.957 80.1285 280.807 83.4521 279.451 84.3382C279.134 84.5449 278.618 84.4952 278.263 83.9528L272.474 75.0924C271.402 75.2772 270.334 75.7166 269.294 76.396C265.452 78.9066 264.365 83.0678 266.92 86.9781C268.722 89.7357 271.835 89.9592 273.453 89.8693L273.451 90.064C271.594 90.0843 268.367 90.032 266.063 86.5059C263.508 82.5956 264.464 78.0363 268.374 75.4813C272.307 72.9116 276.866 73.8674 279.421 77.7778ZM272.617 75.0638L277.668 82.794C278.125 83.4947 278.854 83.2768 279.193 83.0552C280.368 82.2873 280.571 79.8328 279.286 77.8664C277.779 75.5609 275.25 74.6014 272.617 75.0638Z" fill="#D7CDBA"/>
<path d="M298.612 110.207C298.499 109.819 297.98 108.817 296.892 109.136L289.352 111.345L292.927 123.549L300.467 121.34C301.556 121.021 301.452 119.898 301.33 119.483L301.486 119.438L302.693 123.558L302.537 123.603C302.416 123.189 301.897 122.187 300.809 122.506L285.548 126.977C284.459 127.296 284.563 128.419 284.685 128.834L284.555 128.872L283.348 124.752L283.478 124.714C283.599 125.129 284.118 126.13 285.206 125.811L292.772 123.595L289.196 111.391L281.63 113.607C280.542 113.926 280.646 115.049 280.76 115.438L280.63 115.476L279.431 111.382L279.56 111.344C279.674 111.733 280.193 112.734 281.281 112.416L296.543 107.944C297.631 107.625 297.527 106.502 297.413 106.114L297.568 106.068L298.768 110.162L298.612 110.207Z" fill="#D7CDBA"/>
<path d="M301.304 136.556C301.948 141.183 299.144 144.926 294.491 145.574C289.865 146.219 286.144 143.384 285.5 138.758C284.855 134.131 287.663 130.414 292.29 129.77C296.943 129.122 300.66 131.93 301.304 136.556ZM292.465 131.027C287.918 131.66 285.093 134.862 285.633 138.739C286.177 142.643 289.766 144.924 294.312 144.291C298.858 143.658 301.687 140.483 301.144 136.579C300.603 132.701 297.011 130.394 292.465 131.027Z" fill="#D7CDBA"/>
<path d="M302.584 156.52C302.647 154.631 301.662 152.599 300.046 151.653L288.982 151.28C287.849 151.242 287.596 152.341 287.582 152.746L287.447 152.741L287.59 148.505L287.725 148.509C287.711 148.914 287.89 150.028 289.023 150.066L299.304 150.412C300.438 150.45 300.658 150.323 300.684 149.567L300.846 149.573L302.48 151.573L302.475 151.735L300.316 151.662C301.851 152.605 302.861 154.692 302.792 156.743C302.702 159.415 301.472 161.453 299.64 162.094C301.2 163.119 302.51 165.108 302.43 167.483C302.318 170.802 300.403 173.142 297.839 173.056L288.259 172.733C287.126 172.695 286.873 173.794 286.858 174.226L286.723 174.221L286.867 169.957L287.002 169.962C286.987 170.394 287.166 171.507 288.299 171.546L297.339 171.85C300.119 171.944 302.126 170.093 302.222 167.26C302.294 165.101 301.035 163.195 299.449 162.169C299.066 162.291 298.633 162.33 298.201 162.316L288.621 161.993C287.488 161.955 287.235 163.054 287.22 163.486L287.085 163.481L287.229 159.217L287.364 159.222C287.349 159.654 287.528 160.767 288.661 160.806L297.701 161.11C300.481 161.204 302.488 159.353 302.584 156.52Z" fill="#D7CDBA"/>
<path d="M299.603 186.934C299.04 189.685 296.594 191.941 295.007 191.616C294.637 191.54 294.305 191.142 294.435 190.507L296.556 180.138C295.664 179.514 294.596 179.075 293.379 178.827C288.882 177.907 285.182 180.099 284.246 184.675C283.586 187.902 285.641 190.252 286.854 191.326L286.716 191.464C285.382 190.171 283.125 187.863 283.969 183.736C284.905 179.16 288.793 176.593 293.369 177.529C297.972 178.471 300.539 182.358 299.603 186.934ZM296.677 180.218L294.827 189.264C294.659 190.084 295.33 190.442 295.727 190.523C297.102 190.805 298.973 189.203 299.444 186.902C299.996 184.204 298.873 181.742 296.677 180.218Z" fill="#D7CDBA"/>
<path d="M290.382 223.489C290.575 223.133 290.912 222.056 289.915 221.516L283.005 217.776L276.951 228.959L283.86 232.7C284.857 233.24 285.574 232.369 285.78 231.989L285.923 232.066L283.879 235.841L283.736 235.764C283.942 235.384 284.279 234.308 283.282 233.768L269.297 226.197C268.299 225.657 267.582 226.528 267.377 226.908L267.258 226.843L269.302 223.068L269.421 223.132C269.215 223.512 268.878 224.589 269.875 225.128L276.808 228.882L282.863 217.699L275.93 213.945C274.932 213.405 274.215 214.276 274.022 214.632L273.904 214.568L275.935 210.816L276.053 210.881C275.861 211.237 275.524 212.313 276.521 212.853L290.506 220.424C291.503 220.964 292.22 220.093 292.413 219.737L292.555 219.814L290.524 223.566L290.382 223.489Z" fill="#D7CDBA"/>
<path d="M273.775 244.068C270.979 247.81 266.352 248.498 262.589 245.686C258.847 242.89 258.196 238.258 260.993 234.516C263.789 230.774 268.399 230.108 272.141 232.904C275.904 235.716 276.571 240.326 273.775 244.068ZM271.381 233.92C267.704 231.173 263.444 231.461 261.101 234.597C258.741 237.755 259.688 241.9 263.365 244.648C267.041 247.395 271.285 247.129 273.645 243.971C275.989 240.835 275.058 236.668 271.381 233.92Z" fill="#D7CDBA"/>
<path d="M260.619 259.192C261.994 257.896 262.725 255.759 262.244 253.949L254.651 245.894C253.873 245.069 252.919 245.671 252.624 245.949L252.532 245.851L255.616 242.943L255.709 243.041C255.414 243.319 254.757 244.236 255.535 245.061L262.591 252.546C263.369 253.371 263.615 253.436 264.165 252.917L264.276 253.035L264.029 255.606L263.911 255.717L262.429 254.146C262.855 255.896 262.103 258.09 260.61 259.497C258.665 261.331 256.355 261.912 254.604 261.077C254.989 262.903 254.519 265.239 252.79 266.869C250.374 269.147 247.366 269.459 245.606 267.592L239.031 260.618C238.254 259.793 237.3 260.395 236.986 260.691L236.893 260.593L239.997 257.667L240.09 257.765C239.775 258.061 239.118 258.978 239.896 259.803L246.1 266.385C248.008 268.408 250.736 268.508 252.799 266.563C254.371 265.082 254.819 262.841 254.415 260.995C254.058 260.813 253.722 260.536 253.426 260.221L246.851 253.247C246.073 252.422 245.119 253.024 244.805 253.32L244.712 253.222L247.817 250.296L247.909 250.394C247.595 250.69 246.937 251.607 247.715 252.432L253.92 259.013C255.827 261.037 258.556 261.137 260.619 259.192Z" fill="#D7CDBA"/>
<path d="M237.084 278.692C234.748 280.25 231.423 280.13 230.524 278.782C230.314 278.468 230.359 277.951 230.898 277.591L239.705 271.72C239.51 270.65 239.061 269.586 238.372 268.553C235.826 264.734 231.655 263.685 227.768 266.276C225.028 268.103 224.833 271.219 224.938 272.836L224.743 272.836C224.706 270.979 224.728 267.752 228.233 265.415C232.119 262.824 236.687 263.738 239.278 267.624C241.884 271.533 240.97 276.101 237.084 278.692ZM239.735 271.863L232.052 276.985C231.355 277.449 231.58 278.175 231.805 278.512C232.583 279.681 235.04 279.86 236.994 278.557C239.286 277.03 240.222 274.491 239.735 271.863Z" fill="#D7CDBA"/>
<path d="M204.84 298.172C205.227 298.055 206.224 297.527 205.895 296.441L203.615 288.923L191.445 292.613L193.725 300.132C194.054 301.217 195.176 301.103 195.59 300.977L195.637 301.132L191.528 302.378L191.481 302.223C191.895 302.098 192.891 301.57 192.562 300.484L187.947 285.266C187.618 284.181 186.496 284.295 186.083 284.421L186.044 284.291L190.152 283.046L190.191 283.175C189.778 283.3 188.781 283.828 189.11 284.913L191.398 292.458L203.568 288.768L201.28 281.223C200.951 280.138 199.829 280.252 199.441 280.37L199.402 280.24L203.484 279.002L203.523 279.132C203.136 279.249 202.139 279.777 202.468 280.862L207.083 296.081C207.412 297.166 208.534 297.052 208.922 296.934L208.969 297.089L204.887 298.327L204.84 298.172Z" fill="#D7CDBA"/>
<path d="M178.512 301.108C173.892 301.795 170.123 299.026 169.432 294.379C168.744 289.759 171.545 286.012 176.165 285.325C180.785 284.638 184.528 287.411 185.215 292.031C185.906 296.678 183.133 300.421 178.512 301.108ZM183.96 292.218C183.285 287.678 180.057 284.882 176.185 285.458C172.286 286.038 170.038 289.648 170.714 294.188C171.389 298.728 174.59 301.528 178.489 300.948C182.361 300.372 184.635 296.758 183.96 292.218Z" fill="#D7CDBA"/>
<path d="M158.55 302.575C160.44 302.621 162.463 301.618 163.394 299.993L163.667 288.926C163.694 287.793 162.593 287.55 162.188 287.54L162.192 287.405L166.429 287.509L166.426 287.644C166.021 287.634 164.909 287.823 164.881 288.956L164.628 299.24C164.6 300.374 164.73 300.593 165.486 300.612L165.482 300.774L163.496 302.426L163.334 302.422L163.388 300.263C162.458 301.807 160.38 302.836 158.329 302.785C155.657 302.719 153.607 301.508 152.95 299.682C151.939 301.251 149.961 302.579 147.586 302.521C144.266 302.439 141.909 300.545 141.972 297.98L142.208 288.398C142.236 287.265 141.135 287.021 140.703 287.011L140.706 286.876L144.971 286.981L144.967 287.116C144.536 287.105 143.424 287.294 143.396 288.427L143.173 297.47C143.105 300.25 144.973 302.24 147.807 302.31C149.967 302.363 151.862 301.087 152.873 299.491C152.748 299.11 152.704 298.677 152.715 298.245L152.951 288.663C152.979 287.529 151.877 287.286 151.446 287.275L151.449 287.14L155.714 287.245L155.71 287.38C155.278 287.37 154.166 287.558 154.138 288.692L153.916 297.734C153.847 300.514 155.716 302.505 158.55 302.575Z" fill="#D7CDBA"/>
<path d="M128.111 299.872C125.355 299.334 123.077 296.909 123.387 295.319C123.46 294.948 123.855 294.612 124.491 294.736L134.879 296.763C135.495 295.865 135.924 294.794 136.162 293.575C137.041 289.07 134.815 285.389 130.231 284.495C126.998 283.864 124.667 285.94 123.603 287.163L123.465 287.026C124.745 285.68 127.032 283.403 131.167 284.21C135.751 285.104 138.353 288.968 137.459 293.553C136.559 298.164 132.695 300.766 128.111 299.872ZM134.8 296.885L125.737 295.117C124.916 294.957 124.564 295.631 124.487 296.028C124.218 297.406 125.836 299.263 128.142 299.713C130.845 300.24 133.296 299.095 134.8 296.885Z" fill="#D7CDBA"/>
<path d="M91.4937 290.995C91.8517 291.184 92.9311 291.511 93.4616 290.509L97.1369 283.565L85.897 277.616L82.2217 284.56C81.6912 285.563 82.5686 286.271 82.9504 286.473L82.8746 286.617L79.0803 284.608L79.1561 284.465C79.5379 284.667 80.6174 284.994 81.1478 283.992L88.5868 269.936C89.1173 268.934 88.2399 268.225 87.8581 268.023L87.9213 267.904L91.7156 269.912L91.6525 270.031C91.2706 269.829 90.1912 269.502 89.6607 270.504L85.9728 277.473L97.2127 283.421L100.901 276.453C101.431 275.451 100.554 274.742 100.196 274.553L100.259 274.433L104.029 276.429L103.966 276.548C103.608 276.359 102.529 276.032 101.998 277.034L94.5593 291.09C94.0289 292.092 94.9062 292.801 95.2642 292.99L95.1884 293.134L91.4179 291.138L91.4937 290.995Z" fill="#D7CDBA"/>
<path d="M70.7192 274.557C66.9523 271.795 66.2219 267.175 68.9998 263.386C71.7618 259.619 76.3878 258.926 80.1547 261.688C83.9216 264.45 84.6303 269.054 81.8683 272.821C79.0903 276.61 74.4861 277.319 70.7192 274.557ZM80.8449 272.071C83.559 268.369 83.2321 264.112 80.0749 261.797C76.8959 259.466 72.7591 260.451 70.045 264.152C67.3309 267.854 67.636 272.095 70.815 274.426C73.9722 276.741 78.1308 275.773 80.8449 272.071Z" fill="#D7CDBA"/>
<path d="M55.4981 261.553C56.8072 262.917 58.9506 263.628 60.7557 263.13L68.7402 255.463C69.5582 254.677 68.9472 253.729 68.6667 253.437L68.764 253.344L71.7002 256.401L71.6028 256.495C71.3223 256.202 70.3997 255.554 69.5818 256.339L62.162 263.464C61.3441 264.25 61.2818 264.497 61.8054 265.042L61.6886 265.154L59.1152 264.93L59.003 264.813L60.5609 263.317C58.8143 263.759 56.614 263.027 55.1927 261.547C53.3412 259.619 52.7386 257.316 53.5572 255.556C51.7349 255.959 49.3952 255.51 47.7495 253.796C45.4492 251.401 45.1091 248.396 46.9591 246.62L53.8726 239.981C54.6905 239.195 54.0795 238.247 53.7803 237.935L53.8777 237.842L56.8325 240.919L56.7351 241.012C56.4359 240.701 55.5134 240.052 54.6954 240.837L48.1715 247.102C46.1656 249.029 46.0913 251.758 48.0549 253.803C49.551 255.361 51.7957 255.788 53.6374 255.367C53.8165 255.008 54.0907 254.67 54.4023 254.37L61.3157 247.731C62.1337 246.946 61.5227 245.998 61.2235 245.686L61.3209 245.593L64.2757 248.67L64.1783 248.763C63.8791 248.452 62.9565 247.803 62.1386 248.588L55.6147 254.853C53.6088 256.779 53.5344 259.509 55.4981 261.553Z" fill="#D7CDBA"/>
<path d="M35.7888 238.191C34.2101 235.869 34.2997 232.543 35.6394 231.633C35.952 231.42 36.4691 231.46 36.8334 231.996L42.784 240.749C43.8531 240.545 44.9123 240.086 45.9394 239.387C49.7353 236.807 50.7458 232.626 48.1196 228.764C46.2676 226.039 43.1508 225.873 41.5343 225.993L41.5325 225.798C43.3893 225.744 46.6168 225.737 48.985 229.22C51.6111 233.083 50.739 237.659 46.8762 240.285C42.991 242.926 38.415 242.054 35.7888 238.191ZM42.642 240.78L37.4504 233.144C36.9798 232.452 36.2555 232.683 35.9206 232.911C34.7595 233.7 34.6021 236.158 35.9228 238.1C37.4711 240.378 40.0181 241.291 42.642 240.78Z" fill="#D7CDBA"/>
<path d="M16.0307 206.167C16.1518 206.553 16.6892 207.545 17.7712 207.206L25.2683 204.855L21.4633 192.72L13.9662 195.071C12.8842 195.41 13.0093 196.531 13.1385 196.944L12.9839 196.992L11.6995 192.896L11.854 192.847C11.9833 193.259 12.5206 194.251 13.6027 193.912L28.7771 189.154C29.8592 188.814 29.734 187.693 29.6048 187.281L29.7336 187.241L31.0181 191.337L30.8893 191.377C30.76 190.965 30.2227 189.974 29.1407 190.313L21.6178 192.672L25.4229 204.806L32.9457 202.447C34.0277 202.108 33.9026 200.987 33.7814 200.601L33.9102 200.56L35.1867 204.631L35.0578 204.671C34.9367 204.285 34.3993 203.293 33.3173 203.632L18.1428 208.391C17.0608 208.73 17.1859 209.851 17.3071 210.237L17.1525 210.286L15.8761 206.215L16.0307 206.167Z" fill="#D7CDBA"/>
<path d="M12.8289 179.841C12.099 175.228 14.8336 171.433 19.4739 170.699C24.0875 169.969 27.86 172.734 28.5899 177.348C29.3198 181.961 26.581 185.73 21.9674 186.459C17.3271 187.194 13.5588 184.455 12.8289 179.841ZM21.7691 185.206C26.3027 184.489 29.0683 181.236 28.4566 177.369C27.8406 173.475 24.21 171.261 19.6764 171.979C15.1428 172.696 12.373 175.922 12.9889 179.816C13.6007 183.683 17.2355 185.923 21.7691 185.206Z" fill="#D7CDBA"/>
<path d="M11.1727 159.877C11.142 161.767 12.1625 163.782 13.7948 164.699L24.8633 164.879C25.9972 164.897 26.2311 163.794 26.2377 163.389L26.3727 163.391L26.3039 167.63L26.1689 167.627C26.1755 167.223 25.9775 166.112 24.8436 166.094L14.558 165.927C13.4241 165.908 13.206 166.04 13.1937 166.796L13.0317 166.793L11.3625 164.822L11.3651 164.66L13.5248 164.695C11.9735 163.779 10.927 161.709 10.9603 159.658C11.0036 156.985 12.1982 154.925 14.0184 154.253C12.4414 153.255 11.0961 151.289 11.1347 148.913C11.1886 145.592 13.0633 143.22 15.628 143.261L25.2117 143.417C26.3456 143.435 26.5795 142.332 26.5865 141.9L26.7215 141.902L26.6523 146.167L26.5173 146.165C26.5243 145.733 26.3263 144.623 25.1925 144.605L16.1486 144.458C13.368 144.413 11.3932 146.298 11.3471 149.132C11.3121 151.292 12.6047 153.176 14.2087 154.175C14.5888 154.046 15.0216 153.999 15.4536 154.006L25.0373 154.161C26.1712 154.18 26.4051 153.076 26.4121 152.644L26.5471 152.647L26.4779 156.912L26.3429 156.91C26.3499 156.478 26.1519 155.368 25.018 155.349L15.9742 155.202C13.1936 155.157 11.2187 157.042 11.1727 159.877Z" fill="#D7CDBA"/>
<path d="M13.6096 129.42C14.1217 126.659 16.5256 124.359 18.1185 124.655C18.4901 124.724 18.8292 125.116 18.711 125.753L16.7804 136.16C17.6839 136.767 18.7594 137.186 19.9806 137.412C24.4936 138.25 28.1531 135.99 29.0051 131.398C29.606 128.159 27.5084 125.848 26.2757 124.795L26.4115 124.655C27.769 125.923 30.0671 128.19 29.2988 132.331C28.4468 136.924 24.6072 139.561 20.0146 138.709C15.3954 137.852 12.7575 134.013 13.6096 129.42ZM16.6575 136.082L18.3419 127.003C18.4946 126.18 17.8172 125.835 17.419 125.761C16.0385 125.505 14.1973 127.14 13.7688 129.45C13.2665 132.158 14.4338 134.598 16.6575 136.082Z" fill="#D7CDBA"/>
<path d="M22.1371 92.7348C21.951 93.0945 21.6341 94.1769 22.6412 94.6981L29.6193 98.309L35.4638 87.0146L28.4857 83.4036C27.4785 82.8825 26.778 83.7664 26.5794 84.15L26.4355 84.0756L28.4085 80.2628L28.5524 80.3373C28.3539 80.7209 28.0369 81.8034 29.0441 82.3245L43.1681 89.6332C44.1753 90.1544 44.8759 89.2705 45.0744 88.8868L45.1943 88.9489L43.2213 92.7617L43.1014 92.6996C43.3 92.3159 43.6169 91.2335 42.6097 90.7123L35.6077 87.089L29.7632 98.3834L36.7653 102.007C37.7724 102.528 38.473 101.644 38.6591 101.284L38.779 101.346L36.8185 105.135L36.6986 105.073C36.8847 104.713 37.2016 103.631 36.1945 103.11L22.0704 95.8011C21.0633 95.28 20.3627 96.1639 20.1765 96.5236L20.0327 96.4491L21.9932 92.6603L22.1371 92.7348Z" fill="#D7CDBA"/>
<path d="M38.379 71.8212C41.106 68.0289 45.7192 67.2558 49.5334 69.9986C53.3257 72.7256 54.0612 77.345 51.3341 81.1373C48.6071 84.9296 44.0096 85.6808 40.2173 82.9538C36.4031 80.211 35.6519 75.6135 38.379 71.8212ZM40.9582 81.9235C44.6847 84.6032 48.9388 84.237 51.2245 81.0585C53.526 77.8581 52.5033 73.7306 48.7768 71.0508C45.0503 68.371 40.8119 68.7154 38.5105 71.9158C36.2248 75.0943 37.2317 79.2437 40.9582 81.9235Z" fill="#D7CDBA"/>
<path d="M51.2555 56.4581C49.9042 57.7795 49.212 59.9293 49.7265 61.7298L57.4662 69.6444C58.2591 70.4552 59.2015 69.8356 59.4911 69.5525L59.5855 69.649L56.5548 72.6127L56.4604 72.5162C56.7499 72.233 57.3904 71.3046 56.5975 70.4939L49.4052 63.1391C48.6124 62.3283 48.3648 62.2683 47.8243 62.7968L47.7111 62.681L47.9117 60.1057L48.0275 59.9924L49.5377 61.5367C49.0798 59.7941 49.7918 57.5873 51.2589 56.1526C53.17 54.2838 55.4681 53.6603 57.2348 54.4628C56.816 52.6443 57.2431 50.3006 58.9419 48.6394C61.3163 46.3175 64.318 45.9501 66.1114 47.7839L72.8128 54.6368C73.6057 55.4476 74.5482 54.8281 74.857 54.526L74.9514 54.6225L71.9014 57.6052L71.807 57.5086C72.1159 57.2066 72.7563 56.2782 71.9635 55.4674L65.6395 49.0006C63.6952 47.0123 60.9654 46.9627 58.9385 48.9449C57.3942 50.455 56.9872 52.7035 57.4249 54.5413C57.7857 54.7172 58.1263 54.9883 58.4284 55.2971L65.1299 62.15C65.9227 62.9608 66.8652 62.3413 67.1741 62.0392L67.2685 62.1358L64.2184 65.1184L64.124 65.0219C64.4329 64.7198 65.0734 63.7914 64.2805 62.9807L57.9566 56.5138C56.0122 54.5255 53.2824 54.4759 51.2555 56.4581Z" fill="#D7CDBA"/>
<path d="M74.4134 36.5627C76.7206 34.9622 80.0471 35.0205 80.9705 36.3515C81.1859 36.6621 81.1506 37.1796 80.6182 37.5489L71.9218 43.5818C72.1363 44.6488 72.6052 45.7037 73.3132 46.7242C75.9294 50.4956 80.1192 51.4666 83.9571 48.8041C86.6636 46.9266 86.8006 43.8083 86.6659 42.193L86.8606 42.1894C86.9324 44.0455 86.9696 47.2729 83.5088 49.6738C79.6709 52.3362 75.0868 51.5073 72.4244 47.6694C69.7465 43.8093 70.5755 39.2252 74.4134 36.5627ZM71.8893 43.4401L79.4763 38.1767C80.1641 37.6996 79.926 36.9775 79.6952 36.6448C78.8949 35.4912 76.4358 35.3569 74.5057 36.6958C72.2429 38.2656 71.354 40.8211 71.8893 43.4401Z" fill="#D7CDBA"/>
<defs>
<clipPath id="clip0_574_3583">
<rect width="313.74" height="313.74" fill="white"/>
</clipPath>
</defs>
</svg>
