<svg width="106" height="162" viewBox="0 0 106 162" fill="none" xmlns="http://www.w3.org/2000/svg">
<path d="M79.8774 90.8877V91.4777H60.7614V90.8877C62.5314 90.8877 67.7234 89.8257 65.8354 85.3417L58.1654 66.6977H16.8654L9.43138 84.9877C7.54338 89.9437 12.6174 90.8877 14.5054 90.8877V91.4777H0.345375V90.8877C2.11538 90.8877 6.71738 89.9437 8.72338 84.9877L36.6894 15.0137L36.5714 14.8957C34.5654 9.70366 30.7894 9.58566 27.4854 9.58566V8.87766H39.8754L71.7354 85.4597C73.7414 90.1797 78.2254 90.8877 79.8774 90.8877ZM17.1014 66.1077H57.8114L37.1614 15.9577L17.1014 66.1077Z" fill="#D7CDBA"/>
<path d="M90.7978 73.8677C90.7978 82.4817 83.0098 88.8537 71.7998 90.8597C91.8598 91.5677 102.362 101.362 102.362 114.932C102.362 128.974 91.0338 138.768 69.4398 138.768H27.7858V138.178C29.5558 138.178 34.3938 137.234 34.3938 132.278V62.7757C34.3938 57.8197 29.5558 56.8757 27.7858 56.8757V56.1677H61.1798C79.4698 56.1677 90.7978 63.6017 90.7978 73.8677ZM39.8218 138.178H69.4398C89.6178 138.178 96.4618 128.856 96.4618 114.932C96.4618 101.244 89.6178 91.4497 69.4398 91.4497H64.4838C59.2918 91.4497 55.3978 89.5617 53.3918 86.0217L53.9818 85.5497C55.7518 88.9717 59.6458 90.8597 64.4838 90.8597C78.0538 90.8597 84.8978 84.1337 84.8978 73.9857C84.8978 63.8377 78.0538 56.8757 61.1798 56.8757H39.8218V138.178Z" fill="#D7CDBA"/>
</svg>
