<svg width="258" height="247" viewBox="0 0 258 247" fill="none" xmlns="http://www.w3.org/2000/svg">
<path d="M142.151 193.552C138.339 194.746 134.847 195.71 131.442 196.93C119.585 201.172 107.679 205.305 95.962 209.917C92.2809 211.364 89.5171 211.361 85.8801 209.604C67.6507 200.78 49.2164 192.383 30.8921 183.752C26.1453 181.514 21.5568 178.937 16.8514 176.61C15.1426 175.765 13.3444 175.059 11.5181 174.524C9.53983 173.946 9.14621 172.725 9.39482 170.854C10.2192 164.572 11.0548 158.286 11.7144 151.981C13.3922 136.042 14.8892 120.079 16.647 104.148C17.3074 98.1554 17.7614 91.966 19.6209 86.3165C22.6233 77.2005 28.5201 70.1513 37.5331 66.2253C39.3031 65.4531 41.4897 65.0905 41.6336 62.2304C41.669 61.5618 43.6289 60.9898 44.6699 60.3931C41.5076 59.0033 41.2053 57.9442 42.8 53.6337C43.7942 50.9441 47.1086 49.2341 49.7972 50.0334C53.1189 51.0189 55.315 53.9697 55.4903 57.7212C55.5245 58.5009 55.5097 59.2865 55.5235 60.5342C58.5691 58.6049 61.2164 59.0664 64.1021 60.3673C65.6843 61.0786 67.792 60.6969 69.6561 60.6451C89.5229 60.0523 109.393 59.4271 129.257 58.8121C129.522 58.8015 129.793 58.8352 130.058 58.8246C137.939 58.6287 136.454 60.2614 137.615 51.9812C138.946 42.5051 139.443 32.9095 140.355 23.3679C140.612 20.6672 141.035 17.9783 141.393 15.2881C141.624 13.5465 142.636 12.7501 144.343 12.8678C150.303 13.2917 156.255 13.7367 162.214 14.1606C164.579 14.3249 164.562 16.0941 164.434 17.7261C164.009 23.0439 163.493 28.3523 162.967 33.6596C162.749 35.8178 162.397 37.9621 162.151 40.1229C161.924 42.1052 160.933 42.8984 158.919 42.7762C156.52 42.6301 154.091 42.6231 151.698 42.8439C150.909 42.9148 149.629 43.7982 149.542 44.4504C148.908 49.0032 148.525 53.5875 148.033 58.4502C154.481 58.362 160.499 58.2618 166.519 58.1946C174.448 58.1076 182.381 57.9882 190.311 57.9997C195.747 58.0083 201.196 58.0402 206.621 58.3702C217.139 59.0065 225.751 64.2052 233.82 70.5608C240.697 75.9724 245.309 82.9571 247.292 91.5212C248.136 95.1674 248.727 99.0661 248.428 102.768C247.053 119.919 245.331 137.04 243.71 154.171C243.519 156.168 242.394 157.379 240.484 158.049C229.272 161.981 218.087 165.965 206.892 169.942C194.529 174.334 182.268 179.048 169.764 182.965C164.768 184.528 163.226 187.198 163.099 192.017C162.939 198.073 162.386 204.126 161.823 210.162C160.778 221.505 159.561 232.829 158.505 244.17C158.06 248.945 157.823 253.736 157.537 258.527C157.2 264.149 150.876 267.535 146.041 267.289C142.193 267.09 136.181 262.714 136.767 256.817C137.739 246.998 138.679 237.181 139.522 227.353C140.063 221.053 140.374 214.728 140.862 208.422C141.171 204.458 141.631 200.505 141.999 196.543C142.081 195.682 142.083 194.813 142.138 193.573L142.151 193.552ZM71.0582 87.8914C70.9558 87.8917 70.8556 87.8703 70.7618 87.8387L70.6577 87.6966C70.9442 86.8355 71.2259 85.9684 71.5124 85.1073L71.5262 85.1306C71.2365 84.3735 70.9467 83.6163 70.6569 82.8592L70.7631 81.8098C70.3366 81.9786 70.0386 82.1006 69.7359 82.2166C69.5147 82.3794 69.2887 82.5363 69.0675 82.6991L69.0835 82.7007C68.9353 82.6744 68.7913 82.6594 68.6426 82.6384C68.9965 81.6969 69.3445 80.7602 69.9487 79.156C67.0012 81.7132 64.5145 83.8701 61.4794 86.4947C63.1558 87.0738 64.0147 87.371 64.8684 87.6676C65.7677 87.406 66.673 87.1395 67.5776 86.8784C67.527 87.2722 67.4764 87.6659 67.4263 88.0542C67.1271 88.4549 66.8285 88.8501 66.1728 89.7384C67.1006 89.4087 67.4807 89.2734 67.8555 89.1375C68.0503 89.5021 68.2397 89.8662 68.434 90.2363C68.9361 90.1191 69.4383 90.002 69.9405 89.8848C70.1409 89.7144 70.3408 89.5494 70.5413 89.3789C70.7359 89.2134 70.9299 89.0532 71.1244 88.8876C71.3179 88.7329 71.506 88.5775 71.7001 88.4174C71.7906 88.2683 71.8811 88.1192 71.9775 87.9653C71.6677 87.9385 71.3632 87.9122 71.0534 87.8854L71.0582 87.8914ZM63.9536 79.9363L63.9775 79.9662L63.3719 80.4661C63.1726 80.6257 62.9785 80.7859 62.7792 80.9455C62.3497 81.6223 61.9202 82.299 61.4966 82.971C61.8515 82.8713 62.2123 82.7667 62.5672 82.6671C62.5967 82.4296 62.6314 82.1927 62.6614 81.9499C62.6964 81.6037 62.7309 81.2629 62.7606 80.9162C62.96 80.7566 63.154 80.5964 63.3533 80.4368C63.5532 80.2718 63.759 80.1019 63.9589 79.9369L63.9536 79.9363ZM226.602 149.924C223.504 150.771 220.406 151.623 217.303 152.47C217.409 152.803 217.521 153.137 217.627 153.471C220.614 152.284 223.605 151.104 226.592 149.917C229.355 149.177 232.113 148.437 234.877 147.697L234.626 146.879C231.953 147.896 229.274 148.912 226.601 149.929L226.602 149.924ZM231.392 91.9477C227.627 91.6156 224.057 92.1184 220.944 94.6146C224.419 93.7139 227.889 92.8072 231.364 91.9065C233.87 91.7904 236.377 91.6742 238.997 91.5482C239.003 91.4394 239.02 90.8947 239.05 89.9577C236.311 90.6672 233.854 91.3077 231.392 91.9477ZM172.732 133.944C177.946 132.946 183.156 131.947 188.37 130.949C188.308 130.653 188.241 130.361 188.179 130.065C183.017 131.342 177.856 132.614 172.694 133.891C167.324 134.939 161.954 135.981 156.59 137.029C156.645 137.275 156.696 137.521 156.751 137.773C162.08 136.497 167.403 135.226 172.732 133.95L172.732 133.944ZM105.681 135.712C106.173 135.326 106.669 134.945 107.296 134.453C104.265 134.793 101.48 135.11 98.2593 135.469C98.3748 135.978 98.5583 136.987 98.8764 137.944C98.9055 138.029 99.7881 137.825 100.423 137.733C99.818 137.424 99.3977 137.211 98.9775 136.998C98.9893 136.775 98.9952 136.557 99.007 136.334C101.243 136.119 103.485 135.898 105.722 135.683C103.292 137.114 100.863 138.544 98.2446 140.086C100.951 139.488 103.585 138.904 106.562 138.241C106.253 137.351 105.965 136.528 105.677 135.7L105.681 135.712ZM141.266 183.659C135.558 185.071 129.848 186.488 124.14 187.899C123.351 187.915 122.568 187.938 121.779 187.954C121.751 187.65 121.723 187.341 121.694 187.038C146.499 180.668 171.299 174.298 196.104 167.933C196.039 167.664 195.969 167.395 195.905 167.131C185.478 169.696 175.26 173.229 164.578 174.587C169.223 169.632 175.947 170.589 181.341 167.768C176.259 168.949 171.177 170.131 166.1 171.307C166.035 171.049 165.97 170.786 165.899 170.527C167.154 170.056 168.409 169.58 169.669 169.11C177.505 167.281 185.341 165.451 193.178 163.622C190.302 163.656 187.548 164.249 184.829 164.977C179.773 166.325 174.736 167.752 169.692 169.145C168.56 169.202 167.434 169.255 166.302 169.312C166.273 169.068 166.243 168.83 166.219 168.587C168.426 167.975 170.633 167.358 172.834 166.745C172.799 166.61 172.764 166.481 172.723 166.345C169.461 167.121 166.198 167.896 162.935 168.671C162.87 168.407 162.811 168.139 162.746 167.875C164.561 167.348 166.377 166.821 168.187 166.294C168.151 166.11 168.111 165.925 168.075 165.747C166.431 165.963 164.788 166.175 163.144 166.392C163.117 166.236 163.094 166.086 163.067 165.93C170.046 164.05 177.02 162.169 184 160.288C187.306 159.354 190.606 158.418 193.912 157.484C197.017 156.829 200.123 156.168 203.228 155.513C203.183 155.323 203.132 155.132 203.087 154.941C202.313 154.921 201.539 154.9 200.771 154.875L200.783 154.914C201.628 154.45 202.424 153.823 203.324 153.556C209.974 151.57 216.64 149.646 223.311 147.728C224.116 147.495 224.969 147.425 225.798 147.276C225.825 147.482 225.852 147.692 225.885 147.898L219.231 150.353C219.284 150.512 219.333 150.67 219.387 150.828C223.568 149.444 227.744 148.059 231.926 146.674C228.523 146.538 225.251 146.979 222.004 147.548C220.791 147.761 219.632 148.301 218.438 148.658C211.281 150.799 204.115 152.922 196.955 155.051L197.022 155.025C191.843 156.317 186.663 157.609 181.484 158.895C178.565 159.575 175.605 160.125 172.742 160.996C171.313 161.432 170.057 162.449 168.725 163.207C167.815 163.528 166.919 163.915 165.989 164.157C163.516 164.796 160.813 164.132 158.573 164.495C152.082 165.54 145.144 165.894 139.893 170.715C141.006 170.58 142.212 170.432 143.418 170.279C143.467 170.541 143.515 170.808 143.57 171.071C142.258 171.47 140.957 171.914 139.629 172.262C136.713 173.018 133.785 173.73 130.861 174.459C126.145 175.695 121.424 176.93 116.708 178.166C115.377 178.274 114.046 178.387 112.715 178.494L112.748 178.541C113.398 177.975 114.048 177.408 114.988 176.588C109.551 178.29 104.499 179.868 99.4516 181.452C99.4333 181.314 99.4155 181.17 99.3972 181.031C102.264 179.275 105.125 177.518 108.681 175.335C104.528 176.28 101.169 177.045 97.811 177.805C97.7387 177.508 97.6658 177.216 97.5935 176.919C100.345 176.134 103.093 175.344 105.845 174.559C105.808 174.44 105.772 174.322 105.736 174.198C102.158 174.995 98.5751 175.791 94.9976 176.588C94.94 176.358 94.883 176.123 94.8255 175.893C100.613 174.233 106.407 172.573 112.195 170.908C112.153 170.734 112.106 170.565 112.064 170.391C108.54 171.243 105.016 172.095 101.492 172.947C101.416 172.638 101.334 172.329 101.258 172.02C106.454 170.506 111.65 168.998 116.852 167.484C109.847 168.766 102.936 170.392 96.0524 172.129C95.5545 172.257 94.9495 173.124 94.8909 173.702C94.6222 176.358 94.524 179.032 94.3627 181.797C95.822 181.539 96.7937 181.361 98.253 181.104C96.6632 183.13 92.9061 181.815 93.5848 185.597C94.8341 185.497 95.964 185.407 97.0997 185.312C97.1381 185.519 97.1765 185.725 97.2149 185.931C95.9625 186.38 94.7096 186.835 93.4572 187.283C93.4967 187.479 93.5308 187.674 93.5703 187.869C95.8139 187.529 98.0521 187.188 100.296 186.842C100.355 187.111 100.414 187.385 100.467 187.653C98.2296 188.256 95.9971 188.86 93.8201 189.448C93.7961 190.27 93.7695 191.066 93.7428 192.074C95.3184 191.626 96.9105 191.174 98.508 190.723C100.356 190.188 102.205 189.654 104.047 189.124L105.844 189.311C105.868 189.5 105.886 189.693 105.91 189.881C105.044 190.349 104.178 190.816 103.312 191.278C101.841 191.649 100.37 192.021 98.8999 192.387C97.9817 192.516 97.0576 192.649 95.9041 192.813C96.6256 193.085 97.0822 193.258 98.2032 193.681C96.2027 194.282 94.8576 194.688 93.5072 195.094C93.576 195.32 93.6399 195.54 93.7087 195.766C96.465 194.938 99.2213 194.11 101.978 193.282C106.056 191.952 110.136 190.617 114.214 189.287C116.221 188.78 118.229 188.267 120.236 187.76C120.305 187.937 120.378 188.114 120.447 188.291C118.045 189.445 115.644 190.6 113.248 191.755C113.296 191.869 113.349 191.984 113.396 192.099C116.982 190.69 120.573 189.277 124.159 187.868C129.868 186.457 135.577 185.04 141.286 183.629L151.293 181.856C151.21 181.508 151.132 181.161 151.048 180.814C147.8 181.765 144.552 182.712 141.304 183.663L141.266 183.659ZM55.5478 82.335C55.9857 82.3205 56.4236 82.306 56.8663 82.2974L57.0725 81.7504C53.2801 80.2513 49.4877 78.7522 45.7007 77.2536C43.3824 76.5749 41.9775 72.5149 38.7131 75.3288C38.1342 75.8315 37.4999 76.2957 36.8275 76.6574C31.4759 79.5436 28.2428 84.0716 26.5524 89.9136C27.3849 90.525 28.0918 91.0468 28.7886 91.5622C28.2259 92.5967 27.7093 93.5487 27.1729 94.5368L25.6906 94.3824C26.0714 96.2095 26.4112 97.8573 26.7267 99.3714C26.748 99.3737 26.2091 99.2683 25.2528 99.0813C26.1845 99.8834 26.764 100.387 27.7703 101.251C26.6759 101.044 26.1423 100.939 25.106 100.744C26.2564 101.569 26.9751 102.081 27.9445 102.778C26.7294 103.231 25.6825 103.619 24.6079 104.015L24.4322 105.752C25.7975 106.369 26.9098 106.879 28.028 107.383C27.9981 107.572 27.9689 107.754 27.939 107.943C26.7798 108.057 25.6259 108.172 25.2231 108.212C24.8062 110.202 24.756 112.082 24.008 113.617C23.0219 115.64 22.8385 119.103 24.1825 120.73C21.7391 121.82 21.9019 124.63 25.0664 127.009C22.4033 126.065 22.1512 127.438 22.059 129.041C21.9105 131.573 21.601 134.099 21.5875 136.628C21.582 137.906 22.0827 139.188 22.3624 140.524C22.3891 140.527 21.9927 140.556 21.3675 140.612C21.8851 141.141 22.3048 141.573 22.8313 142.12C22.165 142.209 21.7712 142.266 21.0115 142.373C23.0122 143.527 24.7073 144.507 26.4023 145.487C26.33 145.616 26.2624 145.751 26.1901 145.88C24.5157 145.176 22.8465 144.471 20.5568 143.512C20.7219 146.032 20.8517 147.997 20.9917 150.182C21.2885 150.07 20.8908 150.22 20.4204 150.395C21.2513 151.023 21.9071 151.518 23.1538 152.456C21.7278 152.171 21.0572 152.036 20.0594 151.834C20.2983 156.554 17.9356 161.052 20.0928 165.611C20.0704 165.62 19.7166 165.709 19.208 165.836C19.9578 166.466 20.4942 166.916 21.5272 167.783C20.3245 167.581 19.7359 167.487 18.9256 167.348C19.5605 169.327 20.1006 171.018 20.6127 172.613C20.455 172.574 19.9081 172.441 18.9199 172.196C20.8958 174.074 23.2732 174.382 24.4449 177.073C25.2099 178.831 28.7291 179.356 31.0127 180.43C33.349 182.155 34.8452 185.153 38.2187 185.307C43.8659 187.273 49.5184 189.239 55.1651 191.21C55.0833 191.486 55.0015 191.761 54.9197 192.037C53.1028 191.569 51.2912 191.102 49.4743 190.634L49.3365 191.089C59.818 196.078 70.3001 201.062 80.9925 206.149C81.3027 205.001 81.4745 204.581 81.5183 204.149C82.8688 190.379 84.2406 176.611 85.4792 162.829C85.5962 161.513 84.8591 160.118 84.6025 159.086C85.1332 158.474 85.7875 157.706 86.0432 157.416C84.8703 156.228 84.1665 155.515 83.4628 154.802C83.6051 154.62 83.7474 154.438 83.8898 154.256C84.6361 154.389 85.3777 154.515 86.156 154.651C86.7915 148.371 87.4592 142.253 87.9664 136.124C88.0285 135.404 87.2034 134.613 86.9666 134.183C87.478 133.816 88.4475 133.447 88.4468 133.08C88.4335 131.029 90.1612 128.706 87.6493 127.012C88.1851 126.669 89.0921 126.332 89.071 126.061C88.8953 123.485 88.5622 120.92 88.3334 118.868C88.9377 118.062 89.5859 117.566 89.6888 116.976C89.8907 115.833 89.9499 114.609 89.7742 113.47C89.5565 112.054 88.2772 110.16 88.7917 109.389C90.6663 106.572 88.1083 106.612 86.9264 105.991C85.1352 105.056 84.5429 103.562 84.3572 101.723C85.5255 101.626 86.6991 101.529 87.9981 101.418C87.6652 100.608 87.4019 99.9625 87.139 99.312C84.4294 100.637 82.5836 100.188 80.2852 98.0352C79.6207 97.4139 78.574 97.1082 77.6449 96.9185C76.2989 96.6416 74.9022 96.6 73.4626 96.4501C75.4146 97.5006 77.2797 98.5038 79.1496 99.513C78.6286 99.7102 78.1075 99.9073 77.5811 100.104C78.0003 100.754 78.4199 101.399 78.839 102.05L78.6161 102.655C75.2411 101.238 71.8714 99.8208 68.497 98.398C69.8632 98.4748 71.2294 98.5515 72.5956 98.6282C72.7438 98.4413 72.8921 98.2546 73.0403 98.0677C71.9407 97.3793 70.9085 96.4519 69.7152 96.1035C69.1764 95.9435 68.3067 96.9243 67.5866 97.3849C65.5376 95.2694 63.4829 93.1587 61.4728 91.0854C61.7485 91.0759 62.1545 91.0581 62.0627 91.0594C60.1706 89.3647 58.0459 87.4653 55.9207 85.5714C55.7976 84.4982 55.6745 83.425 55.5461 82.3512L55.5478 82.335ZM175.479 138.587C168.021 140.084 160.564 141.575 153.111 143.073C153.19 143.415 153.263 143.756 153.341 144.103C160.711 142.252 168.086 140.397 175.456 138.546C178.769 137.973 182.114 137.55 185.38 136.797C190.302 135.659 195.177 134.281 200.069 133.009C197.452 133.097 194.983 133.753 192.507 134.369C186.835 135.785 181.155 137.183 175.478 138.592L175.479 138.587ZM172.843 175.497C180.99 174.427 188.706 171.76 196.501 169.379C196.447 169.172 196.388 168.958 196.333 168.75C188.489 170.977 180.645 173.205 172.801 175.432C166.313 177.135 159.826 178.837 153.334 180.538C153.409 180.808 153.483 181.084 153.558 181.354C156.276 180.593 159.015 179.883 161.712 179.055C165.437 177.912 169.129 176.684 172.838 175.491L172.843 175.497ZM165.589 145.75C162.618 146.244 159.643 146.732 156.673 147.226C156.623 146.97 156.574 146.713 156.525 146.451C159.726 145.697 162.928 144.943 166.129 144.194C166.108 144.077 166.083 143.954 166.063 143.837C163.358 144.157 160.653 144.471 157.752 144.814C155.636 145.55 153.2 146.4 150.77 147.251C151.844 147.287 152.874 146.913 153.883 146.952C154.5 146.978 155.089 147.646 155.693 148.021C152.683 148.533 149.673 149.039 146.664 149.551C146.704 149.741 146.743 149.936 146.783 150.126C148.994 149.734 151.211 149.336 153.423 148.943C153.491 149.229 153.559 149.509 153.627 149.795C148.761 151.076 143.896 152.356 139.036 153.632C139.096 153.841 139.155 154.049 139.214 154.263C153.207 150.916 167.199 147.568 181.191 144.227C181.158 144.076 181.125 143.919 181.092 143.768C172.424 145.664 163.751 147.565 154.494 149.59C155.159 148.665 155.403 148.324 155.649 147.978C158.952 147.223 162.256 146.474 165.56 145.72C168.558 145.163 171.556 144.606 174.56 144.05C174.5 143.792 174.444 143.54 174.384 143.283C171.45 144.108 168.517 144.929 165.583 145.755L165.589 145.75ZM227.3 136.692C228.197 136.824 229.126 137.172 229.98 137.042C231.989 136.732 233.967 136.19 235.958 135.741C238.418 135.123 240.873 134.504 243.421 133.867C241.855 131.19 240.031 132.339 238.326 132.785C230.566 134.819 222.81 136.864 215.053 138.92C214.66 139.027 214.298 139.246 213.921 139.409C213.964 139.512 214.008 139.615 214.045 139.723C218.463 138.713 222.882 137.702 227.3 136.692ZM197.172 141.83C187.721 144.07 178.258 146.261 168.817 148.562C163.553 149.845 158.325 151.296 153.078 152.668C148.926 153.438 144.78 154.209 140.629 154.979C140.68 155.219 140.731 155.459 140.782 155.705C144.873 154.683 148.964 153.655 153.055 152.633C155.141 152.249 157.25 151.96 159.31 151.458C171.985 148.351 184.65 145.188 197.312 142.041C199.086 141.816 200.86 141.591 202.634 141.366C202.67 141.544 202.706 141.718 202.742 141.896C199.172 142.989 195.597 144.087 192.027 145.18C191.234 145.289 190.427 145.331 189.655 145.507C174.882 148.959 160.113 152.417 145.348 155.897C142.351 156.601 139.372 157.389 136.387 158.134L136.583 158.968C147.949 156.337 159.315 153.705 170.681 151.074L170.897 152.075C159.027 154.954 147.156 157.834 135.286 160.714C135.334 160.926 135.388 161.14 135.436 161.352C146.676 158.642 157.92 155.932 169.159 153.228L169.375 154.07C163.249 155.722 157.128 157.375 151 159.032C158.538 157.708 165.982 156.023 173.388 154.187C180.65 152.391 187.873 150.443 195.111 148.562C195.184 148.854 195.258 149.141 195.325 149.432C191.581 150.485 187.838 151.538 184.095 152.586C184.154 152.8 184.213 153.019 184.272 153.233C190.365 151.594 196.638 150.41 202.465 148.093C204.722 147.197 206.914 145.61 209.392 144.863C212.055 144.058 214.716 143.264 217.378 142.464C217.334 142.317 217.289 142.17 217.25 142.024C211.837 143.385 206.424 144.75 201.012 146.111L200.777 145.239C202.579 144.623 204.382 144.007 206.185 143.386C209.436 142.675 212.687 141.964 215.938 141.248C215.876 141.012 215.814 140.771 215.752 140.535C212.572 141.499 209.393 142.463 206.213 143.427C205.594 143.472 204.948 143.421 204.356 143.573C197.009 145.415 189.673 147.302 182.32 149.143C178.998 149.978 175.662 150.729 172.327 151.524C172.255 151.227 172.176 150.935 172.104 150.637C174.363 149.987 176.609 149.303 178.879 148.697C183.265 147.525 187.658 146.398 192.052 145.254C197.83 143.904 203.613 142.55 209.634 141.144C208.682 140.066 206.405 142.07 207.468 139.065C203.813 140.045 200.479 140.939 197.15 141.833L197.172 141.83ZM158.593 135.172C159.825 135.038 161.077 135.015 162.278 134.752C176.119 131.733 189.946 128.68 203.779 125.634C205.862 125.173 207.938 124.678 210.018 124.201C202.939 125.153 195.967 126.536 189.03 128.104C178.877 130.403 168.749 132.835 158.611 135.206C157.203 135.278 155.795 135.35 154.392 135.423C154.367 135.191 154.337 134.958 154.312 134.72C159.193 133.611 164.074 132.501 168.955 131.392C168.908 131.212 168.868 131.027 168.821 130.848C162.777 132.164 156.739 133.475 150.695 134.792C150.709 134.919 150.717 135.051 150.731 135.178L152.888 135.162C152.94 135.392 152.993 135.621 153.039 135.856C150.635 136.502 148.226 137.147 145.822 137.793C145.878 137.991 145.933 138.193 145.988 138.39C150.191 137.319 154.395 136.243 158.599 135.172L158.593 135.172ZM161.783 125.113C154.919 126.328 148.061 127.543 141.198 128.752C141.249 129.053 141.299 129.353 141.349 129.653C145.057 128.957 148.769 128.267 152.477 127.571C152.525 127.888 152.579 128.205 152.628 128.521C148.801 129.386 144.975 130.244 140.95 131.153C141.344 131.358 141.509 131.534 141.636 131.503C148.954 129.954 156.268 128.392 163.577 126.814C164.09 126.703 165.012 126.422 165.001 126.268C164.853 123.848 166.862 124.598 167.981 124.185C169.034 123.791 170.188 123.676 171.301 123.437C171.256 123.241 171.216 123.046 171.172 122.85C168.029 123.61 164.881 124.37 161.737 125.136L161.783 125.108L161.783 125.113ZM199.847 110.504L203.903 109.074L203.835 108.788C200.852 109.357 197.874 109.927 194.89 110.496C194.91 110.619 194.935 110.747 194.955 110.869C195.381 110.974 195.807 111.073 196.228 111.177C194.096 111.747 191.988 112.451 189.829 112.855C185.408 113.685 180.954 114.358 176.515 115.098C176.543 115.292 176.572 115.492 176.606 115.687C178.824 115.333 181.036 114.984 183.254 114.63C183.298 114.892 183.347 115.148 183.391 115.41C176.479 116.838 169.571 118.272 162.659 119.7C162.688 119.84 162.717 119.979 162.746 120.119C171.483 118.493 180.226 116.867 188.963 115.236L189.122 115.908C188.15 116.244 187.179 116.58 186.206 116.922L186.298 117.243C188.699 116.788 191.099 116.333 193.494 115.882C193.462 115.721 193.43 115.559 193.402 115.403C192.561 115.468 191.724 115.534 190.883 115.594C190.846 115.372 190.809 115.149 190.767 114.926C205.146 111.914 219.52 108.896 233.898 105.885C233.863 105.706 233.827 105.527 233.792 105.343C222.498 107.638 211.203 109.938 199.749 112.265C199.792 111.526 199.817 111.009 199.847 110.499L199.847 110.504ZM123.194 158.754C123.263 158.811 123.333 158.867 123.397 158.929C124.226 161.169 125.638 161.217 127.594 160.317C129.928 159.243 132.411 158.501 134.781 157.502C135.383 157.247 136.112 156.645 136.263 156.065C136.82 153.91 137.312 151.714 137.552 149.504C138.377 141.823 139.129 134.134 139.816 126.438C140.109 123.173 140.167 119.883 140.339 116.479C138.395 117.321 136.953 119.373 134.675 117.873C135.014 117.291 135.289 116.811 135.832 115.867C134.317 115.983 133.259 115.944 132.267 116.168C131.434 116.355 130.617 117.238 129.89 117.129C127.666 116.799 127.059 117.791 127.017 119.809C126.968 122.203 126.844 124.606 126.507 126.971C126.398 127.735 125.523 128.388 124.994 129.092L121.004 128.535C120.535 127.846 119.642 127.141 119.666 126.477C119.768 123.711 120.149 120.957 120.429 118.188C119.497 118.457 118.592 118.723 117.692 118.985C117.593 118.74 117.494 118.494 117.394 118.254C118.31 117.672 119.232 117.085 120.776 116.098C119.026 116.566 118.038 117.059 117.053 117.055C113.826 117.041 113.472 117.458 114.217 120.897C115.644 120.701 117.081 120.501 119.458 120.169C118.621 123.225 117.969 125.617 117.285 128.12C116.268 128.271 115.086 128.448 113.844 128.636C113.879 127.541 113.904 126.817 113.929 126.092L113.206 126.044L110.611 151.683C113.463 150.663 115.878 151.237 115.833 153.058C115.783 155.102 115.055 157.125 114.623 159.163C114.787 159.349 114.947 159.53 115.111 159.716C116.122 158.936 117.134 158.151 118.105 157.394C119.768 157.84 121.478 158.297 123.194 158.754ZM107.956 102.59L110.003 102.803C109.996 102.983 109.982 103.167 109.975 103.347C106.786 103.927 103.591 104.507 100.402 105.088C100.421 105.221 100.44 105.354 100.453 105.492C102.851 105.217 105.255 104.943 107.654 104.663C107.687 104.868 107.715 105.074 107.748 105.279C105.427 105.743 103.106 106.211 100.076 106.82C101.352 107.144 101.83 107.265 102.593 107.453C101.832 107.943 101.313 108.277 100.374 108.879C102.291 108.624 103.667 108.44 105.044 108.255C105.067 108.449 105.091 108.643 105.109 108.836C103.784 109.261 102.458 109.686 101.005 110.147C103.933 110.452 106.659 110.878 109.397 110.972C111.164 111.035 112.947 110.614 114.724 110.411C114.755 110.682 114.787 110.959 114.819 111.23C111.609 111.639 108.404 112.109 105.183 112.418C104.296 112.501 103.362 112.092 102.38 111.897C102.115 112.23 101.487 112.739 101.253 113.397C101.087 113.867 101.33 114.603 101.629 115.06C101.736 115.224 102.543 114.92 103.032 114.829C102.251 112.796 104.101 113.574 104.737 113.361C105.814 112.993 107.013 112.921 108.169 112.888C110.423 112.817 112.716 113.105 114.926 112.777C117.305 112.429 119.598 111.493 121.952 110.918C123.554 110.528 125.198 110.311 126.822 110.015C126.795 109.909 126.769 109.802 126.741 109.701C124.554 109.959 122.367 110.224 120.18 110.482C120.137 110.215 120.094 109.949 120.05 109.687C122.529 109.153 125.013 108.619 127.492 108.079C127.459 107.879 127.431 107.679 127.397 107.479C126.005 107.602 124.619 107.725 123.227 107.848C123.038 107.588 122.843 107.327 122.654 107.067C128.423 107.886 128.429 103.246 130.083 100.161C130.295 99.7675 130.626 99.4248 130.781 99.0092C131.779 96.3418 133.293 93.7283 133.615 90.9742C134.703 81.6587 135.28 72.2845 136.241 62.9504C136.47 60.6894 135.814 60.1401 133.754 60.0567C125.86 59.7374 118.04 61.1367 110.163 60.9722C109.19 60.9528 108.207 60.7138 107.249 60.8053C102.294 61.2622 97.3485 61.895 92.3865 62.2637C88.184 62.5803 83.9609 62.6214 79.7413 62.7887C79.6778 62.9898 79.6191 63.1968 79.5557 63.3979C82.2174 64.8886 84.8791 66.3793 87.2549 67.7144C85.038 69.2818 83.023 70.7172 81.0033 72.1467C81.143 72.3635 81.2886 72.5754 81.4283 72.7922C82.5655 72.7357 83.7027 72.6792 84.84 72.6228C84.8502 72.7878 84.8658 72.9534 84.8766 73.1131C84.2706 73.3506 83.6593 73.5875 82.9466 73.8686C83.6912 75.6679 84.6952 76.3956 86.542 76.0359C87.1413 75.9179 87.8957 76.6087 88.5803 76.926C88.2702 77.5933 87.9549 78.2601 87.6449 78.9275C88.3614 79.0349 89.0788 79.2408 89.7919 79.2222C91.0026 79.1843 92.2069 78.9981 93.4157 78.8726C93.9061 79.6179 94.9558 80.7985 94.7824 81.021C94.1172 81.8973 93.0565 82.4755 92.2982 83.047C93.522 82.934 95.1367 83.0038 96.6179 82.5841C97.9874 82.202 99.2284 80.3744 100.692 83.0522C97.8689 83.4796 95.2043 83.8799 93.1198 84.193C94.1603 86.0505 95.2422 87.9778 96.4287 90.0965C96.9769 90.1099 98.0462 90.1392 99.1101 90.1681C99.1167 90.3163 99.1232 90.4646 99.1297 90.6128C98.2308 90.9237 97.3318 91.2346 96.4377 91.5514C96.4631 91.6196 96.4944 91.683 96.5198 91.7512C97.7906 91.5994 99.0673 91.4426 100.66 91.2532C99.4831 92.5518 98.6043 93.5152 97.7737 94.429C98.86 94.4492 100.162 94.47 101.894 94.5028C100.935 95.0807 100.401 95.4077 99.4021 96.0143C100.785 96.0818 101.584 96.1213 102.383 96.1608C102.398 96.2771 102.413 96.3935 102.429 96.5098C101.289 96.9597 100.15 97.4095 98.5728 98.0323C103.971 97.299 108.86 96.6385 113.744 95.9721C113.784 96.266 113.819 96.5593 113.859 96.8586C109.381 97.4472 104.909 98.0363 100.431 98.6248C100.46 98.8684 100.489 99.1119 100.518 99.3609C101.961 99.1067 103.404 98.8525 104.847 98.5983C104.89 98.8105 104.928 99.0221 104.97 99.2397C103.806 99.5612 102.637 99.8822 101.378 100.232C101.62 100.613 101.825 100.929 102.039 101.263C101.444 101.502 100.871 101.732 100.243 101.978C100.669 102.235 101.014 102.446 101.415 102.69C100.909 103.058 100.501 103.36 100.088 103.662C100.133 103.808 100.171 103.96 100.216 104.107C102.805 103.6 105.394 103.088 107.989 102.582L107.932 102.615L107.956 102.59ZM148.928 75.6956C150.434 76.5685 150.091 77.0356 148.623 77.4294C147.516 77.724 146.45 78.1923 145.108 78.6757C145.11 77.7467 145.031 76.6125 145.128 75.4966C146.063 64.7659 147.008 54.0417 148.045 43.3216C148.106 42.7158 148.983 41.7686 149.548 41.7236C151.489 41.5486 153.464 41.6832 155.42 41.7393C160.471 41.8719 160.855 41.5402 161.361 36.4877C161.443 35.6763 161.557 34.8683 161.639 34.057C162.101 29.4918 162.563 24.9267 163.026 20.3561C162.805 20.4096 162.589 20.4691 162.368 20.5226C161.588 19.709 160.803 18.8947 159.92 17.9775C160.648 17.8728 161.205 17.7943 161.763 17.7103C161.768 17.5577 161.773 17.4051 161.777 17.258C158.776 16.7706 155.776 16.2832 152.781 15.7963C152.789 15.7206 152.796 15.6503 152.803 15.5746L158.13 15.386C158.127 15.2052 158.124 15.0191 158.121 14.8384C153.098 14.7362 148.082 14.6346 142.936 14.525L142.424 19.5824C144.477 19.6923 146.326 19.7919 148.175 19.8916C146.835 20.3479 145.491 20.585 144.192 20.4333C142.206 20.1991 141.72 21.2145 141.63 22.9104C141.494 25.4708 141.327 28.0278 141.079 30.582C140.16 40.0407 139.214 49.4967 138.246 58.9504C137.289 68.3014 136.113 77.635 135.391 86.9996C135.007 91.9664 134.276 96.5308 131.365 100.797C128.418 105.114 128.891 110.335 128.722 115.198C129.808 115.071 130.468 114.882 131.115 114.933C136.376 115.334 137.8 113.985 138.533 108.764C139.046 105.139 139.417 101.204 141.114 98.123C142.961 94.7735 144.281 91.5876 144.418 87.7812C144.505 85.2705 144.892 82.7746 145.146 80.2702C145.921 80.5969 146.138 80.8983 146.15 81.2057C146.232 83.8051 146.265 86.4049 146.336 89.0086C146.366 90.0994 146.551 91.1955 146.469 92.2746C146.429 92.828 145.956 93.3472 145.676 93.881C146.327 94.1019 146.983 94.3233 147.207 94.4013C145.882 95.1979 144.309 96.1546 142.731 97.1053C142.871 97.3714 143.011 97.6374 143.151 97.9034C144.265 97.7571 145.384 97.6167 146.498 97.4703C146.516 97.6143 146.534 97.7529 146.552 97.8968C145.192 98.2854 143.827 98.6735 142.468 99.0675C142.493 99.185 142.524 99.303 142.55 99.4259C143.278 99.4197 144.005 99.419 144.733 99.4128L144.742 99.8019C143.715 100.001 142.688 100.195 141.99 100.33C141.778 101.193 141.609 101.902 141.436 102.606C141.725 102.674 142.299 102.805 142.499 102.853C141.8 103.956 141.133 105.018 140.298 106.341C141.862 106.329 142.892 106.316 143.928 106.309C143.955 106.459 143.983 106.61 144.011 106.766C142.786 107.152 141.561 107.544 140.593 107.847C142.392 108.221 144.305 108.966 146.207 108.919C148.583 108.86 150.945 108.155 153.31 107.729C153.153 107.521 152.996 107.319 152.839 107.111C153.2 106.794 153.523 106.264 153.929 106.192C157.964 105.459 162.017 104.804 166.061 104.132C167.338 103.921 168.624 103.732 169.905 103.532C169.884 103.415 169.864 103.298 169.843 103.181C167.77 103.386 165.701 103.597 163.627 103.802C163.596 103.526 163.559 103.254 163.527 102.977C166.111 102.629 168.708 102.364 171.275 101.92C179.507 100.487 187.733 99.0211 195.949 97.4828C196.981 97.2897 198.295 96.8744 198.842 96.1006C200.043 94.4001 201.392 94.863 202.889 95.1938C203.695 95.3707 204.607 95.6242 205.346 95.4006C206.947 94.9168 208.415 93.8782 210.037 93.5606C213.973 92.7845 217.954 92.2644 221.924 91.6886C228.41 90.7407 234.909 89.8324 241.535 88.8882C241.112 89.8718 240.794 90.6202 240.504 91.2952C241.966 90.6932 243.203 90.1879 244.007 89.8562C244.041 88.9907 244.068 88.2993 244.097 87.5262C243.579 87.3739 242.884 87.1648 242.083 86.9284C242.756 86.2988 243.262 85.8267 243.767 85.3547C243.687 85.1332 243.602 84.9165 243.522 84.695C241.852 84.7944 240.182 84.8992 238.518 84.9992C238.487 84.8265 238.456 84.6484 238.425 84.4758C239.839 84.0819 241.253 83.688 242.667 83.2941C242.618 83.0321 242.569 82.7702 242.52 82.5027C240.654 82.7347 238.783 82.9661 236.917 83.1927C236.882 82.9486 236.853 82.7105 236.818 82.4664C238.449 82.1061 240.081 81.7404 241.961 81.3239C241.339 80.4447 240.994 79.8075 240.511 79.3036C237.851 76.5177 235.161 73.7614 232.478 70.9949C229.838 68.2767 226.135 67.2788 223.139 65.0428C220.469 63.0484 217.275 61.7099 213.626 61.4502C209.037 61.1198 204.526 59.4256 199.943 59.2434C190.948 58.8914 181.931 59.1329 172.925 59.2116C165.612 59.2753 158.298 59.4591 150.986 59.6159C149.448 59.647 147.91 59.6672 147.717 61.8882C147.315 66.5033 146.806 71.1073 146.292 76.1863C147.512 75.9472 148.244 75.7993 148.98 75.6573L148.923 75.6896L148.928 75.6956ZM90.5226 209.891C90.6654 208.479 90.8129 207.341 90.8964 206.197C91.6841 194.74 92.242 183.265 93.2857 171.835C94.9101 154.081 96.9189 136.362 98.6712 118.622C100.071 104.42 97.2103 91.4241 87.5452 80.5514C84.2998 76.8956 81.0269 73.1385 75.7711 72.6293C75.5802 73.238 75.1646 73.8834 75.3277 74.1355C76.9645 76.5962 78.3122 79.4641 80.4968 81.3041C84.2645 84.4841 85.9582 88.8857 88.2773 92.9097C92.2816 99.875 94.0592 107.439 93.3576 115.543C92.2953 127.797 91.2116 140.048 90.1979 152.301C89.2127 164.218 88.3608 176.149 87.3378 188.067C86.9219 192.921 86.1749 197.747 85.6413 202.594C85.0933 207.582 85.3155 207.889 90.538 209.898L90.5226 209.891ZM41.0468 65.3669C36.479 68.5479 31.9679 70.8493 28.5398 74.2692C23.1096 79.6889 19.8469 86.586 18.9492 94.3909C17.6652 105.533 16.5039 116.689 15.2994 127.845C13.798 141.775 12.3073 155.705 10.8327 169.637C10.5156 172.611 11.1692 173.34 14.0094 173.652L20.6568 107.971C19.932 108.371 19.5549 108.583 19.173 108.79C18.8704 107.255 18.5872 105.793 18.3036 104.337C18.7288 104.075 19.154 103.814 19.5792 103.552C19.9097 104.439 20.2402 105.326 20.5712 106.208C20.6961 106.199 20.8262 106.191 20.951 106.182L22.6727 89.1706C21.9662 89.496 21.2886 89.8026 20.6164 90.1097C20.4739 89.92 20.332 89.7248 20.1896 89.5351C25.1598 80.7278 31.9945 73.9404 41.6505 69.89C41.5035 68.787 41.3402 67.5784 41.0468 65.3669ZM145.568 248.486C145.841 248.503 146.12 248.516 146.393 248.533L145.201 260.314C145.457 260.341 145.713 260.362 145.97 260.383C147.437 245.887 148.925 231.393 150.323 216.89C150.418 215.949 149.836 214.937 149.518 213.773C149.75 213.606 150.181 213.29 150.216 213.261C150.026 212.055 149.505 210.814 149.832 210.509C152.102 208.412 152.044 204.94 151.241 203.348C149.972 200.816 150.773 198.708 150.637 196.431C150.598 195.755 150.591 195.076 150.568 194.401C150.48 194.414 150.393 194.421 150.306 194.434L149.852 198.918C149.357 198.435 149.077 198.16 148.798 197.885C148.283 198.766 147.372 199.627 147.34 200.526C147.276 202.219 147.788 203.923 147.911 205.636C147.943 206.115 147.518 206.967 147.164 207.05C146.723 207.152 146.145 206.633 146.115 206.613C145.576 210.23 144.966 214.293 144.361 218.357C144.076 218.344 143.792 218.336 143.507 218.323C143.063 217.069 142.625 215.81 141.93 213.841C142.121 215.358 141.938 216.421 142.379 216.959C144.243 219.258 143.824 221.739 143.38 224.317C142.741 228.027 142.213 231.755 141.605 235.468C141.504 236.097 141.222 236.697 141.025 237.316C140.796 237.292 140.566 237.268 140.337 237.244C140.31 236.017 140.278 234.794 140.259 233.973L139.48 241.664C139.523 241.669 139.565 241.673 139.608 241.677C139.855 240.621 140.102 239.564 140.418 238.203C142.847 240.665 142.254 243.057 141.323 245.283C140.334 247.651 139.337 249.843 140.718 252.43C141.017 252.991 140.584 253.974 140.435 254.751C140.378 255.051 140.019 255.56 140.029 255.567C142.593 257.069 141.303 259.646 141.735 261.762C142.546 261.306 143.352 260.848 143.644 260.682C144.339 256.267 144.953 252.379 145.563 248.485L145.568 248.486ZM42.3054 62.9399C42.6794 66.1655 42.6808 68.7074 43.3253 71.0702C44.1875 74.21 47.0942 75.4638 49.7943 74.2856C52.6125 73.0596 54.5093 68.8516 53.3093 66.3872C53.1353 66.0302 52.7384 65.639 52.3718 65.5352C49.3142 64.7084 46.2393 63.9454 42.3054 62.9399ZM54.0589 62.1745C53.9285 59.417 54.1162 57.4032 53.6853 55.5381C52.842 51.892 48.8712 50.0791 45.9734 51.7724C43.6542 53.1269 42.4596 57.7961 44.3193 58.6403C47.2033 59.9573 50.2827 60.8355 54.0589 62.1745ZM81.48 86.3368C81.0097 85.446 80.6307 84.5593 80.1063 83.7777C78.257 81.0216 76.0818 78.4501 74.5507 75.5304C72.8657 72.3213 70.4338 72.0734 67.5169 72.5185C67.4476 72.7244 67.371 72.8422 67.3992 72.8833C69.7968 76.6641 72.195 80.4394 74.6044 84.2104C76.6186 87.3609 77.3332 87.5939 81.4847 86.3427L81.48 86.3368ZM83.2678 67.2336C78.1003 62.1258 72.6465 63.7332 66.211 65.4571C68.1935 67.2705 69.7399 69.8257 71.1332 69.7413C75.1403 69.4917 79.0824 68.1805 83.2678 67.2336ZM197.304 123.38C197.264 123.195 197.223 123.01 197.183 122.826C178.643 126.858 160.104 130.891 141.565 134.923C141.609 135.13 141.647 135.336 141.691 135.543C153.943 132.889 166.195 130.235 178.441 127.581C178.505 127.85 178.57 128.113 178.629 128.382C176.945 128.835 175.267 129.289 173.583 129.747C173.629 129.927 173.675 130.107 173.722 130.287C178.351 129.266 182.976 128.239 187.605 127.218C187.58 127.089 187.561 126.962 187.537 126.828C185.112 127.259 182.687 127.684 180.262 128.115L180.109 127.284C185.839 125.984 191.574 124.685 197.304 123.385L197.304 123.38ZM184.152 141.37C184.115 141.689 184.072 142.007 184.034 142.325C184.968 142.472 185.963 142.914 186.818 142.719C196.454 140.514 206.071 138.231 215.68 135.925C220.584 134.746 225.47 133.474 230.59 132.187C230.425 132.907 230.344 133.287 230.228 133.789C231.508 133.386 232.717 132.998 233.93 132.616C232.139 132.102 230.317 131.688 228.678 132.069C217.146 134.804 205.655 137.712 194.14 140.536C191.985 141.066 189.793 141.428 187.62 141.868C187.569 141.633 187.517 141.398 187.465 141.163L190.646 140.084C190.6 139.954 190.554 139.823 190.508 139.687C188.388 140.248 186.273 140.804 184.153 141.365L184.152 141.37ZM195.667 121.935C195.627 121.745 195.587 121.555 195.552 121.366C177.353 125.232 159.149 129.097 140.95 132.962C141.004 133.225 141.059 133.482 141.113 133.745C159.298 129.806 177.482 125.874 195.672 121.936L195.667 121.935ZM189.705 154.865C189.767 155.101 189.835 155.332 189.898 155.568C206.173 150.906 222.454 146.245 238.729 141.583C238.677 141.397 238.626 141.217 238.574 141.031C222.283 145.642 205.991 150.253 189.7 154.864L189.705 154.865ZM208.348 115.09L208.434 115.58C209.955 115.4 211.477 115.219 212.998 115.039C213.043 115.235 213.083 115.425 213.128 115.621C212.204 115.962 211.281 116.297 210.358 116.639C210.38 116.734 210.403 116.835 210.431 116.93L216.751 115.599C216.72 115.476 216.696 115.347 216.665 115.224C215.867 115.228 215.069 115.233 214.271 115.237C214.246 115.01 214.214 114.788 214.189 114.561C220.676 113.127 227.158 111.687 234.201 110.13C230.94 109.938 228.326 109.786 225.706 109.634C225.822 109.979 225.933 110.319 226.049 110.664C225.606 111.001 225.207 111.528 224.717 111.635C219.273 112.828 213.808 113.953 208.353 115.101L208.348 115.09ZM175.534 111.689C175.465 111.518 175.396 111.347 175.327 111.175C164.534 113.101 153.741 115.022 142.948 116.948C142.99 117.171 143.026 117.398 143.068 117.621C153.888 115.644 164.714 113.667 175.534 111.689ZM89.1504 99.0296C89.9534 105.257 90.7873 111.712 91.5065 117.329C92.4636 111.493 93.0724 104.838 89.1504 99.0296ZM95.2334 167.124C95.9784 167.377 96.4366 167.534 97.2018 167.799C96.3574 168.263 95.7923 168.576 94.7994 169.123L101.982 169.871C102.007 169.622 102.031 169.379 102.057 169.13C101.194 169.084 100.337 169.033 98.7722 168.947C100.401 168.296 101.322 167.928 102.242 167.564C102.216 167.447 102.185 167.329 102.159 167.217C100.96 167.343 99.7622 167.47 98.564 167.597C98.5241 167.352 98.4836 167.113 98.449 166.869C99.5524 166.508 100.65 166.147 102.032 165.7C101.018 165.66 100.32 165.631 99.6284 165.598C99.4846 165.315 99.3408 165.032 99.197 164.749L101.161 164.293C101.022 164.076 100.882 163.859 100.742 163.642C99.5443 164.086 98.341 164.529 97.0704 164.998C97.4931 165.293 97.8206 165.519 98.3689 165.904C97.2638 166.335 96.4507 166.65 95.2334 167.124ZM206.674 117.796C206.649 117.663 206.625 117.534 206.6 117.401C200.781 118.522 194.956 119.648 189.136 120.769C189.079 120.539 189.026 120.315 188.968 120.084C189.504 119.796 190.044 119.513 190.58 119.225C190.503 119.085 190.425 118.946 190.348 118.802C188.892 119.508 187.436 120.209 185.668 121.069C185.549 121.237 185.11 121.847 184.621 122.523C191.958 120.948 199.316 119.369 206.674 117.791L206.674 117.796ZM147.443 121.143C148.113 121.284 148.788 121.426 149.458 121.567C149.467 121.742 149.476 121.918 149.48 122.094C147.093 122.632 144.706 123.165 141.634 123.862C146.704 124.231 150.831 121.311 155.073 122.414C156.739 121.767 158.466 121.095 160.188 120.427C157.809 120.671 155.46 121.088 153.105 121.465C152.492 121.565 151.372 121.711 151.314 121.541C150.304 118.583 148.685 121.541 147.443 121.138L147.443 121.143ZM200.045 159.866C199.988 159.636 199.925 159.4 199.868 159.17C192.531 161.117 185.189 163.069 177.853 165.016L178.014 165.656C185.36 163.726 192.705 161.796 200.045 159.872L200.045 159.866ZM132.565 187.596L132.689 188.128C139.986 186.407 147.284 184.685 154.576 182.958C154.519 182.722 154.468 182.482 154.411 182.246C147.129 184.03 139.847 185.813 132.565 187.596ZM218.738 129.345C218.788 129.547 218.838 129.744 218.887 129.946C226.353 128.001 233.818 126.057 241.289 124.113C241.246 123.95 241.209 123.787 241.166 123.624C233.688 125.529 226.216 127.44 218.738 129.345ZM225.37 115.513C225.394 115.275 225.419 115.031 225.443 114.793C219.439 116.141 213.429 117.489 207.425 118.837C207.476 119.077 207.533 119.318 207.584 119.558C213.513 118.208 219.446 116.864 225.375 115.513L225.37 115.513ZM220.916 122.576C218.784 123.086 216.653 123.596 214.439 124.126C214.831 124.505 215.13 124.799 215.739 125.387C212.984 126.095 210.594 126.704 208.205 127.319C212.806 126.836 217.335 126.122 220.916 122.576ZM195.252 159.154C195.209 158.985 195.167 158.817 195.125 158.649C188.16 160.498 181.189 162.341 174.224 164.19C174.277 164.414 174.335 164.633 174.388 164.857C181.342 162.958 188.297 161.058 195.251 159.159L195.252 159.154ZM157.277 139.396C157.226 139.205 157.176 139.009 157.125 138.818C151.376 139.99 145.621 141.167 139.872 142.339C139.93 142.618 139.983 142.892 140.041 143.171C145.788 141.911 151.535 140.657 157.277 139.396ZM206.189 129.662C206.151 129.505 206.118 129.354 206.08 129.197C199.217 130.838 192.353 132.479 185.49 134.12L185.656 134.82C192.5 133.101 199.345 131.381 206.194 129.668L206.189 129.662ZM226.058 141.777L225.92 141.271C219.484 143.06 213.042 144.849 206.604 146.644C206.663 146.863 206.722 147.082 206.78 147.302C213.206 145.462 219.632 143.622 226.052 141.782L226.058 141.777ZM233.372 116.893C233.386 116.752 233.395 116.611 233.403 116.475C230.423 116.482 227.443 116.483 224.388 116.487C224.505 117.62 224.566 118.239 224.643 118.968C227.564 118.272 230.467 117.585 233.372 116.893ZM141.094 162.045C141.04 161.783 140.985 161.52 140.931 161.258C135.542 162.495 130.158 163.732 124.768 164.969C124.817 165.177 124.861 165.383 124.91 165.591C130.305 164.409 135.699 163.227 141.094 162.04L141.094 162.045ZM219.739 145.328C219.669 145.173 219.592 145.023 219.522 144.868C213.387 146.552 207.246 148.236 201.112 149.914C201.159 150.089 201.206 150.263 201.253 150.437L219.739 145.328ZM206.709 130.864C206.764 131.066 206.813 131.268 206.868 131.471C211.774 130.227 216.685 128.978 221.59 127.735C221.527 127.499 221.47 127.263 221.409 127.022C216.51 128.304 211.613 129.581 206.709 130.864ZM163.63 157.593C163.683 157.817 163.736 158.041 163.789 158.265C168.681 157.091 173.574 155.918 178.467 154.744C178.429 154.581 178.397 154.419 178.36 154.257C173.452 155.369 168.544 156.481 163.63 157.593ZM171.468 116.994C171.431 116.777 171.388 116.559 171.35 116.347C166.355 117.314 161.359 118.275 156.364 119.241C156.399 119.431 156.434 119.615 156.469 119.804C161.472 118.871 166.47 117.933 171.473 117L171.468 116.994ZM160.753 121.715L160.881 122.363C165.951 121.306 171.025 120.249 176.095 119.192C176.058 119.019 176.027 118.851 175.991 118.678C170.909 119.69 165.828 120.703 160.747 121.715L160.753 121.715ZM110.583 154.681C110.333 154.644 110.084 154.601 109.84 154.565C109.78 156.805 109.72 159.051 109.655 161.291C109.904 161.382 110.16 161.469 110.409 161.561C111.205 160.725 112.001 159.89 112.815 159.035C111.897 158.36 111.119 157.792 110.327 157.212L110.583 154.681ZM63.1694 61.97C62.9519 62.1496 62.7343 62.3292 62.5115 62.5082C64.2252 65.3268 65.9336 68.1448 67.6468 70.9687C67.9129 70.7887 68.1843 70.6093 68.4498 70.4347C66.6875 67.6166 64.9258 64.793 63.1689 61.9754L63.1694 61.97ZM55.37 79.1407C56.0445 77.9593 56.4512 77.2419 57.0464 76.2052C55.0162 76.3545 53.2515 76.4877 51.4816 76.6204C51.4852 76.8504 51.4895 77.0749 51.4931 77.3049C52.8195 77.935 54.1517 78.5602 55.37 79.1407ZM209.513 132.976C209.519 133.288 209.519 133.6 209.526 133.912C212.108 133.257 214.691 132.602 217.439 131.905C214.086 132.025 210.977 132.133 207.602 132.258C208.469 132.583 208.994 132.78 209.513 132.976ZM244.099 121.951C244.034 121.529 244.05 121.323 243.988 121.295C243.275 120.996 242.547 120.729 241.826 120.452C241.905 120.744 241.983 121.036 242.061 121.329C239.862 122.084 237.662 122.838 235.462 123.599C235.513 123.735 235.559 123.871 235.61 124.008C238.432 123.323 241.255 122.639 244.094 121.951L244.099 121.951ZM230.693 113.87L230.782 114.262C234.915 113.299 239.053 112.341 243.187 111.378C243.142 111.176 243.092 110.98 243.048 110.778C238.929 111.809 234.811 112.839 230.693 113.87ZM239.534 136.452C239.493 136.317 239.459 136.177 239.419 136.041C235.625 137.056 231.837 138.072 228.043 139.087C228.101 139.312 228.165 139.532 228.224 139.756L239.528 136.452L239.534 136.452ZM213.9 119.866C213.859 119.682 213.819 119.497 213.778 119.312C210.144 120.136 206.51 120.955 202.876 121.779C202.917 121.958 202.953 122.137 202.994 122.316C206.628 121.497 210.266 120.685 213.9 119.866ZM152.112 225.992C152.016 225.982 151.925 225.972 151.829 225.962L150.558 238.522C150.654 238.532 150.745 238.541 150.841 238.551L152.112 225.992ZM59.1458 66.1096C60.0534 69.6531 60.5517 70.0002 63.0768 68.8475C61.7981 67.96 60.6002 67.1247 59.1458 66.1096ZM97.059 151.376C97.0994 151.615 97.1345 151.853 97.1755 152.087C99.8427 151.501 102.504 150.92 105.171 150.335C105.132 150.134 105.094 149.928 105.055 149.727C102.391 150.275 99.7282 150.823 97.0649 151.371L97.059 151.376ZM92.6598 201.445C92.7057 201.63 92.7575 201.81 92.8034 201.995C95.9599 201.1 99.1212 200.21 102.278 199.314L102.157 198.859C98.9875 199.721 95.8236 200.583 92.6544 201.444L92.6598 201.445ZM185.954 139.06C186.024 139.275 186.088 139.489 186.159 139.699C189.023 138.926 191.892 138.153 194.756 137.375C194.701 137.172 194.647 136.965 194.592 136.762C191.713 137.528 188.834 138.289 185.955 139.055L185.954 139.06ZM217.257 112.197C218.879 111.77 220.212 111.428 221.906 110.982C218.369 109.564 217.715 109.742 217.257 112.197ZM140.195 164.909C140.275 165.081 140.35 165.248 140.429 165.42C143.443 164.706 146.462 163.998 149.476 163.285C149.439 163.122 149.401 162.965 149.363 162.803C146.307 163.507 143.251 164.211 140.195 164.909ZM236.925 108.884C236.957 109.045 236.99 109.202 237.022 109.364C239.862 108.823 242.697 108.282 245.537 107.742C245.498 107.546 245.458 107.351 245.419 107.156C242.586 107.73 239.758 108.304 236.925 108.884ZM175.18 124.399C174.568 123.679 174.111 123.145 174.12 123.157C172.081 124.087 170.375 124.866 168.664 125.644C168.69 125.751 168.718 125.852 168.745 125.958C170.772 125.465 172.805 124.971 175.175 124.398L175.18 124.399ZM92.706 198.859L92.923 199.696C95.3324 199.154 97.7424 198.607 100.152 198.065C100.119 197.914 100.085 197.763 100.052 197.612C97.6068 198.03 95.1567 198.442 92.7113 198.859L92.706 198.859ZM37.7062 73.6716C37.5713 73.4608 37.4369 73.2446 37.302 73.0337C35.4279 74.4619 33.5537 75.8901 31.6791 77.3237C31.779 77.4544 31.8837 77.591 31.9836 77.7217C33.8928 76.3736 35.7971 75.0196 37.7062 73.6716ZM224.94 159.054C224.895 158.912 224.85 158.766 224.805 158.624C221.871 159.559 218.942 160.501 216.007 161.436C216.06 161.605 216.114 161.769 216.161 161.938C219.088 160.975 222.013 160.017 224.934 159.053L224.94 159.054ZM190.746 103.106C190.774 103.252 190.803 103.397 190.831 103.542C193.827 102.957 196.823 102.367 199.819 101.783C199.795 101.649 199.77 101.521 199.746 101.387C196.746 101.96 193.751 102.534 190.751 103.107L190.746 103.106ZM209.769 99.5124C207.781 99.8848 205.875 100.238 203.969 100.597C205.302 100.736 206.624 100.234 207.845 100.422C209.468 100.673 209.434 100.899 209.769 99.5124Z" fill="#D7CDBA"/>
<path d="M130.854 174.453C136.107 173.448 141.359 172.448 146.617 171.443C146.67 171.716 146.729 171.99 146.783 172.258C140.434 173.767 134.08 175.27 127.731 176.778C127.752 176.885 127.774 176.991 127.796 177.091C135.544 175.499 143.291 173.912 151.044 172.319C151.116 172.562 151.188 172.81 151.266 173.053C150.728 173.467 150.191 173.881 149.658 174.296C147.308 174.734 144.957 175.178 142.612 175.617C136.7 176.854 130.77 178.002 124.888 179.363C121.545 180.135 118.285 181.255 114.72 181.769C115.155 181.301 115.596 180.833 116.346 180.026C113.527 180.989 111.132 181.811 108.738 182.628C108.633 182.387 108.534 182.142 108.429 181.901C111.19 180.653 113.952 179.405 116.713 178.156C121.434 176.921 126.15 175.685 130.865 174.448L130.854 174.453Z" fill="#D7CDBA"/>
<path d="M183.999 160.277C179.866 161.137 175.731 162.013 171.589 162.844C170.648 163.036 169.673 163.087 168.719 163.201C170.05 162.449 171.307 161.426 172.736 160.99C175.599 160.119 178.558 159.574 181.478 158.889C186.657 157.597 191.837 156.305 197.016 155.019L196.948 155.045C198.225 154.998 199.501 154.95 200.778 154.897L200.766 154.858C198.48 155.724 196.193 156.595 193.907 157.461C190.601 158.396 187.301 159.331 183.995 160.266L183.999 160.277Z" fill="#D7CDBA"/>
<path d="M103.281 191.275C106.347 190.364 109.413 189.459 112.475 188.537C113.264 188.302 114.288 187.447 114.178 189.283C110.098 190.618 106.02 191.948 101.941 193.278C101.154 193.387 100.355 193.615 99.5802 193.551C99.3131 193.529 99.1022 192.791 98.8691 192.378C100.34 192.007 101.811 191.635 103.281 191.269L103.281 191.275Z" fill="#D7CDBA"/>
<path d="M227.298 136.703C231.647 135.412 235.997 134.116 240.342 132.825C240.432 133.102 240.517 133.379 240.608 133.656C239.061 134.353 237.509 135.05 235.961 135.752C233.971 136.201 231.992 136.744 229.983 137.054C229.129 137.189 228.2 136.835 227.303 136.704L227.298 136.703Z" fill="#D7CDBA"/>
<path d="M88.5927 76.9271C90.4649 77.062 92.3342 77.2785 94.2115 77.3101C95.4861 77.3335 96.7645 77.1059 98.1015 77.3654C96.5476 77.865 94.9884 78.364 93.4287 78.8684C92.2145 78.9933 91.0103 79.1795 89.7995 79.2173C89.0859 79.2414 88.3691 79.0301 87.6525 78.9227C87.9625 78.2553 88.2779 77.5885 88.5879 76.9212L88.5927 76.9271Z" fill="#D7CDBA"/>
<path d="M98.4758 190.72C98.3799 190.283 98.1767 189.47 98.2103 189.457C100.051 188.894 101.906 188.399 103.767 187.898C103.85 188.306 103.933 188.708 104.016 189.116C102.167 189.65 100.319 190.185 98.4764 190.714L98.4758 190.72Z" fill="#D7CDBA"/>
<path d="M69.1959 86.5278C69.3405 86.9091 69.4798 87.2898 69.6244 87.6711L69.665 87.6425C69.4533 87.8172 69.2475 87.9871 69.0359 88.1618L69.077 88.1279C68.8654 88.3026 68.6596 88.4725 68.448 88.6472L68.4891 88.6132C68.2951 88.7734 68.107 88.9287 67.9129 89.0889L67.8595 89.138C67.4794 89.2733 67.1046 89.4092 66.1768 89.7389C66.8373 88.8566 67.1364 88.4559 67.4303 88.0547C67.8376 87.7036 68.2401 87.3465 68.6475 86.9954L68.6122 87.0245C68.8238 86.8498 69.0355 86.675 69.2472 86.5003L69.2065 86.5289L69.1959 86.5278Z" fill="#D7CDBA"/>
<path d="M69.624 87.6713C69.968 87.6798 70.312 87.6883 70.6507 87.6962L70.7548 87.8382C70.7544 88.0022 70.722 88.1628 70.6634 88.3152C70.4694 88.4753 70.2695 88.6404 70.0755 88.8005C69.8756 88.9656 69.6698 89.1354 69.4699 89.3005C69.1256 89.6144 68.7766 89.9224 68.4323 90.2364C68.2375 89.8717 68.048 89.5077 67.8538 89.1376L67.9073 89.0885C68.1013 88.9283 68.2894 88.773 68.4834 88.6129L68.4423 88.6468C68.654 88.4721 68.8597 88.3022 69.0714 88.1275L69.0302 88.1615L69.6593 87.6421L69.6187 87.6707L69.624 87.6713Z" fill="#D7CDBA"/>
<path d="M69.085 82.6955C68.8739 82.8648 68.6687 83.0293 68.4576 83.1986C68.5194 83.0137 68.5818 82.8234 68.6436 82.6386C68.7929 82.6541 68.9363 82.6745 69.085 82.6955Z" fill="#D7CDBA"/>
<path d="M71.9766 87.9706C71.9009 88.1322 71.8152 88.2872 71.73 88.4369C71.5434 88.4174 71.3621 88.3986 71.1755 88.3791C71.1108 88.2193 71.0681 88.0564 71.053 87.8854C71.3628 87.9122 71.6673 87.9384 71.9771 87.9652L71.9766 87.9706Z" fill="#D7CDBA"/>
<path d="M62.5632 82.6665C62.3802 82.6639 62.2188 82.6088 62.0676 82.5056C62.2638 82.3238 62.4606 82.1366 62.6568 81.9548C62.6274 82.1922 62.5926 82.4291 62.5626 82.6719L62.5632 82.6665Z" fill="#D7CDBA"/>
<path d="M38.3257 92.8889C39.8404 93.6808 40.9007 94.2777 42.0013 94.7968C53.9183 100.454 65.8204 106.154 77.7868 111.697C79.4494 112.466 79.8908 113.375 79.6614 115.002C79.4799 116.317 79.3825 117.652 79.2008 119.447C74.391 117.246 69.8677 115.25 65.406 113.124C56.555 108.901 47.7309 104.626 38.933 100.304C38.394 100.04 37.808 99.1755 37.8132 98.5912C37.8194 96.8264 38.1109 95.0639 38.331 92.8895L38.3257 92.8889ZM52.4488 101.559C48.0743 101.978 44.9819 98.1408 40.9603 99.6515C51.9131 105.947 63.2776 111.208 74.9242 115.864C71.0933 113.203 67.0918 110.895 63.078 108.602C62.8692 108.482 62.5736 108.527 62.321 108.468C60.9432 108.133 59.5953 107.769 60.7266 105.908C59.1438 106.055 56.6322 106.7 56.41 106.235C55.269 103.826 53.5756 103.256 51.0424 103.795C51.5373 103.005 51.8656 102.476 52.4435 101.558L52.4488 101.559Z" fill="#D7CDBA"/>
<path d="M50.4066 81.2802C50.9688 82.0602 51.4535 82.9142 52.1115 83.6004C52.8184 84.3354 53.6921 84.9129 54.4941 85.5594C53.11 85.3934 51.6266 85.463 50.3676 84.9656C49.6372 84.6764 49.2879 83.443 48.708 82.6775C48.3274 82.1787 47.8469 81.7624 47.2469 81.1424C47.3969 80.6715 47.6277 79.9358 47.8578 79.2055C48.7035 79.9003 49.555 80.5902 50.4007 81.285L50.4066 81.2802Z" fill="#D7CDBA"/>
<path d="M30.5031 123.553C32.7341 124.135 34.9598 124.717 37.1908 125.299C37.1417 125.518 37.0926 125.737 37.043 125.961C35.914 125.723 34.7974 125.416 33.6586 125.275C32.5464 125.137 31.4167 125.173 30.2947 125.133C30.3643 124.604 30.4334 124.081 30.5031 123.553Z" fill="#D7CDBA"/>
<path d="M178.856 83.2129C181.447 83.7999 184.033 84.3917 187.088 85.0816C181.225 85.6789 175.726 86.2376 170.222 86.8012L170.075 86.3869C171.264 85.5542 172.355 84.4107 173.671 83.9684C175.317 83.4128 177.148 83.4286 178.9 83.2011L178.856 83.2129Z" fill="#D7CDBA"/>
<path d="M143.967 104.509C153.194 102.934 162.421 101.364 171.649 99.789C171.706 100.134 171.762 100.479 171.814 100.823C162.581 102.337 153.344 103.851 144.111 105.371C144.059 105.087 144.013 104.798 143.961 104.514L143.967 104.509Z" fill="#D7CDBA"/>
<path d="M178.903 83.2011C178.818 82.8151 178.729 82.4231 178.57 81.7069C177.578 81.7129 176.019 81.7309 174.46 81.7435C174.451 81.5677 174.442 81.3918 174.438 81.2219C178.218 80.6537 181.999 80.0854 185.774 79.5166L185.718 79.5381C186.68 79.775 187.642 80.0118 188.605 80.2432C188.577 80.4152 188.554 80.5877 188.526 80.7597C185.302 81.5773 182.078 82.3948 178.853 83.2177L178.897 83.2059L178.903 83.2011Z" fill="#D7CDBA"/>
<path d="M172.42 90.2438C177.731 89.5672 183.041 88.8959 188.347 88.2187C188.388 88.3979 188.43 88.5716 188.471 88.7508C186.793 89.1446 185.115 89.5383 183.227 89.9866C183.9 90.2589 184.346 90.4365 184.786 90.6135C184.753 90.8342 184.725 91.0554 184.692 91.276C181.776 91.0707 178.863 90.833 175.948 90.6823C174.757 90.624 173.557 90.7668 172.356 90.8166C172.375 90.6273 172.395 90.438 172.414 90.2487L172.42 90.2438Z" fill="#D7CDBA"/>
<path d="M208.752 92.9022C203.001 93.7789 197.249 94.6557 191.491 95.5373C191.441 95.2369 191.396 94.937 191.345 94.6366C197.092 93.65 202.845 92.6585 208.591 91.6719C208.641 92.0816 208.696 92.4973 208.746 92.907L208.752 92.9022Z" fill="#D7CDBA"/>
<path d="M179.472 78.5655C178.568 79.0944 177.701 79.988 176.754 80.0861C174.341 80.3378 171.894 80.2414 169.465 80.2836C169.454 80.02 169.448 79.7571 169.437 79.4936C171.065 79.3789 172.694 79.2642 174.3 79.1473C174.065 79.019 173.754 78.8445 172.872 78.3482C175.245 78.0159 177.082 77.7535 178.913 77.496C179.097 77.8541 179.282 78.2123 179.472 78.5655Z" fill="#D7CDBA"/>
<path d="M192.039 97.152C186.394 98.1984 180.748 99.2502 175.103 100.297C175.049 99.9848 174.994 99.673 174.939 99.3667C180.554 98.3499 186.169 97.3332 191.789 96.317C191.874 96.5937 191.959 96.8705 192.039 97.152Z" fill="#D7CDBA"/>
<path d="M185.773 79.5059C183.938 79.5335 182.104 79.5556 180.166 79.5888C180.061 75.8337 183.793 78.2503 184.778 76.4507C185.114 76.912 185.455 77.3793 186.064 78.2245C186.139 78.2322 186.901 78.2624 187.658 78.292C187.713 78.4399 187.768 78.5877 187.823 78.7356C187.123 79.0015 186.417 79.2669 185.716 79.5328L185.772 79.5113L185.773 79.5059Z" fill="#D7CDBA"/>
<path d="M156.783 70.9056C159.056 70.6011 161.317 70.2463 163.6 70.0468C164.024 70.009 164.502 70.6109 164.956 70.9151C164.538 71.2705 164.133 71.917 163.706 71.9272C161.453 71.9932 159.199 71.9006 156.94 71.862C156.886 71.5394 156.838 71.2228 156.784 70.9002L156.783 70.9056Z" fill="#D7CDBA"/>
<path d="M176.194 83.0122C173.674 83.3182 171.148 83.6236 168.169 83.9911C169.083 84.223 169.582 84.3514 170.081 84.4799C170.093 84.678 170.105 84.8814 170.112 85.0789L166.328 85.4719C166.278 85.2153 166.234 84.9539 166.185 84.6973C169.037 82.0208 172.709 82.6274 176.102 82.1171C176.131 82.4153 176.159 82.7189 176.188 83.0171L176.194 83.0122Z" fill="#D7CDBA"/>
<path d="M131.328 106.013C131.73 101.726 132.478 101.039 135.717 102.092C134.219 103.429 133.011 104.505 131.328 106.013Z" fill="#D7CDBA"/>
<path d="M168.946 98.2122C172.76 97.5872 176.574 96.9569 180.382 96.3313C180.429 96.6096 180.477 96.8824 180.524 97.1606L169.025 99.1933L168.946 98.2122Z" fill="#D7CDBA"/>
<path d="M148.988 75.6744L147.762 75.5467C147.743 75.3043 147.73 75.0624 147.712 74.8145C151.221 74.3711 154.736 73.9282 158.246 73.4848C158.281 73.7234 158.321 73.9681 158.356 74.2068C155.213 74.7048 152.069 75.2028 148.926 75.7008L148.983 75.6685L148.988 75.6744Z" fill="#D7CDBA"/>
<path d="M218.965 89.9429C221.705 89.545 224.45 89.1476 227.189 88.7551C227.231 89.0328 227.268 89.3099 227.31 89.5876C224.575 90.0407 221.846 90.4889 219.112 90.942L218.965 89.9483L218.965 89.9429Z" fill="#D7CDBA"/>
<path d="M110.302 69.8089L113.391 69.7917C113.41 70.0287 113.429 70.2658 113.454 70.5034C109.122 71.0306 104.785 71.5573 100.454 72.0846C105.105 70.5795 109.233 66.9536 114.549 68.6224C113.117 68.9323 111.691 69.2375 110.258 69.5474C110.271 69.6362 110.289 69.7255 110.302 69.8089Z" fill="#D7CDBA"/>
<path d="M108.012 102.563L105.778 102.33C111.54 99.2134 117.052 97.9946 122.31 98.1651C117.843 99.5474 112.899 101.071 107.959 102.601L108.016 102.569L108.012 102.563Z" fill="#D7CDBA"/>
<path d="M121.276 108.235C118.446 108.733 115.62 109.231 112.79 109.729C112.733 109.384 112.677 109.034 112.615 108.688C115.452 108.235 118.289 107.782 121.126 107.328C121.176 107.629 121.226 107.929 121.276 108.235Z" fill="#D7CDBA"/>
<path d="M123.905 67.4756C127.094 66.9495 130.278 66.423 133.466 65.9024L133.572 66.5038C130.401 67.1191 127.229 67.7398 124.058 68.3552L123.904 67.481L123.905 67.4756Z" fill="#D7CDBA"/>
<path d="M119.353 138.994C119.293 138.37 119.221 137.586 119.108 136.416C120.08 136.708 120.822 137.152 121.499 137.069C122.338 136.971 123.158 136.488 123.933 136.066C124.424 135.8 124.815 135.343 125.251 134.973C125.516 135.547 125.95 136.106 125.997 136.701C126.067 137.561 125.864 138.448 125.741 139.659L119.353 138.994Z" fill="#D7CDBA"/>
<path d="M122.423 130.273C123.308 130.42 124.187 130.566 125.072 130.713C125.459 131.518 125.852 132.319 126.24 133.125C124.838 133.296 123.442 133.462 122.078 133.626C122.146 133.699 122.485 134.073 122.829 134.453C120.307 135.202 119.955 134.744 120.006 130.562C121.52 131.097 122.982 131.61 125.126 132.364C123.842 131.372 123.132 130.822 122.423 130.273Z" fill="#D7CDBA"/>
<path d="M119.113 140.123C120.942 140.313 122.59 140.375 124.182 140.722C124.641 140.818 124.925 141.744 125.284 142.29C124.652 142.366 124.02 142.481 123.381 142.513C122.77 142.542 122.139 142.384 121.546 142.491C120.168 142.741 119.128 141.846 119.107 140.127L119.113 140.123Z" fill="#D7CDBA"/>
<path d="M123.196 158.76C121.468 158 119.739 157.241 118.011 156.482C118.044 156.37 118.077 156.259 118.11 156.148C118.512 156.222 118.921 156.276 119.315 156.377C120.113 156.58 121.074 157.681 121.503 155.944C122.391 156.276 123.283 156.615 124.171 156.948C123.916 157.61 123.655 158.272 123.399 158.934C123.335 158.873 123.265 158.816 123.196 158.76Z" fill="#D7CDBA"/>
<path d="M120.991 128.511C121.212 128.611 121.428 128.715 121.65 128.815C121.399 128.953 121.153 129.091 120.902 129.229C120.926 128.991 120.961 128.749 120.991 128.511Z" fill="#D7CDBA"/>
<path d="M125.136 129.982L124.277 129.892C124.281 129.8 124.286 129.702 124.29 129.609C124.615 129.539 124.939 129.475 125.259 129.404C125.218 129.597 125.177 129.789 125.135 129.987L125.136 129.982Z" fill="#D7CDBA"/>
<path d="M89.415 169.628L90.8438 155.511C91.137 155.541 91.4356 155.572 91.7289 155.603L90.3028 169.693C90.0085 169.674 89.7093 169.648 89.415 169.628Z" fill="#D7CDBA"/>
<path d="M90.5001 190.632L91.1682 197.447C90.8311 197.477 90.4992 197.508 90.1621 197.539C88.6408 195.374 89.8588 192.976 89.8322 190.683L90.5001 190.632Z" fill="#D7CDBA"/>
<path d="M142.596 175.626C144.946 175.188 147.297 174.744 149.643 174.305C151.173 174.147 152.708 173.99 154.238 173.833C154.275 174.05 154.318 174.262 154.356 174.479L137.76 178.473C137.789 178.613 137.818 178.753 137.847 178.898C141.579 178.117 145.311 177.336 149.048 176.555C149.109 176.813 149.168 177.076 149.228 177.334C143.732 178.827 138.236 180.321 132.745 181.815C131.082 182.172 129.419 182.524 127.756 182.881C126.618 183.047 125.482 183.201 124.348 183.379C121.404 183.826 118.465 184.28 115.521 184.728L115.222 183.953C115.631 183.64 115.991 183.17 116.451 183.043C123.371 181.058 130.302 179.123 137.229 177.172C139.02 176.67 140.808 176.151 142.6 175.643L142.596 175.626Z" fill="#D7CDBA"/>
<path d="M127.757 182.87C129.421 182.513 131.084 182.162 132.747 181.805C135.894 181.269 139.041 180.733 142.188 180.192C142.244 180.498 142.293 180.809 142.348 181.116C135.904 182.604 129.466 184.092 123.022 185.58C122.931 185.412 122.841 185.239 122.75 185.071C123.511 184.685 124.26 184.26 125.044 183.916C125.934 183.527 126.85 183.207 127.758 182.859L127.757 182.87Z" fill="#D7CDBA"/>
<path d="M112.703 178.493C110.104 180.906 106.909 181.546 103.652 181.999C103.553 181.699 103.459 181.4 103.36 181.1C106.486 180.245 109.611 179.395 112.736 178.54L112.703 178.493Z" fill="#D7CDBA"/>
<path d="M15.9338 138.941C16.0033 136.604 16.0729 134.266 16.1419 131.934C16.3893 131.938 16.6421 131.942 16.8896 131.946L16.1818 138.94C16.0954 138.942 16.0143 138.944 15.9279 138.946L15.9338 138.941Z" fill="#D7CDBA"/>
<path d="M149.646 216.814L148.249 230.618C147.036 230.836 145.967 230.861 146.356 228.989C146.962 226.089 147.63 223.207 148.199 220.304C148.426 219.13 148.457 217.915 148.579 216.714L149.647 216.809L149.646 216.814Z" fill="#D7CDBA"/>
<path d="M147.266 238.807L146.467 246.699C146.221 246.69 145.979 246.681 145.733 246.666C145.752 245.252 145.776 243.839 145.791 242.846C145.71 243.165 145.533 243.901 145.351 244.637C145.078 244.559 144.811 244.482 144.539 244.405C145.102 242.463 145.665 240.515 146.234 238.574C146.576 238.648 146.924 238.728 147.267 238.802L147.266 238.807Z" fill="#D7CDBA"/>
<path d="M170.394 152.837C180.08 150.452 189.773 148.061 199.46 145.676C199.544 146.018 199.622 146.36 199.706 146.707C190.018 149.104 180.33 151.5 170.642 153.896C170.559 153.543 170.476 153.19 170.393 152.843L170.394 152.837Z" fill="#D7CDBA"/>
<path d="M161.742 125.147L163.634 125.344C163.662 125.653 163.691 125.957 163.719 126.266C160.535 126.896 157.352 127.527 154.173 128.163C154.097 127.909 154.025 127.656 153.948 127.407C156.563 126.647 159.172 125.885 161.787 125.13L161.741 125.158L161.742 125.147Z" fill="#D7CDBA"/>
<path d="M66.5671 86.2373C66.3495 86.4715 66.1366 86.7117 65.9189 86.946C65.9539 86.5998 65.9889 86.2536 66.0234 85.9128C66.2013 86.0188 66.3839 86.1308 66.5618 86.2367L66.5671 86.2373Z" fill="#D7CDBA"/>
<path d="M68.5196 83.1558C68.3223 83.1352 68.125 83.1147 67.9272 83.0995C68.1245 83.1201 68.3217 83.1406 68.5196 83.1558Z" fill="#D7CDBA"/>
<path d="M66.7744 84.1001C66.8154 84.2301 66.873 84.3564 66.8872 84.4836C66.8935 84.528 66.7744 84.5812 66.71 84.6291C66.7281 84.4506 66.7456 84.2775 66.7744 84.1001Z" fill="#D7CDBA"/>
<path d="M68.642 86.9949C68.273 86.9674 67.9099 86.935 67.5409 86.9075C68.1538 86.228 68.7663 85.5538 69.3792 84.8743C69.3234 85.426 69.2569 85.9766 69.1957 86.5278L69.2363 86.4992C69.0247 86.674 68.813 86.8487 68.6014 87.0234L68.6367 86.9943L68.642 86.9949Z" fill="#D7CDBA"/>
<path d="M69.3938 84.9194C69.0259 84.8811 68.658 84.8428 68.2954 84.805C68.8951 84.31 69.4948 83.8149 70.0945 83.3198C69.8627 83.8532 69.6255 84.3861 69.3932 84.9249L69.3938 84.9194Z" fill="#D7CDBA"/>
<path d="M70.9335 85.6316C71.1334 85.4666 71.3285 85.2956 71.5284 85.1306L71.5146 85.1073C71.3147 85.2723 71.1148 85.4374 70.9149 85.6024L70.9388 85.6322L70.9335 85.6316Z" fill="#D7CDBA"/>
<path d="M69.4551 89.2656C69.647 89.2856 69.839 89.3056 70.0256 89.325C70.0059 89.5198 69.9862 89.7145 69.9665 89.9092C69.7942 89.6945 69.6268 89.4857 69.4545 89.271L69.4551 89.2656Z" fill="#D7CDBA"/>
<path d="M70.5826 88.8639C70.6018 88.6746 70.6215 88.4798 70.6406 88.2905C70.8272 88.31 71.0192 88.33 71.2058 88.3494C71.1866 88.5387 71.1669 88.7334 71.1478 88.9227C70.9612 88.9033 70.7692 88.8833 70.5826 88.8639Z" fill="#D7CDBA"/>
<path d="M69.9947 89.3492C70.0139 89.1599 70.0336 88.9652 70.0527 88.7759C70.2394 88.7953 70.4313 88.8153 70.6179 88.8347C70.5988 89.0241 70.5791 89.2188 70.5599 89.4081C70.3733 89.3887 70.1813 89.3687 69.9947 89.3492Z" fill="#D7CDBA"/>
</svg>
