<svg width="1920" height="1091" viewBox="0 0 1920 1091" fill="none" xmlns="http://www.w3.org/2000/svg">
<path fill-rule="evenodd" clip-rule="evenodd" d="M1920 0H0V1085.22H1920V0ZM1891.44 36.72H32.6301V1052.05H1891.44V36.72Z" fill="#222222"/>
<g opacity="0.8">
<path d="M0.0355678 975.4C0.452352 802.323 0.492045 646.356 0.234036 486.271C0.174496 404.273 0.293576 324.935 0.511892 246.004C0.779824 164.343 1.04776 83.1194 1.32561 0C86.5182 0.248118 173.834 0.496235 265.616 0.754278C395.186 0.922997 514.962 1.08179 641.198 1.25051C895.367 2.20328 1174.79 2.86824 1463.29 2.88809C1494.32 3.01711 1585.61 3.39425 1576.97 2.05441C1692.52 2.39185 1806.71 2.71937 1920 3.04688C1919.87 86.2159 1919.74 168.899 1919.61 251.313C1919.56 332.011 1919.61 412.421 1919.82 492.751C1919.96 606.489 1918.85 725.029 1918.99 838.856C1919.01 879.329 1919.04 919.653 1919.06 959.848C1918.98 1001.37 1918.9 1042.76 1918.81 1084.05C1866.06 1083.9 1813.47 1083.76 1761.02 1083.61C1709.88 1083.49 1658.87 1083.41 1607.93 1083.46C1582.77 1083.66 1528.39 1084.36 1507.29 1084.27C1257.9 1082.91 1027.35 1085.04 791.855 1085.9C699.329 1086.13 627.782 1086.45 539.275 1086.39C531.246 1086.97 510.02 1086.88 484.884 1087.09C417.593 1087.11 43.7979 1085.64 9.54221 1084.88C1.01799 1084.69 185.038 1084.51 369.564 1084.3C461.822 1084.17 554.209 1084.05 622.721 1083.96C691.222 1083.83 735.858 1083.68 732.593 1083.51C715.465 1083.13 242.882 1083.59 200.608 1083.41C1967.52 1076.63 1120.89 1078.62 582.67 1081.07C498.708 1080.95 379.339 1081.96 216.515 1082.03C313.278 1081.51 510.04 1079.4 556.412 1079.28C770.639 1078.33 737.584 1077.5 982.058 1077.59C1182.61 1077.67 1526.98 1075.92 1698.23 1075.5C1609.17 1076.53 1401.15 1078.82 1270.12 1078.57C1555.22 1079.77 1593.48 1075.78 1890.57 1076.1C1896.86 1076.09 1903.42 1076.08 1910.84 1076.06C1910.75 1056.22 1910.64 1033.72 1910.53 1009.94C1910.67 976.888 1910.8 945.645 1910.97 906.453C1911.07 661.948 1910.12 447.574 1910.51 207.109C1910.55 227.782 1909.88 240.892 1909.79 261.953C1908.61 469.27 1910.04 645.503 1909.73 864.848C1909.55 906.899 1910.54 965.415 1910.54 1009.94C1910.51 1032.45 1910.48 1054.29 1910.45 1075.66C1848.72 1075.36 1790.38 1075.08 1729.86 1074.8C1759.09 1074.69 1789.24 1074.57 1820.13 1074.45C1849.13 1074.38 1878.82 1074.31 1909.03 1074.24C1908.96 957.247 1908.88 833.903 1908.8 717.685C1908.71 680.08 1908.03 634.714 1907.68 605.456C1907.65 689.112 1907.62 773.075 1907.59 857.504C1907.66 892.618 1907.72 929.012 1907.79 966.249C1907.91 1001.29 1908.03 1037.14 1908.15 1073.37C1787.44 1073.8 1662.77 1074.25 1548.43 1074.67C1431.95 1074.95 1325.96 1074.97 1245.02 1074.3C1238.69 1074.35 1232.45 1074.4 1219.72 1074.5C1216.54 1074.43 1212.17 1074.38 1207.28 1074.36C1166.02 1074.39 1116.63 1074.3 1071.93 1073.88L1185.92 1074.01C1299.35 1073.21 1419.07 1072.87 1541.69 1072.72C1661.83 1072.66 1784.81 1072.59 1907.31 1072.53C1907.2 997.701 1907.1 923.087 1906.99 849.416C1906.67 777.968 1907.79 659.417 1907.48 587.88C1907.18 492.811 1907.07 395.876 1907.14 298.714C1907.21 250.132 1907.28 201.501 1907.35 153.009C1907.49 106.889 1907.64 60.9178 1907.77 15.2741L1853.46 15.0359C1543.85 13.9144 1234.86 12.783 927.28 11.6714C619.525 10.3515 313.189 9.03148 9.05596 7.72142C8.34147 149.178 7.63691 289.742 6.94227 429.779L6.99189 481.616L7.38883 459.365L7.00181 507.986C7.02166 603.64 6.83311 697.647 6.07893 790.76C5.61253 828.881 6.04916 723.322 5.55299 694.064L5.37437 736.353L4.78889 728.324C4.91789 744.581 4.56065 754.148 4.35226 765.591C4.35226 558.036 4.35226 349.24 4.35226 139.323C3.55838 163.341 3.69731 225.539 3.56831 255.015C3.73701 324.538 3.91563 393.941 3.64769 457.36C3.80647 633.901 2.3775 816.664 1.98056 986.972C1.7027 1018.45 1.42485 1049.72 1.15691 1080.09C0.690514 1118.23 -0.212518 1038.69 0.0454914 975.41L0.0355678 975.4ZM1648.12 11.1355C1590.17 10.6591 1533.91 10.2026 1475.27 9.71628L1413.37 9.52771C1387.77 9.41854 1360.28 9.44832 1331.81 9.54756C1221.38 9.0414 1111.5 8.53524 1001.16 8.01916C1111.51 9.19027 1226.38 10.2224 1365.53 10.5599C1006.03 10.3118 697.93 7.41375 366.349 5.53798C266.043 5.32957 164.387 5.11122 60.5288 4.89288H6.21786L6.39648 172.829L7.04151 5.7067C325.603 7.13586 642.468 8.55509 960.048 9.97433C1118.43 10.6691 1276.97 11.3638 1436 12.0585C1593.18 12.6341 1750.84 13.2098 1909.26 13.7854C1908.99 112.338 1908.74 211.247 1908.47 310.534C1908.3 411.696 1908.13 513.256 1907.96 615.262C1908.87 412.113 1909.74 213.867 1910.63 12.4059C1824.39 11.989 1736.76 11.5623 1648.12 11.1355ZM1755.48 10.3217L1912.58 10.4706C1912.58 74.1077 1912.56 136.306 1912.56 198.087C1912.26 511.033 1912.04 852.84 1913.98 1055.18C1913.29 779.437 1912.66 493.565 1912.56 198.087C1912.44 324.3 1912.45 352.873 1912.5 311.864C1912.53 271.143 1912.62 161.326 1912.75 10.3018L1805.62 10.2522C1796.96 10.3217 1778.37 10.3316 1755.49 10.3217H1755.48Z" fill="#D7CDBA"/>
<path d="M28.5949 8.65434L9.84956 8.5154C8.94653 131.999 8.0435 257.189 7.15039 380.493C8.05342 331.098 8.88699 287.628 9.59155 229.538L10.4747 120.863L11.0701 9.73613C103.09 10.153 196.857 10.5797 286.951 10.9866C760.567 13.9045 1254.42 15.3634 1760.38 15.949C1785.3 16.0582 1840.42 16.1773 1881.85 15.949C1243.71 14.1427 642.567 12.4257 28.5949 8.65434Z" fill="#D7CDBA"/>
<path d="M1905.33 790.344C1905.56 883.001 1905.79 975.558 1905.73 1064.12C1906.37 983.647 1906.53 873.9 1906.59 785.451C1906.53 661.074 1906.47 536.579 1906.41 413.701C1905.87 536.579 1905.42 661.074 1905.33 790.344Z" fill="#D7CDBA"/>
<path d="M1881.84 15.9391L1898.34 15.9887L1905.53 16.0085L1907 16.0284L1906.97 19.1348L1906.94 30.0619L1906.88 51.9161C1906.54 169.97 1906.42 291.082 1906.41 413.691C1907.01 284.055 1907.62 155.937 1908.23 25.9035C1908.05 25.963 1907.9 24.3453 1907.77 21.3083C1907.75 20.5441 1907.72 19.7005 1907.68 18.7676C1907.68 18.5393 1907.66 18.2912 1907.66 18.053V17.7255L1907.64 17.6362L1907.6 17.259C1907.55 16.7827 1907.5 16.2269 1907.44 15.6115L1905.87 15.7207L1905.46 15.7406H1905.12L1904.13 15.7604L1900.06 15.8001L1881.83 15.9391H1881.84Z" fill="#D7CDBA"/>
</g>
<g opacity="0.8">
<path d="M1885.95 954.955C1886.16 787.456 1886.18 636.511 1886.05 481.576C1886.1 404.451 1886.14 329.738 1886.18 255.482C1886.31 182.595 1886.44 110.134 1886.58 36.1557C1803.8 36.0267 1719.07 35.8976 1629.76 35.7587C1504.37 35.6694 1388.45 35.59 1266.28 35.5106C1020.3 35.0342 749.879 34.6968 470.674 34.6968C440.646 34.6372 352.297 34.4387 360.663 35.1136C251.386 34.9449 143.389 34.7761 36.2562 34.6174C36.1867 112.566 36.1272 190.068 36.0577 267.312C36.0875 345.409 36.1272 423.229 36.157 500.979C36.018 611.054 35.8791 725.774 35.7402 835.938C35.7203 909.172 35.6906 981.91 35.6707 1054.27C138.974 1054.38 241.532 1054.48 343.803 1054.58C368.145 1054.48 420.779 1054.13 441.191 1054.17C682.549 1054.86 905.677 1053.78 1133.59 1053.36C1223.14 1053.27 1292.37 1053.2 1378.03 1053.11C1385.8 1052.82 1406.34 1052.86 1430.67 1052.76C1495.79 1052.75 1857.55 1053.49 1890.71 1053.86C1898.95 1053.96 1720.87 1054.04 1542.28 1054.15C1452.99 1054.21 1363.58 1054.28 1297.29 1054.33C1230.99 1054.4 1187.8 1054.47 1190.95 1054.55C1207.53 1054.55 1664.88 1054.59 1705.8 1054.6C-4.20158 1057.98 815.166 1057 1336.06 1055.77C1417.32 1055.66 1532.84 1055.5 1690.41 1055.28C1596.76 1055.67 1406.34 1056.46 1361.46 1056.65C1154.14 1057.13 1186.12 1057.55 949.529 1057.5C755.437 1057.46 422.158 1058.34 256.417 1058.54C342.612 1058.02 543.929 1056.88 670.73 1057C394.809 1056.41 357.785 1058.4 70.2737 1058.23C58.2862 1058.24 45.4949 1058.25 31.6418 1058.27C31.6021 1040.69 31.5525 1021.52 31.5029 1001.5C31.5723 969.514 31.6418 939.274 31.7212 901.351C31.6418 664.727 31.5723 457.261 31.4929 224.536C31.5128 244.545 31.1754 257.238 31.1357 277.614C30.5502 478.252 31.2548 648.807 31.1059 861.087C31.0166 901.778 31.5128 958.409 31.5128 1001.5C31.5128 1020.96 31.4929 1039.95 31.483 1058.43C98.4066 1058.59 160.855 1058.73 225.813 1058.88C164.318 1058.97 98.6845 1059.06 30.7487 1059.16C30.709 947.104 30.6792 829.616 30.6395 718.658C30.5899 682.264 30.2624 638.357 30.0838 610.042C30.0739 690.997 30.054 772.261 30.0441 853.971C30.1235 918.998 30.2128 988.48 30.3021 1059.6C152.291 1059.38 278.904 1059.14 395.157 1058.94C510.338 1058.79 615.248 1058.77 695.033 1059.11C701.156 1059.08 707.199 1059.06 719.504 1059.02C722.59 1059.04 726.808 1059.05 731.551 1059.08C771.483 1059.06 819.284 1059.11 862.54 1059.32L752.221 1059.26C640.464 1059.67 522.395 1059.84 401.478 1059.92C279.321 1059.95 154.295 1059.98 29.9052 1060.02C29.8556 988.272 29.806 916.774 29.7563 846.14C29.8258 776.995 29.935 662.265 29.9945 593.031C29.935 501.019 29.8854 407.211 29.8258 313.184C29.935 217.966 30.0342 122.54 30.1434 28.4839C51.3795 28.5236 72.2683 28.5633 93.0876 28.603C696.74 29.8436 1297.93 31.0842 1890.44 32.295C1890.09 164.561 1889.75 295.965 1889.42 426.891C1889.42 443.674 1889.44 460.476 1889.44 477.061C1889.51 469.736 1889.57 462.62 1889.63 455.534C1889.57 471.235 1889.51 486.975 1889.44 502.587C1889.45 595.164 1889.35 686.144 1888.98 776.251C1888.74 813.151 1888.97 710.986 1888.72 682.671C1888.67 703.145 1888.63 723.6 1888.63 723.6C1888.63 723.6 1888.48 719.71 1888.34 715.829C1888.41 731.56 1888.24 740.819 1888.13 751.895C1888.13 551.019 1888.13 348.952 1888.13 145.804C1887.73 169.047 1887.8 229.241 1887.74 257.764C1887.83 325.054 1887.91 392.214 1887.78 453.589C1887.86 624.442 1887.14 801.32 1886.95 966.14C1886.81 996.609 1886.67 1026.86 1886.54 1056.25C1886.3 1093.16 1885.85 1016.18 1885.98 954.945L1885.95 954.955ZM291.794 30.5581C347.872 30.7963 402.331 31.0246 459.074 31.2628L518.991 31.362C543.76 31.362 570.365 31.362 597.922 31.3521C704.797 31.6102 811.127 31.8583 917.923 32.1163C811.127 31.5308 699.955 31.0147 565.294 30.846C913.209 30.975 1211.39 32.424 1532.28 33.3569C1629.35 33.4661 1727.73 33.5753 1828.26 33.6844C1848.73 33.6844 1869.06 33.6844 1889.05 33.6844C1889.08 82.5934 1889.11 130.609 1889.14 178.228C1889.24 129.845 1889.34 81.5116 1889.44 33.3073C1269.48 31.9476 656.321 30.6078 30.8876 29.2382C30.6693 224.507 30.4609 421.145 30.2426 619.53C30.6891 420.847 31.1357 226.958 31.5823 29.923C117.073 30.1314 203.932 30.3398 291.804 30.5581H291.794ZM187.896 30.9651C135.49 30.9353 83.3627 30.9154 32.5349 30.8857C32.5349 93.5999 32.5349 154.905 32.525 215.793C32.3761 518.655 32.267 849.455 33.2295 1045.28C33.0013 778.414 32.7631 501.753 32.525 215.793C32.4654 337.946 32.4654 365.586 32.4952 325.907C32.5151 286.079 32.5548 178.684 32.6242 30.975L139.38 31.0048C147.766 31.0048 165.747 30.9849 187.906 30.975L187.896 30.9651Z" fill="#D7CDBA"/>
<path d="M1859.16 31.7987C1869.66 31.8384 1880.17 31.8781 1890.82 31.9178C1890.39 147.273 1889.95 264.086 1889.52 379.203C1889.96 331.406 1890.38 289.325 1890.74 233.111C1890.88 200.965 1891.01 167.936 1891.15 134.331C1891.25 100.478 1891.34 66.039 1891.44 31.2926C1797.46 31.0742 1701.33 30.8559 1609.13 30.6376C1150.78 29.1786 672.834 28.4442 183.163 28.1564C159.049 28.1068 105.701 28.0472 65.6099 28.1564C683.194 29.0496 1264.96 29.913 1859.17 31.7987H1859.16Z" fill="#D7CDBA"/>
<path d="M28.9229 788.974C28.9923 879.438 29.0519 969.792 29.1213 1056.25C29.2206 1016.63 29.3297 969.792 29.4488 921.975C29.4885 874.991 29.5183 827.035 29.558 784.23C29.5282 663.863 29.4984 543.377 29.4686 424.46C29.29 543.377 29.1114 663.863 28.9328 788.974H28.9229Z" fill="#D7CDBA"/>
<path d="M65.6001 28.1565L29.7567 28.1068L29.6971 74.3262C29.6178 188.569 29.5384 305.79 29.459 424.45C29.7666 298.992 30.0643 175.002 30.3719 49.1472C30.2826 49.2068 30.2032 47.6387 30.1437 44.7009L30.0544 39.292L29.975 28.3153C39.045 28.2756 51.5585 28.216 65.61 28.1465L65.6001 28.1565Z" fill="#D7CDBA"/>
</g>
</svg>
