<svg width="314" height="314" viewBox="0 0 314 314" fill="none" xmlns="http://www.w3.org/2000/svg">
<path d="M156.87 313.74C243.507 313.74 313.74 243.507 313.74 156.87C313.74 70.2331 243.507 0 156.87 0C70.2331 0 0 70.2331 0 156.87C0 243.507 70.2331 313.74 156.87 313.74Z" fill="#222222"/>
<path d="M183.877 167.888V168.478H164.761V167.888C166.531 167.888 171.723 166.826 169.835 162.342L162.165 143.698H120.865L113.431 161.988C111.543 166.944 116.617 167.888 118.505 167.888V168.478H104.345V167.888C106.115 167.888 110.717 166.944 112.723 161.988L140.689 92.0137L140.571 91.8957C138.565 86.7037 134.789 86.5857 131.485 86.5857V85.8777H143.875L175.735 162.46C177.741 167.18 182.225 167.888 183.877 167.888ZM121.101 143.108H161.811L141.161 92.9577L121.101 143.108Z" fill="#D7CDBA"/>
<path d="M194.798 150.868C194.798 159.482 187.01 165.854 175.8 167.86C195.86 168.568 206.362 178.362 206.362 191.932C206.362 205.974 195.034 215.768 173.44 215.768H131.786V215.178C133.556 215.178 138.394 214.234 138.394 209.278V139.776C138.394 134.82 133.556 133.876 131.786 133.876V133.168H165.18C183.47 133.168 194.798 140.602 194.798 150.868ZM143.822 215.178H173.44C193.618 215.178 200.462 205.856 200.462 191.932C200.462 178.244 193.618 168.45 173.44 168.45H168.484C163.292 168.45 159.398 166.562 157.392 163.022L157.982 162.55C159.752 165.972 163.646 167.86 168.484 167.86C182.054 167.86 188.898 161.134 188.898 150.986C188.898 140.838 182.054 133.876 165.18 133.876H143.822V215.178Z" fill="#D7CDBA"/>
</svg>
