<svg width="314" height="314" viewBox="0 0 314 314" fill="none" xmlns="http://www.w3.org/2000/svg">
<g clip-path="url(#clip0_41_18763)">
<path fill-rule="evenodd" clip-rule="evenodd" d="M313.74 156.87C313.74 243.507 243.507 313.74 156.87 313.74C70.2331 313.74 0 243.507 0 156.87C0 70.2331 70.2331 0 156.87 0C243.507 0 313.74 70.2331 313.74 156.87ZM275.03 156.96C275.03 222.218 222.128 275.12 156.87 275.12C91.612 275.12 38.71 222.218 38.71 156.96C38.71 91.702 91.612 38.8 156.87 38.8C222.128 38.8 275.03 91.702 275.03 156.96Z" fill="#222222"/>
<path d="M156.87 314.61C243.987 314.61 314.61 243.987 314.61 156.87H312.87C312.87 243.026 243.026 312.87 156.87 312.87V314.61ZM-0.87 156.87C-0.87 243.987 69.7526 314.61 156.87 314.61V312.87C70.7136 312.87 0.87 243.026 0.87 156.87H-0.87ZM156.87 -0.87C69.7526 -0.87 -0.87 69.7526 -0.87 156.87H0.87C0.87 70.7135 70.7136 0.87 156.87 0.87V-0.87ZM314.61 156.87C314.61 69.7526 243.987 -0.87 156.87 -0.87V0.87C243.026 0.87 312.87 70.7135 312.87 156.87H314.61ZM156.87 275.99C222.608 275.99 275.9 222.698 275.9 156.96H274.16C274.16 221.737 221.647 274.25 156.87 274.25V275.99ZM37.84 156.96C37.84 222.698 91.1315 275.99 156.87 275.99V274.25C92.0925 274.25 39.58 221.737 39.58 156.96H37.84ZM156.87 37.93C91.1315 37.93 37.84 91.2215 37.84 156.96H39.58C39.58 92.1825 92.0925 39.67 156.87 39.67V37.93ZM275.9 156.96C275.9 91.2215 222.608 37.93 156.87 37.93V39.67C221.647 39.67 274.16 92.1825 274.16 156.96H275.9Z" fill="#D7CDBA"/>
<path d="M156.87 276.12C222.128 276.12 275.03 223.218 275.03 157.96C275.03 92.702 222.128 39.8 156.87 39.8C91.612 39.8 38.71 92.702 38.71 157.96C38.71 223.218 91.612 276.12 156.87 276.12Z" stroke="#D7CDBA" stroke-width="1.31" stroke-miterlimit="10"/>
<path d="M124.231 14.6697C125.022 17.3926 123.06 20.1053 118.175 21.5255L112.356 23.2173L114.622 31.0122C114.948 32.1334 116.104 32.0287 116.505 31.9123L116.544 32.0458L112.326 33.272L112.287 33.1385C112.688 33.0221 113.72 32.4903 113.394 31.3692L108.823 15.6459C108.497 14.5247 107.34 14.6294 106.94 14.7458L106.894 14.5856L115.409 12.11C120.321 10.682 123.431 11.9202 124.231 14.6697ZM112.309 23.0571L118.129 21.3653C122.694 20.0382 123.687 17.7806 122.896 15.0578C122.12 12.3883 120.047 10.9353 115.482 12.2624L109.663 13.9542L112.309 23.0571Z" fill="#D7CDBA"/>
<path d="M135.631 11.5708C133.572 11.9002 131.671 13.3869 130.726 15.2272L132.523 26.4546C132.707 27.6076 133.868 27.6471 134.28 27.5812L134.301 27.7185L129.992 28.408L129.97 28.2708C130.382 28.2049 131.472 27.8052 131.287 26.6523L129.614 16.1935C129.43 15.0406 129.257 14.8429 128.489 14.9659L128.462 14.8012L130.162 12.7556L130.327 12.7292L130.682 14.9527C131.556 13.3771 133.404 11.73 135.793 11.3479C137.852 11.0185 140.051 11.5675 140.183 12.3911C140.244 12.7754 139.99 13.1256 139.661 13.1783C138.508 13.3628 138.788 11.0657 135.631 11.5708Z" fill="#D7CDBA"/>
<path d="M150.555 9.99761C155.36 9.79454 158.92 13.0387 159.124 17.8716C159.327 22.6767 156.054 26.2097 151.249 26.4128C146.444 26.6158 142.912 23.3705 142.709 18.5654C142.504 13.7325 145.75 10.2007 150.555 9.99761ZM144.014 18.5102C144.214 23.232 147.215 26.4441 151.243 26.2739C155.298 26.1025 157.99 22.6497 157.791 17.928C157.591 13.2062 154.617 9.99288 150.562 10.1643C146.535 10.3345 143.815 13.7884 144.014 18.5102Z" fill="#D7CDBA"/>
<path d="M163.433 13.8212C163.489 12.655 163.361 12.4261 162.584 12.3884L162.592 12.2218L164.676 10.5695L164.843 10.5776L164.252 22.7397C164.073 26.4327 161.24 28.6053 157.436 28.4206L157.276 28.2736C160.469 28.4287 162.796 26.9274 163.03 22.1237L163.433 13.8212ZM163.125 7.54395C163.154 6.96083 163.622 6.4826 164.205 6.51091C164.788 6.53923 165.181 7.05926 165.152 7.64238C165.125 8.19772 164.686 8.64954 164.103 8.62122C163.52 8.59291 163.098 8.09929 163.125 7.54395Z" fill="#D7CDBA"/>
<path d="M177.427 11.2891C180.292 11.6754 182.78 14.0306 182.557 15.6836C182.505 16.0693 182.118 16.438 181.457 16.3489L170.657 14.8925C170.079 15.8524 169.703 16.9798 169.532 18.2472C168.9 22.9308 171.41 26.5793 176.176 27.222C179.537 27.6753 181.807 25.4007 182.827 24.0795L182.978 24.212C181.743 25.6725 179.529 28.1511 175.231 27.5715C170.465 26.9288 167.557 23.1143 168.2 18.3481C168.846 13.5542 172.661 10.6463 177.427 11.2891ZM170.731 14.7622L180.153 16.0328C181.007 16.1479 181.328 15.4338 181.384 15.0205C181.577 13.5879 179.801 11.7776 177.405 11.4544C174.594 11.0754 172.144 12.4 170.731 14.7622Z" fill="#D7CDBA"/>
<path d="M192.074 31.0874C187.434 29.8199 185.056 25.6544 186.324 21.015C187.598 16.3488 191.764 13.9709 196.403 15.2384C198.817 15.8977 200.613 17.3395 201.597 19.2222L200.578 19.8947C200.13 18.4755 199.39 16.2271 196.359 15.3993C192.471 14.337 188.83 16.8004 187.657 21.0912C186.412 25.6501 188.88 29.6962 192.769 30.7585C196.335 31.7329 198.879 29.8054 200.091 28.638L200.204 28.7551C198.779 30.0662 196.257 32.2303 192.074 31.0874Z" fill="#D7CDBA"/>
<path d="M206.784 20.6539C207.216 19.5688 206.626 19.0952 205.928 18.818L205.98 18.6889L209.26 17.3598L209.389 17.4111L208.486 19.6846L213.059 21.5016L212.977 21.7083L208.404 19.8913L204.39 29.9929C203.333 32.6539 204.39 34.6596 206.56 35.5219C208.136 36.1481 209.979 36.1026 211.406 34.8449L211.494 34.9996C210.206 36.1331 208.003 36.6337 206.195 35.9151C203.405 34.8064 202.165 32.2797 203.14 29.8254L206.784 20.6539Z" fill="#D7CDBA"/>
<path d="M229.551 31.7587L228.41 32.1942C228.28 30.7116 228.118 28.3951 224.971 26.7355C222.167 25.2575 219.562 25.5495 218.655 27.2709C216.36 31.6236 228.199 35.6343 225.735 40.3066C224.737 42.2002 221.788 43.4423 217.632 41.2511C215.148 39.9416 213.626 37.8818 212.982 36.0026L214.099 35.5542C214.215 37.0614 214.377 39.3778 217.697 41.1282C220.795 42.7618 223.735 42.5516 224.694 40.7319C227.08 36.2071 215.008 32.5768 217.628 27.6094C218.509 25.9372 221.212 24.5654 225.049 26.588C227.704 27.9883 228.907 29.8795 229.551 31.7587Z" fill="#D7CDBA"/>
<path d="M264.173 58.0355C262.203 60.0746 258.874 59.7186 255.216 56.1834L250.858 51.9719L245.217 57.8093C244.405 58.6489 245.07 59.6009 245.37 59.8907L245.274 59.9906L242.115 56.9383L242.212 56.8383C242.511 57.1281 243.486 57.7602 244.297 56.9206L255.676 45.146C256.487 44.3064 255.822 43.3544 255.522 43.0646L255.638 42.9447L262.015 49.1073C265.693 52.6619 266.163 55.9764 264.173 58.0355ZM250.973 51.852L255.331 56.0634C258.75 59.3669 261.203 59.1086 263.174 57.0696C265.105 55.0705 265.338 52.55 261.919 49.2465L257.561 45.0351L250.973 51.852Z" fill="#D7CDBA"/>
<path d="M272.536 66.3542C271.226 64.7325 268.99 63.823 266.924 63.9199L258.08 71.0661C257.172 71.8 257.715 72.8263 257.977 73.1507L257.869 73.238L255.126 69.8432L255.234 69.7559C255.496 70.0802 256.385 70.827 257.294 70.0931L265.532 63.4361C266.44 62.7023 266.526 62.4544 266.037 61.8489L266.166 61.7441L268.787 62.2002L268.891 62.3299L267.14 63.7452C268.942 63.719 271.29 64.502 272.81 66.3832C274.12 68.005 274.739 70.1858 274.09 70.71C273.788 70.9546 273.358 70.9089 273.148 70.6495C272.414 69.7413 274.546 68.8408 272.536 66.3542Z" fill="#D7CDBA"/>
<path d="M281.333 78.5275C283.899 82.5949 282.855 87.2966 278.764 89.8778C274.697 92.4442 270.004 91.3621 267.437 87.2947C264.871 83.2272 265.93 78.5491 269.997 75.9827C274.088 73.4015 278.766 74.4601 281.333 78.5275ZM270.694 77.0877C266.697 79.6096 265.404 83.8114 267.555 87.2205C269.721 90.6532 274.055 91.2712 278.052 88.7493C282.049 86.2274 283.357 82.0492 281.192 78.6165C279.041 75.2074 274.691 74.5659 270.694 77.0877Z" fill="#D7CDBA"/>
<path d="M284.426 91.6224C285.466 91.0929 285.601 90.8681 285.248 90.1744L285.397 90.0987L287.866 91.0884L287.941 91.237L277.089 96.7593C273.794 98.4362 270.502 97.0545 268.775 93.6601L268.823 93.4484C270.273 96.2977 272.731 97.5734 277.018 95.3922L284.426 91.6224ZM289.723 88.2405C290.243 87.9758 290.891 88.1453 291.156 88.6656C291.421 89.1859 291.164 89.7845 290.643 90.0492C290.148 90.3014 289.538 90.1441 289.273 89.6238C289.008 89.1035 289.228 88.4927 289.723 88.2405Z" fill="#D7CDBA"/>
<path d="M293.563 102.526C294.646 105.206 293.832 108.534 292.286 109.159C291.925 109.305 291.413 109.152 291.163 108.533L287.079 98.43C285.959 98.4031 284.793 98.6345 283.607 99.1137C279.226 100.885 277.299 104.872 279.102 109.331C280.373 112.475 283.473 113.321 285.126 113.553L285.086 113.749C283.205 113.399 279.956 112.704 278.33 108.683C276.528 104.224 278.401 99.809 282.86 98.0065C287.345 96.1937 291.76 98.0671 293.563 102.526ZM287.229 98.4294L290.792 107.244C291.115 108.043 291.894 107.968 292.281 107.812C293.621 107.27 294.314 104.831 293.408 102.588C292.345 99.9595 289.981 98.4865 287.229 98.4294Z" fill="#D7CDBA"/>
<path d="M283.619 125.052C282.422 120.394 284.863 116.265 289.521 115.068C294.206 113.865 298.335 116.305 299.532 120.964C300.154 123.387 299.791 125.661 298.643 127.449L297.554 126.897C298.565 125.804 300.152 124.048 299.37 121.005C298.367 117.101 294.423 115.158 290.115 116.265C285.538 117.441 283.245 121.589 284.249 125.493C285.169 129.074 288.103 130.329 289.718 130.804L289.672 130.96C287.827 130.372 284.698 129.253 283.619 125.052Z" fill="#D7CDBA"/>
<path d="M299.964 132.677C301.121 132.514 301.24 131.767 301.135 131.024L301.273 131.004L304.052 133.196L304.072 133.333L301.649 133.675L302.336 138.547L302.115 138.578L301.429 133.706L290.665 135.222C287.83 135.622 286.611 137.534 286.937 139.846C287.174 141.526 288.126 143.104 289.926 143.721L289.835 143.874C288.212 143.316 286.686 141.65 286.415 139.723C285.996 136.75 287.577 134.422 290.192 134.054L299.964 132.677Z" fill="#D7CDBA"/>
<path d="M301.61 157.949L300.666 157.175C301.888 156.326 303.819 155.036 303.697 151.48C303.589 148.312 302.042 146.196 300.097 146.262C295.18 146.431 297.575 158.699 292.296 158.88C290.156 158.953 287.614 157.009 287.453 152.314C287.357 149.508 288.39 147.164 289.702 145.672L290.645 146.419C289.395 147.268 287.464 148.558 287.592 152.309C287.712 155.81 289.354 158.257 291.41 158.187C296.522 158.012 293.682 145.731 299.294 145.539C301.183 145.474 303.716 147.14 303.864 151.474C303.967 154.475 302.922 156.458 301.61 157.949Z" fill="#D7CDBA"/>
<path d="M296.04 201.042C293.291 200.345 291.946 197.279 293.197 192.348L294.687 186.474L286.818 184.478C285.686 184.191 285.191 185.241 285.088 185.646L284.953 185.611L286.033 181.354L286.168 181.388C286.065 181.792 286.001 182.952 287.132 183.239L303.004 187.264C304.136 187.551 304.632 186.501 304.734 186.096L304.896 186.137L302.716 194.733C301.459 199.692 298.815 201.746 296.04 201.042ZM294.848 186.515L293.359 192.389C292.19 196.997 293.633 198.998 296.382 199.695C299.076 200.378 301.379 199.327 302.548 194.719L304.037 188.845L294.848 186.515Z" fill="#D7CDBA"/>
<path d="M292.946 212.442C293.706 210.5 293.388 208.107 292.28 206.361L281.691 202.219C280.603 201.794 279.981 202.775 279.829 203.163L279.7 203.112L281.289 199.047L281.419 199.098C281.267 199.486 281.059 200.629 282.146 201.054L292.011 204.912C293.098 205.337 293.356 205.289 293.639 204.564L293.795 204.625L294.697 207.127L294.636 207.282L292.539 206.462C293.454 208.014 293.938 210.442 293.057 212.694C292.297 214.636 290.709 216.254 289.933 215.95C289.57 215.808 289.397 215.412 289.518 215.101C289.944 214.014 291.782 215.419 292.946 212.442Z" fill="#D7CDBA"/>
<path d="M286.714 226.141C284.449 230.384 279.846 231.802 275.579 229.524C271.337 227.259 269.955 222.645 272.221 218.402C274.486 214.16 279.075 212.766 283.318 215.031C287.585 217.309 288.979 221.899 286.714 226.141ZM282.702 216.183C278.533 213.957 274.242 214.912 272.343 218.468C270.432 222.048 272.039 226.121 276.208 228.347C280.377 230.573 284.655 229.643 286.567 226.062C288.465 222.507 286.871 218.409 282.702 216.183Z" fill="#D7CDBA"/>
<path d="M276.87 235.295C277.845 235.938 278.107 235.944 278.536 235.294L278.675 235.385L279.037 238.02L278.945 238.16L268.776 231.462C265.688 229.428 265.26 225.884 267.354 222.703L267.562 222.64C265.804 225.31 265.912 228.078 269.928 230.723L276.87 235.295ZM282.43 238.225C282.918 238.546 283.091 239.193 282.77 239.68C282.449 240.168 281.802 240.241 281.314 239.92C280.85 239.614 280.684 239.006 281.005 238.518C281.327 238.031 281.966 237.919 282.43 238.225Z" fill="#D7CDBA"/>
<path d="M271.919 248.624C270.128 250.893 266.834 251.835 265.525 250.801C265.22 250.56 265.099 250.04 265.512 249.516L272.265 240.963C271.733 239.976 270.955 239.078 269.951 238.286C266.242 235.357 261.824 235.659 258.844 239.434C256.742 242.096 257.544 245.208 258.161 246.759L257.971 246.821C257.343 245.014 256.337 241.847 259.024 238.443C262.004 234.668 266.768 234.108 270.542 237.088C274.339 240.085 274.899 244.849 271.919 248.624ZM272.34 241.092L266.448 248.555C265.914 249.231 266.366 249.871 266.693 250.129C267.828 251.025 270.29 250.419 271.788 248.52C273.545 246.295 273.653 243.511 272.34 241.092Z" fill="#D7CDBA"/>
<path d="M247.424 251.168C250.872 247.816 255.668 247.884 259.02 251.332C262.392 254.801 262.324 259.597 258.876 262.949C257.082 264.693 254.927 265.508 252.806 265.399L252.744 264.18C254.194 264.515 256.507 265.019 258.759 262.83C261.65 260.02 261.378 255.632 258.277 252.443C254.983 249.054 250.244 249.124 247.354 251.934C244.703 254.511 245.071 257.682 245.46 259.319L245.303 259.356C244.897 257.463 244.314 254.191 247.424 251.168Z" fill="#D7CDBA"/>
<path d="M248.976 269.107C249.693 270.029 250.4 269.76 250.993 269.299L251.078 269.409L250.562 272.911L250.452 272.996L248.95 271.065L245.066 274.086L244.929 273.911L248.813 270.889L242.139 262.31C240.381 260.05 238.116 259.945 236.273 261.379C234.934 262.42 234.039 264.032 234.4 265.9L234.222 265.897C233.898 264.212 234.583 262.059 236.119 260.865C238.489 259.021 241.295 259.233 242.917 261.317L248.976 269.107Z" fill="#D7CDBA"/>
<path d="M227.848 283.137L228.05 281.933C229.394 282.572 231.474 283.605 234.498 281.73C237.192 280.061 238.259 277.666 237.234 276.012C234.642 271.83 225.19 280.01 222.407 275.52C221.28 273.701 221.701 270.529 225.695 268.053C228.081 266.574 230.628 266.304 232.575 266.7L232.396 267.89C231.037 267.228 228.958 266.195 225.768 268.172C222.791 270.017 221.484 272.658 222.568 274.407C225.262 278.755 234.503 270.182 237.462 274.955C238.458 276.562 238.272 279.587 234.586 281.872C232.034 283.454 229.794 283.534 227.848 283.137Z" fill="#D7CDBA"/>
<path d="M187.634 299.664C186.879 296.931 188.876 294.244 193.78 292.889L199.621 291.275L197.459 283.45C197.148 282.325 195.99 282.414 195.588 282.525L195.551 282.391L199.785 281.221L199.822 281.355C199.42 281.466 198.38 281.984 198.691 283.11L203.053 298.892C203.364 300.018 204.522 299.928 204.924 299.817L204.969 299.978L196.421 302.34C191.491 303.703 188.397 302.424 187.634 299.664ZM199.666 291.435L193.824 293.05C189.242 294.316 188.219 296.56 188.974 299.294C189.714 301.973 191.768 303.453 196.35 302.187L202.191 300.573L199.666 291.435Z" fill="#D7CDBA"/>
<path d="M176.165 302.626C178.228 302.324 180.149 300.863 181.118 299.035L179.47 287.785C179.301 286.629 178.141 286.575 177.729 286.635L177.709 286.497L182.027 285.865L182.047 286.003C181.635 286.063 180.539 286.448 180.708 287.603L182.243 298.084C182.412 299.239 182.582 299.439 183.352 299.326L183.376 299.491L181.649 301.514L181.484 301.538L181.158 299.31C180.263 300.874 178.393 302.496 176 302.847C173.937 303.149 171.745 302.571 171.625 301.745C171.568 301.36 171.827 301.013 172.157 300.965C173.312 300.796 173.001 303.089 176.165 302.626Z" fill="#D7CDBA"/>
<path d="M161.215 303.998C156.407 304.137 152.892 300.845 152.752 296.01C152.614 291.202 155.934 287.714 160.742 287.575C165.549 287.437 169.037 290.729 169.175 295.537C169.315 300.372 166.022 303.86 161.215 303.998ZM167.869 295.574C167.733 290.85 164.775 287.598 160.746 287.714C156.689 287.831 153.95 291.247 154.086 295.971C154.222 300.695 157.153 303.948 161.21 303.831C165.239 303.715 168.005 300.298 167.869 295.574Z" fill="#D7CDBA"/>
<path d="M148.398 300.008C148.326 301.173 148.451 301.404 149.228 301.452L149.218 301.618L147.112 303.243L146.945 303.232L147.697 291.079C147.926 287.389 150.787 285.254 154.589 285.489L154.746 285.638C151.556 285.441 149.208 286.911 148.912 291.711L148.398 300.008ZM148.623 306.288C148.586 306.871 148.112 307.343 147.529 307.307C146.946 307.271 146.561 306.746 146.597 306.163C146.631 305.608 147.077 305.162 147.659 305.198C148.242 305.234 148.657 305.734 148.623 306.288Z" fill="#D7CDBA"/>
<path d="M134.391 302.356C131.532 301.932 129.075 299.544 129.32 297.894C129.377 297.509 129.769 297.146 130.429 297.243L141.208 298.843C141.799 297.891 142.19 296.768 142.378 295.504C143.072 290.829 140.611 287.147 135.854 286.441C132.499 285.944 130.198 288.188 129.161 289.495L129.013 289.361C130.267 287.917 132.513 285.468 136.803 286.104C141.56 286.81 144.417 290.663 143.711 295.42C143.001 300.205 139.149 303.062 134.391 302.356ZM141.133 298.972L131.728 297.577C130.876 297.45 130.545 298.16 130.484 298.573C130.272 300.003 132.024 301.836 134.416 302.191C137.221 302.608 139.689 301.316 141.133 298.972Z" fill="#D7CDBA"/>
<path d="M120.019 282.363C124.642 283.691 126.965 287.887 125.637 292.51C124.301 297.159 120.105 299.482 115.483 298.154C113.078 297.463 111.3 295.998 110.341 294.102L111.369 293.443C111.799 294.868 112.509 297.126 115.529 297.994C119.403 299.107 123.076 296.691 124.304 292.416C125.609 287.874 123.194 283.796 119.32 282.683C115.767 281.662 113.198 283.556 111.97 284.707L111.86 284.589C113.301 283.296 115.851 281.165 120.019 282.363Z" fill="#D7CDBA"/>
<path d="M105.138 292.584C104.693 293.663 105.276 294.145 105.97 294.431L105.916 294.56L102.619 295.845L102.49 295.792L103.424 293.531L98.8761 291.652L98.9609 291.447L103.509 293.325L107.658 283.278C108.751 280.632 107.72 278.612 105.562 277.721C103.995 277.073 102.151 277.094 100.708 278.332L100.622 278.177C101.925 277.061 104.134 276.59 105.933 277.332C108.708 278.478 109.914 281.022 108.905 283.463L105.138 292.584Z" fill="#D7CDBA"/>
<path d="M82.5371 281.185L83.6838 280.764C83.7938 282.249 83.9245 284.567 87.0499 286.268C89.8335 287.783 92.4424 287.526 93.3728 285.817C95.7252 281.495 83.9404 277.327 86.4656 272.688C87.4889 270.808 90.4543 269.605 94.5808 271.851C97.0469 273.194 98.5419 275.273 99.1604 277.161L98.0381 277.595C97.9414 276.086 97.8106 273.768 94.5143 271.973C91.4377 270.299 88.4959 270.47 87.5124 272.277C85.067 276.77 97.0889 280.56 94.4042 285.492C93.5004 287.152 90.7793 288.488 86.9702 286.415C84.3331 284.979 83.1556 283.072 82.5371 281.185Z" fill="#D7CDBA"/>
<path d="M48.2567 254.45C50.2541 252.438 53.5778 252.838 57.1889 256.421L61.4907 260.69L67.2086 254.928C68.031 254.099 67.3786 253.139 67.0826 252.845L67.1806 252.746L70.2984 255.84L70.2004 255.939C69.9045 255.645 68.9388 255 68.1163 255.829L56.5825 267.452C55.7601 268.28 56.4125 269.241 56.7085 269.535L56.591 269.653L50.2962 263.407C46.6653 259.803 46.2398 256.483 48.2567 254.45ZM61.3732 260.809L57.0714 256.54C53.6971 253.191 51.2407 253.417 49.2434 255.43C47.2852 257.403 47.0196 259.92 50.394 263.269L54.6957 267.537L61.3732 260.809Z" fill="#D7CDBA"/>
<path d="M40.011 246.017C41.2998 247.656 43.5236 248.595 45.5909 248.526L54.5287 241.498C55.4465 240.776 54.9168 239.742 54.659 239.415L54.7683 239.329L57.4662 242.76L57.357 242.845C57.0992 242.518 56.2198 241.759 55.302 242.481L46.9761 249.028C46.0583 249.75 45.9694 249.997 46.4505 250.608L46.3194 250.712L43.7054 250.221L43.6023 250.09L45.3724 248.698C43.5705 248.7 41.2328 247.886 39.7378 245.985C38.449 244.346 37.8594 242.157 38.515 241.641C38.821 241.401 39.2504 241.452 39.4566 241.714C40.1783 242.632 38.0348 243.504 40.011 246.017Z" fill="#D7CDBA"/>
<path d="M31.3733 233.731C28.8611 229.63 29.9671 224.943 34.0919 222.416C38.193 219.904 42.8713 221.048 45.3835 225.149C47.8957 229.25 46.7752 233.914 42.674 236.426C38.5492 238.953 33.8855 237.832 31.3733 233.731ZM41.9915 235.312C46.0215 232.843 47.3705 228.659 45.265 225.222C43.1448 221.761 38.819 221.085 34.7889 223.554C30.7589 226.022 29.3954 230.183 31.5155 233.644C33.6211 237.081 37.9615 237.781 41.9915 235.312Z" fill="#D7CDBA"/>
<path d="M28.4561 220.611C27.4086 221.127 27.2704 221.35 27.6142 222.048L27.4646 222.122L25.0092 221.099L24.9355 220.95L35.86 215.572C39.1772 213.939 42.4506 215.364 44.1327 218.781L44.0817 218.992C42.6697 216.124 40.2286 214.816 35.9137 216.94L28.4561 220.611ZM23.1144 223.922C22.5906 224.18 21.9452 224.002 21.6873 223.478C21.4295 222.954 21.6943 222.359 22.218 222.101C22.7169 221.856 23.3251 222.021 23.5829 222.545C23.8407 223.069 23.6132 223.677 23.1144 223.922Z" fill="#D7CDBA"/>
<path d="M19.4608 209.568C18.4129 206.874 19.2709 203.557 20.8254 202.953C21.1882 202.812 21.6977 202.971 21.9396 203.593L25.8893 213.75C27.0091 213.792 28.178 213.576 29.3698 213.112C33.7745 211.399 35.7537 207.438 34.0106 202.956C32.7814 199.795 29.6924 198.908 28.0428 198.655L28.086 198.459C29.9615 198.833 33.2017 199.571 34.7735 203.613C36.5166 208.096 34.5849 212.486 30.1025 214.229C25.5942 215.982 21.2039 214.051 19.4608 209.568ZM25.7396 213.748L22.2936 204.887C21.9813 204.084 21.2011 204.149 20.8125 204.3C19.4652 204.824 18.7397 207.254 19.6163 209.508C20.644 212.151 22.9888 213.655 25.7396 213.748Z" fill="#D7CDBA"/>
<path d="M29.7115 187.165C30.8456 191.839 28.3495 195.935 23.6758 197.069C18.975 198.21 14.8792 195.713 13.7451 191.04C13.155 188.608 13.5483 186.339 14.7203 184.567L15.802 185.134C14.7764 186.212 13.1664 187.948 13.9072 191C14.8578 194.918 18.7749 196.914 23.0975 195.865C27.6902 194.75 30.0381 190.633 29.0875 186.716C28.2156 183.123 25.2983 181.828 23.6902 181.332L23.7385 181.177C25.575 181.79 28.6888 182.951 29.7115 187.165Z" fill="#D7CDBA"/>
<path d="M13.4681 179.361C12.3099 179.509 12.1808 180.254 12.2758 180.998L12.1379 181.016L9.38749 178.788L9.3699 178.651L11.7966 178.341L11.174 173.46L11.3946 173.432L12.0172 178.313L22.7997 176.937C25.64 176.575 26.8835 174.679 26.588 172.362C26.3734 170.68 25.4418 169.09 23.6506 168.449L23.7433 168.297C25.3585 168.876 26.8627 170.562 27.109 172.492C27.4889 175.47 25.8776 177.778 23.2578 178.112L13.4681 179.361Z" fill="#D7CDBA"/>
<path d="M12.1538 154.027L13.0879 154.814C11.854 155.646 9.90626 156.911 9.98078 160.468C10.0472 163.637 11.5656 165.774 13.5112 165.733C18.4307 165.63 16.1989 153.331 21.4797 153.22C23.6198 153.175 26.136 155.153 26.2344 159.85C26.2932 162.657 25.2298 164.987 23.8981 166.461L22.9646 165.702C24.2263 164.869 26.174 163.605 26.0954 159.853C26.0221 156.351 24.4132 153.882 22.3565 153.925C17.2424 154.032 19.9195 166.35 14.3052 166.467C12.4152 166.507 9.90484 164.808 9.81402 160.472C9.75114 157.47 10.8221 155.501 12.1538 154.027Z" fill="#D7CDBA"/>
<path d="M18.3008 111.02C21.0397 111.754 22.3433 114.837 21.0266 119.751L19.458 125.605L27.299 127.706C28.4269 128.008 28.9367 126.965 29.0446 126.562L29.1789 126.598L28.042 130.841L27.9078 130.805C28.0157 130.402 28.0959 129.243 26.9681 128.941L11.1518 124.703C10.024 124.401 9.51416 125.444 9.40623 125.847L9.24511 125.804L11.5404 117.238C12.8643 112.297 15.5349 110.279 18.3008 111.02ZM19.2969 125.562L20.8655 119.708C22.0958 115.116 20.68 113.096 17.941 112.362C15.2557 111.643 12.9391 112.663 11.7087 117.254L10.1401 123.108L19.2969 125.562Z" fill="#D7CDBA"/>
<path d="M21.5454 99.6645C20.7603 101.596 21.0464 103.993 22.131 105.754L32.6643 110.036C33.746 110.475 34.3812 109.503 34.5383 109.117L34.667 109.169L33.0235 113.213L32.8948 113.16C33.0518 112.774 33.2749 111.634 32.1933 111.195L22.3811 107.206C21.2994 106.767 21.041 106.812 20.7479 107.533L20.5934 107.47L19.7246 104.956L19.7874 104.802L21.8735 105.65C20.9788 104.086 20.5277 101.652 21.4384 99.411C22.2235 97.4794 23.8327 95.8829 24.6053 96.1969C24.9659 96.3435 25.134 96.7419 25.0084 97.051C24.5688 98.1326 22.7492 96.7028 21.5454 99.6645Z" fill="#D7CDBA"/>
<path d="M27.9623 86.0501C30.2844 81.8384 34.9055 80.4815 39.1415 82.8171C43.3532 85.1391 44.6723 89.7711 42.3502 93.9828C40.0281 98.1945 35.4205 99.527 31.2088 97.2049C26.9728 94.8694 25.6402 90.2618 27.9623 86.0501ZM31.8397 96.0607C35.9783 98.3425 40.2822 97.4457 42.2285 93.9157C44.1882 90.3613 42.6359 86.2674 38.4972 83.9856C34.3586 81.7038 30.0681 82.5763 28.1084 86.1306C26.1621 89.6606 27.701 93.7789 31.8397 96.0607Z" fill="#D7CDBA"/>
<path d="M37.9245 77.0286C36.9581 76.3733 36.696 76.3635 36.2591 77.0078L36.1211 76.9142L35.7948 74.2746L35.8885 74.1366L45.9665 80.9702C49.0267 83.0452 49.4075 86.5951 47.27 89.7473L47.0614 89.8074C48.8556 87.1613 48.7848 84.3926 44.8042 81.6935L37.9245 77.0286ZM32.4042 74.0244C31.921 73.6967 31.7564 73.0478 32.0841 72.5646C32.4117 72.0814 33.0599 72.0171 33.5431 72.3447C34.0033 72.6567 34.1604 73.2671 33.8328 73.7503C33.5051 74.2335 32.8643 74.3364 32.4042 74.0244Z" fill="#D7CDBA"/>
<path d="M43.0694 63.746C44.8912 61.501 48.1972 60.6036 49.4924 61.6547C49.7946 61.8999 49.9082 62.4217 49.4877 62.9398L42.6208 71.4017C43.1392 72.3952 43.9057 73.3036 44.8987 74.1094C48.5683 77.0875 52.9899 76.8448 56.0205 73.1104C58.1576 70.4768 57.3979 67.3542 56.801 65.7957L56.9924 65.7362C57.5963 67.5509 58.5596 70.7315 55.8269 74.0989C52.7963 77.8334 48.0256 78.3297 44.2912 75.2992C40.5352 72.2511 40.0388 67.4804 43.0694 63.746ZM42.5479 71.2709L48.539 63.8884C49.082 63.2192 48.6393 62.5735 48.3155 62.3108C47.193 61.3998 44.7229 61.9731 43.1989 63.8511C41.4121 66.0529 41.2667 68.8349 42.5479 71.2709Z" fill="#D7CDBA"/>
<path d="M67.5603 61.5723C64.0682 64.8792 59.2736 64.7486 55.9667 61.2565C52.6406 57.7443 52.7712 52.9496 56.2633 49.6427C58.08 47.9223 60.2449 47.1357 62.365 47.2721L62.4104 48.4925C60.9648 48.1385 58.6589 47.6038 56.378 49.7638C53.4511 52.5355 53.6658 56.9266 56.7242 60.1563C59.9738 63.5878 64.7133 63.5792 67.6402 60.8075C70.3248 58.2652 69.9983 55.0903 69.6301 53.448L69.7884 53.413C70.1693 55.3112 70.7093 58.5903 67.5603 61.5723Z" fill="#D7CDBA"/>
<path d="M66.2823 43.5771C65.5778 42.6459 64.8672 42.9047 64.2686 43.3576L64.1847 43.2467L64.7483 39.7526L64.8592 39.6688L66.3352 41.6197L70.2593 38.6509L70.3935 38.8282L66.4694 41.7971L73.0277 50.4655C74.7553 52.749 77.0188 52.8841 78.8811 51.4752C80.2334 50.452 81.1497 48.8524 80.8138 46.9801L80.9917 46.9849C81.2935 48.6739 80.5797 50.8175 79.0278 51.9916C76.6334 53.8031 73.8301 53.5535 72.2367 51.4474L66.2823 43.5771Z" fill="#D7CDBA"/>
<path d="M87.579 29.8473L87.3609 31.0489C86.0253 30.3923 83.9598 29.3311 80.9103 31.1649C78.1944 32.7981 77.0954 35.1783 78.0982 36.846C80.634 41.0629 90.1948 33.0104 92.9168 37.537C94.0199 39.3715 93.5558 42.5377 89.5295 44.9588C87.1232 46.4058 84.5728 46.6419 82.6319 46.2195L82.8262 45.0322C84.1761 45.7126 86.2416 46.7738 89.4579 44.8397C92.4597 43.0346 93.8016 40.4111 92.7415 38.6481C90.1054 34.2644 80.75 42.7123 77.8561 37.8999C76.8819 36.2798 77.1078 33.2569 80.8244 31.022C83.3974 29.4747 85.6381 29.4248 87.579 29.8473Z" fill="#D7CDBA"/>
</g>
<defs>
<clipPath id="clip0_41_18763">
<rect width="313.74" height="313.74" fill="white"/>
</clipPath>
</defs>
</svg>
