<svg width="314" height="314" viewBox="0 0 314 314" fill="none" xmlns="http://www.w3.org/2000/svg">
<path d="M156.87 313.74C243.507 313.74 313.74 243.507 313.74 156.87C313.74 70.2331 243.507 0 156.87 0C70.2331 0 0 70.2331 0 156.87C0 243.507 70.2331 313.74 156.87 313.74Z" fill="#222222"/>
<path d="M194.29 174.85C194.84 170.67 195.44 166.17 196.02 161.66C196.14 160.72 196.14 159.77 196.3 158.84C196.5 157.72 196.33 156.97 195.18 156.37C193.76 155.63 193.73 154.5 194.96 153.42C195.18 153.23 195.51 153.07 195.58 152.84C197.04 148 198.42 143.14 196.62 138.07C195.86 135.93 194.1 134.71 192.04 134.49C187.59 134.01 183.06 133.31 178.64 133.7C163.79 135 149.52 138.71 135.97 145.04C134.48 145.73 133.71 146.74 133.13 148.32C130.38 155.85 127.01 163.06 121.37 168.97C120.67 169.7 120.28 170.79 119.91 171.78C118.66 175.13 117.34 178.53 114.35 180.67C109.68 184.01 102.21 183.02 98.1604 178.88C97.2604 177.96 96.1204 177.27 95.0304 176.56C89.0404 172.64 85.9404 167.35 87.0104 160.01C87.0704 159.61 87.0404 159.1 86.8404 158.78C84.2704 154.64 83.5304 149.93 83.0204 145.27C82.3204 138.92 81.9604 132.51 84.3404 126.33C84.5504 125.77 84.5504 125.06 84.4204 124.46C82.2104 113.81 83.3404 103.41 86.7404 93.18C86.8104 92.97 86.8704 92.74 87.0104 92.59C89.9304 89.14 89.5704 84.82 90.3504 80.75C91.8304 73.04 94.3904 65.73 101.15 60.77C101.71 60.36 102.05 59.49 102.26 58.76C104.23 52.19 108.73 48.25 115.17 46.39C117.95 45.59 129.43 47.52 131.85 49.1C136.72 52.27 138.91 57.13 139.76 62.57C140.31 66.13 140.15 69.8 140.35 73.42C140.45 75.13 140.56 76.85 140.83 78.54C141.48 82.69 142.14 86.84 142.97 90.95C143.24 92.3 143.76 93.76 144.62 94.79C149.48 100.65 155.91 104.52 162.39 108.26C171.93 113.77 182.23 117.49 192.65 120.9C193.27 121.1 193.87 121.36 194.5 121.54C202.88 123.93 206.97 129.57 207.05 138.19C207.06 139.84 208.15 140.61 209.05 141.75C212.38 145.97 216.16 149.97 216.81 155.75C217.54 162.29 217.59 168.78 216.12 175.23C215.16 179.45 212.93 182.79 209.44 185.35C207.52 186.76 205.73 188.35 203.31 190.33C208.18 193.03 212.72 195.51 217.22 198.05C218.05 198.52 218.76 199.21 219.53 199.8C218.81 200.37 218.17 201.16 217.34 201.49C211.4 203.9 212.38 202.32 212.28 208.77C212.21 213.56 212.23 218.35 212.26 223.14C212.28 227.23 214.42 229.35 218.54 229.43C219.7 229.45 220.87 229.35 222.02 229.45C224.35 229.67 226.26 231.23 226.66 233.12C227.11 235.2 226.03 238.42 224.17 239.18C223.01 239.66 221.35 239.55 220.13 239.11C218.42 238.5 218.07 237.34 217.75 235.18L217.28 237.61C199.72 245.58 182.05 253.6 164.23 261.69C164.31 260.82 164.54 259.86 164.46 258.93C164.38 258.09 163.97 257.29 163.7 256.47L162.95 256.6C162.95 257.47 163.04 258.35 162.93 259.2C162.72 260.87 162.82 262.79 162.02 264.14C160.64 266.45 153.63 265.79 152.45 263.34C151.99 262.39 152.22 261.11 152.15 259.98C152.1 259.08 152.07 258.17 152.03 257.27L151.08 257.16C150.72 258.28 150.36 259.41 149.9 260.86C135.6 250.37 121.26 239.85 106.93 229.34C107.88 226.14 107.67 225.66 105.42 225.79C105.38 225.92 105.29 226.07 105.33 226.18C105.61 227.13 105.91 228.07 106.21 229.02C104.99 229.19 103.63 229.8 102.59 229.46C99.7604 228.53 99.2204 224.14 101.77 222.58C103.3 221.65 105.23 221.14 107.04 220.95C110.63 220.59 112.28 220.04 112.03 215.89C111.71 210.53 111.75 205.15 111.46 199.79C111.41 198.9 110.72 197.75 109.97 197.24C107.6 195.61 105.06 194.22 102.34 192.6C103.02 191.97 103.57 191.53 104.04 191.03C107.83 187.02 112.95 185.31 117.75 183.02C118.8 182.52 119.78 181.68 120.54 180.78C123.96 176.71 128.22 173.87 133.29 172.46C137.96 171.15 142.82 170.49 147.45 169.08C151.93 167.72 156.28 165.88 160.58 164.01C162.33 163.25 163.63 163.17 165.14 164.39C166.72 165.66 168.45 166.74 170.14 167.87C170.67 168.22 171.26 168.57 171.86 168.73C179.19 170.75 186.52 172.73 194.3 174.84L194.29 174.85ZM142.95 210.87C147.33 213.35 151.72 215.82 156.19 218.35C156.85 216.8 156.55 215.83 155.13 215.03C139.97 206.48 124.83 197.89 109.68 189.32C109.28 189.09 108.77 189.04 108.32 188.91L108.05 189.49C108.59 189.89 109.11 190.32 109.68 190.68C112.66 192.58 115.65 194.46 118.64 196.34C117.66 195.96 116.69 195.57 115.69 195.18C115.28 197.39 115.94 198.11 119.32 198.97L118.56 196.26L122.41 198.61L120.92 199.29C121.36 199.96 121.64 200.89 122.25 201.26C129.63 205.71 137.06 210.07 144.49 214.44C144.87 214.67 145.34 214.76 145.82 214.93C146.2 212.46 144.03 212.07 142.95 210.86V210.87ZM203.06 128.65C201.6 127.43 200.14 126.21 198.68 124.99C197.81 124.5 196.97 123.91 196.05 123.56C193.2 122.48 190.35 121.39 187.45 120.47C173.2 115.99 160.06 109.34 148.19 100.25C146.67 99.09 145.23 97.82 143.46 96.36C143.28 100.07 142.87 103.35 145.47 105.92L144.15 105.71L146.16 107.53L143.51 106.48C143.28 107.14 143.05 107.65 142.92 108.19C142.06 111.78 141.26 115.38 140.37 118.95C139.76 121.4 138.77 123.79 138.44 126.27C138.23 127.85 136.77 129.74 138.7 131.3L137.69 132L138.68 132.55L137.3 133.67L138.33 134.18L137.12 135.18L137.31 135.51C138.97 134.91 140.62 134.32 142.28 133.72C140.5 135.4 137.71 135.32 136.21 137.27L136.51 137.78L137.83 137.62L136.19 138.94L136.4 139.22C138.18 138.48 139.97 137.75 141.75 137.01L141.91 137.39L135.63 140.45L135.9 140.98L139.42 139.69L139.58 140.06L135.9 141.94L135.98 142.14C139.83 140.69 143.67 139.24 147.52 137.79L147.62 138.11C143.45 139.84 139.29 141.57 135.12 143.3L135.32 143.82C136.04 143.57 136.75 143.31 137.47 143.06C144.46 140.7 151.45 138.3 158.46 135.99C160.78 135.23 163.16 134.69 165.52 134.05L165.45 134.1L170.93 133.06C171.6 132.89 172.42 133.22 173.15 133.06C175.26 132.63 177.43 132.19 179.48 131.74C183.5 130.85 187.87 131.52 192.1 131.54L192.08 132.31L188.72 131.98C189.82 132.52 190.95 132.71 192.08 132.94C196.52 133.83 197.79 135.21 198.34 139.71C198.41 140.29 198.43 140.87 198.48 141.45C198.65 143.77 198.82 146.09 198.98 148.41L199.57 148.34C199.21 143.61 199.71 138.76 197.27 134.3C200.51 138.19 199.78 142.99 200.5 147.49L200.88 142.67L201.49 142.72V148.04H202.08V140L202.76 140.02V148.99L204.06 147.57L204.38 147.87L204.72 145.92L205.01 145.96C205.13 146.8 205.26 147.64 205.38 148.48C205.79 148.2 205.96 147.94 205.95 147.69C205.75 143.06 205.71 138.41 205.23 133.8C205.05 132.04 203.85 130.38 203.11 128.68L203.06 128.65ZM136.72 122.81C137.01 122.61 137.62 122.44 137.76 122.08C138.66 119.8 139.72 117.53 140.26 115.15C143.04 103.02 142.17 90.94 139.62 78.88C139.2 76.92 138.97 74.86 139.04 72.86C139.27 66.55 139.07 60.37 135.9 54.66C133.66 50.62 130.57 48.02 125.64 48.39C125.08 48.43 124.49 48.28 123.94 48.11C115.86 45.53 107.95 48.77 104.47 56.54C103.19 59.39 101.62 61.66 99.3904 63.88C94.3904 68.87 92.3404 75.47 91.4104 82.31C90.9404 85.79 91.0704 89.32 88.4804 92.14C88.0604 92.6 87.9104 93.3 87.6604 93.9C85.4204 99.36 84.9304 105.11 84.6504 110.94C84.2904 118.42 86.7804 126.03 83.6504 133.37C83.6004 133.5 83.6104 133.66 83.6104 133.8C83.8104 138.37 83.5904 143 84.3404 147.48C85.0804 151.89 86.7904 156.14 88.1804 160.79L91.2104 157.99C91.0604 158.8 90.5004 159.23 90.2404 159.8C89.5504 161.31 88.4804 162.88 88.4804 164.43C88.4504 170.36 92.2804 173.85 96.9304 176.69C97.7904 177.22 98.7904 177.63 99.4604 178.34C103.51 182.63 110.81 182.81 114.73 178.34C116.4 176.43 117.38 173.91 118.62 171.65C119.21 170.58 119.44 169.22 120.23 168.36C124.64 163.59 127.7 158.03 130.1 152.07C133.09 144.66 135.5 137.07 136.75 129.15C136.93 128 136.91 126.82 136.98 125.61L135.7 125.27L137.52 124.7L136.73 122.81H136.72ZM102.44 226.39C103.47 225.71 104.29 224.75 105.18 224.69C106.16 224.62 107.29 225.22 108.19 225.8C108.94 226.28 109.33 227.29 110.06 227.82C122.98 237.18 135.94 246.51 148.89 255.83C149.35 256.16 150 256.7 150.38 256.58C153.37 255.64 152.99 257.73 153.04 259.43C153.06 260.15 152.96 260.88 152.97 261.61C153 263.93 154.06 264.69 156.3 264.21C157.19 264.02 158.14 264.17 159.06 264.06C159.93 263.96 160.92 263.94 161.62 263.51C162.23 263.13 161.58 262.5 161.42 261.95C160.74 259.67 160.77 257.18 160.5 254.34L161.62 256.91C163.45 255.21 163.5 255.22 165.33 257.59L172.83 254.27C172.33 253.49 171.93 252.88 171.27 251.84C173.277 253.28 175.307 253.38 177.36 252.14L175.35 249.41L176.23 248.63C176.97 249.82 177.72 251 178.46 252.19L179 251.8L178.93 250.19L180.63 250.99C180.46 250.32 180.34 249.64 180.12 248.99C179.98 248.58 179.68 248.23 179.43 247.81C181.21 247.67 180.92 250.97 183.37 249.87C183.03 249.25 182.82 248.88 182.61 248.51C182.38 248.1 182.15 247.7 181.93 247.29C182.61 247.41 182.91 247.84 183.3 248.16C183.79 248.55 184.35 248.85 184.88 249.19L185.73 247.45C187.31 248.62 187.69 248.52 187.88 247.29C189.66 246.67 191.14 246.16 192.91 245.54C191.98 244.38 191.32 243.55 190.65 242.72C191.31 242.78 191.82 242.98 192.08 243.36C193.13 244.83 193.86 245.02 195.82 244.1C203.28 240.58 211.23 238.12 218.14 233.4C218.85 232.91 220.27 233.02 221.15 233.38C221.69 233.6 221.82 234.82 222.18 235.7L219.9 236.04L219.8 236.82C221.24 237.26 222.88 238.34 224.09 237.99C225.95 237.44 226.08 235.32 225.88 233.53C225.69 231.79 223.93 230.44 221.78 230.28C220.77 230.21 219.7 230.5 218.74 230.26C216.9 229.79 214.76 229.49 213.4 228.34C211.84 227.02 210.74 227.18 209.16 227.84C192.8 234.75 176.4 241.58 160.08 248.57C157.99 249.46 156.52 249.3 154.71 248.07C141.35 238.95 127.93 229.91 114.51 220.88C113.84 220.43 112.58 219.77 112.29 220.02C110.01 221.97 107.19 221.35 104.65 221.99C103.46 222.29 101.9 223.26 101.57 224.27C101.2 225.42 101.84 227.03 102.41 228.27C102.63 228.74 103.89 228.77 104.69 228.86C104.83 228.88 105.06 228.19 105.24 227.83C104.6 227.55 103.95 227.28 103.32 227C103.19 226.94 103.09 226.84 102.46 226.42L102.44 226.39ZM170.8 239.92C171.13 239.3 171.37 238.56 171.53 238.57C174.01 238.82 176.14 237.77 178.29 236.83C184.09 234.32 189.94 231.92 195.62 229.17C197.83 228.1 200.42 227.13 201.36 223.92C201.6 225.09 201.74 225.77 201.88 226.44L202.42 226.37V222.46L202.84 222.44L203.33 225.34L203.76 225.28L203.97 222.47L204.85 224.96C205.11 223.45 205.27 222.52 205.54 220.98L206.01 224.58L206.82 224.51V206.25L205.9 206.23V215.07L205.11 215.04V206.45H204.46C204.37 208.02 204.29 209.58 204.2 211.14H203.8L203.5 207.33H202.93V211.05H202.41L202.19 207.81L201.66 207.76L201.05 209.9L200.29 208.38L199.75 208.49V213.14L199.4 213.11L199.05 209.05H198.47L198.09 211.94L197.82 211.9C197.68 211.08 197.53 210.26 197.39 209.44L196.72 209.48L196.42 213.85L196.26 213.88C196.09 212.62 195.92 211.36 195.75 210.1L195.15 210.15L194.82 213.43C194.48 212.07 194.29 211.34 194.11 210.61L193.53 210.67V214.77L193.06 214.81L192.46 211.5L192 211.54L191.53 213.66L190.6 211.88L190.16 213.92L188.85 212.07L188.13 214.58L186.95 212.99L186.53 215.75L185.79 214.09C185.75 216.57 184.15 214.27 183.62 214.81L183.15 217.48L182.85 217.44L182.58 215.27C180.27 215.36 181.54 217.48 180.72 218.45L180.23 216.18H179.57V219.79L179.02 219.82L178.46 217L176.04 218.26V220.57L175.14 218.14L174.58 218.18L174.39 222.18L174.14 222.2L173.55 218.93L172.82 219V222.94L172.35 222.91C172.25 221.77 172.15 220.64 172.05 219.5H171.5L171.07 222.18C170.68 221.41 170.41 220.88 170.14 220.34L169.75 220.42C169.67 221.67 169.59 222.92 169.51 224.17L169.14 224.15L168.78 220.91H168.3L167.73 223.14L167.24 221.69L166.69 222.01V227.05L166.13 227.07L165.86 222.12H165.33L164.79 225.16L164.11 223.33L163.81 223.38V230.8L163.22 230.82V224.6H162.42V232.2H161.77V225.2L161.46 225.22V243.14L162.06 243.18L162.39 240.19L163.17 242.61L163.54 242.55V237.83H163.84C164.07 239.28 164.29 240.75 164.52 242.22L165.1 242.17L165.33 238.79L166.26 241.52L166.76 241.47C166.68 239.89 166.61 238.3 166.53 236.72L166.93 236.67L167.67 240.57L168.13 240.49V238.01L168.43 237.96L169.11 240.26L169.59 240.16L169.75 237.71L170.8 239.89V239.92ZM150.08 224.86C149.76 222.92 149.004 221.503 147.81 220.61L147.39 222.5L147.1 222.43L146.88 219.77L146.57 219.71L145.78 222.16L145.53 218.78L144.83 219.93C144.18 219.04 143.74 217.94 142.93 217.44C138.41 214.66 133.79 212.05 129.23 209.34C126.35 207.62 123.52 205.81 120.64 204.08C120.12 203.77 119.48 203.66 118.75 203.41L118.59 203.82C117.8 203.58 117.03 203.35 115.86 203L115.57 202.05C115.57 206.49 115.52 211.11 115.63 215.73C115.65 216.45 116.23 217.41 116.84 217.82C128.65 225.74 140.5 233.6 152.35 241.46C152.73 241.71 153.22 241.8 153.53 241.91V223.53L152.98 223.47L152.35 225.64C152.21 224.74 152.1 224.09 151.91 222.91L151.36 226.18L150.81 226.11V221.94H150.4L150.1 224.86H150.08ZM154.63 243.8C154 243.53 153.72 243.45 153.49 243.3C147.2 239.13 140.91 234.97 134.64 230.78C128.73 226.83 122.92 222.73 116.9 218.95C115.26 217.92 114.72 216.97 114.75 215.13C114.83 210.85 114.71 206.57 114.6 202.29C114.58 201.35 114.24 200.42 114.05 199.48L113.15 199.62C113.15 200.37 113.14 201.11 113.15 201.86C113.25 206.65 113.4 211.44 113.43 216.23C113.44 218.17 114.18 219.44 115.81 220.52C125.84 227.16 135.81 233.9 145.81 240.59C149.1 242.79 152.42 244.96 155.75 247.15C156.03 246.73 156.25 246.56 156.25 246.38C156.19 239.5 156.13 232.61 156 225.73C156 225.23 155.42 224.75 155.11 224.26L154.62 224.43V243.81L154.63 243.8ZM202.07 173.37L202.58 173.47L201.26 180.26L202.24 180.4C203.37 173 204.49 165.59 205.62 158.18C203.28 157.92 201.48 157.74 199.69 157.5C197.93 157.26 197.28 157.91 197.15 159.75C196.84 164.08 196.32 168.4 195.76 172.71C195.44 175.12 194.87 177.5 194.32 180.37C196.6 180.11 198.52 179.89 200.71 179.65C201.12 177.78 201.59 175.58 202.07 173.37ZM160.6 182.73L160.65 182.36C160.14 182.23 159.61 181.95 159.12 182.01C156.62 182.34 154.06 182.55 151.65 183.25C150.54 183.57 149.71 184.89 148.76 185.76C149.6 186.65 150.27 187.96 151.3 188.38C158.39 191.27 165.54 191.26 172.65 188.35C172.98 188.21 173.4 188.06 173.56 187.79C174.01 187.03 174.85 185.94 174.6 185.47C174.21 184.72 173.12 184.08 172.22 183.89C170.53 183.54 168.76 182.58 167 183.83C166.9 183.9 166.45 183.43 166.14 183.26C165.32 182.81 164.49 182.38 163.89 182.06C163.27 183.53 162.85 184.51 162.44 185.48L160.21 183.13H158.08V182.99C158.91 182.91 159.74 182.82 160.58 182.74L160.6 182.73ZM158.98 247.38C159.68 247.26 159.98 247.26 160.23 247.15C176.57 240.17 192.92 233.19 209.23 226.13C209.86 225.86 210.47 224.73 210.48 223.98C210.62 217.96 210.63 211.94 210.65 205.92C210.65 205.44 210.46 204.96 210.36 204.47L209.73 204.52C209.68 205.26 209.6 205.99 209.58 206.73C209.43 212.02 209.23 217.31 209.2 222.6C209.2 224.01 208.7 224.69 207.48 225.21C191.84 231.76 176.21 238.35 159.95 245.18V224.97L159.16 224.99C159.1 225.62 158.99 226.25 158.99 226.87C158.98 233.61 158.99 240.36 158.99 247.38H158.98ZM212.33 147.31L211.56 147.65C212.09 148.81 212.87 149.94 213.06 151.16C213.19 151.98 214.69 153.18 212.92 153.85C210.2 154.88 209.84 155.62 210.89 158.28C214.18 166.62 211.38 177.72 205.98 181.74C204.84 182.59 205.02 183.63 205.77 184.31C206.27 184.76 207.49 184.91 208.13 184.62C209.2 184.12 210.07 183.17 211.04 182.39C210.63 181.88 210.31 181.47 209.62 180.6L211.48 181.57C214.09 180.2 213.33 177.48 214.42 175.52C215.55 173.5 215.53 170.78 215.78 168.34C216.03 165.97 216.11 163.56 216.02 161.18C215.92 158.73 215.8 156.22 215.17 153.87C214.56 151.59 213.3 149.49 212.33 147.31ZM178.65 206.83L178.45 206.3C165.75 208.94 153.09 209.09 140.45 205.8C145.59 208.88 150.75 211.8 155.97 214.61C156.6 214.95 157.67 214.81 158.41 214.55C162.3 213.17 166.16 211.68 170.02 210.21C172.9 209.11 175.77 207.96 178.65 206.84V206.83ZM211.48 197.35C210.39 195.25 209.08 195.77 207.74 196.29C199.77 199.41 191.81 202.53 183.83 205.62C175.79 208.73 167.73 211.81 159.68 214.9C158.26 215.45 157.07 216.13 157.39 218.31C175.49 211.3 193.41 204.36 211.48 197.35ZM181.05 182.98L180.58 183.66C181.48 184.22 182.33 185.12 183.3 185.28C189.36 186.28 195.45 187.16 201.54 187.98C203.04 188.18 204.5 187.82 204.92 186C205.35 184.12 204.41 182.78 202.82 182.19C201.16 181.57 199.34 181.14 197.57 181.08C193.3 180.94 189.02 181.05 184.75 181.12C183.8 181.14 182.85 181.4 181.9 181.54L182.46 181.9L182.05 184.09L181.07 182.99L181.05 182.98ZM119.06 183.77C115.74 185.24 112.75 186.56 109.3 188.08C114.93 191.4 120.09 194.44 125.26 197.49C121.22 193.89 118.47 189.8 119.06 183.77ZM207.28 149.98H197.05C196.6 151.59 196.18 153.09 195.71 154.75C198.88 155.7 202.16 156.54 205.43 155.59L204.72 151.37L205.32 151.28L205.69 153.75L205.88 153.73L206.25 150.93C206.84 154.55 207.16 155.01 208.55 154.74C208.15 153.23 207.74 151.71 207.28 149.98ZM200.66 202.54C200.06 202.69 199.63 202.74 199.23 202.89C191.63 205.86 184.01 208.78 176.49 211.94C175.95 212.17 173.29 211.78 174.64 214.29C178.61 212.79 182.69 211.5 186.54 209.71C190.35 207.94 194.98 207.86 197.95 204.31C197.98 204.28 198.28 204.55 198.46 204.55C199.85 204.54 200.8 203.76 200.66 202.53V202.54ZM180.91 176.24C177.44 175.61 174.41 174.97 171.34 174.54C169.71 174.31 168.02 174.3 166.39 174.46C165.85 174.51 165.38 175.4 164.88 175.91C165.39 176.3 165.85 176.94 166.41 177.04C169.39 177.61 172.46 177.8 175.37 178.59C177.81 179.25 179.17 178.2 180.91 176.24ZM204.52 177.41C208.61 173.9 210.04 163.25 206.86 158.87C206.06 165.16 205.31 171.15 204.52 177.41ZM161 193.4L160.61 193.28L156.4 205.17L156.92 205.8C157.91 205.38 159.59 205.15 159.77 204.51C160.64 201.37 161.11 198.11 161.72 194.9L161.42 194.84C161 195.95 160.58 197.06 160.16 198.17L159.78 198.06L160.99 193.4H161ZM207.08 194L206.94 193.45C205.07 194.18 203.21 194.91 201.34 195.65L201.19 195.24L204.49 193.54L204.18 193.03C202.99 194.57 200.6 193.69 199.62 196.29C199.09 197.7 196.82 198.53 195.23 199.45C193.8 200.28 192.22 200.86 190.71 201.55L190.96 202.09C196.5 199.87 202.05 197.65 207.59 195.43L207.38 194.88L198.99 198.17L198.83 197.71C201.59 196.48 204.34 195.25 207.1 194.01L207.08 194ZM131.41 197.45L131.39 198.17C132.09 198.28 132.97 198.71 133.48 198.44C137.23 196.48 140.91 194.37 144.61 192.31L144.36 191.8C140.04 193.68 135.73 195.56 131.41 197.44V197.45ZM168.8 192.36L168.27 192.55C169.32 196.21 170.35 199.88 171.44 203.53C171.83 204.85 172.61 204.76 173.59 203.86C171.99 200.01 170.39 196.19 168.8 192.37V192.36ZM134.91 185.89V185.38C132.16 185.5 129.43 185.64 126.69 185.75C125.03 185.82 123.36 185.8 121.7 185.93C121.33 185.96 120.99 186.43 120.64 186.69C121.03 186.9 121.44 187.32 121.81 187.28C126.18 186.86 130.55 186.36 134.91 185.89ZM125.77 194.52C127.41 195.22 139.21 191.14 140.92 189.44C136.05 191.07 131.19 192.71 125.77 194.52ZM171.8 169.41C170.27 169.48 168.86 169.16 168.51 169.63C167.79 170.6 167.63 172 167.15 173.53C170.16 173.41 170.35 171.28 171.8 169.4V169.41ZM148.51 204.14C150.42 204.3 152.87 200.3 153.77 195.71C152.04 198.47 150.32 201.24 148.51 204.14ZM122.47 179.82L122.35 180.92C126.2 181.31 130.04 181.7 133.89 182.08L133.95 181.52C130.12 180.95 126.3 180.38 122.47 179.81V179.82ZM191.11 175.39C188.07 173.66 187.12 173.91 184.98 176.75C187.28 177.53 188.81 175.94 191.11 175.39ZM141.32 201.96L141.79 202.42C144.36 199.8 146.93 197.17 149.5 194.55L149.44 194.47C146.74 196.97 144.03 199.46 141.33 201.96H141.32ZM159.35 192.47L158.79 192.26C157.17 196.42 155.55 200.57 153.93 204.73L154.5 204.95C156.12 200.79 157.74 196.64 159.35 192.48V192.47ZM139.61 192.82L139.46 192.3L129.1 196.25L129.5 197.21C132.87 195.75 136.24 194.28 139.61 192.82ZM166.61 205.49C167.87 203.93 167.36 198.53 166.14 196.58C166.3 199.52 166.44 202.27 166.61 205.49ZM171.6 173.38L172.46 174.26C173.56 173.08 174.67 171.91 175.77 170.73C172.97 170.08 172.72 172.21 171.6 173.38ZM175.29 203.83L176.11 203.45C174.95 201.03 173.78 198.62 172.62 196.2L172.14 196.43C173.19 198.9 174.24 201.36 175.29 203.83ZM179.99 184.68C179.64 182.83 178.17 182.77 175.41 184.68H179.99ZM158.35 176.1C158.88 173.36 158.14 171.61 156.29 171.2L158.35 176.1ZM182.23 177.03C179.6 178.02 179.11 179.17 180.56 181C181.11 179.69 181.63 178.47 182.23 177.03ZM192.76 178.68C190.89 179.1 189.17 179.49 186.95 179.99C190.63 180.7 192.12 180.37 192.76 178.68ZM163.16 170.05L162.27 169.97V175.22L162.61 175.24C162.8 173.51 162.98 171.78 163.17 170.05H163.16ZM163.09 198.38L162.69 198.34C162.35 200.57 162.01 202.79 161.66 205.02L162.45 205.11L163.09 198.38Z" fill="#222222"/>
<path d="M136.721 122.81L137.511 124.7L135.691 125.27L136.971 125.61C136.901 126.82 136.921 128 136.741 129.15C135.491 137.07 133.081 144.66 130.091 152.07C127.691 158.03 124.621 163.59 120.221 168.36C119.431 169.22 119.191 170.57 118.611 171.65C117.371 173.92 116.391 176.44 114.721 178.34C110.801 182.81 103.501 182.62 99.4508 178.34C98.7808 177.63 97.7809 177.21 96.9209 176.69C92.2809 173.85 88.4409 170.37 88.4709 164.43C88.4709 162.88 89.5509 161.31 90.2309 159.8C90.4909 159.23 91.0509 158.81 91.2009 157.99L88.1709 160.79C86.7809 156.13 85.0708 151.89 84.3308 147.48C83.5808 143.01 83.8009 138.37 83.6009 133.8C83.6009 133.66 83.5808 133.49 83.6408 133.37C86.7808 126.02 84.2908 118.41 84.6408 110.94C84.9208 105.11 85.4209 99.36 87.6509 93.9C87.9009 93.3 88.0509 92.59 88.4709 92.14C91.0609 89.32 90.9309 85.79 91.4009 82.31C92.3309 75.47 94.3808 68.87 99.3808 63.88C101.611 61.66 103.181 59.39 104.461 56.54C107.941 48.77 115.851 45.53 123.931 48.11C124.471 48.28 125.071 48.43 125.631 48.39C130.571 48.02 133.661 50.62 135.891 54.66C139.051 60.37 139.261 66.56 139.031 72.86C138.961 74.86 139.191 76.92 139.611 78.88C142.161 90.94 143.031 103.02 140.251 115.15C139.711 117.53 138.651 119.79 137.751 122.08C137.611 122.44 137.001 122.62 136.711 122.81H136.721ZM125.281 135.68L119.231 139.64L119.461 140.05C121.811 138.75 124.171 137.45 126.521 136.16L126.781 136.65C123.291 138.67 119.801 140.69 116.311 142.71L116.621 143.25C119.691 141.48 122.761 139.71 125.841 137.94L126.111 138.37L122.911 140.45L123.041 140.71L125.371 139.84L125.591 140.34L120.811 143.23L121.041 143.63L124.681 141.69L124.941 142.1C122.861 143.58 120.791 145.06 118.711 146.55L118.971 146.92L124.021 143.57L124.511 144.17C123.871 144.56 123.221 144.96 122.311 145.52L123.401 145.59C122.671 151.79 119.831 157.55 120.671 164.43C120.981 163.3 121.181 162.62 121.341 161.94C122.721 156.17 123.911 150.35 125.511 144.64C127.821 136.38 131.011 128.45 135.441 121.05C135.911 120.26 136.101 119.13 136.001 118.21C135.561 114.1 134.841 110.02 134.471 105.91C133.491 95.18 133.201 84.46 135.391 73.82C135.461 73.48 135.291 73.09 135.231 72.73L134.821 72.7C134.271 75.08 133.721 77.46 133.051 80.33C127.101 71.09 125.351 61.29 124.771 51.14C123.931 58.63 125.611 65.74 127.721 72.85L124.451 65.44C124.321 70.79 128.951 73.36 129.931 77.76L126.041 72.8L125.691 73.04L129.231 78.18L127.541 77.93L129.811 80.55L129.501 80.8L125.441 77.29L125.071 77.72L132.461 84.61L132.221 84.88L129.581 83.16L129.321 83.56L132.541 86.3L132.131 86.77C129.531 84.68 126.931 82.6 124.331 80.51L123.981 80.96L132.231 87.81L131.941 88.16L127.101 84.76L126.831 85.13L132.651 89.7L132.311 90.19L130.191 89.77L132.041 91.43L131.821 91.69L128.111 90.05L127.901 90.49C129.351 91.34 130.811 92.19 132.261 93.03L131.991 93.49L128.881 92.15L128.681 92.59L132.311 94.81L132.031 95.32C130.501 94.58 128.971 93.83 127.431 93.09L127.181 93.61L132.391 96.53L132.081 97.12L126.061 94.21L125.821 94.71L132.591 98.48L132.241 99.07L127.191 96.87L126.981 97.34C128.891 98.35 130.811 99.37 132.721 100.38L132.391 101.14C129.701 100.08 127.011 99.03 124.321 97.97L124.141 98.41C127.041 99.67 129.941 100.92 132.851 102.18L132.561 102.9L127.671 101.23L127.461 101.82L132.681 103.98L132.491 104.49C130.001 103.61 127.521 102.73 125.031 101.86L124.831 102.41L132.721 105.5L132.441 106.24L118.981 101.01L118.781 101.51C123.071 103.25 127.351 105 131.641 106.74C131.031 106.86 130.471 106.79 129.961 106.58C124.391 104.31 118.711 102.25 113.291 99.67C107.371 96.85 101.341 94.16 96.2408 89.86C95.2708 89.04 93.8209 88.8 92.5909 88.29L92.1909 89.23C100.911 94.03 109.631 98.84 118.221 103.56L113.031 101.75L112.831 102.39C116.561 103.49 120.281 104.59 124.461 105.82L122.361 106.26V106.58C125.241 107.18 128.121 107.78 131.001 108.38L130.961 108.72C129.081 108.54 127.201 108.37 125.311 108.19L125.251 108.74C127.141 109.04 129.031 109.35 130.911 109.65L130.871 109.92C127.721 109.65 124.571 109.38 121.411 109.11L121.361 109.71L133.141 111.04L133.101 111.56H125.431L125.401 112.04L132.711 112.5L132.691 112.88C130.931 112.97 129.171 113.06 127.411 113.15L127.431 113.8H133.581L133.561 114.25L130.321 114.58V115.02L133.651 115.35L133.621 115.7L128.251 115.98L128.281 116.6H133.791V116.93C131.961 117.14 130.121 117.34 128.291 117.55L128.361 118.16L134.161 117.87L134.201 118.39L125.911 119.26L126.961 120.16L122.861 121.19C122.321 120.67 117.211 120.47 117.191 121.11C117.161 122.45 116.451 121.99 115.831 121.98C115.181 121.96 114.521 121.84 113.871 121.91C112.621 122.04 111.391 122.36 110.151 122.45C106.241 122.74 102.321 122.92 98.4209 123.24C94.7609 123.54 91.1009 123.97 87.4509 124.35L87.5009 124.89C102.691 123.81 117.871 122.73 133.061 121.65V121.25H130.051L130.021 120.82C131.461 120.67 132.891 120.52 134.331 120.37L134.531 121.23C131.611 124.04 127.351 122.25 124.041 123.86C126.871 123.64 129.701 123.42 132.531 123.19L132.561 123.56C129.241 123.98 125.921 124.39 122.601 124.81L122.651 125.28C125.691 124.96 128.731 124.63 131.761 124.31L131.831 124.8L126.461 125.75L126.511 126.06L131.241 125.66L131.331 126.27L126.881 127.14L126.931 127.43L130.521 127.14L130.561 127.55L128.811 128.13L130.661 128.72L126.701 129.76L126.761 130.01L129.181 129.65L129.301 130.17C126.021 131.04 122.741 131.9 119.461 132.77L119.561 133.19C122.611 132.44 125.661 131.69 128.711 130.95L128.891 131.61C125.551 132.58 122.221 133.54 118.881 134.51L119.021 134.96L127.581 132.57V133.88C126.381 134.09 125.111 134.12 124.001 134.55C122.901 134.98 121.961 135.83 120.931 136.47C113.381 141.19 105.781 145.82 98.3109 150.68C95.5309 152.49 93.0908 154.82 90.4908 156.91C92.3308 156.1 93.7609 154.78 95.3709 153.73C101.991 149.43 108.611 145.13 115.331 140.99C118.521 139.03 121.931 137.42 125.241 135.65L125.281 135.68ZM121.601 149.88C119.951 150.88 118.471 151.43 117.481 152.46C115.231 154.77 113.371 157.45 111.091 159.72C107.651 163.16 105.831 167.99 101.341 170.58C99.9809 171.36 99.2909 173.33 98.3209 174.77C98.2209 174.92 98.2509 175.17 98.1909 175.61L99.6209 174.34V175.72C100.221 174.95 100.661 174.39 101.101 173.83C105.121 168.7 109.121 163.56 113.191 158.46C114.261 157.12 115.381 155.16 116.751 154.88C119.491 154.33 120.701 152.83 121.611 149.88H121.601ZM104.861 64.15C104.481 65.77 104.501 65.74 106.221 66.74C106.691 67.01 107.031 67.54 107.401 67.98C113.081 74.76 118.921 81.38 126.281 86.43C126.741 86.75 127.251 87.01 127.731 87.29L127.491 87.37C119.901 79.58 112.301 71.78 104.861 64.15ZM125.991 92.93L126.311 92.32L119.801 88.89L119.471 89.54C121.641 90.67 123.811 91.81 125.991 92.94V92.93ZM123.431 101.84L123.781 101.2L117.881 98.63L117.621 99.25L123.431 101.84ZM118.281 96.98L118.001 97.68L123.941 100.32L124.211 99.67L118.281 96.99V96.98ZM112.651 97.68L112.361 98.28L117.341 100.73L117.631 100.14L112.651 97.68Z" fill="#D7CDBA"/>
<path d="M165.48 134.03C163.12 134.67 160.74 135.21 158.42 135.97C151.41 138.28 144.43 140.68 137.43 143.04C136.71 143.28 136 143.54 135.28 143.8L135.08 143.28C139.25 141.55 143.41 139.82 147.58 138.09L147.48 137.77C143.63 139.22 139.79 140.67 135.94 142.12L135.86 141.92L139.54 140.04L139.38 139.67L135.86 140.96L135.59 140.43L141.87 137.37L141.71 136.99C139.93 137.73 138.14 138.46 136.36 139.2L136.15 138.92L137.79 137.6L136.47 137.76L136.17 137.25C137.67 135.29 140.46 135.38 142.24 133.7C140.58 134.3 138.93 134.89 137.27 135.49L137.08 135.16L138.29 134.16L137.26 133.65L138.64 132.53L137.65 131.98L138.66 131.28C136.73 129.72 138.19 127.83 138.4 126.25C138.73 123.77 139.72 121.38 140.33 118.93C141.22 115.35 142.02 111.75 142.88 108.17C143.01 107.63 143.24 107.11 143.47 106.46L146.12 107.51L144.11 105.69L145.43 105.9C142.82 103.33 143.23 100.05 143.42 96.34C145.19 97.8 146.63 99.07 148.15 100.23C160.03 109.32 173.16 115.97 187.41 120.45C190.32 121.36 193.17 122.45 196.01 123.54C196.93 123.89 197.77 124.49 198.64 124.97H197.22L202.96 129.55L203.02 128.63C203.76 130.33 204.96 131.99 205.14 133.75C205.62 138.35 205.66 143 205.86 147.64C205.87 147.89 205.7 148.15 205.29 148.43C205.17 147.59 205.04 146.75 204.92 145.91L204.63 145.87L204.29 147.82L203.97 147.52L202.67 148.94V139.97L201.99 139.95V147.98H201.4V142.67L200.79 142.62L200.41 147.44C199.69 142.94 200.41 138.14 197.18 134.25C199.62 138.71 199.12 143.56 199.48 148.29L198.89 148.36C198.72 146.04 198.55 143.72 198.39 141.4C198.35 140.82 198.32 140.24 198.25 139.66C197.71 135.15 196.43 133.77 191.99 132.89C190.86 132.66 189.73 132.47 188.63 131.93L191.99 132.26L192.01 131.49C187.78 131.47 183.41 130.8 179.39 131.69C177.34 132.14 175.17 132.58 173.06 133.01C172.34 133.16 171.52 132.84 170.84 133.01C169.01 133.36 167.19 133.71 165.36 134.05C166.31 133.75 167.26 133.46 168.21 133.17L168.05 132.55L152.84 135.73L152.96 136.28C157.12 135.52 161.27 134.77 165.43 134.01L165.48 134.03ZM195.66 130.31H189.36C192.27 131.18 194.76 131.93 197.26 132.67L197.37 132.48L194.29 130.72L195.65 130.27C195.62 130.33 195.56 130.39 195.55 130.46C195.55 130.52 195.57 130.62 195.61 130.65C197.03 131.44 198.45 132.22 199.93 133.03C197.89 129.34 189.49 125.54 185.9 126.79C187.24 127.13 188.45 127.31 189.57 127.74C191.62 128.52 193.62 129.45 195.64 130.32L195.66 130.31ZM140.94 120.45V121.2C151.28 122.29 161.62 123.39 171.97 124.48C164.39 122.96 156.8 121.59 149.16 120.51C146.47 120.13 143.68 120.45 140.94 120.45ZM149.01 119.07L148.97 119.69C150.54 119.86 152.14 119.9 153.68 120.23C156.27 120.8 158.82 121.55 161.39 122.23C159.51 121.06 157.56 120.03 155.49 119.57C153.4 119.11 151.18 119.21 149.01 119.07ZM156.84 113.64C159.22 115.86 161.18 117.88 164.93 116.8C162.03 115.67 159.65 114.73 156.84 113.64ZM179.45 130.8V130.1C174.91 130.65 170.37 131.21 165.84 131.76L165.9 132.3L179.45 130.79V130.8ZM149.91 136.27L149.71 135.57L141.26 138.61L141.47 139.19L149.91 136.27ZM204.27 133.91L204.7 133.58C203.6 132.19 202.51 130.8 201.42 129.41C200.53 132.17 202.99 132.63 204.27 133.91ZM176.41 129.59L176.34 129.03C173.62 129.38 170.89 129.73 168.17 130.08L168.24 130.57C170.97 130.25 173.69 129.92 176.42 129.6L176.41 129.59Z" fill="#D7CDBA"/>
<path d="M102.44 226.39C103.06 226.81 103.17 226.91 103.3 226.97C103.94 227.25 104.58 227.53 105.22 227.8C105.03 228.16 104.81 228.85 104.67 228.83C103.87 228.74 102.61 228.71 102.39 228.24C101.81 227 101.18 225.39 101.55 224.24C101.88 223.23 103.44 222.26 104.63 221.96C107.17 221.32 109.99 221.93 112.27 219.99C112.56 219.74 113.82 220.4 114.49 220.85C127.91 229.89 141.32 238.93 154.69 248.04C156.5 249.27 157.97 249.44 160.06 248.54C176.39 241.55 192.78 234.72 209.14 227.81C210.71 227.15 211.82 226.99 213.38 228.31C214.74 229.46 216.87 229.76 218.72 230.23C219.67 230.47 220.75 230.18 221.76 230.25C223.91 230.4 225.68 231.76 225.86 233.5C226.05 235.29 225.92 237.42 224.07 237.96C222.86 238.32 221.23 237.23 219.78 236.79L219.88 236.01L222.16 235.67C221.8 234.79 221.67 233.57 221.13 233.35C220.25 232.99 218.83 232.88 218.12 233.37C211.21 238.09 203.26 240.55 195.8 244.07C193.84 244.99 193.11 244.8 192.06 243.33C191.79 242.96 191.28 242.76 190.63 242.69C191.29 243.52 191.96 244.35 192.89 245.51C191.12 246.12 189.64 246.64 187.86 247.26C187.66 248.48 187.28 248.59 185.71 247.42L184.86 249.16C184.33 248.82 183.77 248.52 183.28 248.13C182.89 247.81 182.58 247.38 181.91 247.26C182.14 247.67 182.37 248.07 182.59 248.48C182.8 248.85 183 249.23 183.35 249.84C180.91 250.93 181.19 247.64 179.41 247.78C179.66 248.19 179.96 248.55 180.1 248.96C180.33 249.61 180.45 250.29 180.61 250.96L178.91 250.16L178.98 251.77L178.44 252.16C177.7 250.97 176.95 249.79 176.21 248.6L175.33 249.38L177.34 252.11C175.287 253.35 173.257 253.25 171.25 251.81C171.92 252.84 172.31 253.46 172.81 254.24L165.31 257.56C163.49 255.19 163.44 255.17 161.6 256.88L160.48 254.31C160.75 257.14 160.71 259.64 161.4 261.92C161.56 262.47 162.22 263.09 161.6 263.48C160.9 263.92 159.92 263.94 159.04 264.03C158.13 264.13 157.17 263.99 156.28 264.18C154.04 264.66 152.98 263.9 152.95 261.58C152.94 260.86 153.04 260.13 153.02 259.4C152.97 257.7 153.35 255.61 150.36 256.55C149.98 256.67 149.33 256.13 148.87 255.8C135.92 246.48 122.97 237.15 110.04 227.79C109.31 227.26 108.91 226.25 108.17 225.77C107.28 225.19 106.14 224.59 105.16 224.66C104.27 224.72 103.45 225.68 102.42 226.36L102.44 226.39ZM172.54 245.53L173.07 244.77C174.04 245.52 175.01 246.26 176.4 247.34C175.61 246.01 175.12 245.17 174.62 244.33L175.13 243.91L178.22 246.45L178.39 246.21C177.71 245.34 177.02 244.48 176.34 243.61L176.67 243.06L178.97 243.59L179.24 242.2C179.75 242.38 180.34 242.44 180.74 242.75C182.17 243.84 183.54 245.01 184.93 246.14L185.3 245.73L180.96 241.62L181.44 240.95L184.44 242.58L183.1 240.04C186.62 240.49 187.13 243.84 189.72 244.63C188.36 242.99 187.01 241.35 185.65 239.71L186.22 239.03C187.2 239.77 188.19 240.5 189.17 241.24L189.29 241.07L187.79 238.97L188.21 238.6C189.22 239.39 190.24 240.18 191.25 240.97L191.51 240.66C190.79 239.85 190.08 239.04 189.36 238.23L189.8 237.63C191.62 238.94 193.43 240.25 195.25 241.57L195.5 241.22C194.08 239.99 192.67 238.75 191.25 237.52L191.55 236.96L193.74 237.54L193.33 236.07C195.44 237.45 197.15 238.57 198.86 239.69L199.1 239.3C197.68 238.25 196.25 237.2 194.83 236.16L195.16 235.7L197.98 237.22L198.07 237.03L196.32 235.46L196.62 235.09C197.5 235.49 198.37 235.88 199.8 236.52C198.86 235.64 198.4 235.21 197.93 234.77L198.2 234.4L200.99 235.42L201.28 235.03L199.58 234.2L200.03 233.53C200.94 233.86 201.86 234.19 202.94 234.58L201.77 233.15L202.03 232.73C203.42 233.39 204.81 234.06 206.2 234.72L206.34 234.4L203.42 232.52L203.79 231.82C205.45 232.58 207.11 233.33 208.78 234.09L208.89 233.84L205.57 231.72L205.96 230.92C207.95 231.82 209.95 232.71 211.94 233.61L212.07 233.3C210.69 232.5 209.32 231.69 207.94 230.89L208.23 230.32C210.2 231.19 212.17 232.06 214.14 232.93L214.26 232.64C213.03 231.97 211.79 231.3 210.56 230.63C213.11 230.97 215.34 232.76 217.98 231.92C216 231.12 213.88 230.56 212.09 229.45C210.76 228.62 209.82 228.43 208.37 229.05C195.74 234.51 183.07 239.9 170.41 245.3C167.81 246.41 165.14 247.37 162.59 248.59C159.91 249.87 159.62 252.8 161.82 254.21L161.34 251.26L161.83 251.19C162.22 252.04 162.61 252.88 163 253.73L163.31 253.56L162.87 250.49L163.12 250.45L164.37 252.94L164.62 252.81C164.51 251.63 164.4 250.45 164.28 249.26L164.84 249.2L165.58 250.43L166.12 248.85L167.86 251.7C167.59 250.02 167.43 248.98 167.26 247.94L167.8 247.88L169.98 250.54C168.44 247.89 168.44 247.85 169.23 246.8L174.25 251.71L174.7 251.27C174.49 251.01 174.32 250.73 174.08 250.51C173.03 249.52 171.9 248.61 170.95 247.53C170.67 247.21 170.89 246.44 170.89 245.88C171.34 246.1 171.84 246.25 172.22 246.56C172.83 247.06 173.36 247.66 173.93 248.22L174.24 247.91L172.5 245.57L172.54 245.53ZM148.02 245.7C147.57 246.92 147.32 247.6 146.97 248.56L148.99 246.81L149.34 247.18L147.69 250.09C148.93 248.96 149.67 248.28 150.41 247.6L150.87 247.97L149.99 250.37L152.26 248.69L151.24 251.27L152.94 249.71L153.34 250.01C152.67 251.2 152 252.4 151.33 253.59L151.62 253.76L153.72 251.08L154.18 251.33L152.98 255.32C155.87 253.39 155.89 250.25 153.15 248.53C151.12 247.26 149.09 245.98 147.12 244.63C136.13 237.07 125.16 229.46 114.15 221.93C113.57 221.53 112.6 221.4 111.89 221.54C110.1 221.89 108.36 222.51 106.58 222.93C105.74 223.13 104.86 223.09 103.99 223.16L104.09 223.99C107.1 223.63 110.1 223.27 112.93 222.92L111.6 223.98L111.8 224.33C112.68 224.02 113.56 223.7 114.74 223.28L113.44 224.64L115.79 224.32L115.86 224.65L114.18 225.72L114.3 225.99L117.16 225.11L117.32 225.44L115.68 226.82L118.91 226.2L119.04 226.67L117.94 227.84C119.04 227.57 119.81 227.38 120.92 227.1L120.44 228.24C128.38 232.36 135.41 237.73 142.66 242.96L142.19 244.39L143.95 243.3L143.03 245.65C143.89 244.91 144.42 244.44 144.95 243.98L145.27 244.26L144.79 245.87L147.08 244.81L145.79 247.24L146.06 247.43L148.04 245.69L148.02 245.7ZM158.07 254.22C158.87 250.93 158.74 250.72 156.09 250.66L154.57 256.05C155.2 256.11 155.75 256.17 156.33 256.23L157.48 253.05L158.08 254.22H158.07Z" fill="#D7CDBA"/>
<path d="M170.8 239.92L169.75 237.74L169.59 240.19L169.11 240.29L168.43 237.99L168.13 238.04V240.52L167.67 240.6L166.93 236.7L166.53 236.75C166.61 238.33 166.68 239.92 166.76 241.5L166.26 241.55L165.33 238.82L165.1 242.2L164.52 242.25C164.29 240.78 164.07 239.32 163.84 237.85H163.54V242.58L163.17 242.64L162.39 240.22L162.06 243.21L161.46 243.17V225.25L161.77 225.23V232.23H162.42V224.63H163.22V230.85L163.81 230.83V223.41L164.11 223.36L164.79 225.19L165.33 222.14H165.86L166.13 227.1L166.69 227.08V222.04L167.24 221.72L167.73 223.17L168.3 220.95H168.78L169.14 224.17L169.51 224.19C169.59 222.94 169.67 221.69 169.75 220.44L170.14 220.36C170.41 220.89 170.68 221.43 171.07 222.2L171.5 219.53H172.05C172.15 220.65 172.25 221.79 172.35 222.92L172.82 222.95V219.01L173.55 218.94L174.14 222.21L174.39 222.19L174.58 218.19L175.14 218.15L176.04 220.58V218.27L178.46 217.01L179.02 219.83L179.57 219.8V216.2H180.23L180.72 218.47C181.54 217.5 180.27 215.38 182.58 215.29L182.85 217.46L183.15 217.5L183.62 214.83C184.15 214.29 185.75 216.58 185.79 214.11L186.53 215.77L186.95 213.01L188.13 214.6L188.85 212.09L190.16 213.94L190.6 211.9L191.53 213.68L192 211.56L192.46 211.52L193.06 214.83L193.53 214.79V210.69L194.11 210.63C194.29 211.36 194.48 212.09 194.82 213.45L195.15 210.17L195.75 210.12C195.92 211.38 196.09 212.64 196.26 213.9L196.42 213.87L196.72 209.5L197.39 209.46C197.53 210.28 197.68 211.1 197.82 211.92L198.09 211.96L198.47 209.08H199.05L199.4 213.13L199.75 213.16V208.51L200.29 208.4L201.05 209.92L201.66 207.78L202.19 207.83L202.41 211.06H202.93V207.34H203.5L203.8 211.16H204.2C204.29 209.59 204.37 208.03 204.46 206.47H205.11V215.05L205.9 215.08V206.24L206.82 206.26V224.52L206.01 224.59L205.54 220.99C205.27 222.53 205.11 223.45 204.85 224.97L203.97 222.48L203.76 225.29L203.33 225.35L202.84 222.45L202.42 222.47V226.38L201.88 226.45C201.74 225.77 201.6 225.1 201.36 223.93C200.42 227.14 197.83 228.11 195.62 229.18C189.94 231.93 184.08 234.32 178.29 236.84C176.14 237.77 174.01 238.83 171.53 238.58C171.37 238.56 171.13 239.3 170.8 239.93V239.92Z" fill="#D7CDBA"/>
<path d="M150.08 224.87L150.38 221.96H150.79V226.12L151.34 226.19L151.89 222.92C152.08 224.1 152.18 224.75 152.33 225.65L152.96 223.48L153.51 223.54V241.92C153.21 241.81 152.71 241.73 152.33 241.47C140.48 233.61 128.63 225.75 116.82 217.83C116.21 217.42 115.63 216.46 115.61 215.74C115.5 211.12 115.55 206.49 115.55 202.06L115.84 203.01C117.01 203.36 117.78 203.59 118.57 203.83L118.73 203.42C119.46 203.67 120.1 203.78 120.62 204.09C123.5 205.82 126.32 207.64 129.21 209.35C133.77 212.06 138.39 214.67 142.91 217.45C143.72 217.95 144.15 219.05 144.81 219.94L145.51 218.79L145.76 222.17L146.55 219.72L146.86 219.78L147.08 222.44L147.37 222.51C147.51 221.88 147.65 221.25 147.79 220.62C148.977 221.513 149.734 222.93 150.06 224.87H150.08Z" fill="#D7CDBA"/>
<path d="M154.63 243.81V224.43L155.12 224.26C155.43 224.75 156 225.23 156.01 225.73C156.14 232.61 156.2 239.5 156.26 246.38C156.26 246.55 156.04 246.73 155.76 247.15C152.43 244.95 149.12 242.79 145.82 240.59C135.82 233.9 125.85 227.17 115.82 220.52C114.19 219.44 113.45 218.17 113.44 216.23C113.41 211.44 113.26 206.65 113.16 201.86C113.14 201.11 113.16 200.37 113.16 199.62L114.06 199.48C114.25 200.42 114.58 201.35 114.61 202.29C114.72 206.57 114.84 210.85 114.76 215.13C114.73 216.96 115.27 217.92 116.91 218.95C122.92 222.73 128.74 226.83 134.65 230.78C140.92 234.97 147.21 239.13 153.5 243.3C153.73 243.45 154.02 243.53 154.64 243.8L154.63 243.81Z" fill="#D7CDBA"/>
<path d="M202.07 173.37C201.59 175.57 201.11 177.78 200.71 179.65C198.52 179.9 196.6 180.11 194.32 180.37C194.87 177.5 195.45 175.12 195.76 172.71C196.32 168.4 196.83 164.08 197.15 159.75C197.28 157.92 197.93 157.26 199.69 157.5C201.48 157.74 203.27 157.91 205.62 158.18C204.49 165.6 203.37 173 202.24 180.4L201.26 180.26L202.58 173.47L202.07 173.37ZM202.79 171.21L203.11 171.29C203.61 167.5 204.11 163.71 204.61 159.92L204.04 159.85L203.35 164.96L203.05 164.93C203.18 163.09 203.31 161.25 203.44 159.41H202.79V171.21Z" fill="#D7CDBA"/>
<path d="M160.61 182.73C159.77 182.81 158.94 182.9 158.1 182.98V183.12H160.24L162.47 185.47C162.88 184.49 163.3 183.52 163.92 182.05C164.52 182.37 165.35 182.8 166.17 183.25C166.48 183.42 166.93 183.89 167.03 183.82C168.79 182.57 170.56 183.53 172.25 183.88C173.15 184.07 174.24 184.7 174.63 185.46C174.88 185.93 174.04 187.02 173.59 187.78C173.43 188.05 173.01 188.21 172.68 188.34C165.57 191.25 158.41 191.26 151.33 188.37C150.3 187.95 149.62 186.65 148.79 185.75C149.74 184.88 150.57 183.56 151.68 183.24C154.09 182.55 156.64 182.33 159.15 182C159.63 181.94 160.17 182.22 160.68 182.35L160.63 182.72L160.61 182.73ZM154.94 183.84L154.57 183.34C154.07 183.6 153.48 184.17 153.1 184.05C151.48 183.54 150.53 184.12 150.32 185.67C150.17 186.82 151.6 187.64 153.53 187.61C153.17 187.4 152.9 187.29 152.7 187.11C152.15 186.6 151.63 186.07 151.09 185.54C151.7 185.34 152.34 185.2 152.92 184.93C153.62 184.62 154.27 184.2 154.95 183.83L154.94 183.84Z" fill="#D7CDBA"/>
<path d="M158.99 247.38C158.99 240.36 158.99 233.61 158.99 226.87C158.99 226.24 159.1 225.61 159.16 224.99L159.95 224.97V245.18C176.21 238.34 191.84 231.76 207.48 225.21C208.71 224.7 209.2 224.01 209.2 222.6C209.23 217.31 209.43 212.02 209.58 206.73C209.6 205.99 209.68 205.26 209.73 204.52L210.36 204.47C210.46 204.95 210.65 205.43 210.65 205.92C210.63 211.94 210.63 217.96 210.48 223.98C210.46 224.72 209.85 225.85 209.23 226.13C192.92 233.2 176.57 240.17 160.23 247.15C159.98 247.26 159.69 247.25 158.98 247.38H158.99Z" fill="#D7CDBA"/>
<path d="M212.331 147.31C213.301 149.49 214.561 151.59 215.171 153.87C215.801 156.22 215.921 158.73 216.021 161.18C216.111 163.56 216.021 165.97 215.781 168.34C215.531 170.78 215.541 173.5 214.421 175.52C213.321 177.49 214.091 180.21 211.481 181.57L209.621 180.6C210.311 181.47 210.631 181.87 211.041 182.39C210.071 183.17 209.211 184.12 208.131 184.62C207.501 184.91 206.271 184.77 205.771 184.31C205.021 183.62 204.841 182.59 205.981 181.74C211.381 177.72 214.181 166.62 210.891 158.28C209.841 155.62 210.211 154.88 212.921 153.85C214.691 153.18 213.191 151.97 213.061 151.16C212.871 149.94 212.091 148.82 211.561 147.65L212.331 147.31Z" fill="#D7CDBA"/>
<path d="M178.66 206.83C175.79 207.96 172.92 209.1 170.03 210.2C166.17 211.68 162.31 213.16 158.42 214.54C157.68 214.8 156.61 214.94 155.98 214.6C150.76 211.8 145.6 208.87 140.46 205.79C153.1 209.08 165.76 208.93 178.46 206.29L178.66 206.82V206.83Z" fill="#D7CDBA"/>
<path d="M211.49 197.35C193.42 204.35 175.5 211.29 157.4 218.31C157.08 216.13 158.27 215.45 159.69 214.9C167.74 211.82 175.8 208.74 183.84 205.62C191.82 202.53 199.78 199.41 207.75 196.29C209.08 195.77 210.39 195.25 211.49 197.35Z" fill="#D7CDBA"/>
<path d="M181.06 182.98L182.04 184.08L182.45 181.89L181.89 181.53C182.84 181.38 183.79 181.12 184.74 181.11C189.01 181.04 193.29 180.93 197.56 181.07C199.33 181.13 201.15 181.56 202.81 182.18C204.41 182.78 205.35 184.12 204.91 185.99C204.49 187.81 203.03 188.18 201.53 187.97C195.44 187.15 189.36 186.27 183.29 185.27C182.32 185.11 181.48 184.21 180.57 183.65L181.04 182.97L181.06 182.98ZM202.96 184.82C201.91 184.08 201.35 183.4 200.74 183.35C200.27 183.31 199.73 184.05 199.23 184.44C199.73 184.95 200.16 185.7 200.76 185.88C201.21 186.01 201.87 185.38 202.97 184.82H202.96ZM195.42 181.62C194.88 182.42 194.16 183.14 194.29 183.34C194.65 183.92 195.3 184.43 195.94 184.68C196.15 184.76 197.1 183.77 197.02 183.59C196.73 182.95 196.13 182.45 195.42 181.63V181.62Z" fill="#D7CDBA"/>
<path d="M122.411 198.61L118.561 196.26L118.641 196.34C115.651 194.45 112.661 192.57 109.681 190.68C109.111 190.32 108.591 189.89 108.051 189.49L108.321 188.91C108.781 189.04 109.281 189.09 109.681 189.32C124.831 197.89 139.971 206.48 155.131 215.03C156.551 215.83 156.851 216.8 156.191 218.35C151.721 215.82 147.331 213.35 142.951 210.87C136.101 206.78 129.251 202.7 122.401 198.61H122.411Z" fill="#D7CDBA"/>
<path d="M122.411 198.61C129.261 202.7 136.111 206.78 142.961 210.87C144.031 212.07 146.201 212.46 145.831 214.94C145.351 214.77 144.881 214.67 144.501 214.45C137.071 210.08 129.651 205.71 122.261 201.27C121.641 200.9 121.361 199.97 120.931 199.3L122.421 198.62L122.411 198.61Z" fill="#D7CDBA"/>
<path d="M119.08 183.78C118.5 189.81 121.24 193.9 125.28 197.5C120.11 194.45 114.94 191.41 109.32 188.09C112.77 186.57 115.76 185.25 119.08 183.78Z" fill="#D7CDBA"/>
<path d="M207.291 149.99C207.751 151.73 208.161 153.24 208.561 154.75C207.171 155.02 206.851 154.56 206.261 150.94L205.891 153.74L205.701 153.76L205.331 151.29L204.731 151.38L205.441 155.6C202.181 156.55 198.891 155.71 195.721 154.76C196.191 153.1 196.611 151.59 197.061 149.99H207.291Z" fill="#D7CDBA"/>
<path d="M200.67 202.55C200.8 203.78 199.86 204.56 198.47 204.57C198.3 204.57 197.99 204.3 197.96 204.33C194.99 207.88 190.36 207.96 186.55 209.73C182.7 211.51 178.62 212.8 174.65 214.31C173.31 211.8 175.96 212.18 176.5 211.96C184.02 208.8 191.64 205.88 199.24 202.91C199.64 202.76 200.07 202.7 200.67 202.56V202.55Z" fill="#D7CDBA"/>
<path d="M180.921 176.25C179.191 178.21 177.831 179.27 175.381 178.6C172.471 177.81 169.401 177.61 166.421 177.05C165.861 176.94 165.401 176.31 164.891 175.92C165.391 175.41 165.851 174.52 166.401 174.47C168.041 174.31 169.721 174.32 171.351 174.55C174.411 174.99 177.441 175.62 180.921 176.25ZM170.171 176.14L170.051 175.45C168.771 175.87 167.141 173.78 165.921 176.5L170.171 176.14Z" fill="#D7CDBA"/>
<path d="M204.53 177.42C205.32 171.16 206.08 165.17 206.87 158.88C210.04 163.26 208.62 173.91 204.53 177.42Z" fill="#D7CDBA"/>
<path d="M161.01 193.41L159.8 198.07L160.18 198.18C160.6 197.07 161.02 195.96 161.44 194.85L161.74 194.91C161.13 198.12 160.66 201.38 159.79 204.52C159.61 205.16 157.93 205.39 156.94 205.81L156.42 205.18L160.63 193.29L161.02 193.41H161.01Z" fill="#D7CDBA"/>
<path d="M207.09 194.01C204.33 195.24 201.58 196.47 198.82 197.71L198.98 198.17L207.37 194.88L207.58 195.43C202.04 197.65 196.49 199.87 190.95 202.09L190.7 201.55C192.21 200.86 193.79 200.28 195.22 199.45C196.81 198.54 199.07 197.7 199.61 196.29C200.59 193.69 202.99 194.57 204.17 193.03L204.48 193.54L201.18 195.24L201.33 195.65C203.2 194.92 205.06 194.19 206.93 193.45L207.07 194L207.09 194.01Z" fill="#D7CDBA"/>
<path d="M131.411 197.45C135.731 195.57 140.041 193.69 144.361 191.81L144.611 192.32C140.911 194.38 137.231 196.48 133.481 198.45C132.971 198.72 132.101 198.29 131.391 198.18L131.411 197.46V197.45Z" fill="#D7CDBA"/>
<path d="M168.801 192.37C170.391 196.19 171.991 200.01 173.591 203.86C172.611 204.76 171.83 204.85 171.44 203.53C170.35 199.88 169.331 196.21 168.271 192.55L168.801 192.36V192.37Z" fill="#D7CDBA"/>
<path d="M134.911 185.9C130.541 186.37 126.181 186.87 121.811 187.29C121.441 187.33 121.031 186.91 120.641 186.7C120.991 186.43 121.331 185.97 121.701 185.94C123.361 185.81 125.031 185.83 126.691 185.76C129.431 185.65 132.161 185.51 134.901 185.39V185.9H134.911Z" fill="#D7CDBA"/>
<path d="M125.771 194.53C131.181 192.71 136.051 191.08 140.921 189.45C139.211 191.15 127.411 195.23 125.771 194.53Z" fill="#D7CDBA"/>
<path d="M171.8 169.42C170.35 171.3 170.15 173.42 167.15 173.55C167.64 172.01 167.79 170.62 168.51 169.65C168.86 169.18 170.27 169.49 171.8 169.43V169.42Z" fill="#D7CDBA"/>
<path d="M148.511 204.16C150.321 201.26 152.051 198.49 153.771 195.73C152.871 200.32 150.421 204.33 148.511 204.16Z" fill="#D7CDBA"/>
<path d="M122.471 179.84C126.301 180.41 130.121 180.98 133.951 181.55L133.891 182.11C130.041 181.72 126.201 181.33 122.351 180.95L122.471 179.85V179.84Z" fill="#D7CDBA"/>
<path d="M191.11 175.41C188.81 175.96 187.28 177.54 184.98 176.77C187.12 173.93 188.07 173.68 191.11 175.41Z" fill="#D7CDBA"/>
<path d="M141.33 201.98C144.03 199.48 146.74 196.99 149.44 194.49L149.5 194.57C146.93 197.19 144.36 199.82 141.79 202.44L141.32 201.98H141.33Z" fill="#D7CDBA"/>
<path d="M159.351 192.49C157.731 196.65 156.111 200.8 154.501 204.96L153.931 204.74C155.551 200.58 157.171 196.43 158.791 192.27L159.351 192.48V192.49Z" fill="#D7CDBA"/>
<path d="M139.62 192.84C136.25 194.3 132.88 195.77 129.51 197.23L129.11 196.27L139.47 192.32L139.62 192.84Z" fill="#D7CDBA"/>
<path d="M118.56 196.26L119.32 198.97C115.94 198.1 115.28 197.39 115.69 195.18C116.69 195.57 117.66 195.96 118.64 196.34L118.56 196.26Z" fill="#D7CDBA"/>
<path d="M166.62 205.51C166.45 202.29 166.3 199.55 166.15 196.6C167.37 198.55 167.88 203.95 166.62 205.51Z" fill="#D7CDBA"/>
<path d="M203.07 128.64L203.01 129.56L197.271 124.98H198.69L203.07 128.64Z" fill="black"/>
<path d="M171.601 173.4C172.721 172.23 172.971 170.1 175.771 170.75C174.671 171.93 173.561 173.1 172.461 174.28L171.601 173.4Z" fill="#D7CDBA"/>
<path d="M175.291 203.85C174.241 201.38 173.191 198.92 172.141 196.45L172.621 196.22C173.781 198.64 174.951 201.05 176.111 203.47L175.291 203.85Z" fill="#D7CDBA"/>
<path d="M179.99 184.7H175.41C178.18 182.79 179.65 182.85 179.99 184.7Z" fill="#D7CDBA"/>
<path d="M158.34 176.12L156.28 171.22C158.13 171.63 158.87 173.38 158.34 176.12Z" fill="#D7CDBA"/>
<path d="M182.23 177.05C181.62 178.49 181.11 179.71 180.56 181.02C179.11 179.18 179.6 178.04 182.23 177.05Z" fill="#D7CDBA"/>
<path d="M192.76 178.7C192.12 180.39 190.64 180.72 186.95 180.01C189.17 179.51 190.88 179.12 192.76 178.7Z" fill="#D7CDBA"/>
<path d="M163.161 170.07C162.971 171.8 162.791 173.53 162.601 175.26L162.261 175.24V169.99L163.151 170.07H163.161Z" fill="#D7CDBA"/>
<path d="M163.09 198.4L162.45 205.13L161.66 205.04C162 202.81 162.34 200.59 162.69 198.36L163.09 198.4Z" fill="#D7CDBA"/>
<path d="M127.62 133.9V132.59L119.06 134.98L118.92 134.53C122.26 133.56 125.59 132.6 128.93 131.63L128.75 130.97C125.7 131.72 122.65 132.47 119.6 133.21L119.5 132.79C122.78 131.92 126.06 131.06 129.34 130.19L129.22 129.67L126.8 130.03L126.74 129.78L130.7 128.74L128.85 128.15L130.6 127.57L130.56 127.16L126.97 127.45L126.92 127.16L131.37 126.29L131.28 125.68L126.55 126.08L126.5 125.77L131.87 124.82L131.8 124.33C128.76 124.65 125.72 124.98 122.69 125.3L122.64 124.83C125.96 124.41 129.28 124 132.6 123.58L132.57 123.21C129.74 123.43 126.91 123.65 124.08 123.88C127.39 122.26 131.66 124.06 134.57 121.25L134.37 120.39C132.93 120.54 131.5 120.69 130.06 120.84L130.09 121.27H133.09V121.67C117.92 122.75 102.73 123.83 87.5403 124.91L87.4902 124.37C91.1502 124 94.8002 123.57 98.4602 123.26C102.37 122.94 106.29 122.76 110.19 122.47C111.44 122.38 112.67 122.06 113.91 121.93C114.55 121.86 115.21 121.98 115.87 122C116.49 122.02 117.21 122.48 117.23 121.13C117.24 120.49 122.36 120.7 122.9 121.21L127 120.18L125.95 119.28L134.24 118.41L134.2 117.89L128.4 118.18L128.33 117.57C130.16 117.36 132 117.16 133.83 116.95V116.62H128.32L128.29 116L133.66 115.72L133.69 115.37L130.37 115.04V114.6L133.6 114.27L133.62 113.82H127.47L127.45 113.17C129.21 113.08 130.97 112.99 132.73 112.9L132.75 112.52L125.44 112.06L125.47 111.58H133.14L133.18 111.06L121.4 109.73L121.45 109.13C124.6 109.4 127.75 109.67 130.91 109.94L130.95 109.67C129.06 109.37 127.17 109.06 125.29 108.76L125.35 108.21C127.23 108.39 129.11 108.56 131 108.74L131.04 108.4C128.16 107.8 125.28 107.2 122.4 106.6V106.28L124.5 105.84C120.32 104.61 116.6 103.51 112.87 102.41L113.07 101.77L118.26 103.58C109.68 98.85 100.95 94.05 92.2303 89.25L92.6302 88.31C93.8602 88.82 95.3102 89.06 96.2802 89.88C101.39 94.18 107.42 96.87 113.33 99.69C118.75 102.27 124.43 104.33 130 106.6C130.5 106.81 131.06 106.88 131.68 106.76C127.39 105.02 123.11 103.27 118.82 101.53L119.02 101.03L132.48 106.26L132.76 105.52L124.87 102.43L125.07 101.88C127.56 102.76 130.04 103.64 132.53 104.51L132.72 104L127.5 101.84L127.71 101.25L132.6 102.92L132.89 102.2C129.99 100.94 127.09 99.69 124.18 98.43L124.36 97.99C127.05 99.05 129.74 100.1 132.43 101.16L132.76 100.4C130.85 99.3901 128.93 98.37 127.02 97.36L127.23 96.89L132.28 99.0901L132.63 98.5L125.86 94.73L126.1 94.23L132.12 97.14L132.43 96.55L127.22 93.63L127.47 93.11C129 93.85 130.53 94.6001 132.07 95.3401L132.35 94.83L128.72 92.61L128.92 92.17L132.03 93.51L132.3 93.05C130.85 92.2 129.39 91.35 127.94 90.51L128.15 90.07L131.86 91.7101L132.08 91.45L130.23 89.79L132.35 90.2101L132.69 89.72L126.87 85.1501L127.14 84.7801L131.98 88.18L132.27 87.83L124.02 80.98L124.37 80.5301C126.97 82.6201 129.57 84.7 132.17 86.79L132.58 86.32L129.36 83.58L129.62 83.18L132.26 84.9001L132.5 84.63L125.11 77.74L125.48 77.31L129.54 80.82L129.85 80.57L127.58 77.95L129.27 78.2L125.73 73.06L126.08 72.82L129.97 77.7801C128.99 73.3701 124.36 70.8101 124.49 65.4601L127.76 72.87C125.65 65.76 123.97 58.65 124.81 51.16C125.39 61.31 127.13 71.11 133.09 80.35C133.75 77.48 134.31 75.1 134.86 72.72L135.27 72.75C135.33 73.12 135.5 73.5001 135.43 73.8401C133.24 84.4901 133.53 95.21 134.51 105.93C134.89 110.04 135.61 114.12 136.04 118.23C136.14 119.16 135.95 120.28 135.48 121.07C131.05 128.47 127.87 136.4 125.55 144.66C123.95 150.37 122.76 156.19 121.38 161.96C121.22 162.64 121.01 163.32 120.71 164.45C119.87 157.57 122.71 151.81 123.44 145.61L122.35 145.54C123.27 144.98 123.91 144.58 124.55 144.19L124.06 143.59L119.01 146.94L118.75 146.57C120.83 145.09 122.9 143.61 124.98 142.12L124.72 141.71L121.08 143.65L120.85 143.25L125.63 140.36L125.41 139.86L123.08 140.73L122.95 140.47L126.15 138.39L125.88 137.96C122.81 139.73 119.74 141.5 116.66 143.27L116.35 142.73C119.84 140.71 123.33 138.69 126.82 136.67L126.56 136.18C124.21 137.48 121.85 138.78 119.5 140.07L119.27 139.66C121.29 138.34 123.3 137.02 125.32 135.7C126.1 135.11 126.88 134.51 127.66 133.92L127.62 133.9Z" fill="black"/>
<path d="M127.62 133.9L125.28 135.68C121.97 137.45 118.56 139.06 115.37 141.02C108.65 145.16 102.03 149.46 95.4103 153.76C93.8003 154.81 92.3703 156.13 90.5303 156.94C93.1303 154.85 95.5703 152.51 98.3503 150.71C105.81 145.86 113.42 141.23 120.97 136.5C122 135.86 122.93 135.01 124.04 134.58C125.15 134.15 126.42 134.11 127.62 133.91V133.9Z" fill="black"/>
<path d="M121.61 149.88C120.7 152.82 119.49 154.33 116.75 154.88C115.37 155.16 114.26 157.12 113.19 158.46C109.12 163.55 105.12 168.7 101.1 173.83C100.66 174.39 100.23 174.95 99.6205 175.72V174.34L98.1904 175.61C98.2504 175.17 98.2204 174.93 98.3204 174.77C99.3004 173.33 99.9804 171.37 101.34 170.58C105.83 167.99 107.65 163.16 111.09 159.72C113.37 157.44 115.23 154.77 117.48 152.46C118.47 151.44 119.95 150.89 121.6 149.88H121.61Z" fill="black"/>
<path d="M104.861 64.15C112.301 71.79 119.901 79.58 127.491 87.37L127.731 87.29C127.251 87 126.741 86.74 126.281 86.43C118.921 81.38 113.081 74.76 107.401 67.98C107.031 67.54 106.701 67.02 106.221 66.74C104.501 65.74 104.481 65.77 104.861 64.15Z" fill="black"/>
<path d="M126 92.92C123.83 91.79 121.66 90.65 119.48 89.52L119.81 88.87L126.32 92.3L126 92.91V92.92Z" fill="black"/>
<path d="M123.441 101.83L117.631 99.24L117.891 98.62L123.791 101.19L123.441 101.83Z" fill="black"/>
<path d="M118.291 96.97L124.221 99.65L123.951 100.3L118.011 97.66L118.291 96.96V96.97Z" fill="black"/>
<path d="M112.65 97.67L117.63 100.13L117.34 100.72L112.36 98.27L112.65 97.67Z" fill="black"/>
<path d="M140.941 120.45C143.681 120.45 146.471 120.13 149.161 120.51C156.791 121.59 164.381 122.96 171.971 124.48C161.621 123.39 151.281 122.29 140.931 121.2V120.45H140.941Z" fill="black"/>
<path d="M195.66 130.31C193.64 129.44 191.64 128.52 189.59 127.73C188.47 127.3 187.26 127.12 185.92 126.78C189.5 125.53 197.9 129.33 199.95 133.02C198.47 132.21 197.05 131.43 195.63 130.64C195.59 130.62 195.56 130.51 195.57 130.45C195.57 130.38 195.63 130.32 195.67 130.26V130.3L195.66 130.31Z" fill="black"/>
<path d="M149.011 119.07C151.171 119.21 153.391 119.11 155.491 119.57C157.561 120.03 159.511 121.06 161.391 122.23C158.821 121.55 156.271 120.8 153.681 120.23C152.151 119.89 150.541 119.86 148.971 119.69L149.011 119.07Z" fill="black"/>
<path d="M165.481 134.03C161.321 134.79 157.171 135.54 153.011 136.3L152.891 135.75L168.101 132.57L168.261 133.19C167.311 133.48 166.361 133.78 165.411 134.07L165.481 134.03Z" fill="black"/>
<path d="M156.841 113.63C159.651 114.73 162.041 115.66 164.931 116.79C161.181 117.87 159.211 115.84 156.841 113.63Z" fill="black"/>
<path d="M179.451 130.79L165.901 132.3L165.841 131.76C170.381 131.21 174.911 130.65 179.451 130.1V130.8V130.79Z" fill="black"/>
<path d="M149.9 136.26L141.46 139.18L141.25 138.6L149.7 135.56L149.9 136.26Z" fill="black"/>
<path d="M195.66 130.31V130.27C195.25 130.4 194.85 130.53 194.29 130.72L197.37 132.48L197.26 132.67C194.76 131.92 192.27 131.18 189.36 130.31H195.66Z" fill="black"/>
<path d="M204.26 133.9C202.98 132.62 200.52 132.16 201.41 129.4C202.5 130.78 203.6 132.17 204.69 133.57L204.26 133.9Z" fill="black"/>
<path d="M176.41 129.58C173.68 129.9 170.96 130.23 168.23 130.55L168.16 130.06C170.88 129.71 173.61 129.36 176.33 129.01L176.4 129.57L176.41 129.58Z" fill="black"/>
<path d="M172.54 245.53L174.28 247.87L173.97 248.18C173.41 247.62 172.88 247.02 172.26 246.52C171.88 246.21 171.38 246.06 170.93 245.84C170.93 246.4 170.71 247.17 170.99 247.49C171.94 248.57 173.07 249.48 174.12 250.47C174.36 250.69 174.54 250.98 174.74 251.23L174.29 251.67L169.27 246.76C168.47 247.81 168.48 247.85 170.02 250.5L167.84 247.84L167.3 247.9C167.47 248.94 167.63 249.98 167.9 251.66L166.16 248.81L165.62 250.39L164.88 249.16L164.32 249.22C164.43 250.4 164.54 251.58 164.66 252.77L164.41 252.9L163.16 250.41L162.91 250.45L163.35 253.52L163.04 253.69C162.65 252.84 162.26 252 161.87 251.15L161.38 251.22L161.86 254.17C159.65 252.76 159.95 249.82 162.63 248.55C165.18 247.34 167.85 246.37 170.45 245.26C183.11 239.86 195.78 234.48 208.41 229.01C209.86 228.38 210.79 228.58 212.13 229.41C213.91 230.52 216.03 231.08 218.02 231.88C215.38 232.72 213.15 230.94 210.6 230.59C211.83 231.26 213.07 231.93 214.3 232.6L214.18 232.89C212.21 232.02 210.24 231.15 208.27 230.28L207.98 230.85C209.36 231.65 210.73 232.46 212.11 233.26L211.98 233.57C209.99 232.67 207.99 231.78 206 230.88L205.61 231.68L208.93 233.8L208.82 234.05C207.16 233.29 205.5 232.54 203.83 231.78L203.46 232.48L206.38 234.36L206.24 234.68C204.85 234.02 203.46 233.35 202.07 232.69L201.81 233.11L202.98 234.54C201.9 234.15 200.98 233.82 200.07 233.49L199.62 234.16L201.32 234.99L201.03 235.38L198.24 234.36L197.97 234.73C198.43 235.16 198.9 235.6 199.84 236.48C198.42 235.84 197.54 235.44 196.66 235.05L196.36 235.42L198.11 236.99L198.02 237.18L195.2 235.66L194.87 236.12C196.29 237.17 197.72 238.22 199.14 239.26L198.9 239.65C197.19 238.53 195.48 237.41 193.37 236.03L193.78 237.5L191.59 236.92L191.29 237.48C192.71 238.71 194.12 239.95 195.54 241.18L195.29 241.53C193.47 240.22 191.66 238.91 189.84 237.59L189.4 238.19C190.12 239 190.83 239.81 191.55 240.62L191.29 240.93C190.28 240.14 189.26 239.35 188.25 238.56L187.83 238.93L189.33 241.03L189.21 241.2C188.23 240.46 187.24 239.73 186.26 238.99L185.69 239.67C187.05 241.31 188.4 242.95 189.76 244.59C187.17 243.8 186.66 240.44 183.14 240L184.48 242.54L181.48 240.91L181 241.58L185.34 245.69L184.97 246.1C183.58 244.96 182.21 243.79 180.78 242.71C180.37 242.4 179.78 242.34 179.28 242.16L179.01 243.55L176.71 243.02L176.38 243.57C177.06 244.44 177.75 245.3 178.43 246.17L178.26 246.41L175.17 243.87L174.66 244.29C175.16 245.13 175.65 245.97 176.44 247.3C175.05 246.23 174.08 245.48 173.11 244.73L172.58 245.49L172.54 245.53Z" fill="black"/>
<path d="M148.01 245.69L146.03 247.43L145.76 247.24L147.05 244.81L144.76 245.87L145.24 244.26L144.92 243.98C144.39 244.44 143.85 244.91 143 245.65L143.92 243.3L142.16 244.39L142.63 242.96C135.38 237.72 128.35 232.35 120.41 228.24L120.89 227.1C119.78 227.38 119.01 227.57 117.91 227.84L119.01 226.67L118.88 226.2L115.65 226.82L117.29 225.44L117.13 225.11L114.27 225.99L114.15 225.72L115.83 224.65L115.76 224.32L113.41 224.64L114.71 223.28C113.53 223.7 112.65 224.01 111.77 224.33L111.57 223.98L112.9 222.92C110.07 223.26 107.06 223.62 104.06 223.99L103.96 223.16C104.82 223.09 105.71 223.12 106.55 222.93C108.33 222.51 110.07 221.89 111.86 221.54C112.57 221.4 113.54 221.54 114.12 221.93C125.13 229.46 136.1 237.07 147.09 244.63C149.06 245.99 151.09 247.26 153.12 248.53C155.86 250.25 155.85 253.39 152.95 255.32L154.15 251.33L153.69 251.08L151.59 253.76L151.3 253.59C151.97 252.4 152.64 251.2 153.31 250.01L152.91 249.71L151.21 251.27L152.23 248.69L149.96 250.37L150.84 247.97L150.38 247.6C149.64 248.28 148.9 248.96 147.66 250.09L149.31 247.18L148.96 246.81L146.94 248.56C147.29 247.6 147.54 246.92 147.99 245.7L148.01 245.69Z" fill="black"/>
<path d="M158.07 254.21L157.471 253.04L156.32 256.22C155.75 256.16 155.191 256.1 154.561 256.04L156.081 250.65C158.731 250.71 158.861 250.92 158.061 254.21H158.07Z" fill="black"/>
<path d="M202.79 171.21V159.4H203.44C203.31 161.25 203.18 163.09 203.05 164.92L203.35 164.95L204.04 159.84L204.61 159.91C204.11 163.7 203.61 167.49 203.11 171.28L202.79 171.2V171.21Z" fill="black"/>
<path d="M154.94 183.84C154.27 184.21 153.611 184.62 152.911 184.94C152.331 185.2 151.69 185.35 151.08 185.55C151.61 186.08 152.14 186.61 152.69 187.12C152.89 187.3 153.16 187.41 153.52 187.62C151.6 187.66 150.161 186.83 150.311 185.68C150.521 184.13 151.461 183.54 153.091 184.06C153.471 184.18 154.071 183.6 154.561 183.35L154.931 183.85L154.94 183.84Z" fill="black"/>
<path d="M202.97 184.82C201.87 185.38 201.21 186 200.76 185.88C200.16 185.71 199.73 184.95 199.23 184.44C199.74 184.05 200.28 183.3 200.74 183.35C201.35 183.41 201.91 184.08 202.96 184.82H202.97Z" fill="black"/>
<path d="M195.421 181.62C196.141 182.45 196.731 182.95 197.021 183.58C197.101 183.76 196.151 184.75 195.941 184.67C195.291 184.42 194.651 183.92 194.291 183.33C194.171 183.13 194.881 182.41 195.421 181.61V181.62Z" fill="black"/>
<path d="M170.17 176.15L165.92 176.51C167.14 173.79 168.77 175.88 170.05 175.46L170.17 176.15Z" fill="black"/>
</svg>
