<svg width="761" height="779" viewBox="0 0 761 779" fill="none" xmlns="http://www.w3.org/2000/svg">
<path d="M536.048 746.445C506.988 745.235 478.388 742.175 451.068 731.435C397.938 710.535 369.298 671.425 364.338 614.745C363.458 604.735 362.898 594.695 361.128 584.145C359.888 586.845 358.268 589.445 357.468 592.265C348.928 622.335 349.058 652.805 353.678 683.425C353.998 685.575 354.678 687.865 355.828 689.675C379.728 727.085 410.778 755.005 456.748 759.975C474.238 761.865 492.208 759.375 509.948 758.815C511.798 758.755 513.648 758.665 515.568 758.565C523.518 755.065 531.258 750.945 538.868 746.475C537.928 746.475 536.998 746.495 536.038 746.455L536.048 746.445Z" stroke="#D7CDBA" stroke-width="2.13" stroke-miterlimit="10"/>
<path d="M499.458 696.645C455.838 695.535 417.338 680.985 383.468 653.715C382.158 652.665 380.738 651.745 377.468 649.395C379.098 654.455 379.808 657.645 381.108 660.565C399.538 701.965 432.198 721.405 476.758 723.805C532.838 726.825 584.668 715.465 631.748 686.955C637.628 678.355 645.478 670.945 650.678 662.085C649.348 662.875 648.018 663.675 646.698 664.445C601.248 690.945 551.228 697.955 499.458 696.635V696.645Z" stroke="#D7CDBA" stroke-width="2.13" stroke-miterlimit="10"/>
<path d="M712.978 397.945C712.798 396.955 712.607 395.975 712.427 394.985C720.897 390.515 729.157 385.555 737.907 381.685C748.707 376.905 756.738 370.225 759.258 357.505C751.028 356.415 744.508 359.085 739.698 364.695C735.188 369.955 731.747 376.115 727.677 382.105C725.087 372.265 727.118 367.575 735.248 363.915C747.018 358.615 752.588 349.545 750.858 338.485C735.478 340.385 726.608 349.755 725.888 364.625C725.698 368.555 725.208 372.505 724.398 376.355C721.748 388.835 712.578 394.905 698.128 393.095C708.398 386.685 716.958 379.845 713.758 366.275C706.498 366.625 701.568 370.075 698.588 376.425C697.858 377.975 697.377 379.665 696.907 381.325C692.367 397.365 688.148 399.515 671.338 393.865C678.228 385.045 684.097 375.885 694.438 370.325C706.948 363.595 712.808 350.165 710.218 336.975C701.668 338.315 695.937 343.285 692.557 350.875C689.637 357.405 687.488 364.275 684.768 370.905C683.718 373.475 682.058 375.805 679.278 377.605C680.698 371.775 682.977 365.985 683.287 360.095C683.577 354.555 681.798 348.905 680.628 341.435C670.558 350.595 669.028 359.655 670.738 369.975C673.358 385.855 667.807 394.055 652.177 397.475C657.277 389.885 668.108 384.525 661.068 372.505C652.398 377.035 648.658 383.595 649.318 393.065C649.968 402.395 648.847 403.815 640.417 406.485C640.417 394.305 639.968 382.345 640.838 370.485C640.998 368.365 646.418 365.445 649.718 364.955C659.978 363.435 662.888 361.435 666.188 350.985C657.658 348.645 655.627 349.595 641.188 361.065C642.737 357.215 643.578 352.815 645.998 349.625C650.618 343.555 656.448 338.415 661.218 332.435C666.908 325.305 673.188 324.465 681.438 327.775C692.477 332.205 697.758 330.315 704.338 320.455H678.268C683.018 310.285 690.778 305.805 699.988 307.625C703.828 308.385 707.518 309.965 711.218 311.315C722.198 315.335 732.428 314.085 742.588 307.085C733.998 297.755 724.077 293.895 709.907 296.545C722.207 288.765 730.638 280.435 728.698 265.585C715.988 267.245 708.138 274.935 703.338 285.255C698.658 295.325 691.038 302.355 683.068 309.345C682.078 310.215 680.777 310.745 678.927 311.135C685.687 300.415 690.248 289.705 682.248 277.365C675.638 281.935 673.398 288.185 673.258 295.395C673.208 297.845 673.698 300.305 674.018 302.755C675.668 315.775 673.378 319.285 659.578 323.915C665.158 314.765 671.998 306.015 662.118 295.685C655.428 301.355 652.537 308.135 655.047 316.225C657.517 324.155 655.348 329.905 649.518 335.445C644.768 339.965 640.948 345.465 635.958 351.445C637.158 338.605 649.958 328.795 641.818 315.175C634.818 318.415 632.277 323.775 632.657 330.715C633.007 337.085 633.668 343.445 633.358 350.365C628.948 339.945 625.558 328.755 611.838 327.685C608.318 339.895 611.288 347.435 621.748 353.395C633.798 360.265 634.787 362.495 633.307 376.645C632.457 384.755 632.258 392.935 631.378 401.045C630.998 404.475 629.607 407.795 628.677 411.165L626.848 410.805C626.848 405.295 627.988 399.465 626.528 394.375C625.108 389.405 621.028 385.205 617.018 381.185C613.178 392.645 613.657 403.165 620.657 413.815C612.307 411.445 607.628 402.225 598.348 405.955C598.108 414.455 604.178 416.735 612.518 419.235C598.288 423.935 585.887 424.925 572.677 422.575C585.184 407.695 591.927 396.915 592.907 390.235C582.447 391.695 575.608 397.455 572.508 407.045C566.678 425.075 563.498 427.005 543.458 419.795C542.568 419.475 541.767 418.905 539.417 417.645C550.467 404.155 560.518 390.475 572.248 378.435C575.658 374.925 583.818 375.585 589.848 375.185C599.988 374.525 604.867 372.515 609.557 365.565C597.757 358.195 587.638 361.915 578.068 370.765C578.238 359.285 581.808 355.555 593.318 354.295C599.618 353.605 605.878 352.995 607.388 344.465C598.578 339.275 592.978 346.495 585.888 349.745C591.068 336.215 594.038 321.365 605.228 311.635C609.668 307.775 618.068 307.215 624.638 307.315C638.448 307.525 648.328 302.365 654.878 289.805C637.118 285.895 623.147 291.675 611.547 305.535C610.627 290.325 623.858 279.635 640.358 280.995C652.288 281.975 654.548 280.695 657.818 270.765C648.038 268.775 639.438 271.445 631.238 277.155C633.498 265.245 642.418 259.375 653.138 262.655C658.548 264.305 663.608 267.095 669.018 268.755C682.288 272.825 694.128 268.755 701.868 257.455C690.348 250.815 678.897 248.225 666.177 254.345C661.367 256.655 655.777 257.335 650.157 257.715C660.937 244.435 672.868 233.485 690.088 230.195C702.958 227.735 711.108 220.135 714.268 207.255C702.888 203.945 694.067 208.055 686.177 219.575C683.577 223.375 680.188 226.645 676.268 229.615C681.198 215.425 688.608 201.815 677.218 187.565C664.718 196.515 661.767 205.195 666.427 218.885C666.907 220.285 667.468 221.665 667.968 223.055C671.198 232.105 669.758 234.365 659.498 236.165C659.498 219.495 658.798 202.795 659.968 186.225C660.278 181.895 665.957 177.475 669.938 173.965C676.398 168.255 682.358 162.425 684.518 153.065C682.848 150.355 681.147 147.665 679.417 144.995C663.967 154.165 660.288 170.155 656.708 185.775C654.858 193.845 655.588 202.495 655.008 210.865C654.438 218.995 654.078 227.165 652.888 235.205C651.768 242.715 647.318 247.705 637.888 249.035C641.618 236.255 655.038 225.025 643.268 210.605C621.038 221.815 632.007 239.925 635.057 256.325C634.377 256.455 633.708 256.575 633.028 256.705C631.768 255.145 630.138 253.755 629.318 251.985C624.968 242.605 620.228 233.345 616.768 223.625C612.928 212.835 614.538 209.365 624.718 203.705C633.698 198.715 640.218 192.235 640.968 181.465C641.238 177.585 641.008 173.675 641.008 169.225C626.198 177.195 619.508 189.585 616.898 204.855C616.098 204.665 615.298 204.475 614.488 204.295C614.218 202.465 613.628 200.625 613.718 198.815C613.988 193.635 615.318 188.395 614.818 183.315C613.578 170.605 618.667 162.295 629.787 156.275C638.897 151.345 645.588 143.645 648.478 133.265C648.858 131.905 648.968 130.475 647.738 127.795C638.798 135.135 629.858 142.475 622.378 148.615V90.1551C619.188 87.7351 615.938 85.4051 612.618 83.1351C612.458 84.2551 612.177 85.4551 611.677 86.8151C606.887 100.035 605.098 113.505 611.268 127.215C613.758 132.745 614.268 139.155 615.828 145.135C617.948 153.245 617.468 160.625 610.228 166.435C607.058 160.815 604.227 154.865 600.537 149.515C596.607 143.815 590.938 140.425 583.728 140.285C581.028 150.095 585.828 159.915 595.828 165.355C613.518 174.975 613.568 175.085 608.078 195.885C601.848 187.045 600.158 173.495 585.348 175.175C584.028 184.375 587.778 192.005 596.518 195.265C605.008 198.425 608.338 204.105 608.598 212.695C609.078 228.575 613.888 243.225 621.358 257.185C622.888 260.035 622.507 263.905 621.938 267.605C614.767 260.525 610.628 250.335 597.978 251.905C596.408 266.245 608.308 267.415 617.458 271.845C609.068 282.715 600.998 293.175 592.938 303.625C592.418 303.395 591.908 303.175 591.388 302.945C592.688 298.425 594.108 293.945 595.248 289.385C596.588 284.045 595.358 279.665 589.578 276.755C583.838 283.715 584.138 291.065 587.008 298.855C590.708 308.875 588.958 314.705 579.818 321.855C579.878 308.035 585.288 293.325 571.868 282.785C563.238 291.115 561.637 300.845 567.287 310.485C569.147 313.665 571.668 316.445 573.838 319.445C580.078 328.055 579.378 333.785 571.388 341.075C566.648 333.145 562.068 325.045 556.958 317.305C556.048 315.925 552.917 316.005 550.427 315.305C547.157 326.935 555.618 332.645 562.958 340.825C554.268 338.075 547.438 337.325 541.748 343.125C548.938 351.395 552.328 351.835 566.108 345.845C566.688 347.745 568.278 350.165 567.628 351.265C560.888 362.635 553.788 373.795 545.848 386.525C543.218 375.935 556.328 369.265 548.628 360.125C539.568 364.885 537.978 367.825 540.218 376.595C542.708 386.335 540.137 394.285 532.047 400.115C527.117 403.665 521.727 406.585 515.917 409.425C522.547 398.095 526.728 386.675 521.258 373.855C511.308 376.335 502.657 394.335 505.667 408.075C506.887 413.645 505.278 417.575 498.248 420.065C497.048 396.645 495.888 373.975 494.628 349.215C506.158 359.875 516.358 369.765 532.468 364.395C527.268 349.765 515.178 347.975 501.758 348.515C501.658 347.635 501.568 346.755 501.468 345.875C505.238 344.385 508.887 342.235 512.797 341.535C524.917 339.385 533.218 332.035 539.968 322.515C541.408 320.485 541.648 317.605 542.488 314.945C517.188 310.935 509.198 331.815 496.438 346.275C493.247 331.165 504.478 304.335 516.708 298.225C520.248 296.455 525.428 296.585 529.468 297.525C536.978 299.265 544.207 302.235 551.547 304.685C552.037 304.185 552.518 303.695 553.008 303.195C551.018 299.915 549.028 296.635 546.248 292.035C549.458 289.395 552.977 286.495 556.797 283.345C552.171 281.672 542.674 283.512 528.307 288.865C529.817 279.695 537.838 273.455 548.948 273.285C554.118 273.205 559.298 273.865 564.478 274.165C577.138 274.895 585.027 267.975 591.657 257.315C578.927 255.165 567.677 255.325 557.787 264.235C555.287 266.485 551.147 266.915 546.297 268.725C549.147 258.745 554.827 254.955 561.807 252.275C570.557 248.915 579.117 245.025 587.907 241.795C596.357 238.685 599.648 231.975 601.978 223.615C593.928 223.365 587.887 225.915 584.907 233.185C581.487 241.515 574.818 244.705 564.148 246.885C575.988 232.955 588.228 221.015 583.008 201.925C572.198 209.255 562.838 217.085 562.398 231.515C562.038 243.325 555.377 251.065 544.297 257.285C545.607 250.205 547.028 244.205 547.768 238.115C548.558 231.605 546.237 226.035 541.307 221.625C531.057 229.185 529.098 240.915 536.128 251.545C542.758 261.565 542.608 262.665 533.508 270.495C527.888 275.335 522.288 280.205 516.598 284.955C514.918 286.355 512.927 287.405 510.297 288.035C511.407 274.295 523.987 261.975 513.167 247.305C495.017 259.835 506.498 277.575 505.218 292.985C493.858 286.265 484.227 262.055 487.927 249.905C489.987 243.145 495.798 242.455 501.568 241.835C515.128 240.385 520.298 234.895 520.828 220.445C508.658 220.795 501.668 229.325 493.588 236.345C497.868 223.385 505.538 212.325 517.638 206.595C522.618 204.235 531.448 207.085 537.218 210.085C544.418 213.825 550.148 212.935 556.938 209.455C555.077 206.285 553.357 203.335 551.417 200.015C553.917 196.565 556.448 193.075 559.358 189.055C544.748 184.125 536.768 198.205 522.618 199.915C530.138 191.085 536.008 182.985 543.248 176.375C545.738 174.095 551.648 175.105 555.948 175.355C567.708 176.055 573.408 172.985 577.598 163.025C568.838 157.975 566.088 158.605 546.718 170.685C549.558 157.755 550.977 145.465 555.297 134.285C557.177 129.415 564.618 126.035 570.198 123.405C582.288 117.705 587.928 108.745 585.598 96.0551C570.428 99.5551 564.257 112.535 555.927 124.415C551.967 114.815 551.278 106.495 557.278 98.1651C566.068 85.9551 569.268 72.8551 561.958 57.4951C553.858 65.4851 549.718 74.7051 549.238 85.2251C548.388 103.495 548.278 121.795 547.718 140.075C547.598 144.135 546.908 148.185 546.248 154.395C537.628 143.745 538.368 127.835 522.768 126.205C519.638 138.415 523.067 145.855 534.037 151.185C545.207 156.605 546.108 159.535 539.378 169.755C536.288 174.445 532.838 178.895 528.698 184.625C527.208 177.755 526.837 172.035 524.657 167.105C522.617 162.505 518.658 158.745 514.708 153.535C509.848 162.915 511.377 169.735 515.427 176.315C521.874 186.782 519.457 195.642 508.177 202.895C508.287 194.705 513.727 185.545 501.797 178.795C502.167 185.965 501.768 191.975 502.968 197.645C504.388 204.365 503.318 209.735 498.528 214.605C494.058 219.155 489.838 223.975 484.858 229.375C485.198 217.045 495.907 204.945 483.537 193.495C473.037 203.605 475.948 214.425 481.708 226.175C473.788 225.135 466.847 224.225 459.427 223.255C464.137 233.975 466.698 234.825 483.148 231.365C481.078 241.265 479.087 250.765 477.167 259.935C469.647 252.625 462.558 245.375 454.988 238.675C453.348 237.225 449.978 237.735 447.368 237.335C446.438 248.565 450.697 255.785 461.427 258.175C475.137 261.225 480.988 270.565 483.948 282.745C484.458 284.865 483.487 288.265 481.938 289.665C480.717 290.765 477.277 290.265 475.297 289.405C473.157 288.475 471.448 286.395 469.758 284.625C460.588 275.025 450.918 272.905 437.608 277.995C443.988 297.185 460.837 293.605 477.297 295.645C466.807 301.235 455.688 304.365 454.898 317.115C464.648 321.085 474.298 317.085 477.948 307.745C478.218 307.065 478.178 306.215 478.568 305.625C480.948 302.075 483.198 295.925 485.888 295.715C489.348 295.445 493.187 299.945 497.547 302.855C483.127 317.585 480.688 335.065 480.268 352.945C469.128 347.245 458.808 341.965 447.738 336.305C447.128 349.825 456.007 359.985 467.417 358.765C478.477 357.585 481.278 360.215 480.578 372.975C480.358 376.875 480.008 380.765 479.608 386.085C470.478 379.355 463.658 369.175 450.728 373.385C451.248 388.035 463.958 385.165 473.458 388.735C464.268 393.065 453.058 393.455 451.578 406.185C465.418 411.255 469.358 399.145 477.438 390.805C477.107 406.915 471.928 419.195 460.878 427.235C449.928 435.205 437.988 442.955 423.548 442.705L421.778 440.355C424.008 437.495 425.778 434.025 428.558 431.885C441.488 421.925 445.488 410.445 440.878 394.805C426.448 400.595 415.818 418.035 418.328 434.285C419.858 444.175 416.378 450.135 408.678 455.435C377.128 477.165 349.178 502.745 325.448 532.985C312.418 549.595 304.948 568.035 304.928 588.965C304.908 606.485 305.468 624.105 307.458 641.495C309.528 659.615 303.668 673.195 289.508 684.185C264.498 703.595 235.848 708.045 205.388 705.425C174.438 702.765 146.878 691.585 120.748 676.615C135.168 691.735 150.468 706.415 166.818 719.665C188.628 728.865 211.048 735.185 235.378 735.655C266.278 736.255 289.338 722.195 309.128 700.625C311.128 698.445 312.118 694.245 311.778 691.175C304.188 622.485 328.158 565.605 376.118 517.525C395.718 497.875 415.778 478.845 440.488 465.535C442.228 464.595 443.958 463.645 445.738 462.775C460.218 455.675 461.198 456.055 467.078 470.795C471.458 481.775 479.208 488.385 491.878 489.905C492.288 469.265 474.578 465.075 461.438 455.225C485.618 446.435 506.757 431.345 535.547 433.105C524.987 444.025 512.608 452.285 523.068 467.715C532.228 462.725 533.738 459.225 534.858 439.915C548.538 451.765 551.458 474.105 573.438 477.535C573.207 454.495 556.758 445.735 539.718 437.455C548.368 430.845 557.558 432.205 563.228 440.645C565.428 443.925 567.117 447.575 569.557 450.645C575.267 457.855 583.008 458.925 591.778 457.455C592.638 444.125 583.458 440.115 573.618 436.045C587.748 434.405 601.877 432.775 616.677 431.055C617.607 438.165 618.448 444.565 619.378 451.685C631.168 445.725 622.587 434.775 627.287 426.405C634.137 438.015 642.968 443.395 655.898 439.095C650.768 427.255 646.278 423.755 633.328 421.575C638.478 417.955 643.028 414.275 648.028 411.355C653.838 407.965 657.628 411.625 661.128 415.985C667.948 424.465 674.337 426.155 684.807 422.345C680.407 409.215 669.657 406.855 657.657 406.565C662.597 397.495 676.468 398.785 683.528 407.795C687.648 413.055 693.087 417.325 698.167 421.775C699.237 422.715 701.328 422.495 703.518 422.915C702.488 412.735 697.388 406.195 688.398 402.055C702.798 396.825 710.467 398.385 721.037 408.325C731.987 418.625 743.677 418.815 753.438 408.985C742.337 397.735 728.208 396.115 713.028 397.905L712.978 397.945Z" stroke="#D7CDBA" stroke-width="2.13" stroke-miterlimit="10"/>
<path d="M507.328 117.125C500.288 120.875 493.448 125.015 486.848 128.845C484.848 118.195 492.798 109.275 505.778 108.985C519.948 108.665 525.988 106.875 536.358 99.6351C532.338 97.3351 528.598 95.205 524.318 92.765C526.718 86.215 529.068 79.825 531.438 73.355C518.918 72.745 507.528 81.745 502.598 96.545C500.478 102.895 497.788 107.915 488.888 107.695C491.308 95.6551 493.428 83.8651 496.248 72.2451C496.718 70.3151 500.058 68.7251 502.378 67.6451C512.958 62.7151 519.068 47.4351 513.528 38.8851C503.628 44.0651 497.988 52.6551 494.068 62.7451C494.548 54.6251 496.238 46.335 495.168 38.425C494.258 31.705 491.328 25.2451 488.548 17.8051C485.638 17.0051 482.718 16.225 479.798 15.485C481.068 17.375 482.018 20.025 481.708 21.605C478.388 38.835 485.018 54.1951 489.628 69.9951C490.218 72.0051 489.438 74.4151 489.298 76.6451C487.288 75.3651 484.598 74.525 483.408 72.705C480.858 68.835 479.298 64.335 476.938 60.325C474.088 55.485 470.828 50.885 467.228 45.3951C461.138 55.4951 462.328 62.405 469.588 67.855C469.978 68.155 470.398 68.4251 470.828 68.6651C490.998 79.5851 491.288 84.765 484.538 107.425C482.008 115.925 479.048 124.295 476.258 132.775C469.068 129.055 467.968 125.285 470.748 117.915C472.908 112.195 475.298 106.305 475.908 100.325C476.798 91.725 472.508 84.815 465.758 79.045C457.068 96.565 455.738 113.385 466.568 130.115C469.648 134.865 472.248 140.005 466.218 146.235C456.098 133.775 446.128 121.935 436.848 109.595C435.518 107.825 436.588 103.015 438.118 100.615C440.308 97.1751 444.108 94.795 446.938 91.705C453.298 84.755 455.978 76.585 454.378 66.355C441.888 73.005 435.968 83.1651 435.458 97.0651C425.178 83.8751 430.348 61.4251 445.278 52.4951C457.318 45.2951 461.938 37.205 460.568 25.075C442.438 27.445 442.638 45.325 434.708 56.105C433.948 55.925 433.198 55.7451 432.438 55.5651C433.788 47.0151 436.408 38.4251 436.118 29.9451C435.848 22.1351 433.438 14.4051 431.418 5.87506C426.838 5.21506 422.248 4.61506 417.648 4.09506C418.198 5.04506 418.618 6.08505 418.678 6.89505C419.498 18.345 421.898 29.0751 427.118 39.5651C432.448 50.2551 427.058 61.2251 425.268 73.7751C418.738 63.9951 422.588 50.765 411.088 45.425C405.058 57.025 407.658 67.1651 419.058 75.2551C425.778 80.0151 428.368 85.6851 425.468 94.2851C412.658 87.7151 406.958 69.5751 389.098 72.2451C388.538 84.1151 400.648 92.8651 411.058 94.6451C415.138 95.3451 419.368 96.405 422.958 98.355C427.768 100.975 430.048 105.545 429.508 112.125C414.598 108.365 399.998 105.855 382.918 110.585C388.418 115.195 392.408 118.525 396.698 122.115C394.698 126.385 392.748 130.555 390.798 134.705C400.258 138.595 410.048 135.055 417.038 125.475C427.568 111.045 429.848 110.755 441.368 124.835C446.298 130.855 450.728 137.655 453.698 144.805C456.808 152.285 456.018 160.165 447.368 168.035C446.658 159.325 445.948 152.465 445.568 145.585C444.998 135.275 443.198 133.105 432.208 130.845C428.538 142.745 441.538 147.145 443.428 155.485C433.728 150.555 423.538 145.375 413.348 140.195L411.758 142.465C413.158 150.085 417.398 156.085 424.028 160.145C430.278 163.965 436.968 167.055 443.378 170.425C438.538 182.215 433.318 183.925 423.098 176.885C412.948 169.895 402.878 166.465 391.638 174.125C391.248 174.385 391.018 174.875 390.318 175.755C400.258 192.235 415.858 184.125 429.448 184.145C427.818 195.945 417.268 202.025 407.268 197.385C399.448 193.765 392.508 195.155 385.968 201.305C392.318 211.515 401.428 207.315 411.168 205.475C400.968 223.315 391.548 239.795 382.128 256.275C381.468 256.055 380.818 255.845 380.158 255.625C382.278 246.485 390.888 236.935 378.918 228.095C371.338 238.495 373.068 248.575 378.338 258.755C382.938 267.635 382.848 268.575 375.968 277.285C369.468 266.485 374.178 251.025 361.808 242.965C355.248 253.905 355.428 261.625 362.758 270.625C367.118 275.985 372.188 280.755 376.698 286.005C377.698 287.165 377.678 289.195 378.118 290.815C376.298 290.485 373.908 290.775 372.758 289.715C364.968 282.485 357.578 274.825 349.798 267.595C344.078 262.285 342.918 255.875 346.068 249.415C349.148 243.105 353.308 237.185 357.748 231.705C364.248 223.685 365.238 218.755 360.788 209.805C345.798 219.305 340.628 234.075 340.918 251.665C339.838 251.575 338.758 251.485 337.678 251.395C336.808 248.195 334.838 244.845 335.258 241.825C337.488 225.425 340.178 209.085 342.988 192.765C344.258 185.355 345.388 185.065 352.208 188.915C363.908 195.535 373.198 194.375 381.898 184.735C371.978 180.605 362.998 173.285 351.418 181.155C351.098 180.425 350.788 179.695 350.468 178.965C353.768 176.205 356.898 173.225 360.388 170.735C370.548 163.505 376.998 154.665 374.308 141.005C351.598 145.015 353.358 166.195 346.688 181.265C346.008 181.075 345.328 180.885 344.648 180.685C344.458 178.425 344.268 176.165 344.088 173.915C343.438 165.555 343.188 157.135 342.068 148.845C340.368 136.325 345.378 127.525 355.388 120.455C368.528 111.165 371.348 103.455 367.528 90.3051C356.728 90.9651 348.588 99.4751 346.438 112.125C345.568 117.225 344.488 122.305 343.218 127.325C342.918 128.505 341.178 130.385 340.638 130.225C339.278 129.795 337.568 128.595 337.178 127.335C336.178 124.075 334.968 120.525 335.368 117.275C336.888 104.775 338.728 92.2951 340.998 79.9051C342.708 70.5551 348.068 66.7251 357.688 66.3451C363.578 66.1151 369.628 66.195 375.288 64.795C383.388 62.795 388.618 57.2351 390.908 48.8651C373.888 44.0251 361.618 51.4451 350.148 62.0851C352.628 50.7851 355.758 40.9651 367.288 35.3051C380.518 28.8051 386.218 17.285 385.108 1.57504C383.008 1.48504 380.898 1.44507 378.788 1.38507C363.688 8.47507 357.718 21.6851 354.838 37.4151C353.718 43.5251 350.958 49.345 347.948 55.235C344.328 43.715 344.448 30.705 331.238 25.075C324.788 31.945 324.158 40.375 329.898 47.605C332.168 50.465 335.078 52.8951 337.978 55.1651C343.278 59.3251 344.578 64.2351 341.248 70.1151C331.678 87.0251 326.338 105.005 327.118 124.585C327.128 124.945 326.638 125.335 325.058 127.625C322.938 122.675 320.048 118.835 319.868 114.865C319.578 108.555 320.648 102.065 321.938 95.8051C323.958 85.9651 321.178 78.355 313.038 72.575C306.798 79.455 306.198 88.7351 310.788 98.5051C313.188 103.615 314.948 109.025 316.988 114.295C316.278 114.795 315.578 115.295 314.868 115.805C312.578 114.665 309.638 114.075 308.108 112.295C301.228 104.255 294.558 96.025 288.218 87.545C284.748 82.905 286.628 78.2151 289.698 73.8751C293.828 68.0451 298.208 62.325 301.748 56.1451C305.108 50.285 306.218 43.7851 303.518 37.0951C285.698 43.1851 278.368 54.9751 282.108 73.9051C278.018 67.2851 274.628 60.8051 275.128 53.1651C275.918 41.2951 275.318 29.845 267.588 19.295C264.828 20.335 262.048 21.565 259.098 22.955C259.068 22.965 259.038 22.9851 259.008 22.9951C258.128 34.9251 258.628 46.0251 269.778 54.5251C262.248 56.0951 257.888 53.975 254.768 48.265C248.768 37.295 244.008 35.1451 231.188 37.5251C233.038 45.9551 238.078 51.455 245.958 54.1451C249.878 55.4851 254.148 55.8651 258.298 56.4151C271.788 58.1951 275.208 61.765 276.678 76.605C267.698 68.235 259.298 59.3751 245.648 63.8051C249.038 75.4651 258.288 83.3151 268.728 82.1351C277.928 81.0951 283.278 84.765 286.868 92.6451C288.488 96.205 290.598 99.5451 292.908 103.755C284.288 103.275 276.298 102.835 267.238 102.335C271.798 111.735 277.048 114.125 284.928 110.375C292.108 106.955 296.898 108.845 301.878 114.205C307.258 119.985 313.408 125.035 318.918 130.705C321.328 133.185 322.968 136.415 326.088 140.945C310.888 137.465 298.078 126.665 284.528 138.655C288.258 146.525 294.368 150.125 302.978 149.045C307.608 148.465 312.128 147.005 316.718 146.045C325.678 144.175 331.228 147.385 331.228 156.745C331.228 170.475 329.928 184.275 328.068 197.895C327.018 205.585 323.718 212.975 321.328 220.835C313.368 217.345 312.018 212.145 314.058 204.895C317.798 191.595 314.788 183.525 304.308 176.855C296.088 188.925 296.058 198.525 304.358 210.185C307.648 214.805 311.388 219.135 314.388 223.935C315.708 226.045 315.718 228.985 315.698 232.155C294.538 216.045 268.318 212.825 244.538 203.765C244.558 202.815 244.588 201.855 244.608 200.905C248.628 199.635 252.598 198.155 256.678 197.135C270.918 193.565 279.518 184.925 280.888 171.835C273.778 172.335 266.788 172.815 258.848 173.375C264.508 164.975 274.328 159.565 272.778 148.555C272.228 144.695 269.738 141.115 267.938 136.945C258.508 144.005 253.938 152.075 255.538 162.645C257.598 176.205 249.288 186.105 243.888 197.005C243.078 198.645 240.078 199.205 238.088 200.265C237.318 199.705 236.548 199.145 235.778 198.585C238.958 190.875 242.388 183.265 245.248 175.445C248.308 167.055 247.988 158.625 244.028 149.125C234.788 159.405 228.418 169.265 231.948 182.965C232.788 186.245 232.918 189.785 232.838 193.195C232.808 194.545 231.318 195.865 230.498 197.205C229.288 196.275 227.328 195.555 226.998 194.385C225.168 187.805 222.458 181.125 222.428 174.475C222.378 162.905 224.298 151.335 224.968 139.745C225.468 131.045 230.048 126.665 238.058 124.135C252.468 119.585 257.698 110.675 254.918 96.075C239.008 96.825 233.108 108.015 229.118 121.285C228.088 120.835 227.058 120.375 226.038 119.925C228.818 114.015 230.878 107.615 234.528 102.305C240.588 93.5051 241.438 88.1351 234.718 78.3751C231.958 85.7251 229.628 91.9151 227.008 98.8651C225.058 78.7851 221.358 59.2251 210.328 41.4451C207.668 43.2251 205.028 45.025 202.388 46.855C202.418 60.575 209.328 70.075 217.598 79.485C221.608 84.045 222.378 91.465 223.688 98.295C214.818 91.025 207.468 81.5951 194.308 85.8351C195.048 99.0151 200.888 105.025 213.358 105.685C225.568 106.325 226.078 106.765 223.248 118.895C220.018 132.745 216.368 146.505 212.098 160.275C206.208 150.255 214.888 134.985 200.068 128.565C191.238 138.855 191.878 150.035 202.418 159.325C209.818 165.855 213.618 173.565 213.738 183.255C213.758 184.665 213.408 186.085 213.088 188.535C200.838 176.985 190.168 165.365 184.938 150.175C183.688 146.545 186.078 140.815 188.338 136.965C194.148 127.085 194.618 123.265 188.558 114.145C181.588 120.105 181.378 128.125 180.058 136.685C179.118 134.285 177.978 131.935 177.278 129.475C174.128 118.305 171.458 107.675 177.358 95.8651C182.148 86.2851 179.638 76.2451 172.908 67.6551C171.048 68.9451 169.188 70.2351 167.318 71.5051C161.048 80.5451 160.278 92.645 165.518 103.795C167.398 107.805 169.098 111.905 170.658 116.055C171.238 117.585 171.168 119.355 171.568 122.275C157.608 116.555 148.918 100.745 131.918 104.505C133.268 119.255 142.868 127.685 157.188 126.755C163.848 126.325 169.898 126.905 174.638 133.175C163.528 138.305 148.748 129.895 140.478 143.035C147.968 151.115 153.598 151.755 161.848 145.615C164.028 143.995 165.878 141.485 168.288 140.755C170.468 140.095 174.668 140.445 175.478 141.815C185.198 158.345 194.448 175.155 202.928 193.305C197.528 190.245 192.188 187.075 186.708 184.175C180.778 181.035 174.728 179.615 168.768 184.285C174.688 195.685 181.008 198.895 193.398 197.765C199.078 197.245 204.848 197.675 210.578 197.675C210.678 198.675 210.778 199.685 210.888 200.685C204.618 202.295 198.318 203.815 192.068 205.525C185.448 207.325 179.748 210.385 176.968 217.195C187.048 224.455 200.398 222.865 209.208 213.445C211.058 211.465 212.288 208.605 214.488 207.325C216.518 206.145 220.518 205.365 221.758 206.495C223.828 208.375 225.838 212.295 225.218 214.665C224.358 217.965 221.048 220.615 218.788 223.545C212.488 231.695 210.118 240.495 214.068 250.415C223.298 249.465 227.968 245.605 229.718 236.365C231.128 228.925 231.548 221.305 232.488 213.055C247.718 218.045 262.448 222.865 277.178 227.685C276.978 228.965 276.778 230.235 276.578 231.515C270.798 231.075 265.008 230.785 259.248 230.165C252.958 229.485 246.868 229.135 241.758 235.035C244.008 236.895 246.178 238.685 248.748 240.805C246.108 245.145 243.478 249.465 240.808 253.855C253.028 258.535 265.538 254.785 271.398 243.295C278.688 228.985 285.208 227.845 296.618 239.685C310.218 253.805 322.908 268.805 335.308 284.685C326.308 285.025 317.268 276.485 309.878 287.245C312.828 294.325 318.668 296.155 324.908 293.265C337.728 287.325 346.988 291.935 355.978 301.045C368.678 313.925 379.688 327.615 382.968 346.055C383.178 347.235 383.288 348.425 383.738 351.815C381.098 348.265 379.638 346.475 378.358 344.565C361.878 320.105 340.358 303.925 309.728 302.475C303.538 302.185 300.668 298.445 300.038 292.385C299.478 287.015 298.898 281.535 297.388 276.385C294.928 267.965 288.648 263.705 279.348 262.325C276.938 278.125 286.228 288.545 295.288 299.435C288.518 303.345 284.238 299.995 280.348 295.595C271.308 285.355 260.278 282.165 246.368 285.795C253.708 304.035 269.138 306.165 284.318 306.755C277.718 314.745 270.938 322.575 264.698 330.805C263.318 332.635 263.798 335.875 263.428 338.475C275.428 339.965 284.978 332.865 288.328 320.605C291.888 307.615 293.958 306.205 307.038 308.475C314.388 309.745 321.698 311.255 329.158 313.745C316.908 316.975 304.928 319.885 297.358 330.915C307.788 337.965 319.628 336.055 327.828 325.985C335.228 316.905 337.268 316.345 346.328 324.035C352.968 329.675 358.638 336.455 364.738 342.725C364.318 343.255 363.908 343.775 363.488 344.305C358.908 343.515 354.348 342.565 349.748 341.955C334.648 339.925 321.408 343.525 310.398 354.615C305.378 359.675 299.738 364.115 293.618 369.525C289.768 358.055 285.478 347.745 270.818 348.415C269.728 359.095 277.838 362.735 285.988 367.745C272.158 369.765 258.718 369.665 252.918 384.065C261.758 390.415 269.998 389.735 278.338 382.605C282.618 378.945 287.118 375.405 291.968 372.605C296.178 370.165 300.598 369.115 305.718 372.285C311.458 375.845 317.088 373.175 322.678 368.655C319.548 365.985 316.668 363.535 313.578 360.895C322.218 352.745 332.348 349.705 344.698 351.525C334.228 358.005 332.648 369.595 327.228 378.925C323.748 384.915 318.728 390.365 313.368 394.825C305.268 401.565 300.048 408.975 301.408 420.255C310.288 420.325 316.358 416.725 319.648 409.245C322.228 403.385 324.028 397.185 326.318 391.185C327.238 388.785 328.568 386.535 330.268 383.085C336.268 397.205 340.648 411.005 357.048 414.285C359.338 403.915 355.948 396.255 346.978 390.525C346.148 389.995 345.188 389.625 344.428 389.015C340.008 385.445 329.988 386.565 332.908 376.775C336.748 363.885 346.908 356.955 357.578 359.095C367.688 361.125 374.648 367.065 377.368 376.995C385.248 405.695 379.468 432.275 364.158 457.225C363.908 457.635 363.528 458.005 363.118 458.255C362.718 458.495 362.208 458.535 360.778 458.935C362.068 445.335 377.638 432.895 364.008 418.205C352.528 428.825 358.858 442.715 355.788 455.105C353.028 442.395 347.978 431.365 335.778 425.095C329.468 439.535 332.738 449.725 346.558 459.795C354.808 465.815 354.888 466.005 352.098 474.455C329.648 452.095 300.628 442.905 271.608 432.305C280.608 419.465 295.048 408.935 284.898 390.195C266.428 398.545 265.248 414.385 266.748 432.285C259.058 431.295 252.278 430.615 245.578 429.475C241.288 428.745 239.848 425.885 241.578 421.775C243.018 418.355 244.838 415.085 246.048 411.605C248.588 404.295 247.938 397.535 241.738 391.775C227.718 401.565 236.898 414.775 236.888 427.365C224.428 423.485 220.758 414.165 220.498 404.545C220.148 391.305 221.828 377.965 223.368 364.745C223.698 361.925 227.128 359.455 229.098 356.875C244.188 367.445 249.858 367.525 257.288 356.145C250.128 354.595 243.658 353.195 236.998 351.755C245.528 345.535 250.638 336.975 247.808 324.495C233.438 329.565 229.268 341.205 227.608 354.235C226.448 354.115 225.598 354.175 225.548 354.005C222.278 342.535 218.098 331.195 216.368 319.495C215.768 315.415 220.458 309.725 224.028 306.005C233.908 295.705 237.098 286.185 233.708 273.115C220.678 275.955 215.458 285.365 212.178 313.285C205.678 302.915 201.228 293.725 203.468 282.165C206.458 266.705 202.008 256.875 189.538 250.145C183.948 259.745 185.508 268.875 190.458 278.205C194.688 286.165 198.238 294.485 201.168 303.395C189.838 294.665 181.218 281.355 164.078 285.545C164.578 295.275 171.148 303.185 181.338 306.655C183.198 307.285 185.148 307.745 187.088 308.075C204.308 310.955 212.408 320.895 212.428 340.185C203.478 333.445 197.008 321.985 183.498 326.335C184.088 338.305 190.918 344.825 202.808 344.995C213.698 345.155 215.668 346.965 214.708 357.545C214.068 364.655 212.998 371.785 211.328 378.725C207.838 393.215 206.748 407.525 212.618 421.695C200.308 423.895 189.918 411.215 193.388 398.425C194.808 393.185 197.028 388.135 198.068 382.845C200.348 371.295 197.158 364.495 186.438 357.365C181.828 368.145 180.078 378.385 186.898 388.955C188.858 391.995 189.408 395.935 190.598 399.465C189.638 399.895 188.668 400.335 187.708 400.765C185.698 398.175 183.378 395.765 181.728 392.955C177.598 385.925 173.958 378.605 169.778 371.605C166.128 365.485 167.208 361.265 173.268 357.395C180.228 352.955 180.618 349.875 176.108 340.525C172.048 347.025 168.368 352.915 164.728 358.755C154.638 356.135 153.328 352.165 159.828 344.495C169.928 332.565 170.918 325.285 163.668 313.465C151.858 321.765 147.848 332.345 154.108 346.345C148.808 344.875 138.328 320.385 132.748 298.295C142.178 299.355 150.788 310.525 161.578 299.765C151.668 296.935 142.438 294.305 131.168 291.085C135.938 288.125 139.178 285.725 142.728 283.985C154.838 278.035 161.358 267.175 160.238 253.805C155.168 255.435 150.168 257.035 143.198 259.275C151.058 244.665 171.728 239.705 166.158 219.495C154.718 223.765 147.958 231.605 144.998 243.265C142.198 254.265 138.878 265.135 135.608 276.005C134.868 278.475 133.368 280.715 132.218 283.065C131.468 283.095 130.708 283.125 129.958 283.145C129.318 280.665 127.768 278.015 128.168 275.715C131.598 256.265 134.868 236.765 139.388 217.555C140.628 212.295 145.328 207.405 149.448 203.365C160.048 192.965 164.528 178.395 159.738 166.135C144.378 175.325 138.948 189.555 139.118 206.835C138.388 206.935 137.668 207.035 136.938 207.135C131.628 196.275 126.098 185.515 121.258 174.455C120.518 172.755 122.788 169.535 124.028 167.205C126.338 162.865 129.368 158.865 131.268 154.365C134.258 147.325 131.278 141.485 126.158 135.675C115.278 144.865 121.098 158.145 116.748 171.195C114.068 165.125 111.248 161.175 110.628 156.905C108.628 143.115 103.508 131.675 88.9877 125.195C88.2277 125.835 87.4377 126.435 86.6577 127.055C87.2777 129.735 86.9577 132.665 85.6877 135.075C86.9577 149.785 98.3077 156.905 110.058 165.565C102.998 164.525 98.2477 163.085 93.5977 163.365C89.2077 163.625 84.9277 165.685 80.2277 167.055C86.3577 177.135 94.9477 179.105 103.448 173.495C111.438 168.215 111.958 168.335 116.778 176.725C123.548 188.535 129.778 200.555 130.538 214.965C124.368 204.905 121.138 191.725 103.568 191.305C105.648 197.445 106.498 203.325 109.478 207.765C112.368 212.085 117.178 215.335 121.618 218.335C131.908 225.285 132.778 226.835 129.028 238.365C124.918 251.015 120.558 263.595 116.308 276.205C115.598 276.325 114.878 276.445 114.168 276.565C113.538 273.985 112.138 271.295 112.458 268.845C112.968 264.985 114.868 261.325 115.758 257.495C117.998 247.835 114.938 241.455 105.438 235.885C102.868 247.335 105.548 257.775 109.768 268.815C108.448 268.225 106.918 267.895 105.868 266.995C103.428 264.915 101.198 262.585 98.9277 260.315C88.4777 249.875 88.4177 249.835 95.6677 236.615C101.068 226.755 101.808 217.055 95.4777 207.015C84.2577 217.325 82.7977 230.355 84.7977 244.485C83.9577 244.565 83.1177 244.635 82.2777 244.715C81.0977 241.325 78.9677 237.935 78.9377 234.535C78.8477 224.925 79.3677 215.295 80.1277 205.705C80.7977 197.215 79.0777 190.105 71.0877 185.065C66.0477 192.535 66.4177 199.665 71.1077 206.615C76.2277 214.195 76.2477 222.135 73.3477 232.515C66.7477 217.805 60.3277 204.895 45.2777 199.625C40.6977 213.555 48.2277 228.255 61.9377 232.635C68.5677 234.755 74.4077 237.315 76.8977 246.365C63.0477 241.275 50.4077 242.325 38.7877 250.315C46.9377 262.125 62.9977 264.515 73.4577 254.855C78.8277 249.895 82.6277 250.045 87.9077 254.855C110.808 275.715 126.878 300.655 134.588 330.795C135.168 333.065 135.438 335.405 135.938 338.215C127.818 337.405 127.868 331.645 126.908 326.745C124.518 314.565 119.258 309.535 107.528 308.835C106.998 321.415 116.628 326.775 125.378 332.725L124.288 334.335C113.838 332.055 103.388 329.765 92.1477 327.315C97.6477 313.445 99.3877 300.445 86.1577 289.815C84.9677 291.185 83.8977 292.405 82.3777 294.145C80.7977 285.355 78.6777 277.275 68.7077 273.285C66.6677 280.245 65.1977 287.055 70.2577 292.795C76.4977 299.875 81.8277 307.155 84.3677 316.445C85.2277 319.605 87.8777 322.275 89.7277 325.185C81.1477 329.255 78.1477 327.785 76.3577 318.835C73.6877 305.415 50.2477 292.255 36.8677 296.945C41.1777 311.605 51.6677 319.635 65.5277 324.205C83.8277 330.235 102.148 336.215 120.378 342.445C124.728 343.925 128.768 346.305 133.598 348.575C129.448 356.235 125.738 363.095 121.948 370.085C128.168 371.218 133.928 365.698 139.228 353.525C157.148 367.245 167.428 385.475 173.898 408.705C162.538 401.535 152.338 394.865 139.248 403.305C143.658 406.775 147.778 410.025 152.418 413.675C150.788 416.975 149.188 420.205 147.348 423.925C161.288 428.525 167.648 418.315 175.408 409.925C190.088 428.325 206.388 443.785 233.058 445.545C220.368 456.665 207.778 463.875 193.198 467.385C188.628 468.485 186.808 465.515 186.888 461.445C186.948 457.995 187.648 454.565 187.878 451.115C188.408 443.405 185.478 437.685 177.218 434.225C171.238 447.375 181.308 457.815 182.638 469.405C174.288 473.585 169.958 472.365 165.868 464.235C162.988 458.505 160.868 452.375 157.798 446.755C153.628 439.115 147.268 434.485 138.088 434.805C135.868 447.135 140.368 455.905 151.458 461.585C155.968 463.895 160.278 466.625 165.438 469.595C144.978 478.345 108.288 453.315 111.888 431.725C117.928 430.495 123.968 429.715 129.658 427.855C131.688 427.195 132.878 423.945 134.748 421.495C125.138 415.905 118.678 422.335 111.798 425.745C104.968 418.165 105.558 415.085 114.458 410.795C120.238 408.005 126.298 405.685 131.728 402.335C140.348 397.025 143.258 390.215 142.118 380.315C124.018 380.515 116.728 392.595 112.488 408.625C109.628 402.375 110.078 398.725 114.208 389.275C119.258 377.745 118.178 372.165 108.938 363.225C95.4077 378.625 109.788 394.605 108.518 411.465C105.868 409.725 103.818 409.075 102.908 407.685C96.6777 398.185 90.1177 388.835 84.9377 378.775C83.0777 375.155 84.1977 369.615 84.9277 365.115C87.0977 351.735 84.5677 344.935 74.3377 339.285C65.6577 350.655 74.4877 360.005 78.3477 370.045C66.2977 367.565 58.7677 357.515 57.5577 342.885C56.6477 331.895 53.7477 328.375 41.7377 324.935C42.1977 329.815 42.6177 334.235 43.2677 341.095C39.0077 337.725 35.4177 335.655 32.8477 332.695C25.2077 323.895 16.9477 316.355 4.66772 315.195C3.72772 315.105 2.76774 315.105 1.80774 315.135C1.56774 317.535 1.3477 319.935 1.1377 322.335C5.4377 336.275 16.5777 345.515 31.5277 347.065C35.9477 347.525 40.4677 347.115 44.8377 347.805C47.3577 348.205 49.6477 350.005 52.0377 351.175C49.7077 353.775 47.8377 357.355 44.9277 358.705C42.0577 360.035 38.1277 358.985 34.6777 359.185C22.4077 359.905 15.4577 365.085 11.4977 376.315C21.4377 384.345 38.4577 378.915 45.6377 368.075C52.6977 357.405 53.7077 357.315 63.5077 365.705C81.6777 381.265 96.1977 399.395 102.078 423.225C102.888 426.515 103.068 429.955 103.848 435.535C95.7377 430.165 88.4377 426.705 83.1277 421.285C80.1077 418.205 79.5177 411.975 79.2877 407.095C78.7177 395.185 74.9777 389.515 64.7277 387.175C61.5077 392.075 63.901 403.162 71.9077 420.435C66.9377 417.905 61.4077 416.085 57.1077 412.695C44.7977 402.985 31.9477 401.245 17.7277 407.715C23.0677 420.475 35.4077 426.185 50.3177 422.335C64.9377 418.555 76.6677 423.935 87.8377 433.715C84.8377 434.125 81.8277 434.975 78.8477 434.865C69.2177 434.495 59.6077 433.715 49.9777 433.205C43.1277 432.845 37.3977 434.905 33.4977 441.345C47.0377 452.435 57.9377 438.285 71.3077 437.425C64.3977 445.435 57.2077 452.265 59.2977 463.925C80.0177 466.145 87.0577 452.495 91.3377 435.475C92.2177 435.255 93.0877 435.035 93.9577 434.825C103.278 444.795 112.598 454.755 122.098 464.915C115.618 465.915 109.578 466.845 103.088 467.845C107.458 476.365 115.318 480.295 123.338 476.845C130.288 473.855 133.758 476.695 138.258 482.125C124.148 485.715 106.888 483.975 103.218 503.365C112.968 508.935 124.958 506.375 131.618 497.015C133.618 494.215 134.568 490.445 136.998 488.235C139.838 485.655 143.818 482.665 147.248 482.745C154.038 482.895 160.778 485.025 168.888 486.595C158.908 493.685 144.318 495.395 145.538 511.175C156.128 514.165 164.488 510.735 167.598 500.645C170.858 490.105 177.128 485.395 187.798 483.035C208.788 478.385 227.038 467.175 245.328 456.245C250.698 453.035 257.018 451.435 262.908 449.095L264.568 452.255C261.528 454.275 258.638 456.585 255.418 458.255C246.878 462.705 237.778 466.235 229.728 471.415C224.738 474.625 221.258 480.175 217.848 485.415C233.678 487.475 233.378 468.625 246.328 466.155C238.598 476.475 235.218 487.685 239.108 500.985C261.658 495.685 257.598 477.355 259.488 461.455C265.478 472.305 270.968 483.215 282.178 489.325C286.528 476.655 282.218 468.815 265.308 459.035C268.118 453.695 272.518 451.905 278.088 453.455C300.258 459.625 319.408 471.115 335.178 487.765C337.338 490.045 337.358 495.605 336.498 499.195C335.158 504.815 332.228 510.055 331.158 516.245C341.188 507.205 351.238 498.195 361.248 489.125C373.158 478.335 385.348 467.825 396.728 456.495C400.658 452.585 403.998 446.865 405.008 441.485C407.498 428.155 408.588 414.555 410.028 401.035C410.938 392.415 413.018 390.005 421.728 388.665C434.728 386.665 440.398 379.615 439.118 366.665C424.938 364.525 420.798 376.335 413.758 386.185C407.528 373.195 409.208 360.405 407.028 347.815C418.088 347.645 427.678 358.105 438.968 348.555C435.628 346.005 432.528 343.635 429.498 341.315C432.538 335.225 435.038 330.235 437.808 324.705C422.118 321.215 418.038 334.735 409.848 342.535C398.758 333.375 399.148 319.505 393.398 307.375C407.838 307.155 422.138 322.305 435.368 305.695C423.488 293.235 410.228 300.585 397.418 303.225C397.128 302.655 396.828 302.085 396.538 301.515C397.978 299.975 399.188 298.045 400.918 296.965C408.458 292.255 416.248 287.935 423.758 283.185C432.628 277.575 434.378 272.495 431.648 261.615C413.938 266.235 401.428 276.455 396.418 295.395C386.178 279.015 394.348 261.795 412.778 258.205C423.048 256.205 426.078 253.115 427.788 242.665C416.628 243.875 408.368 249.985 401.138 258.595C398.298 244.375 408.588 231.405 423.078 229.595C428.448 228.925 433.958 228.475 439.078 226.875C447.748 224.165 452.758 218.455 456.018 208.895C437.128 200.595 427.858 215.175 416.788 225.825C416.068 212.865 429.668 201.105 444.178 202.015C452.548 202.535 460.078 202.145 464.548 193.675C464.658 193.475 464.658 193.215 465.198 190.665C455.998 192.545 447.698 194.235 439.998 195.805C444.758 181.585 452.658 177.695 467.048 183.745C475.638 187.365 484.098 188.105 492.798 184.255C487.938 173.275 484.618 172.605 457.398 176.875C459.228 168.995 464.068 164.475 473.398 162.185C478.668 160.895 484.148 160.275 489.288 158.615C499.638 155.265 505.638 148.115 506.788 136.355C489.168 133.935 483.148 149.565 472.368 157.755C474.998 143.005 484.608 133.345 498.088 129.985C502.558 128.875 506.508 125.345 510.398 122.505C511.568 121.655 511.718 119.405 512.328 117.795C510.628 117.555 508.518 116.545 507.288 117.205L507.328 117.125Z" stroke="#D7CDBA" stroke-width="2.13" stroke-miterlimit="10"/>
<path d="M322.708 616.905C314.808 648.735 311.068 680.995 322.868 712.575C328.348 727.225 335.938 741.395 344.518 754.505C351.648 765.405 361.398 772.515 372.598 777.185C382.958 776.595 393.318 775.875 403.668 775.205C400.348 774.145 397.018 772.945 393.668 771.555C376.488 764.435 363.088 754.175 356.608 736.085C370.958 746.915 384.808 758.685 403.598 760.655C409.348 761.255 415.208 760.745 420.548 760.745C406.578 749.685 392.768 739.475 379.798 728.305C354.418 706.455 342.788 679.135 344.858 644.975C346.608 616.005 350.358 588.055 363.328 561.725C369.278 549.645 373.978 536.955 378.588 524.255C351.178 549.955 331.758 580.445 322.708 616.915V616.905Z" stroke="#D7CDBA" stroke-width="2.13" stroke-miterlimit="10"/>
<path d="M220.098 747.635C213.918 747.375 208.078 746.405 202.488 744.915C220.718 755.885 240.168 764.655 261.028 770.145C267.218 771.775 273.428 773.105 279.668 774.205C298.938 769.795 319.898 771.615 337.538 759.045C329.478 741.325 321.538 723.855 313.278 705.685C286.388 729.875 257.938 749.225 220.098 747.635Z" stroke="#D7CDBA" stroke-width="2.13" stroke-miterlimit="10"/>
</svg>
