<svg width="314" height="314" viewBox="0 0 314 314" fill="none" xmlns="http://www.w3.org/2000/svg">
<g clip-path="url(#clip0_576_3584)">
<path fill-rule="evenodd" clip-rule="evenodd" d="M313.74 156.87C313.74 243.507 243.507 313.74 156.87 313.74C70.2331 313.74 0 243.507 0 156.87C0 70.2331 70.2331 0 156.87 0C243.507 0 313.74 70.2331 313.74 156.87ZM275.03 156.96C275.03 222.218 222.128 275.12 156.87 275.12C91.612 275.12 38.71 222.218 38.71 156.96C38.71 91.702 91.612 38.8 156.87 38.8C222.128 38.8 275.03 91.702 275.03 156.96Z" fill="#222222"/>
<path d="M156.87 314.61C243.987 314.61 314.61 243.987 314.61 156.87H312.87C312.87 243.026 243.026 312.87 156.87 312.87V314.61ZM-0.87 156.87C-0.87 243.987 69.7526 314.61 156.87 314.61V312.87C70.7136 312.87 0.87 243.026 0.87 156.87H-0.87ZM156.87 -0.87C69.7526 -0.87 -0.87 69.7526 -0.87 156.87H0.87C0.87 70.7135 70.7136 0.87 156.87 0.87V-0.87ZM314.61 156.87C314.61 69.7526 243.987 -0.87 156.87 -0.87V0.87C243.026 0.87 312.87 70.7135 312.87 156.87H314.61ZM156.87 275.99C222.608 275.99 275.9 222.698 275.9 156.96H274.16C274.16 221.737 221.647 274.25 156.87 274.25V275.99ZM37.84 156.96C37.84 222.698 91.1315 275.99 156.87 275.99V274.25C92.0925 274.25 39.58 221.737 39.58 156.96H37.84ZM156.87 37.93C91.1315 37.93 37.84 91.2215 37.84 156.96H39.58C39.58 92.1825 92.0925 39.67 156.87 39.67V37.93ZM275.9 156.96C275.9 91.2215 222.608 37.93 156.87 37.93V39.67C221.647 39.67 274.16 92.1825 274.16 156.96H275.9Z" fill="#D7CDBA"/>
<path d="M156.87 276.12C222.128 276.12 275.03 223.218 275.03 157.96C275.03 92.702 222.128 39.8 156.87 39.8C91.612 39.8 38.71 92.702 38.71 157.96C38.71 223.218 91.612 276.12 156.87 276.12Z" stroke="#D7CDBA" stroke-width="1.31" stroke-miterlimit="10"/>
</g>
<path d="M112.279 31.8939L111.226 28.3235L111.353 28.2861C112.406 31.8565 115.738 33.0758 119.739 31.896C123.866 30.6789 125.906 28.2609 125.346 26.3618C123.793 21.0948 110.69 26.2246 108.98 20.4259C108.256 17.9697 109.705 14.7625 114.085 13.4707C117.428 12.4851 119.882 13.2476 121.38 13.6592L122.433 17.2296L122.306 17.267C121.253 13.6966 118.124 12.4175 114.123 13.5973C110.046 14.7995 109.047 17.5713 109.51 19.1413C111.227 24.9654 124.246 19.8326 125.777 25.0236C126.494 27.4545 124.841 30.5292 119.776 32.0226C116.408 33.0158 113.777 32.3055 112.279 31.8939Z" fill="#D7CDBA"/>
<path d="M134.717 12.729C137.429 12.3019 140.333 13.7688 140.579 15.3336C140.637 15.6987 140.385 16.1391 139.759 16.2377L129.537 17.8477C129.271 18.8783 129.235 20.0065 129.424 21.2061C130.122 25.6394 133.397 28.2772 137.909 27.5667C141.091 27.0656 142.538 24.3789 143.107 22.8996L143.28 22.9793C142.553 24.6438 141.213 27.5008 137.144 28.1415C132.633 28.852 128.95 26.1715 128.24 21.6599C127.525 17.1222 130.205 13.4396 134.717 12.729ZM129.568 17.7091L138.487 16.3044C139.296 16.1771 139.393 15.4401 139.332 15.049C139.118 13.6929 137.011 12.5282 134.742 12.8855C132.082 13.3044 130.212 15.1757 129.568 17.7091Z" fill="#D7CDBA"/>
<path d="M152.189 11.309C150.211 11.3992 148.257 12.5982 147.169 14.2335L147.661 25.0199C147.711 26.1275 148.802 26.2892 149.198 26.2712L149.204 26.403L145.063 26.5918L145.057 26.4599C145.453 26.4419 146.524 26.1816 146.474 25.074L146.016 15.026C145.965 13.9184 145.824 13.7134 145.086 13.747L145.078 13.5888L146.901 11.8408L147.06 11.8336L147.157 13.9697C148.151 12.5767 150.071 11.2206 152.365 11.116C154.343 11.0259 156.36 11.7796 156.396 12.5708C156.413 12.94 156.136 13.2433 155.819 13.2578C154.712 13.3083 155.222 11.1708 152.189 11.309Z" fill="#D7CDBA"/>
<path d="M161.973 12.8452L166.274 25.0609L172.087 13.5381C172.548 12.5631 171.584 12.3408 171.215 12.3165L171.226 12.1585L174.387 12.3668L174.376 12.5248C173.981 12.4988 172.734 12.5489 172.217 13.5731L165.705 26.4785L165.52 26.4663L160.758 12.8181C160.38 11.7348 159.097 11.5181 158.702 11.492L158.713 11.334L162.954 11.6134L162.943 11.7715C162.548 11.7455 161.641 11.8708 161.973 12.8452Z" fill="#D7CDBA"/>
<path d="M176.74 14.5541L178.865 13.1887L179.022 13.212L177.08 26.2683C176.917 27.3651 177.956 27.7332 178.348 27.7915L178.325 27.9481L174.225 27.3384L174.248 27.1817C174.64 27.2399 175.742 27.1903 175.905 26.0935L177.385 16.1446C177.548 15.0479 177.448 14.8195 176.717 14.7108L176.74 14.5541ZM177.684 10.1838C177.766 9.63541 178.227 9.22364 178.802 9.30909C179.35 9.39065 179.672 9.91894 179.59 10.4673C179.513 10.9896 179.055 11.3752 178.507 11.2937C177.932 11.2082 177.606 10.706 177.684 10.1838Z" fill="#D7CDBA"/>
<path d="M187.579 30.3052C183.134 29.256 180.739 25.3815 181.788 20.9365C182.843 16.4657 186.718 14.0709 191.163 15.12C193.475 15.6658 195.228 16.9746 196.225 18.7288L195.279 19.4008C194.807 18.0687 194.03 15.9594 191.127 15.2742C187.401 14.3948 184.027 16.8535 183.056 20.9645C182.026 25.3325 184.502 29.0907 188.228 29.97C191.645 30.7766 193.995 28.8629 195.107 27.7148L195.218 27.8222C193.909 29.1138 191.587 31.2512 187.579 30.3052Z" fill="#D7CDBA"/>
<path d="M208.636 20.5161C211.207 21.478 213.014 24.1833 212.459 25.6669C212.329 26.0131 211.894 26.273 211.301 26.051L201.608 22.4251C200.87 23.192 200.284 24.1565 199.858 25.2939C198.286 29.4974 199.84 33.4049 204.118 35.0051C207.134 36.1335 209.716 34.5062 210.939 33.4979L211.05 33.6523C209.599 34.7442 207.026 36.5724 203.169 35.1294C198.891 33.5292 197.003 29.3841 198.603 25.1064C200.213 20.804 204.358 18.9158 208.636 20.5161ZM201.703 22.3199L210.16 25.4834C210.926 25.7701 211.374 25.1765 211.513 24.8056C211.994 23.5198 210.731 21.4691 208.58 20.6644C206.058 19.7209 203.509 20.4306 201.703 22.3199Z" fill="#D7CDBA"/>
<path d="M227.912 32.0656L226.832 32.4869C226.698 31.0799 226.529 28.8812 223.529 27.3266C220.857 25.9421 218.385 26.2371 217.535 27.8779C215.385 32.0269 226.655 35.7551 224.347 40.2088C223.412 42.0137 220.62 43.2133 216.658 41.1608C214.291 39.9341 212.831 37.9884 212.207 36.2083L213.265 35.7748C213.386 37.2053 213.555 39.404 216.719 41.0436C219.673 42.5739 222.462 42.3543 223.361 40.6197C225.596 36.3066 214.108 32.9413 216.562 28.2064C217.387 26.6124 219.945 25.2914 223.602 27.186C226.133 28.4977 227.288 30.2855 227.912 32.0656Z" fill="#D7CDBA"/>
<path d="M241.595 54.7639L244.126 52.0344L244.222 52.1242C241.691 54.8536 242.346 58.3409 245.404 61.1772C248.56 64.1031 251.68 64.6206 253.027 63.1688C256.76 59.1423 245.656 50.5009 249.766 46.0679C251.508 44.1902 255.005 43.7968 258.354 46.9023C260.909 49.2718 261.508 51.7711 261.919 53.2687L259.388 55.9982L259.291 55.9085C261.822 53.179 261.322 49.8353 258.264 46.9991C255.147 44.109 252.254 44.6664 251.141 45.8666C247.012 50.319 258.077 58.8871 254.397 62.8555C252.674 64.7139 249.186 64.8641 245.315 61.274C242.74 58.8865 242.006 56.2615 241.595 54.7639Z" fill="#D7CDBA"/>
<path d="M269.504 64.2166C271.26 66.3269 271.488 69.572 270.271 70.5853C269.987 70.8217 269.48 70.8316 269.074 70.3446L262.454 62.3903C261.433 62.6905 260.446 63.2375 259.512 64.0143C256.063 66.8853 255.475 71.0493 258.397 74.5598C260.457 77.0354 263.506 76.902 265.068 76.6326L265.088 76.8219C263.287 77.0506 260.146 77.363 257.512 74.1976C254.59 70.6871 255.005 66.1512 258.516 63.2295C262.046 60.291 266.582 60.7062 269.504 64.2166ZM262.589 62.3464L268.365 69.2861C268.889 69.9152 269.572 69.6215 269.876 69.3682C270.931 68.49 270.852 66.0833 269.382 64.3179C267.66 62.2482 265.095 61.601 262.589 62.3464Z" fill="#D7CDBA"/>
<path d="M279.689 78.5066C278.598 76.8539 276.568 75.79 274.606 75.6929L265.594 81.6399C264.668 82.2506 265.088 83.2703 265.306 83.6009L265.196 83.6736L262.913 80.2141L263.023 80.1414C263.241 80.4719 264.014 81.259 264.939 80.6483L273.335 75.1084C274.26 74.4977 274.364 74.2712 273.957 73.6543L274.089 73.567L276.524 74.2375L276.611 74.3697L274.826 75.5475C276.532 75.6873 278.68 76.642 279.945 78.559C281.035 80.2116 281.421 82.3296 280.76 82.7658C280.451 82.9693 280.049 82.8869 279.874 82.6225C279.264 81.697 281.361 81.0406 279.689 78.5066Z" fill="#D7CDBA"/>
<path d="M283.385 87.7185L275.079 97.655L287.954 96.7679C289.028 96.6664 288.727 95.7239 288.559 95.3944L288.7 95.3226L290.136 98.1468L289.994 98.2186C289.815 97.8656 289.135 96.8192 287.99 96.8976L273.569 97.8892L273.485 97.7245L282.787 86.6598C283.526 85.7813 283.057 84.5682 282.878 84.2152L283.019 84.1434L284.945 87.9326L284.803 88.0044C284.624 87.6513 284.053 86.9349 283.385 87.7185Z" fill="#D7CDBA"/>
<path d="M289.46 101.292L291.718 102.423L291.778 102.57L279.557 107.559C278.531 107.978 278.744 109.06 278.894 109.427L278.747 109.487L277.181 105.65L277.327 105.59C277.477 105.956 278.082 106.879 279.108 106.459L288.42 102.657C289.447 102.238 289.592 102.036 289.313 101.352L289.46 101.292ZM293.7 99.8743C294.213 99.6647 294.803 99.8517 295.022 100.389C295.232 100.903 294.942 101.449 294.428 101.658C293.94 101.858 293.374 101.661 293.165 101.148C292.945 100.61 293.211 100.074 293.7 99.8743Z" fill="#D7CDBA"/>
<path d="M281.437 118.629C280.072 114.271 282.183 110.234 286.541 108.869C290.925 107.496 294.961 109.607 296.326 113.966C297.036 116.233 296.805 118.408 295.804 120.16L294.744 119.69C295.649 118.604 297.067 116.86 296.175 114.013C295.031 110.36 291.195 108.712 287.164 109.974C282.881 111.316 280.912 115.363 282.056 119.016C283.106 122.367 285.95 123.412 287.505 123.783L287.469 123.933C285.691 123.466 282.668 122.559 281.437 118.629Z" fill="#D7CDBA"/>
<path d="M300.599 131.792C301.083 134.495 299.677 137.428 298.118 137.707C297.754 137.773 297.308 137.53 297.197 136.907L295.373 126.72C294.337 126.476 293.208 126.464 292.013 126.678C287.595 127.469 285.026 130.798 285.831 135.294C286.399 138.464 289.115 139.855 290.606 140.393L290.53 140.568C288.851 139.876 285.966 138.595 285.241 134.542C284.436 130.046 287.039 126.308 291.534 125.503C296.056 124.693 299.794 127.296 300.599 131.792ZM295.512 126.749L297.103 135.636C297.247 136.442 297.986 136.524 298.376 136.454C299.727 136.212 300.848 134.081 300.443 131.82C299.968 129.169 298.058 127.339 295.512 126.749Z" fill="#D7CDBA"/>
<path d="M300.506 154.23L299.592 153.516C300.734 152.683 302.538 151.415 302.342 148.041C302.168 145.037 300.652 143.062 298.807 143.169C294.142 143.44 296.692 155.033 291.684 155.324C289.655 155.441 287.198 153.653 286.939 149.199C286.785 146.537 287.712 144.289 288.924 142.843L289.837 143.531C288.669 144.365 286.865 145.634 287.071 149.192C287.264 152.512 288.877 154.799 290.828 154.686C295.677 154.404 292.704 142.809 298.028 142.5C299.82 142.396 302.262 143.921 302.5 148.032C302.665 150.879 301.718 152.785 300.506 154.23Z" fill="#D7CDBA"/>
<path d="M288.02 177.569L291.66 178.346L291.633 178.475C287.992 177.698 285.332 180.045 284.461 184.125C283.562 188.333 284.715 191.279 286.652 191.692C292.022 192.838 293.761 178.875 299.673 180.137C302.178 180.672 304.306 183.475 303.352 187.941C302.625 191.349 300.784 193.143 299.708 194.263L296.068 193.486L296.095 193.357C299.736 194.134 302.352 191.993 303.223 187.914C304.111 183.757 302.151 181.557 300.55 181.215C294.612 179.948 292.915 193.839 287.622 192.709C285.144 192.18 283.229 189.261 284.332 184.097C285.065 180.663 286.944 178.689 288.02 177.569Z" fill="#D7CDBA"/>
<path d="M294.17 206.415C293.251 209.002 290.577 210.854 289.084 210.325C288.736 210.201 288.469 209.77 288.681 209.173L292.142 199.42C291.363 198.695 290.388 198.125 289.244 197.719C285.014 196.218 281.134 197.838 279.606 202.143C278.529 205.178 280.2 207.732 281.229 208.937L281.076 209.051C279.96 207.619 278.088 205.078 279.466 201.196C280.993 196.892 285.106 194.934 289.41 196.462C293.739 197.998 295.697 202.111 294.17 206.415ZM292.249 199.514L289.229 208.023C288.955 208.794 289.556 209.232 289.929 209.364C291.223 209.823 293.252 208.526 294.02 206.362C294.921 203.824 294.168 201.288 292.249 199.514Z" fill="#D7CDBA"/>
<path d="M287.069 222.481C287.935 220.701 287.816 218.412 286.899 216.674L277.19 211.951C276.192 211.466 275.529 212.347 275.356 212.703L275.237 212.645L277.05 208.918L277.169 208.976C276.996 209.332 276.712 210.398 277.709 210.883L286.754 215.282C287.751 215.767 287.999 215.741 288.322 215.076L288.465 215.146L289.129 217.583L289.06 217.725L287.137 216.79C287.886 218.328 288.159 220.663 287.154 222.728C286.288 224.509 284.662 225.92 283.95 225.573C283.618 225.412 283.484 225.024 283.622 224.739C284.107 223.742 285.741 225.212 287.069 222.481Z" fill="#D7CDBA"/>
<path d="M281.011 230.372L268.23 228.285L275.551 238.914C276.185 239.786 276.843 239.046 277.041 238.735L277.175 238.819L275.476 241.493L275.342 241.408C275.554 241.074 276.108 239.956 275.458 239.011L267.259 227.105L267.358 226.949L281.618 229.319C282.75 229.506 283.555 228.486 283.768 228.151L283.902 228.236L281.622 231.823L281.488 231.738C281.7 231.404 282.026 230.548 281.011 230.372Z" fill="#D7CDBA"/>
<path d="M272.432 242.495L272.611 245.015L272.515 245.141L261.99 237.175C261.106 236.506 260.284 237.242 260.045 237.557L259.919 237.462L262.42 234.157L262.546 234.252C262.307 234.568 261.823 235.559 262.707 236.228L270.727 242.298C271.611 242.967 271.859 242.989 272.305 242.4L272.432 242.495ZM275.814 245.42C276.256 245.754 276.396 246.357 276.045 246.82C275.711 247.262 275.093 247.291 274.651 246.956C274.23 246.638 274.111 246.051 274.446 245.609C274.796 245.146 275.393 245.101 275.814 245.42Z" fill="#D7CDBA"/>
<path d="M253.436 244.44C256.485 241.04 261.033 240.793 264.433 243.842C267.853 246.909 268.1 251.458 265.05 254.857C263.464 256.626 261.476 257.538 259.459 257.573L259.321 256.421C260.717 256.645 262.941 256.972 264.932 254.752C267.488 251.902 266.946 247.763 263.801 244.942C260.46 241.945 255.975 242.32 253.419 245.17C251.075 247.784 251.629 250.763 252.105 252.289L251.958 252.335C251.45 250.567 250.686 247.506 253.436 244.44Z" fill="#D7CDBA"/>
<path d="M251.953 267.624C249.88 269.424 246.64 269.719 245.602 268.523C245.359 268.244 245.339 267.737 245.818 267.322L253.633 260.538C253.311 259.523 252.744 258.548 251.948 257.63C249.006 254.241 244.831 253.74 241.382 256.734C238.949 258.846 239.146 261.891 239.448 263.447L239.259 263.471C238.993 261.675 238.615 258.541 241.725 255.842C245.174 252.848 249.718 253.169 252.712 256.618C255.723 260.087 255.402 264.63 251.953 267.624ZM253.679 260.672L246.861 266.591C246.243 267.127 246.551 267.804 246.81 268.103C247.71 269.14 250.115 269.01 251.849 267.505C253.883 265.739 254.477 263.161 253.679 260.672Z" fill="#D7CDBA"/>
<path d="M232.638 279.037L232.783 277.887C234.083 278.44 236.097 279.339 238.893 277.442C241.384 275.753 242.303 273.439 241.265 271.909C238.642 268.042 229.994 276.174 227.178 272.023C226.037 270.34 226.313 267.314 230.005 264.809C232.212 263.313 234.618 262.956 236.48 263.256L236.358 264.392C235.042 263.817 233.029 262.918 230.079 264.919C227.326 266.786 226.19 269.343 227.287 270.96C230.014 274.98 238.447 266.484 241.44 270.898C242.448 272.383 242.39 275.261 238.982 277.573C236.623 279.174 234.501 279.337 232.638 279.037Z" fill="#D7CDBA"/>
<path d="M206.141 280.258L207.329 283.785L207.204 283.828C206.016 280.3 202.64 279.208 198.687 280.539C194.608 281.912 192.662 284.406 193.294 286.283C195.047 291.487 207.945 285.862 209.874 291.592C210.691 294.019 209.365 297.279 205.037 298.736C201.734 299.848 199.253 299.18 197.741 298.825L196.553 295.297L196.678 295.255C197.866 298.783 201.042 299.942 204.995 298.611C209.023 297.255 209.916 294.447 209.394 292.896C207.456 287.141 194.641 292.765 192.914 287.636C192.106 285.234 193.64 282.099 198.644 280.414C201.972 279.294 204.629 279.903 206.141 280.258Z" fill="#D7CDBA"/>
<path d="M184.454 300.249C181.759 300.778 178.802 299.422 178.497 297.868C178.426 297.505 178.66 297.056 179.282 296.934L189.436 294.938C189.662 293.898 189.656 292.769 189.422 291.577C188.556 287.174 185.183 284.662 180.702 285.543C177.542 286.164 176.197 288.903 175.684 290.403L175.509 290.33C176.172 288.639 177.403 285.734 181.444 284.939C185.926 284.058 189.707 286.598 190.588 291.079C191.474 295.586 188.935 299.368 184.454 300.249ZM189.41 295.077L180.551 296.819C179.748 296.976 179.678 297.717 179.754 298.105C180.019 299.452 182.169 300.536 184.423 300.093C187.065 299.574 188.863 297.633 189.41 295.077Z" fill="#D7CDBA"/>
<path d="M167.06 302.331C169.033 302.166 170.941 300.895 171.967 299.22L171.071 288.46C170.979 287.355 169.883 287.234 169.488 287.267L169.477 287.135L173.608 286.791L173.619 286.923C173.224 286.956 172.163 287.256 172.255 288.361L173.09 298.385C173.182 299.49 173.331 299.689 174.067 299.628L174.08 299.786L172.324 301.601L172.166 301.614L171.989 299.483C171.048 300.913 169.18 302.34 166.891 302.53C164.918 302.695 162.875 302.017 162.809 301.228C162.779 300.859 163.044 300.546 163.36 300.52C164.464 300.428 164.035 302.583 167.06 302.331Z" fill="#D7CDBA"/>
<path d="M157.208 301.151L152.454 289.104L147.076 300.836C146.651 301.827 147.623 302.013 147.993 302.024L147.988 302.182L144.821 302.092L144.826 301.934C145.222 301.945 146.466 301.848 146.944 300.806L152.97 287.666L153.155 287.671L158.424 301.132C158.842 302.201 160.132 302.369 160.528 302.381L160.523 302.539L156.274 302.418L156.279 302.26C156.675 302.271 157.577 302.112 157.208 301.151Z" fill="#D7CDBA"/>
<path d="M142.398 300.001L140.326 301.446L140.169 301.428L141.617 288.308C141.739 287.206 140.686 286.877 140.293 286.834L140.31 286.676L144.43 287.131L144.412 287.289C144.019 287.245 142.92 287.336 142.798 288.438L141.694 298.436C141.573 299.538 141.681 299.762 142.415 299.844L142.398 300.001ZM141.62 304.404C141.559 304.955 141.113 305.384 140.536 305.32C139.985 305.259 139.643 304.743 139.704 304.192C139.762 303.668 140.205 303.265 140.756 303.326C141.333 303.389 141.678 303.879 141.62 304.404Z" fill="#D7CDBA"/>
<path d="M130.992 284.683C135.474 285.561 138.015 289.342 137.137 293.824C136.253 298.331 132.473 300.873 127.991 299.994C125.659 299.537 123.858 298.296 122.795 296.581L123.714 295.874C124.237 297.187 125.094 299.265 128.021 299.839C131.778 300.575 135.056 297.989 135.868 293.844C136.731 289.44 134.113 285.779 130.357 285.043C126.911 284.367 124.635 286.369 123.568 287.559L123.454 287.456C124.712 286.115 126.95 283.891 130.992 284.683Z" fill="#D7CDBA"/>
<path d="M110.318 295.266C107.711 294.403 105.802 291.769 106.3 290.265C106.416 289.914 106.842 289.638 107.443 289.837L117.267 293.09C117.975 292.296 118.524 291.309 118.906 290.156C120.317 285.896 118.614 282.051 114.279 280.615C111.221 279.603 108.703 281.328 107.52 282.382L107.403 282.232C108.811 281.085 111.312 279.16 115.222 280.455C119.557 281.89 121.603 285.96 120.167 290.296C118.723 294.657 114.653 296.702 110.318 295.266ZM117.176 293.199L108.605 290.361C107.828 290.104 107.403 290.714 107.279 291.09C106.847 292.393 108.187 294.394 110.367 295.116C112.924 295.962 115.443 295.156 117.176 293.199Z" fill="#D7CDBA"/>
<path d="M90.5918 284.446L91.6557 283.984C91.8421 285.385 92.0943 287.576 95.1514 289.016C97.8741 290.298 100.333 289.91 101.121 288.238C103.112 284.011 91.7087 280.712 93.846 276.174C94.7122 274.335 97.4568 273.03 101.493 274.932C103.905 276.068 105.438 277.957 106.129 279.712L105.089 280.185C104.913 278.76 104.661 276.57 101.437 275.051C98.4276 273.634 95.6481 273.959 94.8157 275.726C92.7459 280.121 104.353 283.049 102.08 287.873C101.316 289.497 98.8097 290.914 95.0839 289.159C92.5045 287.944 91.2826 286.202 90.5918 284.446Z" fill="#D7CDBA"/>
<path d="M76.0732 262.285L73.6463 265.107L73.5463 265.021C75.9731 262.199 75.1882 258.739 72.0254 256.019C68.7625 253.214 65.6247 252.814 64.3338 254.315C60.7537 258.479 72.1749 266.697 68.2334 271.281C66.5638 273.223 63.0839 273.747 59.6208 270.77C56.9785 268.498 56.2865 266.023 55.8192 264.542L58.246 261.719L58.3461 261.805C55.9192 264.628 56.5441 267.95 59.7069 270.67C62.9297 273.441 65.8 272.775 66.8671 271.534C70.8258 266.93 59.4475 258.783 62.976 254.679C64.6283 252.758 68.1079 252.477 72.1114 255.919C74.7738 258.208 75.6059 260.804 76.0732 262.285Z" fill="#D7CDBA"/>
<path d="M47.8248 253.895C45.9901 251.853 45.6401 248.619 46.8186 247.56C47.0935 247.313 47.5998 247.284 48.0232 247.756L54.9385 255.455C55.9475 255.116 56.9135 254.532 57.817 253.721C61.1559 250.722 61.5859 246.539 58.534 243.141C56.3818 240.745 53.34 240.993 51.7894 241.321L51.7621 241.133C53.554 240.836 56.6804 240.406 59.4324 243.469C62.4843 246.867 62.2403 251.416 58.8425 254.468C55.4251 257.537 50.8767 257.293 47.8248 253.895ZM54.805 255.504L48.7718 248.786C48.2249 248.178 47.5535 248.497 47.2589 248.761C46.2376 249.679 46.4079 252.081 47.9426 253.79C49.742 255.793 52.3297 256.343 54.805 255.504Z" fill="#D7CDBA"/>
<path d="M37.1214 240.014C38.2737 241.624 40.3431 242.61 42.3072 242.633L51.0879 236.349C51.9895 235.704 51.5314 234.7 51.3009 234.378L51.4082 234.302L53.8204 237.672L53.7131 237.749C53.4826 237.427 52.6809 236.67 51.7793 237.315L43.5997 243.169C42.6981 243.814 42.6031 244.044 43.0333 244.645L42.9045 244.738L40.4458 244.16L40.3536 244.031L42.0926 242.786C40.3831 242.711 38.2003 241.839 36.8636 239.971C35.7113 238.361 35.2459 236.259 35.89 235.798C36.1905 235.583 36.5957 235.65 36.7801 235.908C37.4254 236.809 35.3545 237.545 37.1214 240.014Z" fill="#D7CDBA"/>
<path d="M33.0691 230.925L40.9929 220.681L28.1604 222.055C27.0912 222.197 27.4281 223.127 27.6079 223.45L27.4695 223.527L25.9283 220.759L26.0667 220.682C26.2593 221.028 26.9783 222.048 28.1192 221.926L42.4926 220.389L42.5825 220.551L33.7061 231.96C33.0018 232.866 33.5158 234.06 33.7084 234.406L33.57 234.483L31.5023 230.77L31.6407 230.693C31.8333 231.039 32.4314 231.733 33.0691 230.925Z" fill="#D7CDBA"/>
<path d="M26.4846 217.596L24.1849 216.552L24.1195 216.408L36.1415 210.957C37.1513 210.499 36.8967 209.426 36.7332 209.065L36.8774 209L38.589 212.775L38.4448 212.84C38.2812 212.479 37.6419 211.581 36.6321 212.039L27.4713 216.192C26.4615 216.65 26.3236 216.858 26.6289 217.531L26.4846 217.596ZM22.3013 219.174C21.7963 219.403 21.2 219.239 20.9602 218.71C20.7313 218.205 21.0005 217.648 21.5054 217.419C21.9863 217.201 22.5586 217.376 22.7875 217.881C23.0274 218.41 22.7821 218.956 22.3013 219.174Z" fill="#D7CDBA"/>
<path d="M33.8447 199.961C35.3745 204.265 33.4186 208.378 29.1152 209.908C24.787 211.447 20.6734 209.491 19.1436 205.188C18.3477 202.949 18.4965 200.767 19.4297 198.978L20.507 199.407C19.6441 200.527 18.2936 202.324 19.2928 205.135C20.5751 208.741 24.4709 210.242 28.4509 208.828C32.6796 207.324 34.4935 203.205 33.2112 199.598C32.0351 196.29 29.1525 195.353 27.5849 195.042L27.6153 194.891C29.4101 195.29 32.4652 196.081 33.8447 199.961Z" fill="#D7CDBA"/>
<path d="M14.1905 187.571C13.6037 184.889 14.8964 181.904 16.4438 181.565C16.8048 181.486 17.2594 181.711 17.3948 182.33L19.6065 192.44C20.651 192.643 21.7793 192.613 22.9656 192.353C27.35 191.394 29.7895 187.969 28.8134 183.507C28.1251 180.361 25.3575 179.075 23.8471 178.594L23.9164 178.417C25.621 179.044 28.5522 180.213 29.4324 184.237C30.4085 188.698 27.9504 192.533 23.4887 193.509C19.0012 194.491 15.1665 192.033 14.1905 187.571ZM19.4662 192.416L17.5367 183.596C17.3618 182.797 16.6203 182.743 16.2334 182.827C14.8924 183.121 13.8543 185.293 14.3452 187.537C14.9207 190.168 16.8993 191.924 19.4662 192.416Z" fill="#D7CDBA"/>
<path d="M13.4417 165.128L14.3821 165.807C13.2726 166.683 11.5177 168.018 11.8404 171.382C12.1278 174.378 13.7173 176.294 15.5568 176.117C20.2083 175.671 17.2231 164.182 22.2161 163.703C24.2396 163.509 26.7625 165.203 27.1886 169.644C27.4433 172.298 26.6013 174.58 25.4448 176.07L24.5069 175.418C25.6427 174.54 27.3976 173.204 27.0572 169.657C26.7396 166.345 25.041 164.122 23.0963 164.308C18.2609 164.772 21.6692 176.247 16.3607 176.756C14.5737 176.928 12.076 175.496 11.6827 171.397C11.4105 168.559 12.2851 166.618 13.4417 165.128Z" fill="#D7CDBA"/>
<path d="M25.0451 141.327L21.3778 140.689L21.4005 140.559C25.0678 141.197 27.6372 138.75 28.3522 134.641C29.0899 130.401 27.8258 127.502 25.8751 127.162C20.4652 126.221 19.2587 140.24 13.3025 139.204C10.7796 138.765 8.54641 136.045 9.32929 131.545C9.92663 128.112 11.6977 126.25 12.7302 125.09L16.3975 125.728L16.3749 125.858C12.7076 125.22 10.1743 127.459 9.45933 131.568C8.73076 135.756 10.7729 137.879 12.3855 138.16C18.3676 139.201 19.5346 125.255 24.8664 126.183C27.3633 126.617 29.3874 129.462 28.4823 134.663C27.8804 138.123 26.0777 140.167 25.0451 141.327Z" fill="#D7CDBA"/>
<path d="M17.7992 112.729C18.6179 110.108 21.2195 108.155 22.7315 108.627C23.0842 108.738 23.3678 109.158 23.1788 109.763L20.0927 119.641C20.8991 120.335 21.8945 120.868 23.0536 121.23C27.3374 122.568 31.1533 120.801 32.5152 116.441C33.4757 113.367 31.7085 110.879 30.6343 109.714L30.7824 109.594C31.9526 110.983 33.9198 113.451 32.6917 117.382C31.3297 121.741 27.295 123.855 22.9356 122.493C18.551 121.123 16.4372 117.088 17.7992 112.729ZM19.9825 119.551L22.6749 110.933C22.919 110.152 22.3016 109.738 21.9236 109.62C20.6133 109.21 18.6353 110.584 17.9504 112.776C17.1474 115.346 17.9964 117.852 19.9825 119.551Z" fill="#D7CDBA"/>
<path d="M24.2861 96.4054C23.488 98.2175 23.6941 100.501 24.6755 102.202L34.5571 106.554C35.5719 107.001 36.2014 106.096 36.361 105.733L36.4819 105.787L34.8112 109.58L34.6904 109.527C34.85 109.164 35.093 108.088 34.0783 107.641L24.8731 103.587C23.8584 103.14 23.6119 103.176 23.314 103.853L23.169 103.789L22.413 101.379L22.4769 101.234L24.4339 102.096C23.6273 100.587 23.2657 98.2638 24.1915 96.1618C24.9895 94.3498 26.5607 92.8783 27.2856 93.1975C27.6238 93.3465 27.7725 93.7293 27.6448 94.0192C27.1979 95.0339 25.5098 93.627 24.2861 96.4054Z" fill="#D7CDBA"/>
<path d="M30.0353 88.2978L42.8867 89.899L35.1682 79.5557C34.5014 78.708 33.8722 79.4718 33.6859 79.791L33.5491 79.7111L35.146 76.975L35.2828 77.0549C35.0832 77.3969 34.5717 78.5351 35.2575 79.455L43.9012 91.0413L43.8081 91.2009L29.4687 89.3733C28.3305 89.2286 27.5644 90.2792 27.3648 90.6213L27.228 90.5414L29.3705 86.8705L29.5073 86.9504C29.3077 87.2924 29.0149 88.1607 30.0353 88.2978Z" fill="#D7CDBA"/>
<path d="M38.1591 75.8424L37.8856 73.3315L37.9764 73.2017L48.7932 80.7673C49.7018 81.4028 50.4952 80.6369 50.7222 80.3124L50.852 80.4032L48.4764 83.7996L48.3466 83.7088C48.5736 83.3843 49.0209 82.3763 48.1123 81.7408L39.8699 75.9759C38.9613 75.3403 38.7126 75.3275 38.2889 75.9332L38.1591 75.8424ZM34.6695 73.0473C34.2152 72.7295 34.0527 72.1327 34.3856 71.6567C34.7034 71.2024 35.3198 71.1503 35.7741 71.468C36.2067 71.7707 36.3475 72.3524 36.0298 72.8067C35.6969 73.2826 35.1022 73.3499 34.6695 73.0473Z" fill="#D7CDBA"/>
<path d="M57.0666 73.1914C54.1474 76.7039 49.6117 77.1223 46.0992 74.203C42.5665 71.2669 42.1481 66.7313 45.0673 63.2188C46.586 61.3915 48.5384 60.4053 50.5529 60.2945L50.7335 61.4401C49.3305 61.2696 47.0959 61.0258 45.1891 63.3201C42.7424 66.264 43.4408 70.3802 46.6893 73.08C50.1409 75.9486 54.6087 75.4053 57.0555 72.4613C59.2997 69.761 58.6333 66.8042 58.1006 65.2973L58.2459 65.2464C58.8195 66.9932 59.6989 70.0241 57.0666 73.1914Z" fill="#D7CDBA"/>
<path d="M57.6709 49.9717C59.675 48.095 62.9012 47.6779 63.9839 48.8341C64.2366 49.1039 64.276 49.6095 63.8135 50.0425L56.2597 57.1162C56.6191 58.118 57.2228 59.0717 58.0529 59.9581C61.1205 63.234 65.3118 63.577 68.6455 60.4552C70.9964 58.2537 70.6852 55.2177 70.3249 53.6743L70.5127 53.6431C70.8463 55.4284 71.3417 58.5452 68.3356 61.3602C65.0019 64.482 60.4494 64.3326 57.3276 60.9989C54.1878 57.6459 54.3372 53.0935 57.6709 49.9717ZM56.208 56.9838L62.7984 50.8124C63.3957 50.253 63.0627 49.5883 62.792 49.2993C61.8536 48.2972 59.4557 48.5174 57.7792 50.0873C55.8136 51.9279 55.3174 54.5265 56.208 56.9838Z" fill="#D7CDBA"/>
<path d="M76.5493 37.8305L76.4483 38.9859C75.1279 38.4819 73.0819 37.6593 70.3588 39.6603C67.9336 41.4425 67.1028 43.7893 68.1971 45.2785C70.9641 49.044 79.2998 40.5925 82.27 44.6345C83.4737 46.2726 83.3121 49.3072 79.7168 51.9491C77.5682 53.5281 75.1771 53.9746 73.3049 53.7451L73.3847 52.6054C74.7207 53.1306 76.7667 53.9532 79.6386 51.8428C82.3191 49.873 83.3583 47.2747 82.2015 45.7005C79.3251 41.7861 71.2183 50.5935 68.0605 46.2962C66.9974 44.8496 66.9463 41.9714 70.2651 39.5327C72.5626 37.8443 74.6771 37.601 76.5493 37.8305Z" fill="#D7CDBA"/>
<defs>
<clipPath id="clip0_576_3584">
<rect width="313.74" height="313.74" fill="white"/>
</clipPath>
</defs>
</svg>
