<svg width="42" height="43" viewBox="0 0 42 43" fill="none" xmlns="http://www.w3.org/2000/svg">
<path opacity="0.75" d="M20.9427 0.891113C32.449 0.891113 41.7761 10.2182 41.7761 21.7244C41.7761 33.2307 32.449 42.5578 20.9427 42.5578C17.261 42.5637 13.6441 41.5894 10.4636 39.7349L0.117738 42.5578L2.9344 32.2078C1.07835 29.0263 0.103253 25.4078 0.109404 21.7244C0.109404 10.2182 9.43649 0.891113 20.9427 0.891113ZM13.8427 11.9328L13.4261 11.9494C13.1563 11.9659 12.8927 12.0367 12.6511 12.1578C12.4251 12.2858 12.2188 12.4457 12.0386 12.6328C11.7886 12.8682 11.6469 13.0724 11.4948 13.2703C10.7242 14.2722 10.3093 15.5022 10.3157 16.7661C10.3198 17.7869 10.5865 18.7807 11.0032 19.7099C11.8552 21.589 13.2573 23.5786 15.1073 25.4224C15.5532 25.8661 15.9907 26.3119 16.4615 26.7265C18.7602 28.7504 21.4995 30.2099 24.4615 30.989L25.6448 31.1703C26.0302 31.1911 26.4157 31.1619 26.8032 31.1432C27.4099 31.1119 28.0023 30.9476 28.5386 30.6619C28.8114 30.5214 29.0776 30.3685 29.3365 30.2036C29.3365 30.2036 29.4261 30.1453 29.5969 30.0161C29.8782 29.8078 30.0511 29.6599 30.2844 29.4161C30.4573 29.2369 30.6073 29.0265 30.7219 28.7869C30.8844 28.4474 31.0469 27.7994 31.1136 27.2599C31.1636 26.8474 31.149 26.6224 31.1427 26.4828C31.1344 26.2599 30.949 26.0286 30.7469 25.9307L29.5344 25.3869C29.5344 25.3869 27.7219 24.5974 26.6136 24.0932C26.4976 24.0426 26.3733 24.0136 26.2469 24.0078C26.1044 23.9931 25.9603 24.0092 25.8245 24.0548C25.6887 24.1005 25.5642 24.1746 25.4594 24.2724C25.449 24.2682 25.3094 24.3869 23.8032 26.2119C23.7167 26.3281 23.5976 26.4159 23.4611 26.4641C23.3245 26.5124 23.1767 26.5189 23.0365 26.4828C22.9008 26.4464 22.7678 26.4004 22.6386 26.3453C22.3802 26.2369 22.2907 26.1953 22.1136 26.1203C20.9179 25.5985 19.8108 24.8935 18.8323 24.0307C18.5698 23.8015 18.3261 23.5515 18.0761 23.3099C17.2565 22.5249 16.5422 21.637 15.9511 20.6682L15.8282 20.4703C15.7399 20.3373 15.6685 20.1938 15.6157 20.0432C15.5365 19.7369 15.7427 19.4911 15.7427 19.4911C15.7427 19.4911 16.249 18.9369 16.4844 18.6369C16.7136 18.3453 16.9073 18.0619 17.0323 17.8599C17.2782 17.464 17.3552 17.0578 17.2261 16.7432C16.6427 15.3182 16.0386 13.8994 15.4177 12.4911C15.2948 12.2119 14.9302 12.0119 14.599 11.9724C14.4865 11.9599 14.374 11.9474 14.2615 11.939C13.9817 11.9251 13.7014 11.9279 13.4219 11.9474L13.8407 11.9307L13.8427 11.9328Z" fill="#D7CDBA"/>
</svg>
